%TF.GenerationSoftware,KiCad,Pcbnew,(6.0.11)*%
%TF.CreationDate,2023-02-22T07:38:14-06:00*%
%TF.ProjectId,HIDPanel,48494450-616e-4656-9c2e-6b696361645f,rev?*%
%TF.SameCoordinates,Original*%
%TF.FileFunction,Legend,Top*%
%TF.FilePolarity,Positive*%
%FSLAX46Y46*%
G04 Gerber Fmt 4.6, Leading zero omitted, Abs format (unit mm)*
G04 Created by KiCad (PCBNEW (6.0.11)) date 2023-02-22 07:38:14*
%MOMM*%
%LPD*%
G01*
G04 APERTURE LIST*
%ADD10C,0.150000*%
%ADD11C,0.120000*%
G04 APERTURE END LIST*
D10*
X203200000Y-121920000D02*
X86360000Y-121920000D01*
X203200000Y-76200000D02*
X86360000Y-76200000D01*
X88900000Y-147340000D02*
X88900000Y-71120000D01*
X116840000Y-144780000D02*
X116840000Y-55880000D01*
X203200000Y-99060000D02*
X86360000Y-99060000D01*
X144780000Y-144780000D02*
X144780000Y-53340000D01*
X172720000Y-144780000D02*
X172720000Y-53340000D01*
X117213904Y-42870380D02*
X116880571Y-42394190D01*
X116642476Y-42870380D02*
X116642476Y-41870380D01*
X117023428Y-41870380D01*
X117118666Y-41918000D01*
X117166285Y-41965619D01*
X117213904Y-42060857D01*
X117213904Y-42203714D01*
X117166285Y-42298952D01*
X117118666Y-42346571D01*
X117023428Y-42394190D01*
X116642476Y-42394190D01*
X117594857Y-42584666D02*
X118071047Y-42584666D01*
X117499619Y-42870380D02*
X117832952Y-41870380D01*
X118166285Y-42870380D01*
X118452000Y-42822761D02*
X118594857Y-42870380D01*
X118832952Y-42870380D01*
X118928190Y-42822761D01*
X118975809Y-42775142D01*
X119023428Y-42679904D01*
X119023428Y-42584666D01*
X118975809Y-42489428D01*
X118928190Y-42441809D01*
X118832952Y-42394190D01*
X118642476Y-42346571D01*
X118547238Y-42298952D01*
X118499619Y-42251333D01*
X118452000Y-42156095D01*
X118452000Y-42060857D01*
X118499619Y-41965619D01*
X118547238Y-41918000D01*
X118642476Y-41870380D01*
X118880571Y-41870380D01*
X119023428Y-41918000D01*
X119452000Y-42870380D02*
X119452000Y-41870380D01*
X119832952Y-41870380D01*
X119928190Y-41918000D01*
X119975809Y-41965619D01*
X120023428Y-42060857D01*
X120023428Y-42203714D01*
X119975809Y-42298952D01*
X119928190Y-42346571D01*
X119832952Y-42394190D01*
X119452000Y-42394190D01*
X120785333Y-42346571D02*
X120928190Y-42394190D01*
X120975809Y-42441809D01*
X121023428Y-42537047D01*
X121023428Y-42679904D01*
X120975809Y-42775142D01*
X120928190Y-42822761D01*
X120832952Y-42870380D01*
X120452000Y-42870380D01*
X120452000Y-41870380D01*
X120785333Y-41870380D01*
X120880571Y-41918000D01*
X120928190Y-41965619D01*
X120975809Y-42060857D01*
X120975809Y-42156095D01*
X120928190Y-42251333D01*
X120880571Y-42298952D01*
X120785333Y-42346571D01*
X120452000Y-42346571D01*
X121452000Y-42346571D02*
X121785333Y-42346571D01*
X121928190Y-42870380D02*
X121452000Y-42870380D01*
X121452000Y-41870380D01*
X121928190Y-41870380D01*
X122928190Y-42870380D02*
X122594857Y-42394190D01*
X122356761Y-42870380D02*
X122356761Y-41870380D01*
X122737714Y-41870380D01*
X122832952Y-41918000D01*
X122880571Y-41965619D01*
X122928190Y-42060857D01*
X122928190Y-42203714D01*
X122880571Y-42298952D01*
X122832952Y-42346571D01*
X122737714Y-42394190D01*
X122356761Y-42394190D01*
X123928190Y-42870380D02*
X123594857Y-42394190D01*
X123356761Y-42870380D02*
X123356761Y-41870380D01*
X123737714Y-41870380D01*
X123832952Y-41918000D01*
X123880571Y-41965619D01*
X123928190Y-42060857D01*
X123928190Y-42203714D01*
X123880571Y-42298952D01*
X123832952Y-42346571D01*
X123737714Y-42394190D01*
X123356761Y-42394190D01*
X124547238Y-42394190D02*
X124547238Y-42870380D01*
X124213904Y-41870380D02*
X124547238Y-42394190D01*
X124880571Y-41870380D01*
X125975809Y-42870380D02*
X125975809Y-41870380D01*
X126356761Y-41870380D01*
X126452000Y-41918000D01*
X126499619Y-41965619D01*
X126547238Y-42060857D01*
X126547238Y-42203714D01*
X126499619Y-42298952D01*
X126452000Y-42346571D01*
X126356761Y-42394190D01*
X125975809Y-42394190D01*
X126975809Y-42870380D02*
X126975809Y-41870380D01*
X128213904Y-42870380D02*
X128213904Y-41870380D01*
X128594857Y-41870380D01*
X128690095Y-41918000D01*
X128737714Y-41965619D01*
X128785333Y-42060857D01*
X128785333Y-42203714D01*
X128737714Y-42298952D01*
X128690095Y-42346571D01*
X128594857Y-42394190D01*
X128213904Y-42394190D01*
X129213904Y-42870380D02*
X129213904Y-41870380D01*
X130261523Y-42775142D02*
X130213904Y-42822761D01*
X130071047Y-42870380D01*
X129975809Y-42870380D01*
X129832952Y-42822761D01*
X129737714Y-42727523D01*
X129690095Y-42632285D01*
X129642476Y-42441809D01*
X129642476Y-42298952D01*
X129690095Y-42108476D01*
X129737714Y-42013238D01*
X129832952Y-41918000D01*
X129975809Y-41870380D01*
X130071047Y-41870380D01*
X130213904Y-41918000D01*
X130261523Y-41965619D01*
X130880571Y-41870380D02*
X131071047Y-41870380D01*
X131166285Y-41918000D01*
X131261523Y-42013238D01*
X131309142Y-42203714D01*
X131309142Y-42537047D01*
X131261523Y-42727523D01*
X131166285Y-42822761D01*
X131071047Y-42870380D01*
X130880571Y-42870380D01*
X130785333Y-42822761D01*
X130690095Y-42727523D01*
X130642476Y-42537047D01*
X130642476Y-42203714D01*
X130690095Y-42013238D01*
X130785333Y-41918000D01*
X130880571Y-41870380D01*
X142537619Y-20342380D02*
X142537619Y-19342380D01*
X142537619Y-19818571D02*
X143109047Y-19818571D01*
X143109047Y-20342380D02*
X143109047Y-19342380D01*
X143585238Y-20342380D02*
X143585238Y-19342380D01*
X144061428Y-20342380D02*
X144061428Y-19342380D01*
X144299523Y-19342380D01*
X144442380Y-19390000D01*
X144537619Y-19485238D01*
X144585238Y-19580476D01*
X144632857Y-19770952D01*
X144632857Y-19913809D01*
X144585238Y-20104285D01*
X144537619Y-20199523D01*
X144442380Y-20294761D01*
X144299523Y-20342380D01*
X144061428Y-20342380D01*
X145061428Y-20342380D02*
X145061428Y-19342380D01*
X145442380Y-19342380D01*
X145537619Y-19390000D01*
X145585238Y-19437619D01*
X145632857Y-19532857D01*
X145632857Y-19675714D01*
X145585238Y-19770952D01*
X145537619Y-19818571D01*
X145442380Y-19866190D01*
X145061428Y-19866190D01*
X146013809Y-20056666D02*
X146490000Y-20056666D01*
X145918571Y-20342380D02*
X146251904Y-19342380D01*
X146585238Y-20342380D01*
X146918571Y-20342380D02*
X146918571Y-19342380D01*
X147490000Y-20342380D01*
X147490000Y-19342380D01*
X147966190Y-19818571D02*
X148299523Y-19818571D01*
X148442380Y-20342380D02*
X147966190Y-20342380D01*
X147966190Y-19342380D01*
X148442380Y-19342380D01*
X149347142Y-20342380D02*
X148870952Y-20342380D01*
X148870952Y-19342380D01*
X149728095Y-20294761D02*
X149728095Y-20342380D01*
X149680476Y-20437619D01*
X149632857Y-20485238D01*
X150775714Y-19342380D02*
X151109047Y-20342380D01*
X151442380Y-19342380D01*
X151775714Y-19818571D02*
X152109047Y-19818571D01*
X152251904Y-20342380D02*
X151775714Y-20342380D01*
X151775714Y-19342380D01*
X152251904Y-19342380D01*
X153251904Y-20342380D02*
X152918571Y-19866190D01*
X152680476Y-20342380D02*
X152680476Y-19342380D01*
X153061428Y-19342380D01*
X153156666Y-19390000D01*
X153204285Y-19437619D01*
X153251904Y-19532857D01*
X153251904Y-19675714D01*
X153204285Y-19770952D01*
X153156666Y-19818571D01*
X153061428Y-19866190D01*
X152680476Y-19866190D01*
X153632857Y-20294761D02*
X153775714Y-20342380D01*
X154013809Y-20342380D01*
X154109047Y-20294761D01*
X154156666Y-20247142D01*
X154204285Y-20151904D01*
X154204285Y-20056666D01*
X154156666Y-19961428D01*
X154109047Y-19913809D01*
X154013809Y-19866190D01*
X153823333Y-19818571D01*
X153728095Y-19770952D01*
X153680476Y-19723333D01*
X153632857Y-19628095D01*
X153632857Y-19532857D01*
X153680476Y-19437619D01*
X153728095Y-19390000D01*
X153823333Y-19342380D01*
X154061428Y-19342380D01*
X154204285Y-19390000D01*
X154632857Y-20342380D02*
X154632857Y-19342380D01*
X155299523Y-19342380D02*
X155490000Y-19342380D01*
X155585238Y-19390000D01*
X155680476Y-19485238D01*
X155728095Y-19675714D01*
X155728095Y-20009047D01*
X155680476Y-20199523D01*
X155585238Y-20294761D01*
X155490000Y-20342380D01*
X155299523Y-20342380D01*
X155204285Y-20294761D01*
X155109047Y-20199523D01*
X155061428Y-20009047D01*
X155061428Y-19675714D01*
X155109047Y-19485238D01*
X155204285Y-19390000D01*
X155299523Y-19342380D01*
X156156666Y-20342380D02*
X156156666Y-19342380D01*
X156728095Y-20342380D01*
X156728095Y-19342380D01*
X158490000Y-20342380D02*
X157918571Y-20342380D01*
X158204285Y-20342380D02*
X158204285Y-19342380D01*
X158109047Y-19485238D01*
X158013809Y-19580476D01*
X157918571Y-19628095D01*
X143323333Y-21428571D02*
X143466190Y-21476190D01*
X143513809Y-21523809D01*
X143561428Y-21619047D01*
X143561428Y-21761904D01*
X143513809Y-21857142D01*
X143466190Y-21904761D01*
X143370952Y-21952380D01*
X142990000Y-21952380D01*
X142990000Y-20952380D01*
X143323333Y-20952380D01*
X143418571Y-21000000D01*
X143466190Y-21047619D01*
X143513809Y-21142857D01*
X143513809Y-21238095D01*
X143466190Y-21333333D01*
X143418571Y-21380952D01*
X143323333Y-21428571D01*
X142990000Y-21428571D01*
X144180476Y-21476190D02*
X144180476Y-21952380D01*
X143847142Y-20952380D02*
X144180476Y-21476190D01*
X144513809Y-20952380D01*
X145609047Y-21952380D02*
X145609047Y-20952380D01*
X145847142Y-20952380D01*
X145990000Y-21000000D01*
X146085238Y-21095238D01*
X146132857Y-21190476D01*
X146180476Y-21380952D01*
X146180476Y-21523809D01*
X146132857Y-21714285D01*
X146085238Y-21809523D01*
X145990000Y-21904761D01*
X145847142Y-21952380D01*
X145609047Y-21952380D01*
X146561428Y-21666666D02*
X147037619Y-21666666D01*
X146466190Y-21952380D02*
X146799523Y-20952380D01*
X147132857Y-21952380D01*
X147466190Y-21952380D02*
X147466190Y-20952380D01*
X148037619Y-21952380D01*
X148037619Y-20952380D01*
X148513809Y-21952380D02*
X148513809Y-20952380D01*
X148990000Y-21428571D02*
X149323333Y-21428571D01*
X149466190Y-21952380D02*
X148990000Y-21952380D01*
X148990000Y-20952380D01*
X149466190Y-20952380D01*
X150370952Y-21952380D02*
X149894761Y-21952380D01*
X149894761Y-20952380D01*
X151942380Y-21952380D02*
X151466190Y-21952380D01*
X151466190Y-20952380D01*
X152275714Y-21857142D02*
X152323333Y-21904761D01*
X152275714Y-21952380D01*
X152228095Y-21904761D01*
X152275714Y-21857142D01*
X152275714Y-21952380D01*
X153513809Y-21952380D02*
X153513809Y-20952380D01*
X153847142Y-21666666D01*
X154180476Y-20952380D01*
X154180476Y-21952380D01*
X154609047Y-21666666D02*
X155085238Y-21666666D01*
X154513809Y-21952380D02*
X154847142Y-20952380D01*
X155180476Y-21952380D01*
X156085238Y-21952380D02*
X155751904Y-21476190D01*
X155513809Y-21952380D02*
X155513809Y-20952380D01*
X155894761Y-20952380D01*
X155990000Y-21000000D01*
X156037619Y-21047619D01*
X156085238Y-21142857D01*
X156085238Y-21285714D01*
X156037619Y-21380952D01*
X155990000Y-21428571D01*
X155894761Y-21476190D01*
X155513809Y-21476190D01*
X156513809Y-21952380D02*
X156513809Y-20952380D01*
X157085238Y-21952380D02*
X156656666Y-21380952D01*
X157085238Y-20952380D02*
X156513809Y-21523809D01*
X157466190Y-21904761D02*
X157609047Y-21952380D01*
X157847142Y-21952380D01*
X157942380Y-21904761D01*
X157990000Y-21857142D01*
X158037619Y-21761904D01*
X158037619Y-21666666D01*
X157990000Y-21571428D01*
X157942380Y-21523809D01*
X157847142Y-21476190D01*
X157656666Y-21428571D01*
X157561428Y-21380952D01*
X157513809Y-21333333D01*
X157466190Y-21238095D01*
X157466190Y-21142857D01*
X157513809Y-21047619D01*
X157561428Y-21000000D01*
X157656666Y-20952380D01*
X157894761Y-20952380D01*
X158037619Y-21000000D01*
X145656666Y-23467142D02*
X145609047Y-23514761D01*
X145466190Y-23562380D01*
X145370952Y-23562380D01*
X145228095Y-23514761D01*
X145132857Y-23419523D01*
X145085238Y-23324285D01*
X145037619Y-23133809D01*
X145037619Y-22990952D01*
X145085238Y-22800476D01*
X145132857Y-22705238D01*
X145228095Y-22610000D01*
X145370952Y-22562380D01*
X145466190Y-22562380D01*
X145609047Y-22610000D01*
X145656666Y-22657619D01*
X146656666Y-23467142D02*
X146609047Y-23514761D01*
X146466190Y-23562380D01*
X146370952Y-23562380D01*
X146228095Y-23514761D01*
X146132857Y-23419523D01*
X146085238Y-23324285D01*
X146037619Y-23133809D01*
X146037619Y-22990952D01*
X146085238Y-22800476D01*
X146132857Y-22705238D01*
X146228095Y-22610000D01*
X146370952Y-22562380D01*
X146466190Y-22562380D01*
X146609047Y-22610000D01*
X146656666Y-22657619D01*
X147085238Y-23181428D02*
X147847142Y-23181428D01*
X148656666Y-23038571D02*
X148799523Y-23086190D01*
X148847142Y-23133809D01*
X148894761Y-23229047D01*
X148894761Y-23371904D01*
X148847142Y-23467142D01*
X148799523Y-23514761D01*
X148704285Y-23562380D01*
X148323333Y-23562380D01*
X148323333Y-22562380D01*
X148656666Y-22562380D01*
X148751904Y-22610000D01*
X148799523Y-22657619D01*
X148847142Y-22752857D01*
X148847142Y-22848095D01*
X148799523Y-22943333D01*
X148751904Y-22990952D01*
X148656666Y-23038571D01*
X148323333Y-23038571D01*
X149513809Y-23086190D02*
X149513809Y-23562380D01*
X149180476Y-22562380D02*
X149513809Y-23086190D01*
X149847142Y-22562380D01*
X150180476Y-23181428D02*
X150942380Y-23181428D01*
X151370952Y-23514761D02*
X151513809Y-23562380D01*
X151751904Y-23562380D01*
X151847142Y-23514761D01*
X151894761Y-23467142D01*
X151942380Y-23371904D01*
X151942380Y-23276666D01*
X151894761Y-23181428D01*
X151847142Y-23133809D01*
X151751904Y-23086190D01*
X151561428Y-23038571D01*
X151466190Y-22990952D01*
X151418571Y-22943333D01*
X151370952Y-22848095D01*
X151370952Y-22752857D01*
X151418571Y-22657619D01*
X151466190Y-22610000D01*
X151561428Y-22562380D01*
X151799523Y-22562380D01*
X151942380Y-22610000D01*
X152323333Y-23276666D02*
X152799523Y-23276666D01*
X152228095Y-23562380D02*
X152561428Y-22562380D01*
X152894761Y-23562380D01*
X154418571Y-22895714D02*
X154418571Y-23562380D01*
X154180476Y-22514761D02*
X153942380Y-23229047D01*
X154561428Y-23229047D01*
X154942380Y-23467142D02*
X154990000Y-23514761D01*
X154942380Y-23562380D01*
X154894761Y-23514761D01*
X154942380Y-23467142D01*
X154942380Y-23562380D01*
X155609047Y-22562380D02*
X155704285Y-22562380D01*
X155799523Y-22610000D01*
X155847142Y-22657619D01*
X155894761Y-22752857D01*
X155942380Y-22943333D01*
X155942380Y-23181428D01*
X155894761Y-23371904D01*
X155847142Y-23467142D01*
X155799523Y-23514761D01*
X155704285Y-23562380D01*
X155609047Y-23562380D01*
X155513809Y-23514761D01*
X155466190Y-23467142D01*
X155418571Y-23371904D01*
X155370952Y-23181428D01*
X155370952Y-22943333D01*
X155418571Y-22752857D01*
X155466190Y-22657619D01*
X155513809Y-22610000D01*
X155609047Y-22562380D01*
X179761714Y-42787095D02*
X180428380Y-42787095D01*
X179380761Y-43025190D02*
X180095047Y-43263285D01*
X180095047Y-42644238D01*
X179428380Y-42072809D02*
X179428380Y-41977571D01*
X179476000Y-41882333D01*
X179523619Y-41834714D01*
X179618857Y-41787095D01*
X179809333Y-41739476D01*
X180047428Y-41739476D01*
X180237904Y-41787095D01*
X180333142Y-41834714D01*
X180380761Y-41882333D01*
X180428380Y-41977571D01*
X180428380Y-42072809D01*
X180380761Y-42168047D01*
X180333142Y-42215666D01*
X180237904Y-42263285D01*
X180047428Y-42310904D01*
X179809333Y-42310904D01*
X179618857Y-42263285D01*
X179523619Y-42215666D01*
X179476000Y-42168047D01*
X179428380Y-42072809D01*
X179428380Y-40834714D02*
X179428380Y-41310904D01*
X179904571Y-41358523D01*
X179856952Y-41310904D01*
X179809333Y-41215666D01*
X179809333Y-40977571D01*
X179856952Y-40882333D01*
X179904571Y-40834714D01*
X179999809Y-40787095D01*
X180237904Y-40787095D01*
X180333142Y-40834714D01*
X180380761Y-40882333D01*
X180428380Y-40977571D01*
X180428380Y-41215666D01*
X180380761Y-41310904D01*
X180333142Y-41358523D01*
X180428380Y-39834714D02*
X180428380Y-40406142D01*
X180428380Y-40120428D02*
X179428380Y-40120428D01*
X179571238Y-40215666D01*
X179666476Y-40310904D01*
X179714095Y-40406142D01*
X143625714Y-33352380D02*
X143054285Y-33352380D01*
X143340000Y-33352380D02*
X143340000Y-32352380D01*
X143244761Y-32495238D01*
X143149523Y-32590476D01*
X143054285Y-32638095D01*
X149092380Y-45696666D02*
X149092380Y-45030000D01*
X150092380Y-45458571D01*
X149425714Y-44220476D02*
X150092380Y-44220476D01*
X149044761Y-44458571D02*
X149759047Y-44696666D01*
X149759047Y-44077619D01*
X150092380Y-43696666D02*
X149092380Y-43696666D01*
X149568571Y-43696666D02*
X149568571Y-43125238D01*
X150092380Y-43125238D02*
X149092380Y-43125238D01*
X149997142Y-42077619D02*
X150044761Y-42125238D01*
X150092380Y-42268095D01*
X150092380Y-42363333D01*
X150044761Y-42506190D01*
X149949523Y-42601428D01*
X149854285Y-42649047D01*
X149663809Y-42696666D01*
X149520952Y-42696666D01*
X149330476Y-42649047D01*
X149235238Y-42601428D01*
X149140000Y-42506190D01*
X149092380Y-42363333D01*
X149092380Y-42268095D01*
X149140000Y-42125238D01*
X149187619Y-42077619D01*
X149092380Y-41791904D02*
X149092380Y-41220476D01*
X150092380Y-41506190D02*
X149092380Y-41506190D01*
X149092380Y-40696666D02*
X149092380Y-40601428D01*
X149140000Y-40506190D01*
X149187619Y-40458571D01*
X149282857Y-40410952D01*
X149473333Y-40363333D01*
X149711428Y-40363333D01*
X149901904Y-40410952D01*
X149997142Y-40458571D01*
X150044761Y-40506190D01*
X150092380Y-40601428D01*
X150092380Y-40696666D01*
X150044761Y-40791904D01*
X149997142Y-40839523D01*
X149901904Y-40887142D01*
X149711428Y-40934761D01*
X149473333Y-40934761D01*
X149282857Y-40887142D01*
X149187619Y-40839523D01*
X149140000Y-40791904D01*
X149092380Y-40696666D01*
X149520952Y-39791904D02*
X149473333Y-39887142D01*
X149425714Y-39934761D01*
X149330476Y-39982380D01*
X149282857Y-39982380D01*
X149187619Y-39934761D01*
X149140000Y-39887142D01*
X149092380Y-39791904D01*
X149092380Y-39601428D01*
X149140000Y-39506190D01*
X149187619Y-39458571D01*
X149282857Y-39410952D01*
X149330476Y-39410952D01*
X149425714Y-39458571D01*
X149473333Y-39506190D01*
X149520952Y-39601428D01*
X149520952Y-39791904D01*
X149568571Y-39887142D01*
X149616190Y-39934761D01*
X149711428Y-39982380D01*
X149901904Y-39982380D01*
X149997142Y-39934761D01*
X150044761Y-39887142D01*
X150092380Y-39791904D01*
X150092380Y-39601428D01*
X150044761Y-39506190D01*
X149997142Y-39458571D01*
X149901904Y-39410952D01*
X149711428Y-39410952D01*
X149616190Y-39458571D01*
X149568571Y-39506190D01*
X149520952Y-39601428D01*
X88995714Y-55872380D02*
X88424285Y-55872380D01*
X88710000Y-55872380D02*
X88710000Y-54872380D01*
X88614761Y-55015238D01*
X88519523Y-55110476D01*
X88424285Y-55158095D01*
X159135714Y-33062380D02*
X158564285Y-33062380D01*
X158850000Y-33062380D02*
X158850000Y-32062380D01*
X158754761Y-32205238D01*
X158659523Y-32300476D01*
X158564285Y-32348095D01*
X195295714Y-42533095D02*
X195962380Y-42533095D01*
X194914761Y-42771190D02*
X195629047Y-43009285D01*
X195629047Y-42390238D01*
X194962380Y-41818809D02*
X194962380Y-41723571D01*
X195010000Y-41628333D01*
X195057619Y-41580714D01*
X195152857Y-41533095D01*
X195343333Y-41485476D01*
X195581428Y-41485476D01*
X195771904Y-41533095D01*
X195867142Y-41580714D01*
X195914761Y-41628333D01*
X195962380Y-41723571D01*
X195962380Y-41818809D01*
X195914761Y-41914047D01*
X195867142Y-41961666D01*
X195771904Y-42009285D01*
X195581428Y-42056904D01*
X195343333Y-42056904D01*
X195152857Y-42009285D01*
X195057619Y-41961666D01*
X195010000Y-41914047D01*
X194962380Y-41818809D01*
X194962380Y-40580714D02*
X194962380Y-41056904D01*
X195438571Y-41104523D01*
X195390952Y-41056904D01*
X195343333Y-40961666D01*
X195343333Y-40723571D01*
X195390952Y-40628333D01*
X195438571Y-40580714D01*
X195533809Y-40533095D01*
X195771904Y-40533095D01*
X195867142Y-40580714D01*
X195914761Y-40628333D01*
X195962380Y-40723571D01*
X195962380Y-40961666D01*
X195914761Y-41056904D01*
X195867142Y-41104523D01*
X195962380Y-39580714D02*
X195962380Y-40152142D01*
X195962380Y-39866428D02*
X194962380Y-39866428D01*
X195105238Y-39961666D01*
X195200476Y-40056904D01*
X195248095Y-40152142D01*
X174535714Y-33222380D02*
X173964285Y-33222380D01*
X174250000Y-33222380D02*
X174250000Y-32222380D01*
X174154761Y-32365238D01*
X174059523Y-32460476D01*
X173964285Y-32508095D01*
X189645714Y-33122380D02*
X189074285Y-33122380D01*
X189360000Y-33122380D02*
X189360000Y-32122380D01*
X189264761Y-32265238D01*
X189169523Y-32360476D01*
X189074285Y-32408095D01*
X164775714Y-42793095D02*
X165442380Y-42793095D01*
X164394761Y-43031190D02*
X165109047Y-43269285D01*
X165109047Y-42650238D01*
X164442380Y-42078809D02*
X164442380Y-41983571D01*
X164490000Y-41888333D01*
X164537619Y-41840714D01*
X164632857Y-41793095D01*
X164823333Y-41745476D01*
X165061428Y-41745476D01*
X165251904Y-41793095D01*
X165347142Y-41840714D01*
X165394761Y-41888333D01*
X165442380Y-41983571D01*
X165442380Y-42078809D01*
X165394761Y-42174047D01*
X165347142Y-42221666D01*
X165251904Y-42269285D01*
X165061428Y-42316904D01*
X164823333Y-42316904D01*
X164632857Y-42269285D01*
X164537619Y-42221666D01*
X164490000Y-42174047D01*
X164442380Y-42078809D01*
X164442380Y-40840714D02*
X164442380Y-41316904D01*
X164918571Y-41364523D01*
X164870952Y-41316904D01*
X164823333Y-41221666D01*
X164823333Y-40983571D01*
X164870952Y-40888333D01*
X164918571Y-40840714D01*
X165013809Y-40793095D01*
X165251904Y-40793095D01*
X165347142Y-40840714D01*
X165394761Y-40888333D01*
X165442380Y-40983571D01*
X165442380Y-41221666D01*
X165394761Y-41316904D01*
X165347142Y-41364523D01*
X165442380Y-39840714D02*
X165442380Y-40412142D01*
X165442380Y-40126428D02*
X164442380Y-40126428D01*
X164585238Y-40221666D01*
X164680476Y-40316904D01*
X164728095Y-40412142D01*
%TO.C,U3*%
X160058095Y-29662380D02*
X160058095Y-30471904D01*
X160105714Y-30567142D01*
X160153333Y-30614761D01*
X160248571Y-30662380D01*
X160439047Y-30662380D01*
X160534285Y-30614761D01*
X160581904Y-30567142D01*
X160629523Y-30471904D01*
X160629523Y-29662380D01*
X161010476Y-29662380D02*
X161629523Y-29662380D01*
X161296190Y-30043333D01*
X161439047Y-30043333D01*
X161534285Y-30090952D01*
X161581904Y-30138571D01*
X161629523Y-30233809D01*
X161629523Y-30471904D01*
X161581904Y-30567142D01*
X161534285Y-30614761D01*
X161439047Y-30662380D01*
X161153333Y-30662380D01*
X161058095Y-30614761D01*
X161010476Y-30567142D01*
%TO.C,R1*%
X101723333Y-59812380D02*
X101390000Y-59336190D01*
X101151904Y-59812380D02*
X101151904Y-58812380D01*
X101532857Y-58812380D01*
X101628095Y-58860000D01*
X101675714Y-58907619D01*
X101723333Y-59002857D01*
X101723333Y-59145714D01*
X101675714Y-59240952D01*
X101628095Y-59288571D01*
X101532857Y-59336190D01*
X101151904Y-59336190D01*
X102675714Y-59812380D02*
X102104285Y-59812380D01*
X102390000Y-59812380D02*
X102390000Y-58812380D01*
X102294761Y-58955238D01*
X102199523Y-59050476D01*
X102104285Y-59098095D01*
%TO.C,R6*%
X93883333Y-28402380D02*
X93550000Y-27926190D01*
X93311904Y-28402380D02*
X93311904Y-27402380D01*
X93692857Y-27402380D01*
X93788095Y-27450000D01*
X93835714Y-27497619D01*
X93883333Y-27592857D01*
X93883333Y-27735714D01*
X93835714Y-27830952D01*
X93788095Y-27878571D01*
X93692857Y-27926190D01*
X93311904Y-27926190D01*
X94740476Y-27402380D02*
X94550000Y-27402380D01*
X94454761Y-27450000D01*
X94407142Y-27497619D01*
X94311904Y-27640476D01*
X94264285Y-27830952D01*
X94264285Y-28211904D01*
X94311904Y-28307142D01*
X94359523Y-28354761D01*
X94454761Y-28402380D01*
X94645238Y-28402380D01*
X94740476Y-28354761D01*
X94788095Y-28307142D01*
X94835714Y-28211904D01*
X94835714Y-27973809D01*
X94788095Y-27878571D01*
X94740476Y-27830952D01*
X94645238Y-27783333D01*
X94454761Y-27783333D01*
X94359523Y-27830952D01*
X94311904Y-27878571D01*
X94264285Y-27973809D01*
%TO.C,U5*%
X191008095Y-29837380D02*
X191008095Y-30646904D01*
X191055714Y-30742142D01*
X191103333Y-30789761D01*
X191198571Y-30837380D01*
X191389047Y-30837380D01*
X191484285Y-30789761D01*
X191531904Y-30742142D01*
X191579523Y-30646904D01*
X191579523Y-29837380D01*
X192531904Y-29837380D02*
X192055714Y-29837380D01*
X192008095Y-30313571D01*
X192055714Y-30265952D01*
X192150952Y-30218333D01*
X192389047Y-30218333D01*
X192484285Y-30265952D01*
X192531904Y-30313571D01*
X192579523Y-30408809D01*
X192579523Y-30646904D01*
X192531904Y-30742142D01*
X192484285Y-30789761D01*
X192389047Y-30837380D01*
X192150952Y-30837380D01*
X192055714Y-30789761D01*
X192008095Y-30742142D01*
%TO.C,M2*%
X102060476Y-110442380D02*
X102060476Y-109442380D01*
X102393809Y-110156666D01*
X102727142Y-109442380D01*
X102727142Y-110442380D01*
X103155714Y-109537619D02*
X103203333Y-109490000D01*
X103298571Y-109442380D01*
X103536666Y-109442380D01*
X103631904Y-109490000D01*
X103679523Y-109537619D01*
X103727142Y-109632857D01*
X103727142Y-109728095D01*
X103679523Y-109870952D01*
X103108095Y-110442380D01*
X103727142Y-110442380D01*
%TO.C,U1*%
X112228380Y-43179904D02*
X113037904Y-43179904D01*
X113133142Y-43132285D01*
X113180761Y-43084666D01*
X113228380Y-42989428D01*
X113228380Y-42798952D01*
X113180761Y-42703714D01*
X113133142Y-42656095D01*
X113037904Y-42608476D01*
X112228380Y-42608476D01*
X113228380Y-41608476D02*
X113228380Y-42179904D01*
X113228380Y-41894190D02*
X112228380Y-41894190D01*
X112371238Y-41989428D01*
X112466476Y-42084666D01*
X112514095Y-42179904D01*
X139299809Y-49927523D02*
X139337904Y-49813238D01*
X139337904Y-49622761D01*
X139299809Y-49546571D01*
X139261714Y-49508476D01*
X139185523Y-49470380D01*
X139109333Y-49470380D01*
X139033142Y-49508476D01*
X138995047Y-49546571D01*
X138956952Y-49622761D01*
X138918857Y-49775142D01*
X138880761Y-49851333D01*
X138842666Y-49889428D01*
X138766476Y-49927523D01*
X138690285Y-49927523D01*
X138614095Y-49889428D01*
X138576000Y-49851333D01*
X138537904Y-49775142D01*
X138537904Y-49584666D01*
X138576000Y-49470380D01*
X138537904Y-49203714D02*
X139337904Y-49013238D01*
X138766476Y-48860857D01*
X139337904Y-48708476D01*
X138537904Y-48518000D01*
X139261714Y-47756095D02*
X139299809Y-47794190D01*
X139337904Y-47908476D01*
X139337904Y-47984666D01*
X139299809Y-48098952D01*
X139223619Y-48175142D01*
X139147428Y-48213238D01*
X138995047Y-48251333D01*
X138880761Y-48251333D01*
X138728380Y-48213238D01*
X138652190Y-48175142D01*
X138576000Y-48098952D01*
X138537904Y-47984666D01*
X138537904Y-47908476D01*
X138576000Y-47794190D01*
X138614095Y-47756095D01*
X139337904Y-47032285D02*
X139337904Y-47413238D01*
X138537904Y-47413238D01*
X139337904Y-46765619D02*
X138537904Y-46765619D01*
X139337904Y-46308476D02*
X138880761Y-46651333D01*
X138537904Y-46308476D02*
X138995047Y-46765619D01*
X139299809Y-38513238D02*
X139337904Y-38398952D01*
X139337904Y-38208476D01*
X139299809Y-38132285D01*
X139261714Y-38094190D01*
X139185523Y-38056095D01*
X139109333Y-38056095D01*
X139033142Y-38094190D01*
X138995047Y-38132285D01*
X138956952Y-38208476D01*
X138918857Y-38360857D01*
X138880761Y-38437047D01*
X138842666Y-38475142D01*
X138766476Y-38513238D01*
X138690285Y-38513238D01*
X138614095Y-38475142D01*
X138576000Y-38437047D01*
X138537904Y-38360857D01*
X138537904Y-38170380D01*
X138576000Y-38056095D01*
X138537904Y-37789428D02*
X139337904Y-37598952D01*
X138766476Y-37446571D01*
X139337904Y-37294190D01*
X138537904Y-37103714D01*
X139337904Y-36798952D02*
X138537904Y-36798952D01*
X138537904Y-36608476D01*
X138576000Y-36494190D01*
X138652190Y-36418000D01*
X138728380Y-36379904D01*
X138880761Y-36341809D01*
X138995047Y-36341809D01*
X139147428Y-36379904D01*
X139223619Y-36418000D01*
X139299809Y-36494190D01*
X139337904Y-36608476D01*
X139337904Y-36798952D01*
X139337904Y-35998952D02*
X138537904Y-35998952D01*
X138537904Y-35465619D02*
X138537904Y-35313238D01*
X138576000Y-35237047D01*
X138652190Y-35160857D01*
X138804571Y-35122761D01*
X139071238Y-35122761D01*
X139223619Y-35160857D01*
X139299809Y-35237047D01*
X139337904Y-35313238D01*
X139337904Y-35465619D01*
X139299809Y-35541809D01*
X139223619Y-35618000D01*
X139071238Y-35656095D01*
X138804571Y-35656095D01*
X138652190Y-35618000D01*
X138576000Y-35541809D01*
X138537904Y-35465619D01*
%TO.C,M12*%
X185404285Y-64722380D02*
X185404285Y-63722380D01*
X185737619Y-64436666D01*
X186070952Y-63722380D01*
X186070952Y-64722380D01*
X187070952Y-64722380D02*
X186499523Y-64722380D01*
X186785238Y-64722380D02*
X186785238Y-63722380D01*
X186690000Y-63865238D01*
X186594761Y-63960476D01*
X186499523Y-64008095D01*
X187451904Y-63817619D02*
X187499523Y-63770000D01*
X187594761Y-63722380D01*
X187832857Y-63722380D01*
X187928095Y-63770000D01*
X187975714Y-63817619D01*
X188023333Y-63912857D01*
X188023333Y-64008095D01*
X187975714Y-64150952D01*
X187404285Y-64722380D01*
X188023333Y-64722380D01*
%TO.C,C6*%
X166483333Y-27692142D02*
X166435714Y-27739761D01*
X166292857Y-27787380D01*
X166197619Y-27787380D01*
X166054761Y-27739761D01*
X165959523Y-27644523D01*
X165911904Y-27549285D01*
X165864285Y-27358809D01*
X165864285Y-27215952D01*
X165911904Y-27025476D01*
X165959523Y-26930238D01*
X166054761Y-26835000D01*
X166197619Y-26787380D01*
X166292857Y-26787380D01*
X166435714Y-26835000D01*
X166483333Y-26882619D01*
X167340476Y-26787380D02*
X167150000Y-26787380D01*
X167054761Y-26835000D01*
X167007142Y-26882619D01*
X166911904Y-27025476D01*
X166864285Y-27215952D01*
X166864285Y-27596904D01*
X166911904Y-27692142D01*
X166959523Y-27739761D01*
X167054761Y-27787380D01*
X167245238Y-27787380D01*
X167340476Y-27739761D01*
X167388095Y-27692142D01*
X167435714Y-27596904D01*
X167435714Y-27358809D01*
X167388095Y-27263571D01*
X167340476Y-27215952D01*
X167245238Y-27168333D01*
X167054761Y-27168333D01*
X166959523Y-27215952D01*
X166911904Y-27263571D01*
X166864285Y-27358809D01*
%TO.C,M10*%
X157464285Y-110442380D02*
X157464285Y-109442380D01*
X157797619Y-110156666D01*
X158130952Y-109442380D01*
X158130952Y-110442380D01*
X159130952Y-110442380D02*
X158559523Y-110442380D01*
X158845238Y-110442380D02*
X158845238Y-109442380D01*
X158750000Y-109585238D01*
X158654761Y-109680476D01*
X158559523Y-109728095D01*
X159750000Y-109442380D02*
X159845238Y-109442380D01*
X159940476Y-109490000D01*
X159988095Y-109537619D01*
X160035714Y-109632857D01*
X160083333Y-109823333D01*
X160083333Y-110061428D01*
X160035714Y-110251904D01*
X159988095Y-110347142D01*
X159940476Y-110394761D01*
X159845238Y-110442380D01*
X159750000Y-110442380D01*
X159654761Y-110394761D01*
X159607142Y-110347142D01*
X159559523Y-110251904D01*
X159511904Y-110061428D01*
X159511904Y-109823333D01*
X159559523Y-109632857D01*
X159607142Y-109537619D01*
X159654761Y-109490000D01*
X159750000Y-109442380D01*
%TO.C,R7*%
X91943333Y-68962380D02*
X91610000Y-68486190D01*
X91371904Y-68962380D02*
X91371904Y-67962380D01*
X91752857Y-67962380D01*
X91848095Y-68010000D01*
X91895714Y-68057619D01*
X91943333Y-68152857D01*
X91943333Y-68295714D01*
X91895714Y-68390952D01*
X91848095Y-68438571D01*
X91752857Y-68486190D01*
X91371904Y-68486190D01*
X92276666Y-67962380D02*
X92943333Y-67962380D01*
X92514761Y-68962380D01*
%TO.C,R4*%
X111883333Y-59732380D02*
X111550000Y-59256190D01*
X111311904Y-59732380D02*
X111311904Y-58732380D01*
X111692857Y-58732380D01*
X111788095Y-58780000D01*
X111835714Y-58827619D01*
X111883333Y-58922857D01*
X111883333Y-59065714D01*
X111835714Y-59160952D01*
X111788095Y-59208571D01*
X111692857Y-59256190D01*
X111311904Y-59256190D01*
X112740476Y-59065714D02*
X112740476Y-59732380D01*
X112502380Y-58684761D02*
X112264285Y-59399047D01*
X112883333Y-59399047D01*
%TO.C,D4*%
X113089904Y-70734380D02*
X113089904Y-69734380D01*
X113328000Y-69734380D01*
X113470857Y-69782000D01*
X113566095Y-69877238D01*
X113613714Y-69972476D01*
X113661333Y-70162952D01*
X113661333Y-70305809D01*
X113613714Y-70496285D01*
X113566095Y-70591523D01*
X113470857Y-70686761D01*
X113328000Y-70734380D01*
X113089904Y-70734380D01*
X114518476Y-70067714D02*
X114518476Y-70734380D01*
X114280380Y-69686761D02*
X114042285Y-70401047D01*
X114661333Y-70401047D01*
%TO.C,D2*%
X103672904Y-70734380D02*
X103672904Y-69734380D01*
X103911000Y-69734380D01*
X104053857Y-69782000D01*
X104149095Y-69877238D01*
X104196714Y-69972476D01*
X104244333Y-70162952D01*
X104244333Y-70305809D01*
X104196714Y-70496285D01*
X104149095Y-70591523D01*
X104053857Y-70686761D01*
X103911000Y-70734380D01*
X103672904Y-70734380D01*
X104625285Y-69829619D02*
X104672904Y-69782000D01*
X104768142Y-69734380D01*
X105006238Y-69734380D01*
X105101476Y-69782000D01*
X105149095Y-69829619D01*
X105196714Y-69924857D01*
X105196714Y-70020095D01*
X105149095Y-70162952D01*
X104577666Y-70734380D01*
X105196714Y-70734380D01*
%TO.C,M7*%
X130000476Y-133302380D02*
X130000476Y-132302380D01*
X130333809Y-133016666D01*
X130667142Y-132302380D01*
X130667142Y-133302380D01*
X131048095Y-132302380D02*
X131714761Y-132302380D01*
X131286190Y-133302380D01*
%TO.C,C2*%
X181963333Y-27612142D02*
X181915714Y-27659761D01*
X181772857Y-27707380D01*
X181677619Y-27707380D01*
X181534761Y-27659761D01*
X181439523Y-27564523D01*
X181391904Y-27469285D01*
X181344285Y-27278809D01*
X181344285Y-27135952D01*
X181391904Y-26945476D01*
X181439523Y-26850238D01*
X181534761Y-26755000D01*
X181677619Y-26707380D01*
X181772857Y-26707380D01*
X181915714Y-26755000D01*
X181963333Y-26802619D01*
X182344285Y-26802619D02*
X182391904Y-26755000D01*
X182487142Y-26707380D01*
X182725238Y-26707380D01*
X182820476Y-26755000D01*
X182868095Y-26802619D01*
X182915714Y-26897857D01*
X182915714Y-26993095D01*
X182868095Y-27135952D01*
X182296666Y-27707380D01*
X182915714Y-27707380D01*
%TO.C,D3*%
X108263904Y-70744380D02*
X108263904Y-69744380D01*
X108502000Y-69744380D01*
X108644857Y-69792000D01*
X108740095Y-69887238D01*
X108787714Y-69982476D01*
X108835333Y-70172952D01*
X108835333Y-70315809D01*
X108787714Y-70506285D01*
X108740095Y-70601523D01*
X108644857Y-70696761D01*
X108502000Y-70744380D01*
X108263904Y-70744380D01*
X109168666Y-69744380D02*
X109787714Y-69744380D01*
X109454380Y-70125333D01*
X109597238Y-70125333D01*
X109692476Y-70172952D01*
X109740095Y-70220571D01*
X109787714Y-70315809D01*
X109787714Y-70553904D01*
X109740095Y-70649142D01*
X109692476Y-70696761D01*
X109597238Y-70744380D01*
X109311523Y-70744380D01*
X109216285Y-70696761D01*
X109168666Y-70649142D01*
%TO.C,D1*%
X98611904Y-70664380D02*
X98611904Y-69664380D01*
X98850000Y-69664380D01*
X98992857Y-69712000D01*
X99088095Y-69807238D01*
X99135714Y-69902476D01*
X99183333Y-70092952D01*
X99183333Y-70235809D01*
X99135714Y-70426285D01*
X99088095Y-70521523D01*
X98992857Y-70616761D01*
X98850000Y-70664380D01*
X98611904Y-70664380D01*
X100135714Y-70664380D02*
X99564285Y-70664380D01*
X99850000Y-70664380D02*
X99850000Y-69664380D01*
X99754761Y-69807238D01*
X99659523Y-69902476D01*
X99564285Y-69950095D01*
%TO.C,R8*%
X121253333Y-28122380D02*
X120920000Y-27646190D01*
X120681904Y-28122380D02*
X120681904Y-27122380D01*
X121062857Y-27122380D01*
X121158095Y-27170000D01*
X121205714Y-27217619D01*
X121253333Y-27312857D01*
X121253333Y-27455714D01*
X121205714Y-27550952D01*
X121158095Y-27598571D01*
X121062857Y-27646190D01*
X120681904Y-27646190D01*
X121824761Y-27550952D02*
X121729523Y-27503333D01*
X121681904Y-27455714D01*
X121634285Y-27360476D01*
X121634285Y-27312857D01*
X121681904Y-27217619D01*
X121729523Y-27170000D01*
X121824761Y-27122380D01*
X122015238Y-27122380D01*
X122110476Y-27170000D01*
X122158095Y-27217619D01*
X122205714Y-27312857D01*
X122205714Y-27360476D01*
X122158095Y-27455714D01*
X122110476Y-27503333D01*
X122015238Y-27550952D01*
X121824761Y-27550952D01*
X121729523Y-27598571D01*
X121681904Y-27646190D01*
X121634285Y-27741428D01*
X121634285Y-27931904D01*
X121681904Y-28027142D01*
X121729523Y-28074761D01*
X121824761Y-28122380D01*
X122015238Y-28122380D01*
X122110476Y-28074761D01*
X122158095Y-28027142D01*
X122205714Y-27931904D01*
X122205714Y-27741428D01*
X122158095Y-27646190D01*
X122110476Y-27598571D01*
X122015238Y-27550952D01*
%TO.C,M4*%
X130000476Y-64722380D02*
X130000476Y-63722380D01*
X130333809Y-64436666D01*
X130667142Y-63722380D01*
X130667142Y-64722380D01*
X131571904Y-64055714D02*
X131571904Y-64722380D01*
X131333809Y-63674761D02*
X131095714Y-64389047D01*
X131714761Y-64389047D01*
%TO.C,M15*%
X185404285Y-133302380D02*
X185404285Y-132302380D01*
X185737619Y-133016666D01*
X186070952Y-132302380D01*
X186070952Y-133302380D01*
X187070952Y-133302380D02*
X186499523Y-133302380D01*
X186785238Y-133302380D02*
X186785238Y-132302380D01*
X186690000Y-132445238D01*
X186594761Y-132540476D01*
X186499523Y-132588095D01*
X187975714Y-132302380D02*
X187499523Y-132302380D01*
X187451904Y-132778571D01*
X187499523Y-132730952D01*
X187594761Y-132683333D01*
X187832857Y-132683333D01*
X187928095Y-132730952D01*
X187975714Y-132778571D01*
X188023333Y-132873809D01*
X188023333Y-133111904D01*
X187975714Y-133207142D01*
X187928095Y-133254761D01*
X187832857Y-133302380D01*
X187594761Y-133302380D01*
X187499523Y-133254761D01*
X187451904Y-133207142D01*
%TO.C,R2*%
X101593333Y-63114380D02*
X101260000Y-62638190D01*
X101021904Y-63114380D02*
X101021904Y-62114380D01*
X101402857Y-62114380D01*
X101498095Y-62162000D01*
X101545714Y-62209619D01*
X101593333Y-62304857D01*
X101593333Y-62447714D01*
X101545714Y-62542952D01*
X101498095Y-62590571D01*
X101402857Y-62638190D01*
X101021904Y-62638190D01*
X101974285Y-62209619D02*
X102021904Y-62162000D01*
X102117142Y-62114380D01*
X102355238Y-62114380D01*
X102450476Y-62162000D01*
X102498095Y-62209619D01*
X102545714Y-62304857D01*
X102545714Y-62400095D01*
X102498095Y-62542952D01*
X101926666Y-63114380D01*
X102545714Y-63114380D01*
%TO.C,M8*%
X157940476Y-64722380D02*
X157940476Y-63722380D01*
X158273809Y-64436666D01*
X158607142Y-63722380D01*
X158607142Y-64722380D01*
X159226190Y-64150952D02*
X159130952Y-64103333D01*
X159083333Y-64055714D01*
X159035714Y-63960476D01*
X159035714Y-63912857D01*
X159083333Y-63817619D01*
X159130952Y-63770000D01*
X159226190Y-63722380D01*
X159416666Y-63722380D01*
X159511904Y-63770000D01*
X159559523Y-63817619D01*
X159607142Y-63912857D01*
X159607142Y-63960476D01*
X159559523Y-64055714D01*
X159511904Y-64103333D01*
X159416666Y-64150952D01*
X159226190Y-64150952D01*
X159130952Y-64198571D01*
X159083333Y-64246190D01*
X159035714Y-64341428D01*
X159035714Y-64531904D01*
X159083333Y-64627142D01*
X159130952Y-64674761D01*
X159226190Y-64722380D01*
X159416666Y-64722380D01*
X159511904Y-64674761D01*
X159559523Y-64627142D01*
X159607142Y-64531904D01*
X159607142Y-64341428D01*
X159559523Y-64246190D01*
X159511904Y-64198571D01*
X159416666Y-64150952D01*
%TO.C,C4*%
X110615142Y-27500666D02*
X110662761Y-27548285D01*
X110710380Y-27691142D01*
X110710380Y-27786380D01*
X110662761Y-27929238D01*
X110567523Y-28024476D01*
X110472285Y-28072095D01*
X110281809Y-28119714D01*
X110138952Y-28119714D01*
X109948476Y-28072095D01*
X109853238Y-28024476D01*
X109758000Y-27929238D01*
X109710380Y-27786380D01*
X109710380Y-27691142D01*
X109758000Y-27548285D01*
X109805619Y-27500666D01*
X110043714Y-26643523D02*
X110710380Y-26643523D01*
X109662761Y-26881619D02*
X110377047Y-27119714D01*
X110377047Y-26500666D01*
%TO.C,M6*%
X130000476Y-110442380D02*
X130000476Y-109442380D01*
X130333809Y-110156666D01*
X130667142Y-109442380D01*
X130667142Y-110442380D01*
X131571904Y-109442380D02*
X131381428Y-109442380D01*
X131286190Y-109490000D01*
X131238571Y-109537619D01*
X131143333Y-109680476D01*
X131095714Y-109870952D01*
X131095714Y-110251904D01*
X131143333Y-110347142D01*
X131190952Y-110394761D01*
X131286190Y-110442380D01*
X131476666Y-110442380D01*
X131571904Y-110394761D01*
X131619523Y-110347142D01*
X131667142Y-110251904D01*
X131667142Y-110013809D01*
X131619523Y-109918571D01*
X131571904Y-109870952D01*
X131476666Y-109823333D01*
X131286190Y-109823333D01*
X131190952Y-109870952D01*
X131143333Y-109918571D01*
X131095714Y-110013809D01*
%TO.C,C3*%
X196703333Y-27472142D02*
X196655714Y-27519761D01*
X196512857Y-27567380D01*
X196417619Y-27567380D01*
X196274761Y-27519761D01*
X196179523Y-27424523D01*
X196131904Y-27329285D01*
X196084285Y-27138809D01*
X196084285Y-26995952D01*
X196131904Y-26805476D01*
X196179523Y-26710238D01*
X196274761Y-26615000D01*
X196417619Y-26567380D01*
X196512857Y-26567380D01*
X196655714Y-26615000D01*
X196703333Y-26662619D01*
X197036666Y-26567380D02*
X197655714Y-26567380D01*
X197322380Y-26948333D01*
X197465238Y-26948333D01*
X197560476Y-26995952D01*
X197608095Y-27043571D01*
X197655714Y-27138809D01*
X197655714Y-27376904D01*
X197608095Y-27472142D01*
X197560476Y-27519761D01*
X197465238Y-27567380D01*
X197179523Y-27567380D01*
X197084285Y-27519761D01*
X197036666Y-27472142D01*
%TO.C,M11*%
X157464285Y-133296380D02*
X157464285Y-132296380D01*
X157797619Y-133010666D01*
X158130952Y-132296380D01*
X158130952Y-133296380D01*
X159130952Y-133296380D02*
X158559523Y-133296380D01*
X158845238Y-133296380D02*
X158845238Y-132296380D01*
X158750000Y-132439238D01*
X158654761Y-132534476D01*
X158559523Y-132582095D01*
X160083333Y-133296380D02*
X159511904Y-133296380D01*
X159797619Y-133296380D02*
X159797619Y-132296380D01*
X159702380Y-132439238D01*
X159607142Y-132534476D01*
X159511904Y-132582095D01*
%TO.C,R5*%
X120537333Y-21548380D02*
X120204000Y-21072190D01*
X119965904Y-21548380D02*
X119965904Y-20548380D01*
X120346857Y-20548380D01*
X120442095Y-20596000D01*
X120489714Y-20643619D01*
X120537333Y-20738857D01*
X120537333Y-20881714D01*
X120489714Y-20976952D01*
X120442095Y-21024571D01*
X120346857Y-21072190D01*
X119965904Y-21072190D01*
X121442095Y-20548380D02*
X120965904Y-20548380D01*
X120918285Y-21024571D01*
X120965904Y-20976952D01*
X121061142Y-20929333D01*
X121299238Y-20929333D01*
X121394476Y-20976952D01*
X121442095Y-21024571D01*
X121489714Y-21119809D01*
X121489714Y-21357904D01*
X121442095Y-21453142D01*
X121394476Y-21500761D01*
X121299238Y-21548380D01*
X121061142Y-21548380D01*
X120965904Y-21500761D01*
X120918285Y-21453142D01*
%TO.C,C1*%
X95393142Y-21776666D02*
X95440761Y-21824285D01*
X95488380Y-21967142D01*
X95488380Y-22062380D01*
X95440761Y-22205238D01*
X95345523Y-22300476D01*
X95250285Y-22348095D01*
X95059809Y-22395714D01*
X94916952Y-22395714D01*
X94726476Y-22348095D01*
X94631238Y-22300476D01*
X94536000Y-22205238D01*
X94488380Y-22062380D01*
X94488380Y-21967142D01*
X94536000Y-21824285D01*
X94583619Y-21776666D01*
X95488380Y-20824285D02*
X95488380Y-21395714D01*
X95488380Y-21110000D02*
X94488380Y-21110000D01*
X94631238Y-21205238D01*
X94726476Y-21300476D01*
X94774095Y-21395714D01*
%TO.C,R10*%
X135857142Y-28462380D02*
X135523809Y-27986190D01*
X135285714Y-28462380D02*
X135285714Y-27462380D01*
X135666666Y-27462380D01*
X135761904Y-27510000D01*
X135809523Y-27557619D01*
X135857142Y-27652857D01*
X135857142Y-27795714D01*
X135809523Y-27890952D01*
X135761904Y-27938571D01*
X135666666Y-27986190D01*
X135285714Y-27986190D01*
X136809523Y-28462380D02*
X136238095Y-28462380D01*
X136523809Y-28462380D02*
X136523809Y-27462380D01*
X136428571Y-27605238D01*
X136333333Y-27700476D01*
X136238095Y-27748095D01*
X137428571Y-27462380D02*
X137523809Y-27462380D01*
X137619047Y-27510000D01*
X137666666Y-27557619D01*
X137714285Y-27652857D01*
X137761904Y-27843333D01*
X137761904Y-28081428D01*
X137714285Y-28271904D01*
X137666666Y-28367142D01*
X137619047Y-28414761D01*
X137523809Y-28462380D01*
X137428571Y-28462380D01*
X137333333Y-28414761D01*
X137285714Y-28367142D01*
X137238095Y-28271904D01*
X137190476Y-28081428D01*
X137190476Y-27843333D01*
X137238095Y-27652857D01*
X137285714Y-27557619D01*
X137333333Y-27510000D01*
X137428571Y-27462380D01*
%TO.C,U6*%
X127768095Y-20902380D02*
X127768095Y-21711904D01*
X127815714Y-21807142D01*
X127863333Y-21854761D01*
X127958571Y-21902380D01*
X128149047Y-21902380D01*
X128244285Y-21854761D01*
X128291904Y-21807142D01*
X128339523Y-21711904D01*
X128339523Y-20902380D01*
X129244285Y-20902380D02*
X129053809Y-20902380D01*
X128958571Y-20950000D01*
X128910952Y-20997619D01*
X128815714Y-21140476D01*
X128768095Y-21330952D01*
X128768095Y-21711904D01*
X128815714Y-21807142D01*
X128863333Y-21854761D01*
X128958571Y-21902380D01*
X129149047Y-21902380D01*
X129244285Y-21854761D01*
X129291904Y-21807142D01*
X129339523Y-21711904D01*
X129339523Y-21473809D01*
X129291904Y-21378571D01*
X129244285Y-21330952D01*
X129149047Y-21283333D01*
X128958571Y-21283333D01*
X128863333Y-21330952D01*
X128815714Y-21378571D01*
X128768095Y-21473809D01*
%TO.C,M3*%
X102060476Y-133302380D02*
X102060476Y-132302380D01*
X102393809Y-133016666D01*
X102727142Y-132302380D01*
X102727142Y-133302380D01*
X103108095Y-132302380D02*
X103727142Y-132302380D01*
X103393809Y-132683333D01*
X103536666Y-132683333D01*
X103631904Y-132730952D01*
X103679523Y-132778571D01*
X103727142Y-132873809D01*
X103727142Y-133111904D01*
X103679523Y-133207142D01*
X103631904Y-133254761D01*
X103536666Y-133302380D01*
X103250952Y-133302380D01*
X103155714Y-133254761D01*
X103108095Y-133207142D01*
%TO.C,C5*%
X149027142Y-29896666D02*
X149074761Y-29944285D01*
X149122380Y-30087142D01*
X149122380Y-30182380D01*
X149074761Y-30325238D01*
X148979523Y-30420476D01*
X148884285Y-30468095D01*
X148693809Y-30515714D01*
X148550952Y-30515714D01*
X148360476Y-30468095D01*
X148265238Y-30420476D01*
X148170000Y-30325238D01*
X148122380Y-30182380D01*
X148122380Y-30087142D01*
X148170000Y-29944285D01*
X148217619Y-29896666D01*
X148122380Y-28991904D02*
X148122380Y-29468095D01*
X148598571Y-29515714D01*
X148550952Y-29468095D01*
X148503333Y-29372857D01*
X148503333Y-29134761D01*
X148550952Y-29039523D01*
X148598571Y-28991904D01*
X148693809Y-28944285D01*
X148931904Y-28944285D01*
X149027142Y-28991904D01*
X149074761Y-29039523D01*
X149122380Y-29134761D01*
X149122380Y-29372857D01*
X149074761Y-29468095D01*
X149027142Y-29515714D01*
%TO.C,R9*%
X121233333Y-24822380D02*
X120900000Y-24346190D01*
X120661904Y-24822380D02*
X120661904Y-23822380D01*
X121042857Y-23822380D01*
X121138095Y-23870000D01*
X121185714Y-23917619D01*
X121233333Y-24012857D01*
X121233333Y-24155714D01*
X121185714Y-24250952D01*
X121138095Y-24298571D01*
X121042857Y-24346190D01*
X120661904Y-24346190D01*
X121709523Y-24822380D02*
X121900000Y-24822380D01*
X121995238Y-24774761D01*
X122042857Y-24727142D01*
X122138095Y-24584285D01*
X122185714Y-24393809D01*
X122185714Y-24012857D01*
X122138095Y-23917619D01*
X122090476Y-23870000D01*
X121995238Y-23822380D01*
X121804761Y-23822380D01*
X121709523Y-23870000D01*
X121661904Y-23917619D01*
X121614285Y-24012857D01*
X121614285Y-24250952D01*
X121661904Y-24346190D01*
X121709523Y-24393809D01*
X121804761Y-24441428D01*
X121995238Y-24441428D01*
X122090476Y-24393809D01*
X122138095Y-24346190D01*
X122185714Y-24250952D01*
%TO.C,R3*%
X111893333Y-63084380D02*
X111560000Y-62608190D01*
X111321904Y-63084380D02*
X111321904Y-62084380D01*
X111702857Y-62084380D01*
X111798095Y-62132000D01*
X111845714Y-62179619D01*
X111893333Y-62274857D01*
X111893333Y-62417714D01*
X111845714Y-62512952D01*
X111798095Y-62560571D01*
X111702857Y-62608190D01*
X111321904Y-62608190D01*
X112226666Y-62084380D02*
X112845714Y-62084380D01*
X112512380Y-62465333D01*
X112655238Y-62465333D01*
X112750476Y-62512952D01*
X112798095Y-62560571D01*
X112845714Y-62655809D01*
X112845714Y-62893904D01*
X112798095Y-62989142D01*
X112750476Y-63036761D01*
X112655238Y-63084380D01*
X112369523Y-63084380D01*
X112274285Y-63036761D01*
X112226666Y-62989142D01*
%TO.C,M9*%
X157940476Y-87582380D02*
X157940476Y-86582380D01*
X158273809Y-87296666D01*
X158607142Y-86582380D01*
X158607142Y-87582380D01*
X159130952Y-87582380D02*
X159321428Y-87582380D01*
X159416666Y-87534761D01*
X159464285Y-87487142D01*
X159559523Y-87344285D01*
X159607142Y-87153809D01*
X159607142Y-86772857D01*
X159559523Y-86677619D01*
X159511904Y-86630000D01*
X159416666Y-86582380D01*
X159226190Y-86582380D01*
X159130952Y-86630000D01*
X159083333Y-86677619D01*
X159035714Y-86772857D01*
X159035714Y-87010952D01*
X159083333Y-87106190D01*
X159130952Y-87153809D01*
X159226190Y-87201428D01*
X159416666Y-87201428D01*
X159511904Y-87153809D01*
X159559523Y-87106190D01*
X159607142Y-87010952D01*
%TO.C,M1*%
X102060476Y-87582380D02*
X102060476Y-86582380D01*
X102393809Y-87296666D01*
X102727142Y-86582380D01*
X102727142Y-87582380D01*
X103727142Y-87582380D02*
X103155714Y-87582380D01*
X103441428Y-87582380D02*
X103441428Y-86582380D01*
X103346190Y-86725238D01*
X103250952Y-86820476D01*
X103155714Y-86868095D01*
%TO.C,Q1*%
X113404761Y-22067619D02*
X113309523Y-22020000D01*
X113214285Y-21924761D01*
X113071428Y-21781904D01*
X112976190Y-21734285D01*
X112880952Y-21734285D01*
X112928571Y-21972380D02*
X112833333Y-21924761D01*
X112738095Y-21829523D01*
X112690476Y-21639047D01*
X112690476Y-21305714D01*
X112738095Y-21115238D01*
X112833333Y-21020000D01*
X112928571Y-20972380D01*
X113119047Y-20972380D01*
X113214285Y-21020000D01*
X113309523Y-21115238D01*
X113357142Y-21305714D01*
X113357142Y-21639047D01*
X113309523Y-21829523D01*
X113214285Y-21924761D01*
X113119047Y-21972380D01*
X112928571Y-21972380D01*
X114309523Y-21972380D02*
X113738095Y-21972380D01*
X114023809Y-21972380D02*
X114023809Y-20972380D01*
X113928571Y-21115238D01*
X113833333Y-21210476D01*
X113738095Y-21258095D01*
%TO.C,J1*%
X90962380Y-61983333D02*
X91676666Y-61983333D01*
X91819523Y-62030952D01*
X91914761Y-62126190D01*
X91962380Y-62269047D01*
X91962380Y-62364285D01*
X91962380Y-60983333D02*
X91962380Y-61554761D01*
X91962380Y-61269047D02*
X90962380Y-61269047D01*
X91105238Y-61364285D01*
X91200476Y-61459523D01*
X91248095Y-61554761D01*
%TO.C,U2*%
X144638095Y-30372380D02*
X144638095Y-31181904D01*
X144685714Y-31277142D01*
X144733333Y-31324761D01*
X144828571Y-31372380D01*
X145019047Y-31372380D01*
X145114285Y-31324761D01*
X145161904Y-31277142D01*
X145209523Y-31181904D01*
X145209523Y-30372380D01*
X145638095Y-30467619D02*
X145685714Y-30420000D01*
X145780952Y-30372380D01*
X146019047Y-30372380D01*
X146114285Y-30420000D01*
X146161904Y-30467619D01*
X146209523Y-30562857D01*
X146209523Y-30658095D01*
X146161904Y-30800952D01*
X145590476Y-31372380D01*
X146209523Y-31372380D01*
%TO.C,M14*%
X185404285Y-110442380D02*
X185404285Y-109442380D01*
X185737619Y-110156666D01*
X186070952Y-109442380D01*
X186070952Y-110442380D01*
X187070952Y-110442380D02*
X186499523Y-110442380D01*
X186785238Y-110442380D02*
X186785238Y-109442380D01*
X186690000Y-109585238D01*
X186594761Y-109680476D01*
X186499523Y-109728095D01*
X187928095Y-109775714D02*
X187928095Y-110442380D01*
X187690000Y-109394761D02*
X187451904Y-110109047D01*
X188070952Y-110109047D01*
%TO.C,U4*%
X175514095Y-29867380D02*
X175514095Y-30676904D01*
X175561714Y-30772142D01*
X175609333Y-30819761D01*
X175704571Y-30867380D01*
X175895047Y-30867380D01*
X175990285Y-30819761D01*
X176037904Y-30772142D01*
X176085523Y-30676904D01*
X176085523Y-29867380D01*
X176990285Y-30200714D02*
X176990285Y-30867380D01*
X176752190Y-29819761D02*
X176514095Y-30534047D01*
X177133142Y-30534047D01*
%TO.C,M13*%
X185404285Y-87582380D02*
X185404285Y-86582380D01*
X185737619Y-87296666D01*
X186070952Y-86582380D01*
X186070952Y-87582380D01*
X187070952Y-87582380D02*
X186499523Y-87582380D01*
X186785238Y-87582380D02*
X186785238Y-86582380D01*
X186690000Y-86725238D01*
X186594761Y-86820476D01*
X186499523Y-86868095D01*
X187404285Y-86582380D02*
X188023333Y-86582380D01*
X187690000Y-86963333D01*
X187832857Y-86963333D01*
X187928095Y-87010952D01*
X187975714Y-87058571D01*
X188023333Y-87153809D01*
X188023333Y-87391904D01*
X187975714Y-87487142D01*
X187928095Y-87534761D01*
X187832857Y-87582380D01*
X187547142Y-87582380D01*
X187451904Y-87534761D01*
X187404285Y-87487142D01*
%TO.C,M5*%
X130000476Y-87582380D02*
X130000476Y-86582380D01*
X130333809Y-87296666D01*
X130667142Y-86582380D01*
X130667142Y-87582380D01*
X131619523Y-86582380D02*
X131143333Y-86582380D01*
X131095714Y-87058571D01*
X131143333Y-87010952D01*
X131238571Y-86963333D01*
X131476666Y-86963333D01*
X131571904Y-87010952D01*
X131619523Y-87058571D01*
X131667142Y-87153809D01*
X131667142Y-87391904D01*
X131619523Y-87487142D01*
X131571904Y-87534761D01*
X131476666Y-87582380D01*
X131238571Y-87582380D01*
X131143333Y-87534761D01*
X131095714Y-87487142D01*
D11*
%TO.C,U3*%
X167390000Y-31325000D02*
X165740000Y-31325000D01*
X159600000Y-51825000D02*
X169880000Y-51825000D01*
X169880000Y-31265000D02*
X159600000Y-31265000D01*
X162090000Y-51765000D02*
X167390000Y-51765000D01*
X163740000Y-31325000D02*
X162090000Y-31325000D01*
X159600000Y-31265000D02*
X159600000Y-51825000D01*
X162090000Y-31325000D02*
X162090000Y-51765000D01*
X167390000Y-51765000D02*
X167390000Y-31325000D01*
X169880000Y-51825000D02*
X169880000Y-31265000D01*
X163740000Y-31325000D02*
G75*
G03*
X165740000Y-31325000I1000000J0D01*
G01*
%TO.C,R1*%
X98620000Y-60730000D02*
X98620000Y-60400000D01*
X105160000Y-60400000D02*
X105160000Y-60730000D01*
X98620000Y-57990000D02*
X98620000Y-58320000D01*
X105160000Y-57990000D02*
X98620000Y-57990000D01*
X105160000Y-60730000D02*
X98620000Y-60730000D01*
X105160000Y-58320000D02*
X105160000Y-57990000D01*
%TO.C,R6*%
X90710000Y-26900000D02*
X90710000Y-26570000D01*
X97250000Y-26570000D02*
X97250000Y-26900000D01*
X90710000Y-29310000D02*
X97250000Y-29310000D01*
X97250000Y-29310000D02*
X97250000Y-28980000D01*
X90710000Y-28980000D02*
X90710000Y-29310000D01*
X90710000Y-26570000D02*
X97250000Y-26570000D01*
%TO.C,U5*%
X198170000Y-51765000D02*
X198170000Y-31325000D01*
X192870000Y-31325000D02*
X192870000Y-51765000D01*
X198170000Y-31325000D02*
X196520000Y-31325000D01*
X190380000Y-51825000D02*
X200660000Y-51825000D01*
X192870000Y-51765000D02*
X198170000Y-51765000D01*
X200660000Y-51825000D02*
X200660000Y-31265000D01*
X190380000Y-31265000D02*
X190380000Y-51825000D01*
X194520000Y-31325000D02*
X192870000Y-31325000D01*
X200660000Y-31265000D02*
X190380000Y-31265000D01*
X194520000Y-31325000D02*
G75*
G03*
X196520000Y-31325000I1000000J0D01*
G01*
%TO.C,M2*%
X110490000Y-104140000D02*
X110490000Y-119380000D01*
X110490000Y-119380000D02*
X95250000Y-119380000D01*
X95250000Y-104140000D02*
X95250000Y-119380000D01*
X110490000Y-104140000D02*
X95250000Y-104140000D01*
%TO.C,U1*%
X138276000Y-41318000D02*
X138276000Y-40918000D01*
X135476000Y-52918000D02*
X135876000Y-52918000D01*
X127876000Y-31918000D02*
X128276000Y-31918000D01*
X125276000Y-31918000D02*
X125676000Y-31918000D01*
X92276000Y-52918000D02*
X92676000Y-52918000D01*
X99876000Y-31918000D02*
X100276000Y-31918000D01*
X94776000Y-52918000D02*
X95176000Y-52918000D01*
X87276000Y-31918000D02*
X87576000Y-31918000D01*
X132876000Y-31918000D02*
X133276000Y-31918000D01*
X115076000Y-31918000D02*
X115476000Y-31918000D01*
X138276000Y-46118000D02*
X138276000Y-52918000D01*
X102376000Y-31918000D02*
X102776000Y-31918000D01*
X92276000Y-31918000D02*
X92676000Y-31918000D01*
X130376000Y-52918000D02*
X130776000Y-52918000D01*
X135476000Y-31918000D02*
X135876000Y-31918000D01*
X110076000Y-31918000D02*
X110476000Y-31918000D01*
X97376000Y-52918000D02*
X97776000Y-52918000D01*
X97376000Y-31918000D02*
X97776000Y-31918000D01*
X112576000Y-52918000D02*
X112976000Y-52918000D01*
X120176000Y-52918000D02*
X120576000Y-52918000D01*
X89943000Y-52918000D02*
X89943000Y-49911000D01*
X89676000Y-31918000D02*
X90076000Y-31918000D01*
X104976000Y-31918000D02*
X105376000Y-31918000D01*
X107476000Y-52918000D02*
X107876000Y-52918000D01*
X87276000Y-52918000D02*
X87276000Y-31918000D01*
X138276000Y-43918000D02*
X138276000Y-43518000D01*
X122776000Y-31918000D02*
X123176000Y-31918000D01*
X117676000Y-52918000D02*
X118076000Y-52918000D01*
X107476000Y-31918000D02*
X107876000Y-31918000D01*
X122776000Y-52918000D02*
X123176000Y-52918000D01*
X127876000Y-52918000D02*
X128276000Y-52918000D01*
X110076000Y-52918000D02*
X110476000Y-52918000D01*
X94776000Y-31918000D02*
X95176000Y-31918000D01*
X132876000Y-52918000D02*
X133276000Y-52918000D01*
X99876000Y-52918000D02*
X100276000Y-52918000D01*
X115076000Y-52918000D02*
X115476000Y-52918000D01*
X117676000Y-31918000D02*
X118076000Y-31918000D01*
X130376000Y-31918000D02*
X130776000Y-31918000D01*
X87276000Y-52918000D02*
X87576000Y-52918000D01*
X89676000Y-52918000D02*
X90076000Y-52918000D01*
X89943000Y-49911000D02*
X87276000Y-49911000D01*
X102376000Y-52918000D02*
X102776000Y-52918000D01*
X112576000Y-31918000D02*
X112976000Y-31918000D01*
X104976000Y-52918000D02*
X105376000Y-52918000D01*
X138276000Y-31918000D02*
X138276000Y-38718000D01*
X120176000Y-31918000D02*
X120576000Y-31918000D01*
X125276000Y-52918000D02*
X125676000Y-52918000D01*
%TO.C,M12*%
X194310000Y-58420000D02*
X194310000Y-73660000D01*
X179070000Y-58420000D02*
X179070000Y-73660000D01*
X194310000Y-58420000D02*
X179070000Y-58420000D01*
X194310000Y-73660000D02*
X179070000Y-73660000D01*
%TO.C,C6*%
X169340000Y-28085000D02*
X164100000Y-28085000D01*
X164100000Y-30825000D02*
X164100000Y-28085000D01*
X169340000Y-30825000D02*
X164100000Y-30825000D01*
X169340000Y-30825000D02*
X169340000Y-28085000D01*
%TO.C,M10*%
X166370000Y-104140000D02*
X166370000Y-119380000D01*
X166370000Y-104140000D02*
X151130000Y-104140000D01*
X151130000Y-104140000D02*
X151130000Y-119380000D01*
X166370000Y-119380000D02*
X151130000Y-119380000D01*
%TO.C,R7*%
X88880000Y-67180000D02*
X95420000Y-67180000D01*
X88880000Y-69590000D02*
X88880000Y-69920000D01*
X95420000Y-69920000D02*
X95420000Y-69590000D01*
X88880000Y-69920000D02*
X95420000Y-69920000D01*
X95420000Y-67180000D02*
X95420000Y-67510000D01*
X88880000Y-67510000D02*
X88880000Y-67180000D01*
%TO.C,R4*%
X115320000Y-60730000D02*
X108780000Y-60730000D01*
X115320000Y-60400000D02*
X115320000Y-60730000D01*
X108780000Y-57990000D02*
X108780000Y-58320000D01*
X108780000Y-60730000D02*
X108780000Y-60400000D01*
X115320000Y-57990000D02*
X108780000Y-57990000D01*
X115320000Y-58320000D02*
X115320000Y-57990000D01*
%TO.C,D4*%
X115064000Y-65415000D02*
X114908000Y-65415000D01*
X112748000Y-65415000D02*
X112592000Y-65415000D01*
X112592484Y-65415000D02*
G75*
G03*
X112749392Y-68647335I1235516J-1560000D01*
G01*
X114907837Y-68016130D02*
G75*
G03*
X114908000Y-65934039I-1079837J1041130D01*
G01*
X112748000Y-65934039D02*
G75*
G03*
X112748163Y-68016130I1080000J-1040961D01*
G01*
X114906608Y-68647335D02*
G75*
G03*
X115063516Y-65415000I-1078608J1672335D01*
G01*
%TO.C,D2*%
X103096000Y-65420000D02*
X102940000Y-65420000D01*
X105412000Y-65420000D02*
X105256000Y-65420000D01*
X105254608Y-68652335D02*
G75*
G03*
X105411516Y-65420000I-1078608J1672335D01*
G01*
X102940484Y-65420000D02*
G75*
G03*
X103097392Y-68652335I1235516J-1560000D01*
G01*
X103096000Y-65939039D02*
G75*
G03*
X103096163Y-68021130I1080000J-1040961D01*
G01*
X105255837Y-68021130D02*
G75*
G03*
X105256000Y-65939039I-1079837J1041130D01*
G01*
%TO.C,M7*%
X138430000Y-127000000D02*
X138430000Y-142240000D01*
X138430000Y-142240000D02*
X123190000Y-142240000D01*
X138430000Y-127000000D02*
X123190000Y-127000000D01*
X123190000Y-127000000D02*
X123190000Y-142240000D01*
%TO.C,C2*%
X184940000Y-30865000D02*
X179700000Y-30865000D01*
X184940000Y-30865000D02*
X184940000Y-28125000D01*
X184940000Y-28125000D02*
X179700000Y-28125000D01*
X179700000Y-30865000D02*
X179700000Y-28125000D01*
%TO.C,D3*%
X110238000Y-65420000D02*
X110082000Y-65420000D01*
X107922000Y-65420000D02*
X107766000Y-65420000D01*
X107922000Y-65939039D02*
G75*
G03*
X107922163Y-68021130I1080000J-1040961D01*
G01*
X110080608Y-68652335D02*
G75*
G03*
X110237516Y-65420000I-1078608J1672335D01*
G01*
X107766484Y-65420000D02*
G75*
G03*
X107923392Y-68652335I1235516J-1560000D01*
G01*
X110081837Y-68021130D02*
G75*
G03*
X110082000Y-65939039I-1079837J1041130D01*
G01*
%TO.C,D1*%
X98270000Y-65345000D02*
X98114000Y-65345000D01*
X100586000Y-65345000D02*
X100430000Y-65345000D01*
X100428608Y-68577335D02*
G75*
G03*
X100585516Y-65345000I-1078608J1672335D01*
G01*
X98270000Y-65864039D02*
G75*
G03*
X98270163Y-67946130I1080000J-1040961D01*
G01*
X100429837Y-67946130D02*
G75*
G03*
X100430000Y-65864039I-1079837J1041130D01*
G01*
X98114484Y-65345000D02*
G75*
G03*
X98271392Y-68577335I1235516J-1560000D01*
G01*
%TO.C,R8*%
X118090000Y-28710000D02*
X118090000Y-29040000D01*
X118090000Y-26630000D02*
X118090000Y-26300000D01*
X124630000Y-26300000D02*
X124630000Y-26630000D01*
X124630000Y-29040000D02*
X124630000Y-28710000D01*
X118090000Y-29040000D02*
X124630000Y-29040000D01*
X118090000Y-26300000D02*
X124630000Y-26300000D01*
%TO.C,M4*%
X138430000Y-73660000D02*
X123190000Y-73660000D01*
X138430000Y-58420000D02*
X138430000Y-73660000D01*
X138430000Y-58420000D02*
X123190000Y-58420000D01*
X123190000Y-58420000D02*
X123190000Y-73660000D01*
%TO.C,M15*%
X179070000Y-127000000D02*
X179070000Y-142240000D01*
X194310000Y-127000000D02*
X194310000Y-142240000D01*
X194310000Y-142240000D02*
X179070000Y-142240000D01*
X194310000Y-127000000D02*
X179070000Y-127000000D01*
%TO.C,R2*%
X105160000Y-61292000D02*
X98620000Y-61292000D01*
X98620000Y-61292000D02*
X98620000Y-61622000D01*
X105160000Y-64032000D02*
X98620000Y-64032000D01*
X105160000Y-61622000D02*
X105160000Y-61292000D01*
X105160000Y-63702000D02*
X105160000Y-64032000D01*
X98620000Y-64032000D02*
X98620000Y-63702000D01*
%TO.C,M8*%
X166370000Y-73660000D02*
X151130000Y-73660000D01*
X151130000Y-58420000D02*
X151130000Y-73660000D01*
X166370000Y-58420000D02*
X166370000Y-73660000D01*
X166370000Y-58420000D02*
X151130000Y-58420000D01*
%TO.C,C4*%
X103920000Y-25950000D02*
X103920000Y-28690000D01*
X109160000Y-25950000D02*
X109160000Y-28690000D01*
X103920000Y-25950000D02*
X109160000Y-25950000D01*
X103920000Y-28690000D02*
X109160000Y-28690000D01*
%TO.C,M6*%
X138430000Y-104140000D02*
X123190000Y-104140000D01*
X123190000Y-104140000D02*
X123190000Y-119380000D01*
X138430000Y-104140000D02*
X138430000Y-119380000D01*
X138430000Y-119380000D02*
X123190000Y-119380000D01*
%TO.C,C3*%
X199590000Y-30745000D02*
X199590000Y-28005000D01*
X194350000Y-30745000D02*
X194350000Y-28005000D01*
X199590000Y-28005000D02*
X194350000Y-28005000D01*
X199590000Y-30745000D02*
X194350000Y-30745000D01*
%TO.C,M11*%
X166370000Y-126994000D02*
X151130000Y-126994000D01*
X166370000Y-142234000D02*
X151130000Y-142234000D01*
X166370000Y-126994000D02*
X166370000Y-142234000D01*
X151130000Y-126994000D02*
X151130000Y-142234000D01*
%TO.C,R5*%
X124034000Y-22116000D02*
X124034000Y-22446000D01*
X124034000Y-22446000D02*
X117494000Y-22446000D01*
X117494000Y-19706000D02*
X117494000Y-20036000D01*
X124034000Y-19706000D02*
X117494000Y-19706000D01*
X124034000Y-20036000D02*
X124034000Y-19706000D01*
X117494000Y-22446000D02*
X117494000Y-22116000D01*
%TO.C,C1*%
X98906000Y-24230000D02*
X98906000Y-18990000D01*
X96166000Y-24230000D02*
X98906000Y-24230000D01*
X96166000Y-18990000D02*
X98906000Y-18990000D01*
X96166000Y-24230000D02*
X96166000Y-18990000D01*
%TO.C,R10*%
X133210000Y-29300000D02*
X139750000Y-29300000D01*
X139750000Y-26560000D02*
X139750000Y-26890000D01*
X133210000Y-26560000D02*
X139750000Y-26560000D01*
X133210000Y-28970000D02*
X133210000Y-29300000D01*
X139750000Y-29300000D02*
X139750000Y-28970000D01*
X133210000Y-26890000D02*
X133210000Y-26560000D01*
%TO.C,U6*%
X126640000Y-24070000D02*
X126640000Y-27670000D01*
X127367205Y-23545816D02*
G75*
G03*
X126640000Y-24070000I1122795J-2324184D01*
G01*
X129588807Y-28226400D02*
G75*
G03*
X131090000Y-25870000I-1098807J2356400D01*
G01*
X126640000Y-27670000D02*
G75*
G03*
X127367205Y-28194184I1850000J1800000D01*
G01*
X131090000Y-25870000D02*
G75*
G03*
X129588807Y-23513600I-2600000J0D01*
G01*
%TO.C,M3*%
X110490000Y-127000000D02*
X95250000Y-127000000D01*
X110490000Y-142240000D02*
X95250000Y-142240000D01*
X95250000Y-127000000D02*
X95250000Y-142240000D01*
X110490000Y-127000000D02*
X110490000Y-142240000D01*
%TO.C,C5*%
X149400000Y-31350000D02*
X149400000Y-28610000D01*
X154640000Y-28610000D02*
X149400000Y-28610000D01*
X154640000Y-31350000D02*
X154640000Y-28610000D01*
X154640000Y-31350000D02*
X149400000Y-31350000D01*
%TO.C,R9*%
X118130000Y-23020000D02*
X124670000Y-23020000D01*
X118130000Y-23350000D02*
X118130000Y-23020000D01*
X118130000Y-25430000D02*
X118130000Y-25760000D01*
X124670000Y-23020000D02*
X124670000Y-23350000D01*
X124670000Y-25760000D02*
X124670000Y-25430000D01*
X118130000Y-25760000D02*
X124670000Y-25760000D01*
%TO.C,R3*%
X115320000Y-61292000D02*
X108780000Y-61292000D01*
X115320000Y-61622000D02*
X115320000Y-61292000D01*
X115320000Y-64032000D02*
X108780000Y-64032000D01*
X115320000Y-63702000D02*
X115320000Y-64032000D01*
X108780000Y-61292000D02*
X108780000Y-61622000D01*
X108780000Y-64032000D02*
X108780000Y-63702000D01*
%TO.C,M9*%
X166370000Y-81280000D02*
X151130000Y-81280000D01*
X151130000Y-81280000D02*
X151130000Y-96520000D01*
X166370000Y-81280000D02*
X166370000Y-96520000D01*
X166370000Y-96520000D02*
X151130000Y-96520000D01*
%TO.C,M1*%
X110490000Y-81280000D02*
X95250000Y-81280000D01*
X95250000Y-81280000D02*
X95250000Y-96520000D01*
X110490000Y-96520000D02*
X95250000Y-96520000D01*
X110490000Y-81280000D02*
X110490000Y-96520000D01*
%TO.C,Q1*%
X115630000Y-27610000D02*
X115630000Y-24010000D01*
X112681193Y-23453600D02*
G75*
G03*
X111180000Y-25810000I1098807J-2356400D01*
G01*
X114902795Y-28134184D02*
G75*
G03*
X115630000Y-27610000I-1122795J2324184D01*
G01*
X111180000Y-25810000D02*
G75*
G03*
X112681193Y-28166400I2600000J0D01*
G01*
X115630000Y-24010000D02*
G75*
G03*
X114902795Y-23485816I-1850000J-1800000D01*
G01*
%TO.C,J1*%
X95370000Y-56600000D02*
X87750000Y-56600000D01*
X87750000Y-66760000D02*
X95370000Y-66760000D01*
X95370000Y-66760000D02*
X95370000Y-56600000D01*
X89020000Y-66760000D02*
X89020000Y-56600000D01*
X87750000Y-56600000D02*
X87750000Y-66760000D01*
%TO.C,U2*%
X154500000Y-31800000D02*
X144220000Y-31800000D01*
X152010000Y-49760000D02*
X152010000Y-31860000D01*
X148360000Y-31860000D02*
X146710000Y-31860000D01*
X144220000Y-49820000D02*
X154500000Y-49820000D01*
X146710000Y-49760000D02*
X152010000Y-49760000D01*
X144220000Y-31800000D02*
X144220000Y-49820000D01*
X154500000Y-49820000D02*
X154500000Y-31800000D01*
X152010000Y-31860000D02*
X150360000Y-31860000D01*
X146710000Y-31860000D02*
X146710000Y-49760000D01*
X148360000Y-31860000D02*
G75*
G03*
X150360000Y-31860000I1000000J0D01*
G01*
%TO.C,M14*%
X194310000Y-104140000D02*
X179070000Y-104140000D01*
X194310000Y-104140000D02*
X194310000Y-119380000D01*
X194310000Y-119380000D02*
X179070000Y-119380000D01*
X179070000Y-104140000D02*
X179070000Y-119380000D01*
%TO.C,U4*%
X175070000Y-51895000D02*
X185350000Y-51895000D01*
X182860000Y-51835000D02*
X182860000Y-31395000D01*
X177560000Y-51835000D02*
X182860000Y-51835000D01*
X179210000Y-31395000D02*
X177560000Y-31395000D01*
X175070000Y-31335000D02*
X175070000Y-51895000D01*
X185350000Y-51895000D02*
X185350000Y-31335000D01*
X182860000Y-31395000D02*
X181210000Y-31395000D01*
X185350000Y-31335000D02*
X175070000Y-31335000D01*
X177560000Y-31395000D02*
X177560000Y-51835000D01*
X179210000Y-31395000D02*
G75*
G03*
X181210000Y-31395000I1000000J0D01*
G01*
%TO.C,M13*%
X194310000Y-96520000D02*
X179070000Y-96520000D01*
X194310000Y-81280000D02*
X194310000Y-96520000D01*
X194310000Y-81280000D02*
X179070000Y-81280000D01*
X179070000Y-81280000D02*
X179070000Y-96520000D01*
%TO.C,M5*%
X138430000Y-81280000D02*
X138430000Y-96520000D01*
X138430000Y-96520000D02*
X123190000Y-96520000D01*
X123190000Y-81280000D02*
X123190000Y-96520000D01*
X138430000Y-81280000D02*
X123190000Y-81280000D01*
%TD*%
M02*
