M48
; DRILL file {KiCad (6.0.11)} date Fri Mar 10 23:38:33 2023
; FORMAT={-:-/ absolute / inch / decimal}
; #@! TF.CreationDate,2023-03-10T23:38:33-06:00
; #@! TF.GenerationSoftware,Kicad,Pcbnew,(6.0.11)
; #@! TF.FileFunction,NonPlated,1,2,NPTH
FMAT,2
INCH
; #@! TA.AperFunction,NonPlated,NPTH,ComponentDrill
T1C0.0591
; #@! TA.AperFunction,NonPlated,NPTH,ComponentDrill
T2C0.0709
; #@! TA.AperFunction,NonPlated,NPTH,ComponentDrill
T3C0.1181
; #@! TA.AperFunction,NonPlated,NPTH,ComponentDrill
T4C0.1260
%
G90
G05
T1
X3.6144Y-1.5745
X3.6144Y-1.7655
T2
X3.4951Y-1.5627
X3.4951Y-1.7773
T3
X3.65Y-3.45
X3.65Y-4.35
X3.65Y-5.25
X4.45Y-3.45
X4.45Y-4.35
X4.45Y-5.25
X4.75Y-2.55
X4.75Y-3.45
X4.75Y-4.35
X4.75Y-5.25
X5.55Y-2.55
X5.55Y-3.45
X5.55Y-4.35
X5.55Y-5.25
X5.85Y-2.55
X5.85Y-3.45
X5.85Y-4.35
X5.85Y-5.2498
X6.65Y-2.55
X6.65Y-3.45
X6.65Y-4.35
X6.65Y-5.2498
X6.95Y-2.55
X6.95Y-3.45
X6.95Y-4.35
X6.95Y-5.25
X7.75Y-2.55
X7.75Y-3.45
X7.75Y-4.35
X7.75Y-5.25
T4
X3.5433Y-0.8661
X3.5433Y-5.5512
X7.8145Y-5.5512
X7.8346Y-0.8661
T0
M30
