%TF.GenerationSoftware,KiCad,Pcbnew,(6.0.11)*%
%TF.CreationDate,2023-03-17T21:07:47-05:00*%
%TF.ProjectId,HIDPanel,48494450-616e-4656-9c2e-6b696361645f,rev?*%
%TF.SameCoordinates,Original*%
%TF.FileFunction,Legend,Top*%
%TF.FilePolarity,Positive*%
%FSLAX46Y46*%
G04 Gerber Fmt 4.6, Leading zero omitted, Abs format (unit mm)*
G04 Created by KiCad (PCBNEW (6.0.11)) date 2023-03-17 21:07:47*
%MOMM*%
%LPD*%
G01*
G04 APERTURE LIST*
%ADD10C,0.150000*%
%ADD11C,0.120000*%
G04 APERTURE END LIST*
D10*
X200660000Y-152400000D02*
X200660000Y-53340000D01*
X86360000Y-144780000D02*
X203200000Y-144780000D01*
X123069047Y-126379761D02*
X123211904Y-126427380D01*
X123450000Y-126427380D01*
X123545238Y-126379761D01*
X123592857Y-126332142D01*
X123640476Y-126236904D01*
X123640476Y-126141666D01*
X123592857Y-126046428D01*
X123545238Y-125998809D01*
X123450000Y-125951190D01*
X123259523Y-125903571D01*
X123164285Y-125855952D01*
X123116666Y-125808333D01*
X123069047Y-125713095D01*
X123069047Y-125617857D01*
X123116666Y-125522619D01*
X123164285Y-125475000D01*
X123259523Y-125427380D01*
X123497619Y-125427380D01*
X123640476Y-125475000D01*
X123973809Y-125427380D02*
X124211904Y-126427380D01*
X124402380Y-125713095D01*
X124592857Y-126427380D01*
X124830952Y-125427380D01*
X125164285Y-125522619D02*
X125211904Y-125475000D01*
X125307142Y-125427380D01*
X125545238Y-125427380D01*
X125640476Y-125475000D01*
X125688095Y-125522619D01*
X125735714Y-125617857D01*
X125735714Y-125713095D01*
X125688095Y-125855952D01*
X125116666Y-126427380D01*
X125735714Y-126427380D01*
X126926190Y-126427380D02*
X126926190Y-125427380D01*
X127497619Y-126427380D01*
X127497619Y-125427380D01*
X128164285Y-125427380D02*
X128354761Y-125427380D01*
X128450000Y-125475000D01*
X128545238Y-125570238D01*
X128592857Y-125760714D01*
X128592857Y-126094047D01*
X128545238Y-126284523D01*
X128450000Y-126379761D01*
X128354761Y-126427380D01*
X128164285Y-126427380D01*
X128069047Y-126379761D01*
X127973809Y-126284523D01*
X127926190Y-126094047D01*
X127926190Y-125760714D01*
X127973809Y-125570238D01*
X128069047Y-125475000D01*
X128164285Y-125427380D01*
X128878571Y-125427380D02*
X129450000Y-125427380D01*
X129164285Y-126427380D02*
X129164285Y-125427380D01*
X131116666Y-126332142D02*
X131069047Y-126379761D01*
X130926190Y-126427380D01*
X130830952Y-126427380D01*
X130688095Y-126379761D01*
X130592857Y-126284523D01*
X130545238Y-126189285D01*
X130497619Y-125998809D01*
X130497619Y-125855952D01*
X130545238Y-125665476D01*
X130592857Y-125570238D01*
X130688095Y-125475000D01*
X130830952Y-125427380D01*
X130926190Y-125427380D01*
X131069047Y-125475000D01*
X131116666Y-125522619D01*
X131735714Y-125427380D02*
X131926190Y-125427380D01*
X132021428Y-125475000D01*
X132116666Y-125570238D01*
X132164285Y-125760714D01*
X132164285Y-126094047D01*
X132116666Y-126284523D01*
X132021428Y-126379761D01*
X131926190Y-126427380D01*
X131735714Y-126427380D01*
X131640476Y-126379761D01*
X131545238Y-126284523D01*
X131497619Y-126094047D01*
X131497619Y-125760714D01*
X131545238Y-125570238D01*
X131640476Y-125475000D01*
X131735714Y-125427380D01*
X132592857Y-126427380D02*
X132592857Y-125427380D01*
X133164285Y-126427380D01*
X133164285Y-125427380D01*
X133640476Y-126427380D02*
X133640476Y-125427380D01*
X134211904Y-126427380D01*
X134211904Y-125427380D01*
X134688095Y-125903571D02*
X135021428Y-125903571D01*
X135164285Y-126427380D02*
X134688095Y-126427380D01*
X134688095Y-125427380D01*
X135164285Y-125427380D01*
X136164285Y-126332142D02*
X136116666Y-126379761D01*
X135973809Y-126427380D01*
X135878571Y-126427380D01*
X135735714Y-126379761D01*
X135640476Y-126284523D01*
X135592857Y-126189285D01*
X135545238Y-125998809D01*
X135545238Y-125855952D01*
X135592857Y-125665476D01*
X135640476Y-125570238D01*
X135735714Y-125475000D01*
X135878571Y-125427380D01*
X135973809Y-125427380D01*
X136116666Y-125475000D01*
X136164285Y-125522619D01*
X136450000Y-125427380D02*
X137021428Y-125427380D01*
X136735714Y-126427380D02*
X136735714Y-125427380D01*
X137354761Y-125903571D02*
X137688095Y-125903571D01*
X137830952Y-126427380D02*
X137354761Y-126427380D01*
X137354761Y-125427380D01*
X137830952Y-125427380D01*
X138259523Y-126427380D02*
X138259523Y-125427380D01*
X138497619Y-125427380D01*
X138640476Y-125475000D01*
X138735714Y-125570238D01*
X138783333Y-125665476D01*
X138830952Y-125855952D01*
X138830952Y-125998809D01*
X138783333Y-126189285D01*
X138735714Y-126284523D01*
X138640476Y-126379761D01*
X138497619Y-126427380D01*
X138259523Y-126427380D01*
X95294047Y-126379761D02*
X95436904Y-126427380D01*
X95675000Y-126427380D01*
X95770238Y-126379761D01*
X95817857Y-126332142D01*
X95865476Y-126236904D01*
X95865476Y-126141666D01*
X95817857Y-126046428D01*
X95770238Y-125998809D01*
X95675000Y-125951190D01*
X95484523Y-125903571D01*
X95389285Y-125855952D01*
X95341666Y-125808333D01*
X95294047Y-125713095D01*
X95294047Y-125617857D01*
X95341666Y-125522619D01*
X95389285Y-125475000D01*
X95484523Y-125427380D01*
X95722619Y-125427380D01*
X95865476Y-125475000D01*
X96198809Y-125427380D02*
X96436904Y-126427380D01*
X96627380Y-125713095D01*
X96817857Y-126427380D01*
X97055952Y-125427380D01*
X97389285Y-125522619D02*
X97436904Y-125475000D01*
X97532142Y-125427380D01*
X97770238Y-125427380D01*
X97865476Y-125475000D01*
X97913095Y-125522619D01*
X97960714Y-125617857D01*
X97960714Y-125713095D01*
X97913095Y-125855952D01*
X97341666Y-126427380D01*
X97960714Y-126427380D01*
X99151190Y-126427380D02*
X99151190Y-125427380D01*
X99722619Y-126427380D01*
X99722619Y-125427380D01*
X100389285Y-125427380D02*
X100579761Y-125427380D01*
X100675000Y-125475000D01*
X100770238Y-125570238D01*
X100817857Y-125760714D01*
X100817857Y-126094047D01*
X100770238Y-126284523D01*
X100675000Y-126379761D01*
X100579761Y-126427380D01*
X100389285Y-126427380D01*
X100294047Y-126379761D01*
X100198809Y-126284523D01*
X100151190Y-126094047D01*
X100151190Y-125760714D01*
X100198809Y-125570238D01*
X100294047Y-125475000D01*
X100389285Y-125427380D01*
X101103571Y-125427380D02*
X101675000Y-125427380D01*
X101389285Y-126427380D02*
X101389285Y-125427380D01*
X103341666Y-126332142D02*
X103294047Y-126379761D01*
X103151190Y-126427380D01*
X103055952Y-126427380D01*
X102913095Y-126379761D01*
X102817857Y-126284523D01*
X102770238Y-126189285D01*
X102722619Y-125998809D01*
X102722619Y-125855952D01*
X102770238Y-125665476D01*
X102817857Y-125570238D01*
X102913095Y-125475000D01*
X103055952Y-125427380D01*
X103151190Y-125427380D01*
X103294047Y-125475000D01*
X103341666Y-125522619D01*
X103960714Y-125427380D02*
X104151190Y-125427380D01*
X104246428Y-125475000D01*
X104341666Y-125570238D01*
X104389285Y-125760714D01*
X104389285Y-126094047D01*
X104341666Y-126284523D01*
X104246428Y-126379761D01*
X104151190Y-126427380D01*
X103960714Y-126427380D01*
X103865476Y-126379761D01*
X103770238Y-126284523D01*
X103722619Y-126094047D01*
X103722619Y-125760714D01*
X103770238Y-125570238D01*
X103865476Y-125475000D01*
X103960714Y-125427380D01*
X104817857Y-126427380D02*
X104817857Y-125427380D01*
X105389285Y-126427380D01*
X105389285Y-125427380D01*
X105865476Y-126427380D02*
X105865476Y-125427380D01*
X106436904Y-126427380D01*
X106436904Y-125427380D01*
X106913095Y-125903571D02*
X107246428Y-125903571D01*
X107389285Y-126427380D02*
X106913095Y-126427380D01*
X106913095Y-125427380D01*
X107389285Y-125427380D01*
X108389285Y-126332142D02*
X108341666Y-126379761D01*
X108198809Y-126427380D01*
X108103571Y-126427380D01*
X107960714Y-126379761D01*
X107865476Y-126284523D01*
X107817857Y-126189285D01*
X107770238Y-125998809D01*
X107770238Y-125855952D01*
X107817857Y-125665476D01*
X107865476Y-125570238D01*
X107960714Y-125475000D01*
X108103571Y-125427380D01*
X108198809Y-125427380D01*
X108341666Y-125475000D01*
X108389285Y-125522619D01*
X108675000Y-125427380D02*
X109246428Y-125427380D01*
X108960714Y-126427380D02*
X108960714Y-125427380D01*
X109579761Y-125903571D02*
X109913095Y-125903571D01*
X110055952Y-126427380D02*
X109579761Y-126427380D01*
X109579761Y-125427380D01*
X110055952Y-125427380D01*
X110484523Y-126427380D02*
X110484523Y-125427380D01*
X110722619Y-125427380D01*
X110865476Y-125475000D01*
X110960714Y-125570238D01*
X111008333Y-125665476D01*
X111055952Y-125855952D01*
X111055952Y-125998809D01*
X111008333Y-126189285D01*
X110960714Y-126284523D01*
X110865476Y-126379761D01*
X110722619Y-126427380D01*
X110484523Y-126427380D01*
X95544047Y-103404761D02*
X95686904Y-103452380D01*
X95925000Y-103452380D01*
X96020238Y-103404761D01*
X96067857Y-103357142D01*
X96115476Y-103261904D01*
X96115476Y-103166666D01*
X96067857Y-103071428D01*
X96020238Y-103023809D01*
X95925000Y-102976190D01*
X95734523Y-102928571D01*
X95639285Y-102880952D01*
X95591666Y-102833333D01*
X95544047Y-102738095D01*
X95544047Y-102642857D01*
X95591666Y-102547619D01*
X95639285Y-102500000D01*
X95734523Y-102452380D01*
X95972619Y-102452380D01*
X96115476Y-102500000D01*
X96448809Y-102452380D02*
X96686904Y-103452380D01*
X96877380Y-102738095D01*
X97067857Y-103452380D01*
X97305952Y-102452380D01*
X97639285Y-102547619D02*
X97686904Y-102500000D01*
X97782142Y-102452380D01*
X98020238Y-102452380D01*
X98115476Y-102500000D01*
X98163095Y-102547619D01*
X98210714Y-102642857D01*
X98210714Y-102738095D01*
X98163095Y-102880952D01*
X97591666Y-103452380D01*
X98210714Y-103452380D01*
X99401190Y-103452380D02*
X99401190Y-102452380D01*
X99972619Y-103452380D01*
X99972619Y-102452380D01*
X100639285Y-102452380D02*
X100829761Y-102452380D01*
X100925000Y-102500000D01*
X101020238Y-102595238D01*
X101067857Y-102785714D01*
X101067857Y-103119047D01*
X101020238Y-103309523D01*
X100925000Y-103404761D01*
X100829761Y-103452380D01*
X100639285Y-103452380D01*
X100544047Y-103404761D01*
X100448809Y-103309523D01*
X100401190Y-103119047D01*
X100401190Y-102785714D01*
X100448809Y-102595238D01*
X100544047Y-102500000D01*
X100639285Y-102452380D01*
X101353571Y-102452380D02*
X101925000Y-102452380D01*
X101639285Y-103452380D02*
X101639285Y-102452380D01*
X103591666Y-103357142D02*
X103544047Y-103404761D01*
X103401190Y-103452380D01*
X103305952Y-103452380D01*
X103163095Y-103404761D01*
X103067857Y-103309523D01*
X103020238Y-103214285D01*
X102972619Y-103023809D01*
X102972619Y-102880952D01*
X103020238Y-102690476D01*
X103067857Y-102595238D01*
X103163095Y-102500000D01*
X103305952Y-102452380D01*
X103401190Y-102452380D01*
X103544047Y-102500000D01*
X103591666Y-102547619D01*
X104210714Y-102452380D02*
X104401190Y-102452380D01*
X104496428Y-102500000D01*
X104591666Y-102595238D01*
X104639285Y-102785714D01*
X104639285Y-103119047D01*
X104591666Y-103309523D01*
X104496428Y-103404761D01*
X104401190Y-103452380D01*
X104210714Y-103452380D01*
X104115476Y-103404761D01*
X104020238Y-103309523D01*
X103972619Y-103119047D01*
X103972619Y-102785714D01*
X104020238Y-102595238D01*
X104115476Y-102500000D01*
X104210714Y-102452380D01*
X105067857Y-103452380D02*
X105067857Y-102452380D01*
X105639285Y-103452380D01*
X105639285Y-102452380D01*
X106115476Y-103452380D02*
X106115476Y-102452380D01*
X106686904Y-103452380D01*
X106686904Y-102452380D01*
X107163095Y-102928571D02*
X107496428Y-102928571D01*
X107639285Y-103452380D02*
X107163095Y-103452380D01*
X107163095Y-102452380D01*
X107639285Y-102452380D01*
X108639285Y-103357142D02*
X108591666Y-103404761D01*
X108448809Y-103452380D01*
X108353571Y-103452380D01*
X108210714Y-103404761D01*
X108115476Y-103309523D01*
X108067857Y-103214285D01*
X108020238Y-103023809D01*
X108020238Y-102880952D01*
X108067857Y-102690476D01*
X108115476Y-102595238D01*
X108210714Y-102500000D01*
X108353571Y-102452380D01*
X108448809Y-102452380D01*
X108591666Y-102500000D01*
X108639285Y-102547619D01*
X108925000Y-102452380D02*
X109496428Y-102452380D01*
X109210714Y-103452380D02*
X109210714Y-102452380D01*
X109829761Y-102928571D02*
X110163095Y-102928571D01*
X110305952Y-103452380D02*
X109829761Y-103452380D01*
X109829761Y-102452380D01*
X110305952Y-102452380D01*
X110734523Y-103452380D02*
X110734523Y-102452380D01*
X110972619Y-102452380D01*
X111115476Y-102500000D01*
X111210714Y-102595238D01*
X111258333Y-102690476D01*
X111305952Y-102880952D01*
X111305952Y-103023809D01*
X111258333Y-103214285D01*
X111210714Y-103309523D01*
X111115476Y-103404761D01*
X110972619Y-103452380D01*
X110734523Y-103452380D01*
X122819047Y-103404761D02*
X122961904Y-103452380D01*
X123200000Y-103452380D01*
X123295238Y-103404761D01*
X123342857Y-103357142D01*
X123390476Y-103261904D01*
X123390476Y-103166666D01*
X123342857Y-103071428D01*
X123295238Y-103023809D01*
X123200000Y-102976190D01*
X123009523Y-102928571D01*
X122914285Y-102880952D01*
X122866666Y-102833333D01*
X122819047Y-102738095D01*
X122819047Y-102642857D01*
X122866666Y-102547619D01*
X122914285Y-102500000D01*
X123009523Y-102452380D01*
X123247619Y-102452380D01*
X123390476Y-102500000D01*
X123723809Y-102452380D02*
X123961904Y-103452380D01*
X124152380Y-102738095D01*
X124342857Y-103452380D01*
X124580952Y-102452380D01*
X124914285Y-102547619D02*
X124961904Y-102500000D01*
X125057142Y-102452380D01*
X125295238Y-102452380D01*
X125390476Y-102500000D01*
X125438095Y-102547619D01*
X125485714Y-102642857D01*
X125485714Y-102738095D01*
X125438095Y-102880952D01*
X124866666Y-103452380D01*
X125485714Y-103452380D01*
X126676190Y-103452380D02*
X126676190Y-102452380D01*
X127247619Y-103452380D01*
X127247619Y-102452380D01*
X127914285Y-102452380D02*
X128104761Y-102452380D01*
X128200000Y-102500000D01*
X128295238Y-102595238D01*
X128342857Y-102785714D01*
X128342857Y-103119047D01*
X128295238Y-103309523D01*
X128200000Y-103404761D01*
X128104761Y-103452380D01*
X127914285Y-103452380D01*
X127819047Y-103404761D01*
X127723809Y-103309523D01*
X127676190Y-103119047D01*
X127676190Y-102785714D01*
X127723809Y-102595238D01*
X127819047Y-102500000D01*
X127914285Y-102452380D01*
X128628571Y-102452380D02*
X129200000Y-102452380D01*
X128914285Y-103452380D02*
X128914285Y-102452380D01*
X130866666Y-103357142D02*
X130819047Y-103404761D01*
X130676190Y-103452380D01*
X130580952Y-103452380D01*
X130438095Y-103404761D01*
X130342857Y-103309523D01*
X130295238Y-103214285D01*
X130247619Y-103023809D01*
X130247619Y-102880952D01*
X130295238Y-102690476D01*
X130342857Y-102595238D01*
X130438095Y-102500000D01*
X130580952Y-102452380D01*
X130676190Y-102452380D01*
X130819047Y-102500000D01*
X130866666Y-102547619D01*
X131485714Y-102452380D02*
X131676190Y-102452380D01*
X131771428Y-102500000D01*
X131866666Y-102595238D01*
X131914285Y-102785714D01*
X131914285Y-103119047D01*
X131866666Y-103309523D01*
X131771428Y-103404761D01*
X131676190Y-103452380D01*
X131485714Y-103452380D01*
X131390476Y-103404761D01*
X131295238Y-103309523D01*
X131247619Y-103119047D01*
X131247619Y-102785714D01*
X131295238Y-102595238D01*
X131390476Y-102500000D01*
X131485714Y-102452380D01*
X132342857Y-103452380D02*
X132342857Y-102452380D01*
X132914285Y-103452380D01*
X132914285Y-102452380D01*
X133390476Y-103452380D02*
X133390476Y-102452380D01*
X133961904Y-103452380D01*
X133961904Y-102452380D01*
X134438095Y-102928571D02*
X134771428Y-102928571D01*
X134914285Y-103452380D02*
X134438095Y-103452380D01*
X134438095Y-102452380D01*
X134914285Y-102452380D01*
X135914285Y-103357142D02*
X135866666Y-103404761D01*
X135723809Y-103452380D01*
X135628571Y-103452380D01*
X135485714Y-103404761D01*
X135390476Y-103309523D01*
X135342857Y-103214285D01*
X135295238Y-103023809D01*
X135295238Y-102880952D01*
X135342857Y-102690476D01*
X135390476Y-102595238D01*
X135485714Y-102500000D01*
X135628571Y-102452380D01*
X135723809Y-102452380D01*
X135866666Y-102500000D01*
X135914285Y-102547619D01*
X136200000Y-102452380D02*
X136771428Y-102452380D01*
X136485714Y-103452380D02*
X136485714Y-102452380D01*
X137104761Y-102928571D02*
X137438095Y-102928571D01*
X137580952Y-103452380D02*
X137104761Y-103452380D01*
X137104761Y-102452380D01*
X137580952Y-102452380D01*
X138009523Y-103452380D02*
X138009523Y-102452380D01*
X138247619Y-102452380D01*
X138390476Y-102500000D01*
X138485714Y-102595238D01*
X138533333Y-102690476D01*
X138580952Y-102880952D01*
X138580952Y-103023809D01*
X138533333Y-103214285D01*
X138485714Y-103309523D01*
X138390476Y-103404761D01*
X138247619Y-103452380D01*
X138009523Y-103452380D01*
X122819047Y-80554761D02*
X122961904Y-80602380D01*
X123200000Y-80602380D01*
X123295238Y-80554761D01*
X123342857Y-80507142D01*
X123390476Y-80411904D01*
X123390476Y-80316666D01*
X123342857Y-80221428D01*
X123295238Y-80173809D01*
X123200000Y-80126190D01*
X123009523Y-80078571D01*
X122914285Y-80030952D01*
X122866666Y-79983333D01*
X122819047Y-79888095D01*
X122819047Y-79792857D01*
X122866666Y-79697619D01*
X122914285Y-79650000D01*
X123009523Y-79602380D01*
X123247619Y-79602380D01*
X123390476Y-79650000D01*
X123723809Y-79602380D02*
X123961904Y-80602380D01*
X124152380Y-79888095D01*
X124342857Y-80602380D01*
X124580952Y-79602380D01*
X124914285Y-79697619D02*
X124961904Y-79650000D01*
X125057142Y-79602380D01*
X125295238Y-79602380D01*
X125390476Y-79650000D01*
X125438095Y-79697619D01*
X125485714Y-79792857D01*
X125485714Y-79888095D01*
X125438095Y-80030952D01*
X124866666Y-80602380D01*
X125485714Y-80602380D01*
X126676190Y-80602380D02*
X126676190Y-79602380D01*
X127247619Y-80602380D01*
X127247619Y-79602380D01*
X127914285Y-79602380D02*
X128104761Y-79602380D01*
X128200000Y-79650000D01*
X128295238Y-79745238D01*
X128342857Y-79935714D01*
X128342857Y-80269047D01*
X128295238Y-80459523D01*
X128200000Y-80554761D01*
X128104761Y-80602380D01*
X127914285Y-80602380D01*
X127819047Y-80554761D01*
X127723809Y-80459523D01*
X127676190Y-80269047D01*
X127676190Y-79935714D01*
X127723809Y-79745238D01*
X127819047Y-79650000D01*
X127914285Y-79602380D01*
X128628571Y-79602380D02*
X129200000Y-79602380D01*
X128914285Y-80602380D02*
X128914285Y-79602380D01*
X130866666Y-80507142D02*
X130819047Y-80554761D01*
X130676190Y-80602380D01*
X130580952Y-80602380D01*
X130438095Y-80554761D01*
X130342857Y-80459523D01*
X130295238Y-80364285D01*
X130247619Y-80173809D01*
X130247619Y-80030952D01*
X130295238Y-79840476D01*
X130342857Y-79745238D01*
X130438095Y-79650000D01*
X130580952Y-79602380D01*
X130676190Y-79602380D01*
X130819047Y-79650000D01*
X130866666Y-79697619D01*
X131485714Y-79602380D02*
X131676190Y-79602380D01*
X131771428Y-79650000D01*
X131866666Y-79745238D01*
X131914285Y-79935714D01*
X131914285Y-80269047D01*
X131866666Y-80459523D01*
X131771428Y-80554761D01*
X131676190Y-80602380D01*
X131485714Y-80602380D01*
X131390476Y-80554761D01*
X131295238Y-80459523D01*
X131247619Y-80269047D01*
X131247619Y-79935714D01*
X131295238Y-79745238D01*
X131390476Y-79650000D01*
X131485714Y-79602380D01*
X132342857Y-80602380D02*
X132342857Y-79602380D01*
X132914285Y-80602380D01*
X132914285Y-79602380D01*
X133390476Y-80602380D02*
X133390476Y-79602380D01*
X133961904Y-80602380D01*
X133961904Y-79602380D01*
X134438095Y-80078571D02*
X134771428Y-80078571D01*
X134914285Y-80602380D02*
X134438095Y-80602380D01*
X134438095Y-79602380D01*
X134914285Y-79602380D01*
X135914285Y-80507142D02*
X135866666Y-80554761D01*
X135723809Y-80602380D01*
X135628571Y-80602380D01*
X135485714Y-80554761D01*
X135390476Y-80459523D01*
X135342857Y-80364285D01*
X135295238Y-80173809D01*
X135295238Y-80030952D01*
X135342857Y-79840476D01*
X135390476Y-79745238D01*
X135485714Y-79650000D01*
X135628571Y-79602380D01*
X135723809Y-79602380D01*
X135866666Y-79650000D01*
X135914285Y-79697619D01*
X136200000Y-79602380D02*
X136771428Y-79602380D01*
X136485714Y-80602380D02*
X136485714Y-79602380D01*
X137104761Y-80078571D02*
X137438095Y-80078571D01*
X137580952Y-80602380D02*
X137104761Y-80602380D01*
X137104761Y-79602380D01*
X137580952Y-79602380D01*
X138009523Y-80602380D02*
X138009523Y-79602380D01*
X138247619Y-79602380D01*
X138390476Y-79650000D01*
X138485714Y-79745238D01*
X138533333Y-79840476D01*
X138580952Y-80030952D01*
X138580952Y-80173809D01*
X138533333Y-80364285D01*
X138485714Y-80459523D01*
X138390476Y-80554761D01*
X138247619Y-80602380D01*
X138009523Y-80602380D01*
X94719047Y-80629761D02*
X94861904Y-80677380D01*
X95100000Y-80677380D01*
X95195238Y-80629761D01*
X95242857Y-80582142D01*
X95290476Y-80486904D01*
X95290476Y-80391666D01*
X95242857Y-80296428D01*
X95195238Y-80248809D01*
X95100000Y-80201190D01*
X94909523Y-80153571D01*
X94814285Y-80105952D01*
X94766666Y-80058333D01*
X94719047Y-79963095D01*
X94719047Y-79867857D01*
X94766666Y-79772619D01*
X94814285Y-79725000D01*
X94909523Y-79677380D01*
X95147619Y-79677380D01*
X95290476Y-79725000D01*
X95623809Y-79677380D02*
X95861904Y-80677380D01*
X96052380Y-79963095D01*
X96242857Y-80677380D01*
X96480952Y-79677380D01*
X96814285Y-79772619D02*
X96861904Y-79725000D01*
X96957142Y-79677380D01*
X97195238Y-79677380D01*
X97290476Y-79725000D01*
X97338095Y-79772619D01*
X97385714Y-79867857D01*
X97385714Y-79963095D01*
X97338095Y-80105952D01*
X96766666Y-80677380D01*
X97385714Y-80677380D01*
X98576190Y-80677380D02*
X98576190Y-79677380D01*
X99147619Y-80677380D01*
X99147619Y-79677380D01*
X99814285Y-79677380D02*
X100004761Y-79677380D01*
X100100000Y-79725000D01*
X100195238Y-79820238D01*
X100242857Y-80010714D01*
X100242857Y-80344047D01*
X100195238Y-80534523D01*
X100100000Y-80629761D01*
X100004761Y-80677380D01*
X99814285Y-80677380D01*
X99719047Y-80629761D01*
X99623809Y-80534523D01*
X99576190Y-80344047D01*
X99576190Y-80010714D01*
X99623809Y-79820238D01*
X99719047Y-79725000D01*
X99814285Y-79677380D01*
X100528571Y-79677380D02*
X101100000Y-79677380D01*
X100814285Y-80677380D02*
X100814285Y-79677380D01*
X102766666Y-80582142D02*
X102719047Y-80629761D01*
X102576190Y-80677380D01*
X102480952Y-80677380D01*
X102338095Y-80629761D01*
X102242857Y-80534523D01*
X102195238Y-80439285D01*
X102147619Y-80248809D01*
X102147619Y-80105952D01*
X102195238Y-79915476D01*
X102242857Y-79820238D01*
X102338095Y-79725000D01*
X102480952Y-79677380D01*
X102576190Y-79677380D01*
X102719047Y-79725000D01*
X102766666Y-79772619D01*
X103385714Y-79677380D02*
X103576190Y-79677380D01*
X103671428Y-79725000D01*
X103766666Y-79820238D01*
X103814285Y-80010714D01*
X103814285Y-80344047D01*
X103766666Y-80534523D01*
X103671428Y-80629761D01*
X103576190Y-80677380D01*
X103385714Y-80677380D01*
X103290476Y-80629761D01*
X103195238Y-80534523D01*
X103147619Y-80344047D01*
X103147619Y-80010714D01*
X103195238Y-79820238D01*
X103290476Y-79725000D01*
X103385714Y-79677380D01*
X104242857Y-80677380D02*
X104242857Y-79677380D01*
X104814285Y-80677380D01*
X104814285Y-79677380D01*
X105290476Y-80677380D02*
X105290476Y-79677380D01*
X105861904Y-80677380D01*
X105861904Y-79677380D01*
X106338095Y-80153571D02*
X106671428Y-80153571D01*
X106814285Y-80677380D02*
X106338095Y-80677380D01*
X106338095Y-79677380D01*
X106814285Y-79677380D01*
X107814285Y-80582142D02*
X107766666Y-80629761D01*
X107623809Y-80677380D01*
X107528571Y-80677380D01*
X107385714Y-80629761D01*
X107290476Y-80534523D01*
X107242857Y-80439285D01*
X107195238Y-80248809D01*
X107195238Y-80105952D01*
X107242857Y-79915476D01*
X107290476Y-79820238D01*
X107385714Y-79725000D01*
X107528571Y-79677380D01*
X107623809Y-79677380D01*
X107766666Y-79725000D01*
X107814285Y-79772619D01*
X108100000Y-79677380D02*
X108671428Y-79677380D01*
X108385714Y-80677380D02*
X108385714Y-79677380D01*
X109004761Y-80153571D02*
X109338095Y-80153571D01*
X109480952Y-80677380D02*
X109004761Y-80677380D01*
X109004761Y-79677380D01*
X109480952Y-79677380D01*
X109909523Y-80677380D02*
X109909523Y-79677380D01*
X110147619Y-79677380D01*
X110290476Y-79725000D01*
X110385714Y-79820238D01*
X110433333Y-79915476D01*
X110480952Y-80105952D01*
X110480952Y-80248809D01*
X110433333Y-80439285D01*
X110385714Y-80534523D01*
X110290476Y-80629761D01*
X110147619Y-80677380D01*
X109909523Y-80677380D01*
X203200000Y-121920000D02*
X86360000Y-121920000D01*
X203200000Y-76200000D02*
X86360000Y-76200000D01*
X88900000Y-152400000D02*
X88900000Y-68560000D01*
X116840000Y-152400000D02*
X116840000Y-55880000D01*
X203200000Y-99060000D02*
X86360000Y-99060000D01*
X144780000Y-152400000D02*
X144780000Y-53340000D01*
X172720000Y-152400000D02*
X172720000Y-53340000D01*
X117213904Y-42870380D02*
X116880571Y-42394190D01*
X116642476Y-42870380D02*
X116642476Y-41870380D01*
X117023428Y-41870380D01*
X117118666Y-41918000D01*
X117166285Y-41965619D01*
X117213904Y-42060857D01*
X117213904Y-42203714D01*
X117166285Y-42298952D01*
X117118666Y-42346571D01*
X117023428Y-42394190D01*
X116642476Y-42394190D01*
X117594857Y-42584666D02*
X118071047Y-42584666D01*
X117499619Y-42870380D02*
X117832952Y-41870380D01*
X118166285Y-42870380D01*
X118452000Y-42822761D02*
X118594857Y-42870380D01*
X118832952Y-42870380D01*
X118928190Y-42822761D01*
X118975809Y-42775142D01*
X119023428Y-42679904D01*
X119023428Y-42584666D01*
X118975809Y-42489428D01*
X118928190Y-42441809D01*
X118832952Y-42394190D01*
X118642476Y-42346571D01*
X118547238Y-42298952D01*
X118499619Y-42251333D01*
X118452000Y-42156095D01*
X118452000Y-42060857D01*
X118499619Y-41965619D01*
X118547238Y-41918000D01*
X118642476Y-41870380D01*
X118880571Y-41870380D01*
X119023428Y-41918000D01*
X119452000Y-42870380D02*
X119452000Y-41870380D01*
X119832952Y-41870380D01*
X119928190Y-41918000D01*
X119975809Y-41965619D01*
X120023428Y-42060857D01*
X120023428Y-42203714D01*
X119975809Y-42298952D01*
X119928190Y-42346571D01*
X119832952Y-42394190D01*
X119452000Y-42394190D01*
X120785333Y-42346571D02*
X120928190Y-42394190D01*
X120975809Y-42441809D01*
X121023428Y-42537047D01*
X121023428Y-42679904D01*
X120975809Y-42775142D01*
X120928190Y-42822761D01*
X120832952Y-42870380D01*
X120452000Y-42870380D01*
X120452000Y-41870380D01*
X120785333Y-41870380D01*
X120880571Y-41918000D01*
X120928190Y-41965619D01*
X120975809Y-42060857D01*
X120975809Y-42156095D01*
X120928190Y-42251333D01*
X120880571Y-42298952D01*
X120785333Y-42346571D01*
X120452000Y-42346571D01*
X121452000Y-42346571D02*
X121785333Y-42346571D01*
X121928190Y-42870380D02*
X121452000Y-42870380D01*
X121452000Y-41870380D01*
X121928190Y-41870380D01*
X122928190Y-42870380D02*
X122594857Y-42394190D01*
X122356761Y-42870380D02*
X122356761Y-41870380D01*
X122737714Y-41870380D01*
X122832952Y-41918000D01*
X122880571Y-41965619D01*
X122928190Y-42060857D01*
X122928190Y-42203714D01*
X122880571Y-42298952D01*
X122832952Y-42346571D01*
X122737714Y-42394190D01*
X122356761Y-42394190D01*
X123928190Y-42870380D02*
X123594857Y-42394190D01*
X123356761Y-42870380D02*
X123356761Y-41870380D01*
X123737714Y-41870380D01*
X123832952Y-41918000D01*
X123880571Y-41965619D01*
X123928190Y-42060857D01*
X123928190Y-42203714D01*
X123880571Y-42298952D01*
X123832952Y-42346571D01*
X123737714Y-42394190D01*
X123356761Y-42394190D01*
X124547238Y-42394190D02*
X124547238Y-42870380D01*
X124213904Y-41870380D02*
X124547238Y-42394190D01*
X124880571Y-41870380D01*
X125975809Y-42870380D02*
X125975809Y-41870380D01*
X126356761Y-41870380D01*
X126452000Y-41918000D01*
X126499619Y-41965619D01*
X126547238Y-42060857D01*
X126547238Y-42203714D01*
X126499619Y-42298952D01*
X126452000Y-42346571D01*
X126356761Y-42394190D01*
X125975809Y-42394190D01*
X126975809Y-42870380D02*
X126975809Y-41870380D01*
X128213904Y-42870380D02*
X128213904Y-41870380D01*
X128594857Y-41870380D01*
X128690095Y-41918000D01*
X128737714Y-41965619D01*
X128785333Y-42060857D01*
X128785333Y-42203714D01*
X128737714Y-42298952D01*
X128690095Y-42346571D01*
X128594857Y-42394190D01*
X128213904Y-42394190D01*
X129213904Y-42870380D02*
X129213904Y-41870380D01*
X130261523Y-42775142D02*
X130213904Y-42822761D01*
X130071047Y-42870380D01*
X129975809Y-42870380D01*
X129832952Y-42822761D01*
X129737714Y-42727523D01*
X129690095Y-42632285D01*
X129642476Y-42441809D01*
X129642476Y-42298952D01*
X129690095Y-42108476D01*
X129737714Y-42013238D01*
X129832952Y-41918000D01*
X129975809Y-41870380D01*
X130071047Y-41870380D01*
X130213904Y-41918000D01*
X130261523Y-41965619D01*
X130880571Y-41870380D02*
X131071047Y-41870380D01*
X131166285Y-41918000D01*
X131261523Y-42013238D01*
X131309142Y-42203714D01*
X131309142Y-42537047D01*
X131261523Y-42727523D01*
X131166285Y-42822761D01*
X131071047Y-42870380D01*
X130880571Y-42870380D01*
X130785333Y-42822761D01*
X130690095Y-42727523D01*
X130642476Y-42537047D01*
X130642476Y-42203714D01*
X130690095Y-42013238D01*
X130785333Y-41918000D01*
X130880571Y-41870380D01*
X142537619Y-20342380D02*
X142537619Y-19342380D01*
X142537619Y-19818571D02*
X143109047Y-19818571D01*
X143109047Y-20342380D02*
X143109047Y-19342380D01*
X143585238Y-20342380D02*
X143585238Y-19342380D01*
X144061428Y-20342380D02*
X144061428Y-19342380D01*
X144299523Y-19342380D01*
X144442380Y-19390000D01*
X144537619Y-19485238D01*
X144585238Y-19580476D01*
X144632857Y-19770952D01*
X144632857Y-19913809D01*
X144585238Y-20104285D01*
X144537619Y-20199523D01*
X144442380Y-20294761D01*
X144299523Y-20342380D01*
X144061428Y-20342380D01*
X145061428Y-20342380D02*
X145061428Y-19342380D01*
X145442380Y-19342380D01*
X145537619Y-19390000D01*
X145585238Y-19437619D01*
X145632857Y-19532857D01*
X145632857Y-19675714D01*
X145585238Y-19770952D01*
X145537619Y-19818571D01*
X145442380Y-19866190D01*
X145061428Y-19866190D01*
X146013809Y-20056666D02*
X146490000Y-20056666D01*
X145918571Y-20342380D02*
X146251904Y-19342380D01*
X146585238Y-20342380D01*
X146918571Y-20342380D02*
X146918571Y-19342380D01*
X147490000Y-20342380D01*
X147490000Y-19342380D01*
X147966190Y-19818571D02*
X148299523Y-19818571D01*
X148442380Y-20342380D02*
X147966190Y-20342380D01*
X147966190Y-19342380D01*
X148442380Y-19342380D01*
X149347142Y-20342380D02*
X148870952Y-20342380D01*
X148870952Y-19342380D01*
X149728095Y-20294761D02*
X149728095Y-20342380D01*
X149680476Y-20437619D01*
X149632857Y-20485238D01*
X150775714Y-19342380D02*
X151109047Y-20342380D01*
X151442380Y-19342380D01*
X151775714Y-19818571D02*
X152109047Y-19818571D01*
X152251904Y-20342380D02*
X151775714Y-20342380D01*
X151775714Y-19342380D01*
X152251904Y-19342380D01*
X153251904Y-20342380D02*
X152918571Y-19866190D01*
X152680476Y-20342380D02*
X152680476Y-19342380D01*
X153061428Y-19342380D01*
X153156666Y-19390000D01*
X153204285Y-19437619D01*
X153251904Y-19532857D01*
X153251904Y-19675714D01*
X153204285Y-19770952D01*
X153156666Y-19818571D01*
X153061428Y-19866190D01*
X152680476Y-19866190D01*
X153632857Y-20294761D02*
X153775714Y-20342380D01*
X154013809Y-20342380D01*
X154109047Y-20294761D01*
X154156666Y-20247142D01*
X154204285Y-20151904D01*
X154204285Y-20056666D01*
X154156666Y-19961428D01*
X154109047Y-19913809D01*
X154013809Y-19866190D01*
X153823333Y-19818571D01*
X153728095Y-19770952D01*
X153680476Y-19723333D01*
X153632857Y-19628095D01*
X153632857Y-19532857D01*
X153680476Y-19437619D01*
X153728095Y-19390000D01*
X153823333Y-19342380D01*
X154061428Y-19342380D01*
X154204285Y-19390000D01*
X154632857Y-20342380D02*
X154632857Y-19342380D01*
X155299523Y-19342380D02*
X155490000Y-19342380D01*
X155585238Y-19390000D01*
X155680476Y-19485238D01*
X155728095Y-19675714D01*
X155728095Y-20009047D01*
X155680476Y-20199523D01*
X155585238Y-20294761D01*
X155490000Y-20342380D01*
X155299523Y-20342380D01*
X155204285Y-20294761D01*
X155109047Y-20199523D01*
X155061428Y-20009047D01*
X155061428Y-19675714D01*
X155109047Y-19485238D01*
X155204285Y-19390000D01*
X155299523Y-19342380D01*
X156156666Y-20342380D02*
X156156666Y-19342380D01*
X156728095Y-20342380D01*
X156728095Y-19342380D01*
X157918571Y-19437619D02*
X157966190Y-19390000D01*
X158061428Y-19342380D01*
X158299523Y-19342380D01*
X158394761Y-19390000D01*
X158442380Y-19437619D01*
X158490000Y-19532857D01*
X158490000Y-19628095D01*
X158442380Y-19770952D01*
X157870952Y-20342380D01*
X158490000Y-20342380D01*
X143323333Y-21428571D02*
X143466190Y-21476190D01*
X143513809Y-21523809D01*
X143561428Y-21619047D01*
X143561428Y-21761904D01*
X143513809Y-21857142D01*
X143466190Y-21904761D01*
X143370952Y-21952380D01*
X142990000Y-21952380D01*
X142990000Y-20952380D01*
X143323333Y-20952380D01*
X143418571Y-21000000D01*
X143466190Y-21047619D01*
X143513809Y-21142857D01*
X143513809Y-21238095D01*
X143466190Y-21333333D01*
X143418571Y-21380952D01*
X143323333Y-21428571D01*
X142990000Y-21428571D01*
X144180476Y-21476190D02*
X144180476Y-21952380D01*
X143847142Y-20952380D02*
X144180476Y-21476190D01*
X144513809Y-20952380D01*
X145609047Y-21952380D02*
X145609047Y-20952380D01*
X145847142Y-20952380D01*
X145990000Y-21000000D01*
X146085238Y-21095238D01*
X146132857Y-21190476D01*
X146180476Y-21380952D01*
X146180476Y-21523809D01*
X146132857Y-21714285D01*
X146085238Y-21809523D01*
X145990000Y-21904761D01*
X145847142Y-21952380D01*
X145609047Y-21952380D01*
X146561428Y-21666666D02*
X147037619Y-21666666D01*
X146466190Y-21952380D02*
X146799523Y-20952380D01*
X147132857Y-21952380D01*
X147466190Y-21952380D02*
X147466190Y-20952380D01*
X148037619Y-21952380D01*
X148037619Y-20952380D01*
X148513809Y-21952380D02*
X148513809Y-20952380D01*
X148990000Y-21428571D02*
X149323333Y-21428571D01*
X149466190Y-21952380D02*
X148990000Y-21952380D01*
X148990000Y-20952380D01*
X149466190Y-20952380D01*
X150370952Y-21952380D02*
X149894761Y-21952380D01*
X149894761Y-20952380D01*
X151942380Y-21952380D02*
X151466190Y-21952380D01*
X151466190Y-20952380D01*
X152275714Y-21857142D02*
X152323333Y-21904761D01*
X152275714Y-21952380D01*
X152228095Y-21904761D01*
X152275714Y-21857142D01*
X152275714Y-21952380D01*
X153513809Y-21952380D02*
X153513809Y-20952380D01*
X153847142Y-21666666D01*
X154180476Y-20952380D01*
X154180476Y-21952380D01*
X154609047Y-21666666D02*
X155085238Y-21666666D01*
X154513809Y-21952380D02*
X154847142Y-20952380D01*
X155180476Y-21952380D01*
X156085238Y-21952380D02*
X155751904Y-21476190D01*
X155513809Y-21952380D02*
X155513809Y-20952380D01*
X155894761Y-20952380D01*
X155990000Y-21000000D01*
X156037619Y-21047619D01*
X156085238Y-21142857D01*
X156085238Y-21285714D01*
X156037619Y-21380952D01*
X155990000Y-21428571D01*
X155894761Y-21476190D01*
X155513809Y-21476190D01*
X156513809Y-21952380D02*
X156513809Y-20952380D01*
X157085238Y-21952380D02*
X156656666Y-21380952D01*
X157085238Y-20952380D02*
X156513809Y-21523809D01*
X157466190Y-21904761D02*
X157609047Y-21952380D01*
X157847142Y-21952380D01*
X157942380Y-21904761D01*
X157990000Y-21857142D01*
X158037619Y-21761904D01*
X158037619Y-21666666D01*
X157990000Y-21571428D01*
X157942380Y-21523809D01*
X157847142Y-21476190D01*
X157656666Y-21428571D01*
X157561428Y-21380952D01*
X157513809Y-21333333D01*
X157466190Y-21238095D01*
X157466190Y-21142857D01*
X157513809Y-21047619D01*
X157561428Y-21000000D01*
X157656666Y-20952380D01*
X157894761Y-20952380D01*
X158037619Y-21000000D01*
X145656666Y-23467142D02*
X145609047Y-23514761D01*
X145466190Y-23562380D01*
X145370952Y-23562380D01*
X145228095Y-23514761D01*
X145132857Y-23419523D01*
X145085238Y-23324285D01*
X145037619Y-23133809D01*
X145037619Y-22990952D01*
X145085238Y-22800476D01*
X145132857Y-22705238D01*
X145228095Y-22610000D01*
X145370952Y-22562380D01*
X145466190Y-22562380D01*
X145609047Y-22610000D01*
X145656666Y-22657619D01*
X146656666Y-23467142D02*
X146609047Y-23514761D01*
X146466190Y-23562380D01*
X146370952Y-23562380D01*
X146228095Y-23514761D01*
X146132857Y-23419523D01*
X146085238Y-23324285D01*
X146037619Y-23133809D01*
X146037619Y-22990952D01*
X146085238Y-22800476D01*
X146132857Y-22705238D01*
X146228095Y-22610000D01*
X146370952Y-22562380D01*
X146466190Y-22562380D01*
X146609047Y-22610000D01*
X146656666Y-22657619D01*
X147085238Y-23181428D02*
X147847142Y-23181428D01*
X148656666Y-23038571D02*
X148799523Y-23086190D01*
X148847142Y-23133809D01*
X148894761Y-23229047D01*
X148894761Y-23371904D01*
X148847142Y-23467142D01*
X148799523Y-23514761D01*
X148704285Y-23562380D01*
X148323333Y-23562380D01*
X148323333Y-22562380D01*
X148656666Y-22562380D01*
X148751904Y-22610000D01*
X148799523Y-22657619D01*
X148847142Y-22752857D01*
X148847142Y-22848095D01*
X148799523Y-22943333D01*
X148751904Y-22990952D01*
X148656666Y-23038571D01*
X148323333Y-23038571D01*
X149513809Y-23086190D02*
X149513809Y-23562380D01*
X149180476Y-22562380D02*
X149513809Y-23086190D01*
X149847142Y-22562380D01*
X150180476Y-23181428D02*
X150942380Y-23181428D01*
X151370952Y-23514761D02*
X151513809Y-23562380D01*
X151751904Y-23562380D01*
X151847142Y-23514761D01*
X151894761Y-23467142D01*
X151942380Y-23371904D01*
X151942380Y-23276666D01*
X151894761Y-23181428D01*
X151847142Y-23133809D01*
X151751904Y-23086190D01*
X151561428Y-23038571D01*
X151466190Y-22990952D01*
X151418571Y-22943333D01*
X151370952Y-22848095D01*
X151370952Y-22752857D01*
X151418571Y-22657619D01*
X151466190Y-22610000D01*
X151561428Y-22562380D01*
X151799523Y-22562380D01*
X151942380Y-22610000D01*
X152323333Y-23276666D02*
X152799523Y-23276666D01*
X152228095Y-23562380D02*
X152561428Y-22562380D01*
X152894761Y-23562380D01*
X154418571Y-22895714D02*
X154418571Y-23562380D01*
X154180476Y-22514761D02*
X153942380Y-23229047D01*
X154561428Y-23229047D01*
X154942380Y-23467142D02*
X154990000Y-23514761D01*
X154942380Y-23562380D01*
X154894761Y-23514761D01*
X154942380Y-23467142D01*
X154942380Y-23562380D01*
X155609047Y-22562380D02*
X155704285Y-22562380D01*
X155799523Y-22610000D01*
X155847142Y-22657619D01*
X155894761Y-22752857D01*
X155942380Y-22943333D01*
X155942380Y-23181428D01*
X155894761Y-23371904D01*
X155847142Y-23467142D01*
X155799523Y-23514761D01*
X155704285Y-23562380D01*
X155609047Y-23562380D01*
X155513809Y-23514761D01*
X155466190Y-23467142D01*
X155418571Y-23371904D01*
X155370952Y-23181428D01*
X155370952Y-22943333D01*
X155418571Y-22752857D01*
X155466190Y-22657619D01*
X155513809Y-22610000D01*
X155609047Y-22562380D01*
X179761714Y-42787095D02*
X180428380Y-42787095D01*
X179380761Y-43025190D02*
X180095047Y-43263285D01*
X180095047Y-42644238D01*
X179428380Y-42072809D02*
X179428380Y-41977571D01*
X179476000Y-41882333D01*
X179523619Y-41834714D01*
X179618857Y-41787095D01*
X179809333Y-41739476D01*
X180047428Y-41739476D01*
X180237904Y-41787095D01*
X180333142Y-41834714D01*
X180380761Y-41882333D01*
X180428380Y-41977571D01*
X180428380Y-42072809D01*
X180380761Y-42168047D01*
X180333142Y-42215666D01*
X180237904Y-42263285D01*
X180047428Y-42310904D01*
X179809333Y-42310904D01*
X179618857Y-42263285D01*
X179523619Y-42215666D01*
X179476000Y-42168047D01*
X179428380Y-42072809D01*
X179428380Y-40834714D02*
X179428380Y-41310904D01*
X179904571Y-41358523D01*
X179856952Y-41310904D01*
X179809333Y-41215666D01*
X179809333Y-40977571D01*
X179856952Y-40882333D01*
X179904571Y-40834714D01*
X179999809Y-40787095D01*
X180237904Y-40787095D01*
X180333142Y-40834714D01*
X180380761Y-40882333D01*
X180428380Y-40977571D01*
X180428380Y-41215666D01*
X180380761Y-41310904D01*
X180333142Y-41358523D01*
X180428380Y-39834714D02*
X180428380Y-40406142D01*
X180428380Y-40120428D02*
X179428380Y-40120428D01*
X179571238Y-40215666D01*
X179666476Y-40310904D01*
X179714095Y-40406142D01*
X143625714Y-33352380D02*
X143054285Y-33352380D01*
X143340000Y-33352380D02*
X143340000Y-32352380D01*
X143244761Y-32495238D01*
X143149523Y-32590476D01*
X143054285Y-32638095D01*
X149092380Y-45696666D02*
X149092380Y-45030000D01*
X150092380Y-45458571D01*
X149425714Y-44220476D02*
X150092380Y-44220476D01*
X149044761Y-44458571D02*
X149759047Y-44696666D01*
X149759047Y-44077619D01*
X150092380Y-43696666D02*
X149092380Y-43696666D01*
X149568571Y-43696666D02*
X149568571Y-43125238D01*
X150092380Y-43125238D02*
X149092380Y-43125238D01*
X149997142Y-42077619D02*
X150044761Y-42125238D01*
X150092380Y-42268095D01*
X150092380Y-42363333D01*
X150044761Y-42506190D01*
X149949523Y-42601428D01*
X149854285Y-42649047D01*
X149663809Y-42696666D01*
X149520952Y-42696666D01*
X149330476Y-42649047D01*
X149235238Y-42601428D01*
X149140000Y-42506190D01*
X149092380Y-42363333D01*
X149092380Y-42268095D01*
X149140000Y-42125238D01*
X149187619Y-42077619D01*
X149092380Y-41791904D02*
X149092380Y-41220476D01*
X150092380Y-41506190D02*
X149092380Y-41506190D01*
X149092380Y-40696666D02*
X149092380Y-40601428D01*
X149140000Y-40506190D01*
X149187619Y-40458571D01*
X149282857Y-40410952D01*
X149473333Y-40363333D01*
X149711428Y-40363333D01*
X149901904Y-40410952D01*
X149997142Y-40458571D01*
X150044761Y-40506190D01*
X150092380Y-40601428D01*
X150092380Y-40696666D01*
X150044761Y-40791904D01*
X149997142Y-40839523D01*
X149901904Y-40887142D01*
X149711428Y-40934761D01*
X149473333Y-40934761D01*
X149282857Y-40887142D01*
X149187619Y-40839523D01*
X149140000Y-40791904D01*
X149092380Y-40696666D01*
X149092380Y-39744285D02*
X149092380Y-39649047D01*
X149140000Y-39553809D01*
X149187619Y-39506190D01*
X149282857Y-39458571D01*
X149473333Y-39410952D01*
X149711428Y-39410952D01*
X149901904Y-39458571D01*
X149997142Y-39506190D01*
X150044761Y-39553809D01*
X150092380Y-39649047D01*
X150092380Y-39744285D01*
X150044761Y-39839523D01*
X149997142Y-39887142D01*
X149901904Y-39934761D01*
X149711428Y-39982380D01*
X149473333Y-39982380D01*
X149282857Y-39934761D01*
X149187619Y-39887142D01*
X149140000Y-39839523D01*
X149092380Y-39744285D01*
X88905714Y-54502380D02*
X88334285Y-54502380D01*
X88620000Y-54502380D02*
X88620000Y-53502380D01*
X88524761Y-53645238D01*
X88429523Y-53740476D01*
X88334285Y-53788095D01*
X159135714Y-33062380D02*
X158564285Y-33062380D01*
X158850000Y-33062380D02*
X158850000Y-32062380D01*
X158754761Y-32205238D01*
X158659523Y-32300476D01*
X158564285Y-32348095D01*
X195295714Y-42533095D02*
X195962380Y-42533095D01*
X194914761Y-42771190D02*
X195629047Y-43009285D01*
X195629047Y-42390238D01*
X194962380Y-41818809D02*
X194962380Y-41723571D01*
X195010000Y-41628333D01*
X195057619Y-41580714D01*
X195152857Y-41533095D01*
X195343333Y-41485476D01*
X195581428Y-41485476D01*
X195771904Y-41533095D01*
X195867142Y-41580714D01*
X195914761Y-41628333D01*
X195962380Y-41723571D01*
X195962380Y-41818809D01*
X195914761Y-41914047D01*
X195867142Y-41961666D01*
X195771904Y-42009285D01*
X195581428Y-42056904D01*
X195343333Y-42056904D01*
X195152857Y-42009285D01*
X195057619Y-41961666D01*
X195010000Y-41914047D01*
X194962380Y-41818809D01*
X194962380Y-40580714D02*
X194962380Y-41056904D01*
X195438571Y-41104523D01*
X195390952Y-41056904D01*
X195343333Y-40961666D01*
X195343333Y-40723571D01*
X195390952Y-40628333D01*
X195438571Y-40580714D01*
X195533809Y-40533095D01*
X195771904Y-40533095D01*
X195867142Y-40580714D01*
X195914761Y-40628333D01*
X195962380Y-40723571D01*
X195962380Y-40961666D01*
X195914761Y-41056904D01*
X195867142Y-41104523D01*
X195962380Y-39580714D02*
X195962380Y-40152142D01*
X195962380Y-39866428D02*
X194962380Y-39866428D01*
X195105238Y-39961666D01*
X195200476Y-40056904D01*
X195248095Y-40152142D01*
X174535714Y-33222380D02*
X173964285Y-33222380D01*
X174250000Y-33222380D02*
X174250000Y-32222380D01*
X174154761Y-32365238D01*
X174059523Y-32460476D01*
X173964285Y-32508095D01*
X189645714Y-33122380D02*
X189074285Y-33122380D01*
X189360000Y-33122380D02*
X189360000Y-32122380D01*
X189264761Y-32265238D01*
X189169523Y-32360476D01*
X189074285Y-32408095D01*
X164775714Y-42793095D02*
X165442380Y-42793095D01*
X164394761Y-43031190D02*
X165109047Y-43269285D01*
X165109047Y-42650238D01*
X164442380Y-42078809D02*
X164442380Y-41983571D01*
X164490000Y-41888333D01*
X164537619Y-41840714D01*
X164632857Y-41793095D01*
X164823333Y-41745476D01*
X165061428Y-41745476D01*
X165251904Y-41793095D01*
X165347142Y-41840714D01*
X165394761Y-41888333D01*
X165442380Y-41983571D01*
X165442380Y-42078809D01*
X165394761Y-42174047D01*
X165347142Y-42221666D01*
X165251904Y-42269285D01*
X165061428Y-42316904D01*
X164823333Y-42316904D01*
X164632857Y-42269285D01*
X164537619Y-42221666D01*
X164490000Y-42174047D01*
X164442380Y-42078809D01*
X164442380Y-40840714D02*
X164442380Y-41316904D01*
X164918571Y-41364523D01*
X164870952Y-41316904D01*
X164823333Y-41221666D01*
X164823333Y-40983571D01*
X164870952Y-40888333D01*
X164918571Y-40840714D01*
X165013809Y-40793095D01*
X165251904Y-40793095D01*
X165347142Y-40840714D01*
X165394761Y-40888333D01*
X165442380Y-40983571D01*
X165442380Y-41221666D01*
X165394761Y-41316904D01*
X165347142Y-41364523D01*
X165442380Y-39840714D02*
X165442380Y-40412142D01*
X165442380Y-40126428D02*
X164442380Y-40126428D01*
X164585238Y-40221666D01*
X164680476Y-40316904D01*
X164728095Y-40412142D01*
%TO.C,JP1*%
X145586666Y-24379880D02*
X145586666Y-25094166D01*
X145539047Y-25237023D01*
X145443809Y-25332261D01*
X145300952Y-25379880D01*
X145205714Y-25379880D01*
X146062857Y-25379880D02*
X146062857Y-24379880D01*
X146443809Y-24379880D01*
X146539047Y-24427500D01*
X146586666Y-24475119D01*
X146634285Y-24570357D01*
X146634285Y-24713214D01*
X146586666Y-24808452D01*
X146539047Y-24856071D01*
X146443809Y-24903690D01*
X146062857Y-24903690D01*
X147586666Y-25379880D02*
X147015238Y-25379880D01*
X147300952Y-25379880D02*
X147300952Y-24379880D01*
X147205714Y-24522738D01*
X147110476Y-24617976D01*
X147015238Y-24665595D01*
%TO.C,J1*%
X106557380Y-70533333D02*
X107271666Y-70533333D01*
X107414523Y-70580952D01*
X107509761Y-70676190D01*
X107557380Y-70819047D01*
X107557380Y-70914285D01*
X107557380Y-69533333D02*
X107557380Y-70104761D01*
X107557380Y-69819047D02*
X106557380Y-69819047D01*
X106700238Y-69914285D01*
X106795476Y-70009523D01*
X106843095Y-70104761D01*
%TO.C,U3*%
X160058095Y-29662380D02*
X160058095Y-30471904D01*
X160105714Y-30567142D01*
X160153333Y-30614761D01*
X160248571Y-30662380D01*
X160439047Y-30662380D01*
X160534285Y-30614761D01*
X160581904Y-30567142D01*
X160629523Y-30471904D01*
X160629523Y-29662380D01*
X161010476Y-29662380D02*
X161629523Y-29662380D01*
X161296190Y-30043333D01*
X161439047Y-30043333D01*
X161534285Y-30090952D01*
X161581904Y-30138571D01*
X161629523Y-30233809D01*
X161629523Y-30471904D01*
X161581904Y-30567142D01*
X161534285Y-30614761D01*
X161439047Y-30662380D01*
X161153333Y-30662380D01*
X161058095Y-30614761D01*
X161010476Y-30567142D01*
%TO.C,R1*%
X92103333Y-57362380D02*
X91770000Y-56886190D01*
X91531904Y-57362380D02*
X91531904Y-56362380D01*
X91912857Y-56362380D01*
X92008095Y-56410000D01*
X92055714Y-56457619D01*
X92103333Y-56552857D01*
X92103333Y-56695714D01*
X92055714Y-56790952D01*
X92008095Y-56838571D01*
X91912857Y-56886190D01*
X91531904Y-56886190D01*
X93055714Y-57362380D02*
X92484285Y-57362380D01*
X92770000Y-57362380D02*
X92770000Y-56362380D01*
X92674761Y-56505238D01*
X92579523Y-56600476D01*
X92484285Y-56648095D01*
%TO.C,R6*%
X95173333Y-27862380D02*
X94840000Y-27386190D01*
X94601904Y-27862380D02*
X94601904Y-26862380D01*
X94982857Y-26862380D01*
X95078095Y-26910000D01*
X95125714Y-26957619D01*
X95173333Y-27052857D01*
X95173333Y-27195714D01*
X95125714Y-27290952D01*
X95078095Y-27338571D01*
X94982857Y-27386190D01*
X94601904Y-27386190D01*
X96030476Y-26862380D02*
X95840000Y-26862380D01*
X95744761Y-26910000D01*
X95697142Y-26957619D01*
X95601904Y-27100476D01*
X95554285Y-27290952D01*
X95554285Y-27671904D01*
X95601904Y-27767142D01*
X95649523Y-27814761D01*
X95744761Y-27862380D01*
X95935238Y-27862380D01*
X96030476Y-27814761D01*
X96078095Y-27767142D01*
X96125714Y-27671904D01*
X96125714Y-27433809D01*
X96078095Y-27338571D01*
X96030476Y-27290952D01*
X95935238Y-27243333D01*
X95744761Y-27243333D01*
X95649523Y-27290952D01*
X95601904Y-27338571D01*
X95554285Y-27433809D01*
%TO.C,U5*%
X191008095Y-29837380D02*
X191008095Y-30646904D01*
X191055714Y-30742142D01*
X191103333Y-30789761D01*
X191198571Y-30837380D01*
X191389047Y-30837380D01*
X191484285Y-30789761D01*
X191531904Y-30742142D01*
X191579523Y-30646904D01*
X191579523Y-29837380D01*
X192531904Y-29837380D02*
X192055714Y-29837380D01*
X192008095Y-30313571D01*
X192055714Y-30265952D01*
X192150952Y-30218333D01*
X192389047Y-30218333D01*
X192484285Y-30265952D01*
X192531904Y-30313571D01*
X192579523Y-30408809D01*
X192579523Y-30646904D01*
X192531904Y-30742142D01*
X192484285Y-30789761D01*
X192389047Y-30837380D01*
X192150952Y-30837380D01*
X192055714Y-30789761D01*
X192008095Y-30742142D01*
%TO.C,M2*%
X102060476Y-110442380D02*
X102060476Y-109442380D01*
X102393809Y-110156666D01*
X102727142Y-109442380D01*
X102727142Y-110442380D01*
X103155714Y-109537619D02*
X103203333Y-109490000D01*
X103298571Y-109442380D01*
X103536666Y-109442380D01*
X103631904Y-109490000D01*
X103679523Y-109537619D01*
X103727142Y-109632857D01*
X103727142Y-109728095D01*
X103679523Y-109870952D01*
X103108095Y-110442380D01*
X103727142Y-110442380D01*
%TO.C,U1*%
X112242380Y-42071904D02*
X113051904Y-42071904D01*
X113147142Y-42024285D01*
X113194761Y-41976666D01*
X113242380Y-41881428D01*
X113242380Y-41690952D01*
X113194761Y-41595714D01*
X113147142Y-41548095D01*
X113051904Y-41500476D01*
X112242380Y-41500476D01*
X113242380Y-40500476D02*
X113242380Y-41071904D01*
X113242380Y-40786190D02*
X112242380Y-40786190D01*
X112385238Y-40881428D01*
X112480476Y-40976666D01*
X112528095Y-41071904D01*
X139313809Y-48819523D02*
X139351904Y-48705238D01*
X139351904Y-48514761D01*
X139313809Y-48438571D01*
X139275714Y-48400476D01*
X139199523Y-48362380D01*
X139123333Y-48362380D01*
X139047142Y-48400476D01*
X139009047Y-48438571D01*
X138970952Y-48514761D01*
X138932857Y-48667142D01*
X138894761Y-48743333D01*
X138856666Y-48781428D01*
X138780476Y-48819523D01*
X138704285Y-48819523D01*
X138628095Y-48781428D01*
X138590000Y-48743333D01*
X138551904Y-48667142D01*
X138551904Y-48476666D01*
X138590000Y-48362380D01*
X138551904Y-48095714D02*
X139351904Y-47905238D01*
X138780476Y-47752857D01*
X139351904Y-47600476D01*
X138551904Y-47410000D01*
X139275714Y-46648095D02*
X139313809Y-46686190D01*
X139351904Y-46800476D01*
X139351904Y-46876666D01*
X139313809Y-46990952D01*
X139237619Y-47067142D01*
X139161428Y-47105238D01*
X139009047Y-47143333D01*
X138894761Y-47143333D01*
X138742380Y-47105238D01*
X138666190Y-47067142D01*
X138590000Y-46990952D01*
X138551904Y-46876666D01*
X138551904Y-46800476D01*
X138590000Y-46686190D01*
X138628095Y-46648095D01*
X139351904Y-45924285D02*
X139351904Y-46305238D01*
X138551904Y-46305238D01*
X139351904Y-45657619D02*
X138551904Y-45657619D01*
X139351904Y-45200476D02*
X138894761Y-45543333D01*
X138551904Y-45200476D02*
X139009047Y-45657619D01*
X139313809Y-37405238D02*
X139351904Y-37290952D01*
X139351904Y-37100476D01*
X139313809Y-37024285D01*
X139275714Y-36986190D01*
X139199523Y-36948095D01*
X139123333Y-36948095D01*
X139047142Y-36986190D01*
X139009047Y-37024285D01*
X138970952Y-37100476D01*
X138932857Y-37252857D01*
X138894761Y-37329047D01*
X138856666Y-37367142D01*
X138780476Y-37405238D01*
X138704285Y-37405238D01*
X138628095Y-37367142D01*
X138590000Y-37329047D01*
X138551904Y-37252857D01*
X138551904Y-37062380D01*
X138590000Y-36948095D01*
X138551904Y-36681428D02*
X139351904Y-36490952D01*
X138780476Y-36338571D01*
X139351904Y-36186190D01*
X138551904Y-35995714D01*
X139351904Y-35690952D02*
X138551904Y-35690952D01*
X138551904Y-35500476D01*
X138590000Y-35386190D01*
X138666190Y-35310000D01*
X138742380Y-35271904D01*
X138894761Y-35233809D01*
X139009047Y-35233809D01*
X139161428Y-35271904D01*
X139237619Y-35310000D01*
X139313809Y-35386190D01*
X139351904Y-35500476D01*
X139351904Y-35690952D01*
X139351904Y-34890952D02*
X138551904Y-34890952D01*
X138551904Y-34357619D02*
X138551904Y-34205238D01*
X138590000Y-34129047D01*
X138666190Y-34052857D01*
X138818571Y-34014761D01*
X139085238Y-34014761D01*
X139237619Y-34052857D01*
X139313809Y-34129047D01*
X139351904Y-34205238D01*
X139351904Y-34357619D01*
X139313809Y-34433809D01*
X139237619Y-34510000D01*
X139085238Y-34548095D01*
X138818571Y-34548095D01*
X138666190Y-34510000D01*
X138590000Y-34433809D01*
X138551904Y-34357619D01*
%TO.C,M12*%
X185404285Y-64722380D02*
X185404285Y-63722380D01*
X185737619Y-64436666D01*
X186070952Y-63722380D01*
X186070952Y-64722380D01*
X187070952Y-64722380D02*
X186499523Y-64722380D01*
X186785238Y-64722380D02*
X186785238Y-63722380D01*
X186690000Y-63865238D01*
X186594761Y-63960476D01*
X186499523Y-64008095D01*
X187451904Y-63817619D02*
X187499523Y-63770000D01*
X187594761Y-63722380D01*
X187832857Y-63722380D01*
X187928095Y-63770000D01*
X187975714Y-63817619D01*
X188023333Y-63912857D01*
X188023333Y-64008095D01*
X187975714Y-64150952D01*
X187404285Y-64722380D01*
X188023333Y-64722380D01*
%TO.C,C6*%
X166483333Y-27692142D02*
X166435714Y-27739761D01*
X166292857Y-27787380D01*
X166197619Y-27787380D01*
X166054761Y-27739761D01*
X165959523Y-27644523D01*
X165911904Y-27549285D01*
X165864285Y-27358809D01*
X165864285Y-27215952D01*
X165911904Y-27025476D01*
X165959523Y-26930238D01*
X166054761Y-26835000D01*
X166197619Y-26787380D01*
X166292857Y-26787380D01*
X166435714Y-26835000D01*
X166483333Y-26882619D01*
X167340476Y-26787380D02*
X167150000Y-26787380D01*
X167054761Y-26835000D01*
X167007142Y-26882619D01*
X166911904Y-27025476D01*
X166864285Y-27215952D01*
X166864285Y-27596904D01*
X166911904Y-27692142D01*
X166959523Y-27739761D01*
X167054761Y-27787380D01*
X167245238Y-27787380D01*
X167340476Y-27739761D01*
X167388095Y-27692142D01*
X167435714Y-27596904D01*
X167435714Y-27358809D01*
X167388095Y-27263571D01*
X167340476Y-27215952D01*
X167245238Y-27168333D01*
X167054761Y-27168333D01*
X166959523Y-27215952D01*
X166911904Y-27263571D01*
X166864285Y-27358809D01*
%TO.C,M10*%
X157464285Y-110442380D02*
X157464285Y-109442380D01*
X157797619Y-110156666D01*
X158130952Y-109442380D01*
X158130952Y-110442380D01*
X159130952Y-110442380D02*
X158559523Y-110442380D01*
X158845238Y-110442380D02*
X158845238Y-109442380D01*
X158750000Y-109585238D01*
X158654761Y-109680476D01*
X158559523Y-109728095D01*
X159750000Y-109442380D02*
X159845238Y-109442380D01*
X159940476Y-109490000D01*
X159988095Y-109537619D01*
X160035714Y-109632857D01*
X160083333Y-109823333D01*
X160083333Y-110061428D01*
X160035714Y-110251904D01*
X159988095Y-110347142D01*
X159940476Y-110394761D01*
X159845238Y-110442380D01*
X159750000Y-110442380D01*
X159654761Y-110394761D01*
X159607142Y-110347142D01*
X159559523Y-110251904D01*
X159511904Y-110061428D01*
X159511904Y-109823333D01*
X159559523Y-109632857D01*
X159607142Y-109537619D01*
X159654761Y-109490000D01*
X159750000Y-109442380D01*
%TO.C,R7*%
X94988333Y-70742380D02*
X94655000Y-70266190D01*
X94416904Y-70742380D02*
X94416904Y-69742380D01*
X94797857Y-69742380D01*
X94893095Y-69790000D01*
X94940714Y-69837619D01*
X94988333Y-69932857D01*
X94988333Y-70075714D01*
X94940714Y-70170952D01*
X94893095Y-70218571D01*
X94797857Y-70266190D01*
X94416904Y-70266190D01*
X95321666Y-69742380D02*
X95988333Y-69742380D01*
X95559761Y-70742380D01*
%TO.C,R4*%
X102083333Y-60482380D02*
X101750000Y-60006190D01*
X101511904Y-60482380D02*
X101511904Y-59482380D01*
X101892857Y-59482380D01*
X101988095Y-59530000D01*
X102035714Y-59577619D01*
X102083333Y-59672857D01*
X102083333Y-59815714D01*
X102035714Y-59910952D01*
X101988095Y-59958571D01*
X101892857Y-60006190D01*
X101511904Y-60006190D01*
X102940476Y-59815714D02*
X102940476Y-60482380D01*
X102702380Y-59434761D02*
X102464285Y-60149047D01*
X103083333Y-60149047D01*
%TO.C,D4*%
X108711904Y-67954380D02*
X108711904Y-66954380D01*
X108950000Y-66954380D01*
X109092857Y-67002000D01*
X109188095Y-67097238D01*
X109235714Y-67192476D01*
X109283333Y-67382952D01*
X109283333Y-67525809D01*
X109235714Y-67716285D01*
X109188095Y-67811523D01*
X109092857Y-67906761D01*
X108950000Y-67954380D01*
X108711904Y-67954380D01*
X110140476Y-67287714D02*
X110140476Y-67954380D01*
X109902380Y-66906761D02*
X109664285Y-67621047D01*
X110283333Y-67621047D01*
%TO.C,D2*%
X99446904Y-67974380D02*
X99446904Y-66974380D01*
X99685000Y-66974380D01*
X99827857Y-67022000D01*
X99923095Y-67117238D01*
X99970714Y-67212476D01*
X100018333Y-67402952D01*
X100018333Y-67545809D01*
X99970714Y-67736285D01*
X99923095Y-67831523D01*
X99827857Y-67926761D01*
X99685000Y-67974380D01*
X99446904Y-67974380D01*
X100399285Y-67069619D02*
X100446904Y-67022000D01*
X100542142Y-66974380D01*
X100780238Y-66974380D01*
X100875476Y-67022000D01*
X100923095Y-67069619D01*
X100970714Y-67164857D01*
X100970714Y-67260095D01*
X100923095Y-67402952D01*
X100351666Y-67974380D01*
X100970714Y-67974380D01*
%TO.C,M7*%
X130000476Y-133302380D02*
X130000476Y-132302380D01*
X130333809Y-133016666D01*
X130667142Y-132302380D01*
X130667142Y-133302380D01*
X131048095Y-132302380D02*
X131714761Y-132302380D01*
X131286190Y-133302380D01*
%TO.C,C2*%
X181963333Y-27612142D02*
X181915714Y-27659761D01*
X181772857Y-27707380D01*
X181677619Y-27707380D01*
X181534761Y-27659761D01*
X181439523Y-27564523D01*
X181391904Y-27469285D01*
X181344285Y-27278809D01*
X181344285Y-27135952D01*
X181391904Y-26945476D01*
X181439523Y-26850238D01*
X181534761Y-26755000D01*
X181677619Y-26707380D01*
X181772857Y-26707380D01*
X181915714Y-26755000D01*
X181963333Y-26802619D01*
X182344285Y-26802619D02*
X182391904Y-26755000D01*
X182487142Y-26707380D01*
X182725238Y-26707380D01*
X182820476Y-26755000D01*
X182868095Y-26802619D01*
X182915714Y-26897857D01*
X182915714Y-26993095D01*
X182868095Y-27135952D01*
X182296666Y-27707380D01*
X182915714Y-27707380D01*
%TO.C,D3*%
X103936904Y-67959380D02*
X103936904Y-66959380D01*
X104175000Y-66959380D01*
X104317857Y-67007000D01*
X104413095Y-67102238D01*
X104460714Y-67197476D01*
X104508333Y-67387952D01*
X104508333Y-67530809D01*
X104460714Y-67721285D01*
X104413095Y-67816523D01*
X104317857Y-67911761D01*
X104175000Y-67959380D01*
X103936904Y-67959380D01*
X104841666Y-66959380D02*
X105460714Y-66959380D01*
X105127380Y-67340333D01*
X105270238Y-67340333D01*
X105365476Y-67387952D01*
X105413095Y-67435571D01*
X105460714Y-67530809D01*
X105460714Y-67768904D01*
X105413095Y-67864142D01*
X105365476Y-67911761D01*
X105270238Y-67959380D01*
X104984523Y-67959380D01*
X104889285Y-67911761D01*
X104841666Y-67864142D01*
%TO.C,D1*%
X94486904Y-67954380D02*
X94486904Y-66954380D01*
X94725000Y-66954380D01*
X94867857Y-67002000D01*
X94963095Y-67097238D01*
X95010714Y-67192476D01*
X95058333Y-67382952D01*
X95058333Y-67525809D01*
X95010714Y-67716285D01*
X94963095Y-67811523D01*
X94867857Y-67906761D01*
X94725000Y-67954380D01*
X94486904Y-67954380D01*
X96010714Y-67954380D02*
X95439285Y-67954380D01*
X95725000Y-67954380D02*
X95725000Y-66954380D01*
X95629761Y-67097238D01*
X95534523Y-67192476D01*
X95439285Y-67240095D01*
%TO.C,R8*%
X120797333Y-27630380D02*
X120464000Y-27154190D01*
X120225904Y-27630380D02*
X120225904Y-26630380D01*
X120606857Y-26630380D01*
X120702095Y-26678000D01*
X120749714Y-26725619D01*
X120797333Y-26820857D01*
X120797333Y-26963714D01*
X120749714Y-27058952D01*
X120702095Y-27106571D01*
X120606857Y-27154190D01*
X120225904Y-27154190D01*
X121368761Y-27058952D02*
X121273523Y-27011333D01*
X121225904Y-26963714D01*
X121178285Y-26868476D01*
X121178285Y-26820857D01*
X121225904Y-26725619D01*
X121273523Y-26678000D01*
X121368761Y-26630380D01*
X121559238Y-26630380D01*
X121654476Y-26678000D01*
X121702095Y-26725619D01*
X121749714Y-26820857D01*
X121749714Y-26868476D01*
X121702095Y-26963714D01*
X121654476Y-27011333D01*
X121559238Y-27058952D01*
X121368761Y-27058952D01*
X121273523Y-27106571D01*
X121225904Y-27154190D01*
X121178285Y-27249428D01*
X121178285Y-27439904D01*
X121225904Y-27535142D01*
X121273523Y-27582761D01*
X121368761Y-27630380D01*
X121559238Y-27630380D01*
X121654476Y-27582761D01*
X121702095Y-27535142D01*
X121749714Y-27439904D01*
X121749714Y-27249428D01*
X121702095Y-27154190D01*
X121654476Y-27106571D01*
X121559238Y-27058952D01*
%TO.C,M4*%
X130000476Y-64722380D02*
X130000476Y-63722380D01*
X130333809Y-64436666D01*
X130667142Y-63722380D01*
X130667142Y-64722380D01*
X131571904Y-64055714D02*
X131571904Y-64722380D01*
X131333809Y-63674761D02*
X131095714Y-64389047D01*
X131714761Y-64389047D01*
%TO.C,M15*%
X185404285Y-133302380D02*
X185404285Y-132302380D01*
X185737619Y-133016666D01*
X186070952Y-132302380D01*
X186070952Y-133302380D01*
X187070952Y-133302380D02*
X186499523Y-133302380D01*
X186785238Y-133302380D02*
X186785238Y-132302380D01*
X186690000Y-132445238D01*
X186594761Y-132540476D01*
X186499523Y-132588095D01*
X187975714Y-132302380D02*
X187499523Y-132302380D01*
X187451904Y-132778571D01*
X187499523Y-132730952D01*
X187594761Y-132683333D01*
X187832857Y-132683333D01*
X187928095Y-132730952D01*
X187975714Y-132778571D01*
X188023333Y-132873809D01*
X188023333Y-133111904D01*
X187975714Y-133207142D01*
X187928095Y-133254761D01*
X187832857Y-133302380D01*
X187594761Y-133302380D01*
X187499523Y-133254761D01*
X187451904Y-133207142D01*
%TO.C,R2*%
X91943333Y-60602380D02*
X91610000Y-60126190D01*
X91371904Y-60602380D02*
X91371904Y-59602380D01*
X91752857Y-59602380D01*
X91848095Y-59650000D01*
X91895714Y-59697619D01*
X91943333Y-59792857D01*
X91943333Y-59935714D01*
X91895714Y-60030952D01*
X91848095Y-60078571D01*
X91752857Y-60126190D01*
X91371904Y-60126190D01*
X92324285Y-59697619D02*
X92371904Y-59650000D01*
X92467142Y-59602380D01*
X92705238Y-59602380D01*
X92800476Y-59650000D01*
X92848095Y-59697619D01*
X92895714Y-59792857D01*
X92895714Y-59888095D01*
X92848095Y-60030952D01*
X92276666Y-60602380D01*
X92895714Y-60602380D01*
%TO.C,M8*%
X157940476Y-64722380D02*
X157940476Y-63722380D01*
X158273809Y-64436666D01*
X158607142Y-63722380D01*
X158607142Y-64722380D01*
X159226190Y-64150952D02*
X159130952Y-64103333D01*
X159083333Y-64055714D01*
X159035714Y-63960476D01*
X159035714Y-63912857D01*
X159083333Y-63817619D01*
X159130952Y-63770000D01*
X159226190Y-63722380D01*
X159416666Y-63722380D01*
X159511904Y-63770000D01*
X159559523Y-63817619D01*
X159607142Y-63912857D01*
X159607142Y-63960476D01*
X159559523Y-64055714D01*
X159511904Y-64103333D01*
X159416666Y-64150952D01*
X159226190Y-64150952D01*
X159130952Y-64198571D01*
X159083333Y-64246190D01*
X159035714Y-64341428D01*
X159035714Y-64531904D01*
X159083333Y-64627142D01*
X159130952Y-64674761D01*
X159226190Y-64722380D01*
X159416666Y-64722380D01*
X159511904Y-64674761D01*
X159559523Y-64627142D01*
X159607142Y-64531904D01*
X159607142Y-64341428D01*
X159559523Y-64246190D01*
X159511904Y-64198571D01*
X159416666Y-64150952D01*
%TO.C,C4*%
X107783333Y-21947142D02*
X107735714Y-21994761D01*
X107592857Y-22042380D01*
X107497619Y-22042380D01*
X107354761Y-21994761D01*
X107259523Y-21899523D01*
X107211904Y-21804285D01*
X107164285Y-21613809D01*
X107164285Y-21470952D01*
X107211904Y-21280476D01*
X107259523Y-21185238D01*
X107354761Y-21090000D01*
X107497619Y-21042380D01*
X107592857Y-21042380D01*
X107735714Y-21090000D01*
X107783333Y-21137619D01*
X108640476Y-21375714D02*
X108640476Y-22042380D01*
X108402380Y-20994761D02*
X108164285Y-21709047D01*
X108783333Y-21709047D01*
%TO.C,M6*%
X130000476Y-110442380D02*
X130000476Y-109442380D01*
X130333809Y-110156666D01*
X130667142Y-109442380D01*
X130667142Y-110442380D01*
X131571904Y-109442380D02*
X131381428Y-109442380D01*
X131286190Y-109490000D01*
X131238571Y-109537619D01*
X131143333Y-109680476D01*
X131095714Y-109870952D01*
X131095714Y-110251904D01*
X131143333Y-110347142D01*
X131190952Y-110394761D01*
X131286190Y-110442380D01*
X131476666Y-110442380D01*
X131571904Y-110394761D01*
X131619523Y-110347142D01*
X131667142Y-110251904D01*
X131667142Y-110013809D01*
X131619523Y-109918571D01*
X131571904Y-109870952D01*
X131476666Y-109823333D01*
X131286190Y-109823333D01*
X131190952Y-109870952D01*
X131143333Y-109918571D01*
X131095714Y-110013809D01*
%TO.C,C3*%
X196703333Y-27472142D02*
X196655714Y-27519761D01*
X196512857Y-27567380D01*
X196417619Y-27567380D01*
X196274761Y-27519761D01*
X196179523Y-27424523D01*
X196131904Y-27329285D01*
X196084285Y-27138809D01*
X196084285Y-26995952D01*
X196131904Y-26805476D01*
X196179523Y-26710238D01*
X196274761Y-26615000D01*
X196417619Y-26567380D01*
X196512857Y-26567380D01*
X196655714Y-26615000D01*
X196703333Y-26662619D01*
X197036666Y-26567380D02*
X197655714Y-26567380D01*
X197322380Y-26948333D01*
X197465238Y-26948333D01*
X197560476Y-26995952D01*
X197608095Y-27043571D01*
X197655714Y-27138809D01*
X197655714Y-27376904D01*
X197608095Y-27472142D01*
X197560476Y-27519761D01*
X197465238Y-27567380D01*
X197179523Y-27567380D01*
X197084285Y-27519761D01*
X197036666Y-27472142D01*
%TO.C,M11*%
X157464285Y-133296380D02*
X157464285Y-132296380D01*
X157797619Y-133010666D01*
X158130952Y-132296380D01*
X158130952Y-133296380D01*
X159130952Y-133296380D02*
X158559523Y-133296380D01*
X158845238Y-133296380D02*
X158845238Y-132296380D01*
X158750000Y-132439238D01*
X158654761Y-132534476D01*
X158559523Y-132582095D01*
X160083333Y-133296380D02*
X159511904Y-133296380D01*
X159797619Y-133296380D02*
X159797619Y-132296380D01*
X159702380Y-132439238D01*
X159607142Y-132534476D01*
X159511904Y-132582095D01*
%TO.C,R5*%
X120537333Y-20792380D02*
X120204000Y-20316190D01*
X119965904Y-20792380D02*
X119965904Y-19792380D01*
X120346857Y-19792380D01*
X120442095Y-19840000D01*
X120489714Y-19887619D01*
X120537333Y-19982857D01*
X120537333Y-20125714D01*
X120489714Y-20220952D01*
X120442095Y-20268571D01*
X120346857Y-20316190D01*
X119965904Y-20316190D01*
X121442095Y-19792380D02*
X120965904Y-19792380D01*
X120918285Y-20268571D01*
X120965904Y-20220952D01*
X121061142Y-20173333D01*
X121299238Y-20173333D01*
X121394476Y-20220952D01*
X121442095Y-20268571D01*
X121489714Y-20363809D01*
X121489714Y-20601904D01*
X121442095Y-20697142D01*
X121394476Y-20744761D01*
X121299238Y-20792380D01*
X121061142Y-20792380D01*
X120965904Y-20744761D01*
X120918285Y-20697142D01*
%TO.C,C1*%
X95393142Y-21014666D02*
X95440761Y-21062285D01*
X95488380Y-21205142D01*
X95488380Y-21300380D01*
X95440761Y-21443238D01*
X95345523Y-21538476D01*
X95250285Y-21586095D01*
X95059809Y-21633714D01*
X94916952Y-21633714D01*
X94726476Y-21586095D01*
X94631238Y-21538476D01*
X94536000Y-21443238D01*
X94488380Y-21300380D01*
X94488380Y-21205142D01*
X94536000Y-21062285D01*
X94583619Y-21014666D01*
X95488380Y-20062285D02*
X95488380Y-20633714D01*
X95488380Y-20348000D02*
X94488380Y-20348000D01*
X94631238Y-20443238D01*
X94726476Y-20538476D01*
X94774095Y-20633714D01*
%TO.C,R10*%
X135477142Y-23872380D02*
X135143809Y-23396190D01*
X134905714Y-23872380D02*
X134905714Y-22872380D01*
X135286666Y-22872380D01*
X135381904Y-22920000D01*
X135429523Y-22967619D01*
X135477142Y-23062857D01*
X135477142Y-23205714D01*
X135429523Y-23300952D01*
X135381904Y-23348571D01*
X135286666Y-23396190D01*
X134905714Y-23396190D01*
X136429523Y-23872380D02*
X135858095Y-23872380D01*
X136143809Y-23872380D02*
X136143809Y-22872380D01*
X136048571Y-23015238D01*
X135953333Y-23110476D01*
X135858095Y-23158095D01*
X137048571Y-22872380D02*
X137143809Y-22872380D01*
X137239047Y-22920000D01*
X137286666Y-22967619D01*
X137334285Y-23062857D01*
X137381904Y-23253333D01*
X137381904Y-23491428D01*
X137334285Y-23681904D01*
X137286666Y-23777142D01*
X137239047Y-23824761D01*
X137143809Y-23872380D01*
X137048571Y-23872380D01*
X136953333Y-23824761D01*
X136905714Y-23777142D01*
X136858095Y-23681904D01*
X136810476Y-23491428D01*
X136810476Y-23253333D01*
X136858095Y-23062857D01*
X136905714Y-22967619D01*
X136953333Y-22920000D01*
X137048571Y-22872380D01*
%TO.C,U6*%
X127648095Y-19002380D02*
X127648095Y-19811904D01*
X127695714Y-19907142D01*
X127743333Y-19954761D01*
X127838571Y-20002380D01*
X128029047Y-20002380D01*
X128124285Y-19954761D01*
X128171904Y-19907142D01*
X128219523Y-19811904D01*
X128219523Y-19002380D01*
X129124285Y-19002380D02*
X128933809Y-19002380D01*
X128838571Y-19050000D01*
X128790952Y-19097619D01*
X128695714Y-19240476D01*
X128648095Y-19430952D01*
X128648095Y-19811904D01*
X128695714Y-19907142D01*
X128743333Y-19954761D01*
X128838571Y-20002380D01*
X129029047Y-20002380D01*
X129124285Y-19954761D01*
X129171904Y-19907142D01*
X129219523Y-19811904D01*
X129219523Y-19573809D01*
X129171904Y-19478571D01*
X129124285Y-19430952D01*
X129029047Y-19383333D01*
X128838571Y-19383333D01*
X128743333Y-19430952D01*
X128695714Y-19478571D01*
X128648095Y-19573809D01*
%TO.C,M3*%
X102060476Y-133302380D02*
X102060476Y-132302380D01*
X102393809Y-133016666D01*
X102727142Y-132302380D01*
X102727142Y-133302380D01*
X103108095Y-132302380D02*
X103727142Y-132302380D01*
X103393809Y-132683333D01*
X103536666Y-132683333D01*
X103631904Y-132730952D01*
X103679523Y-132778571D01*
X103727142Y-132873809D01*
X103727142Y-133111904D01*
X103679523Y-133207142D01*
X103631904Y-133254761D01*
X103536666Y-133302380D01*
X103250952Y-133302380D01*
X103155714Y-133254761D01*
X103108095Y-133207142D01*
%TO.C,C5*%
X151833333Y-28107142D02*
X151785714Y-28154761D01*
X151642857Y-28202380D01*
X151547619Y-28202380D01*
X151404761Y-28154761D01*
X151309523Y-28059523D01*
X151261904Y-27964285D01*
X151214285Y-27773809D01*
X151214285Y-27630952D01*
X151261904Y-27440476D01*
X151309523Y-27345238D01*
X151404761Y-27250000D01*
X151547619Y-27202380D01*
X151642857Y-27202380D01*
X151785714Y-27250000D01*
X151833333Y-27297619D01*
X152738095Y-27202380D02*
X152261904Y-27202380D01*
X152214285Y-27678571D01*
X152261904Y-27630952D01*
X152357142Y-27583333D01*
X152595238Y-27583333D01*
X152690476Y-27630952D01*
X152738095Y-27678571D01*
X152785714Y-27773809D01*
X152785714Y-28011904D01*
X152738095Y-28107142D01*
X152690476Y-28154761D01*
X152595238Y-28202380D01*
X152357142Y-28202380D01*
X152261904Y-28154761D01*
X152214285Y-28107142D01*
%TO.C,R9*%
X120737333Y-24308380D02*
X120404000Y-23832190D01*
X120165904Y-24308380D02*
X120165904Y-23308380D01*
X120546857Y-23308380D01*
X120642095Y-23356000D01*
X120689714Y-23403619D01*
X120737333Y-23498857D01*
X120737333Y-23641714D01*
X120689714Y-23736952D01*
X120642095Y-23784571D01*
X120546857Y-23832190D01*
X120165904Y-23832190D01*
X121213523Y-24308380D02*
X121404000Y-24308380D01*
X121499238Y-24260761D01*
X121546857Y-24213142D01*
X121642095Y-24070285D01*
X121689714Y-23879809D01*
X121689714Y-23498857D01*
X121642095Y-23403619D01*
X121594476Y-23356000D01*
X121499238Y-23308380D01*
X121308761Y-23308380D01*
X121213523Y-23356000D01*
X121165904Y-23403619D01*
X121118285Y-23498857D01*
X121118285Y-23736952D01*
X121165904Y-23832190D01*
X121213523Y-23879809D01*
X121308761Y-23927428D01*
X121499238Y-23927428D01*
X121594476Y-23879809D01*
X121642095Y-23832190D01*
X121689714Y-23736952D01*
%TO.C,R3*%
X102073333Y-57372380D02*
X101740000Y-56896190D01*
X101501904Y-57372380D02*
X101501904Y-56372380D01*
X101882857Y-56372380D01*
X101978095Y-56420000D01*
X102025714Y-56467619D01*
X102073333Y-56562857D01*
X102073333Y-56705714D01*
X102025714Y-56800952D01*
X101978095Y-56848571D01*
X101882857Y-56896190D01*
X101501904Y-56896190D01*
X102406666Y-56372380D02*
X103025714Y-56372380D01*
X102692380Y-56753333D01*
X102835238Y-56753333D01*
X102930476Y-56800952D01*
X102978095Y-56848571D01*
X103025714Y-56943809D01*
X103025714Y-57181904D01*
X102978095Y-57277142D01*
X102930476Y-57324761D01*
X102835238Y-57372380D01*
X102549523Y-57372380D01*
X102454285Y-57324761D01*
X102406666Y-57277142D01*
%TO.C,M9*%
X157940476Y-87582380D02*
X157940476Y-86582380D01*
X158273809Y-87296666D01*
X158607142Y-86582380D01*
X158607142Y-87582380D01*
X159130952Y-87582380D02*
X159321428Y-87582380D01*
X159416666Y-87534761D01*
X159464285Y-87487142D01*
X159559523Y-87344285D01*
X159607142Y-87153809D01*
X159607142Y-86772857D01*
X159559523Y-86677619D01*
X159511904Y-86630000D01*
X159416666Y-86582380D01*
X159226190Y-86582380D01*
X159130952Y-86630000D01*
X159083333Y-86677619D01*
X159035714Y-86772857D01*
X159035714Y-87010952D01*
X159083333Y-87106190D01*
X159130952Y-87153809D01*
X159226190Y-87201428D01*
X159416666Y-87201428D01*
X159511904Y-87153809D01*
X159559523Y-87106190D01*
X159607142Y-87010952D01*
%TO.C,M1*%
X102060476Y-87582380D02*
X102060476Y-86582380D01*
X102393809Y-87296666D01*
X102727142Y-86582380D01*
X102727142Y-87582380D01*
X103727142Y-87582380D02*
X103155714Y-87582380D01*
X103441428Y-87582380D02*
X103441428Y-86582380D01*
X103346190Y-86725238D01*
X103250952Y-86820476D01*
X103155714Y-86868095D01*
%TO.C,Q1*%
X113416761Y-20387619D02*
X113321523Y-20340000D01*
X113226285Y-20244761D01*
X113083428Y-20101904D01*
X112988190Y-20054285D01*
X112892952Y-20054285D01*
X112940571Y-20292380D02*
X112845333Y-20244761D01*
X112750095Y-20149523D01*
X112702476Y-19959047D01*
X112702476Y-19625714D01*
X112750095Y-19435238D01*
X112845333Y-19340000D01*
X112940571Y-19292380D01*
X113131047Y-19292380D01*
X113226285Y-19340000D01*
X113321523Y-19435238D01*
X113369142Y-19625714D01*
X113369142Y-19959047D01*
X113321523Y-20149523D01*
X113226285Y-20244761D01*
X113131047Y-20292380D01*
X112940571Y-20292380D01*
X114321523Y-20292380D02*
X113750095Y-20292380D01*
X114035809Y-20292380D02*
X114035809Y-19292380D01*
X113940571Y-19435238D01*
X113845333Y-19530476D01*
X113750095Y-19578095D01*
%TO.C,U2*%
X144638095Y-30372380D02*
X144638095Y-31181904D01*
X144685714Y-31277142D01*
X144733333Y-31324761D01*
X144828571Y-31372380D01*
X145019047Y-31372380D01*
X145114285Y-31324761D01*
X145161904Y-31277142D01*
X145209523Y-31181904D01*
X145209523Y-30372380D01*
X145638095Y-30467619D02*
X145685714Y-30420000D01*
X145780952Y-30372380D01*
X146019047Y-30372380D01*
X146114285Y-30420000D01*
X146161904Y-30467619D01*
X146209523Y-30562857D01*
X146209523Y-30658095D01*
X146161904Y-30800952D01*
X145590476Y-31372380D01*
X146209523Y-31372380D01*
%TO.C,M14*%
X185404285Y-110442380D02*
X185404285Y-109442380D01*
X185737619Y-110156666D01*
X186070952Y-109442380D01*
X186070952Y-110442380D01*
X187070952Y-110442380D02*
X186499523Y-110442380D01*
X186785238Y-110442380D02*
X186785238Y-109442380D01*
X186690000Y-109585238D01*
X186594761Y-109680476D01*
X186499523Y-109728095D01*
X187928095Y-109775714D02*
X187928095Y-110442380D01*
X187690000Y-109394761D02*
X187451904Y-110109047D01*
X188070952Y-110109047D01*
%TO.C,U4*%
X175514095Y-29867380D02*
X175514095Y-30676904D01*
X175561714Y-30772142D01*
X175609333Y-30819761D01*
X175704571Y-30867380D01*
X175895047Y-30867380D01*
X175990285Y-30819761D01*
X176037904Y-30772142D01*
X176085523Y-30676904D01*
X176085523Y-29867380D01*
X176990285Y-30200714D02*
X176990285Y-30867380D01*
X176752190Y-29819761D02*
X176514095Y-30534047D01*
X177133142Y-30534047D01*
%TO.C,M13*%
X185404285Y-87582380D02*
X185404285Y-86582380D01*
X185737619Y-87296666D01*
X186070952Y-86582380D01*
X186070952Y-87582380D01*
X187070952Y-87582380D02*
X186499523Y-87582380D01*
X186785238Y-87582380D02*
X186785238Y-86582380D01*
X186690000Y-86725238D01*
X186594761Y-86820476D01*
X186499523Y-86868095D01*
X187404285Y-86582380D02*
X188023333Y-86582380D01*
X187690000Y-86963333D01*
X187832857Y-86963333D01*
X187928095Y-87010952D01*
X187975714Y-87058571D01*
X188023333Y-87153809D01*
X188023333Y-87391904D01*
X187975714Y-87487142D01*
X187928095Y-87534761D01*
X187832857Y-87582380D01*
X187547142Y-87582380D01*
X187451904Y-87534761D01*
X187404285Y-87487142D01*
%TO.C,M5*%
X130000476Y-87582380D02*
X130000476Y-86582380D01*
X130333809Y-87296666D01*
X130667142Y-86582380D01*
X130667142Y-87582380D01*
X131619523Y-86582380D02*
X131143333Y-86582380D01*
X131095714Y-87058571D01*
X131143333Y-87010952D01*
X131238571Y-86963333D01*
X131476666Y-86963333D01*
X131571904Y-87010952D01*
X131619523Y-87058571D01*
X131667142Y-87153809D01*
X131667142Y-87391904D01*
X131619523Y-87487142D01*
X131571904Y-87534761D01*
X131476666Y-87582380D01*
X131238571Y-87582380D01*
X131143333Y-87534761D01*
X131095714Y-87487142D01*
D11*
%TO.C,JP1*%
X144470000Y-26090000D02*
X148570000Y-26090000D01*
X147820000Y-25890000D02*
X147520000Y-25590000D01*
X147820000Y-25890000D02*
X148120000Y-25590000D01*
X144470000Y-28090000D02*
X144470000Y-26090000D01*
X148570000Y-28090000D02*
X144470000Y-28090000D01*
X148570000Y-26090000D02*
X148570000Y-28090000D01*
X148120000Y-25590000D02*
X147520000Y-25590000D01*
%TO.C,J1*%
X103505000Y-71530000D02*
X100905000Y-71530000D01*
X106105000Y-68870000D02*
X106105000Y-70200000D01*
X103505000Y-68870000D02*
X103505000Y-71530000D01*
X103505000Y-68870000D02*
X100905000Y-68870000D01*
X100905000Y-68870000D02*
X100905000Y-71530000D01*
X104775000Y-68870000D02*
X106105000Y-68870000D01*
%TO.C,U3*%
X167390000Y-31325000D02*
X165740000Y-31325000D01*
X159600000Y-51825000D02*
X169880000Y-51825000D01*
X169880000Y-31265000D02*
X159600000Y-31265000D01*
X162090000Y-51765000D02*
X167390000Y-51765000D01*
X163740000Y-31325000D02*
X162090000Y-31325000D01*
X159600000Y-31265000D02*
X159600000Y-51825000D01*
X162090000Y-31325000D02*
X162090000Y-51765000D01*
X167390000Y-51765000D02*
X167390000Y-31325000D01*
X169880000Y-51825000D02*
X169880000Y-31265000D01*
X163740000Y-31325000D02*
G75*
G03*
X165740000Y-31325000I1000000J0D01*
G01*
%TO.C,R1*%
X95540000Y-55870000D02*
X95540000Y-55540000D01*
X95540000Y-58280000D02*
X89000000Y-58280000D01*
X95540000Y-55540000D02*
X89000000Y-55540000D01*
X89000000Y-55540000D02*
X89000000Y-55870000D01*
X95540000Y-57950000D02*
X95540000Y-58280000D01*
X89000000Y-58280000D02*
X89000000Y-57950000D01*
%TO.C,R6*%
X92000000Y-26360000D02*
X92000000Y-26030000D01*
X98540000Y-26030000D02*
X98540000Y-26360000D01*
X92000000Y-28770000D02*
X98540000Y-28770000D01*
X98540000Y-28770000D02*
X98540000Y-28440000D01*
X92000000Y-28440000D02*
X92000000Y-28770000D01*
X92000000Y-26030000D02*
X98540000Y-26030000D01*
%TO.C,U5*%
X198170000Y-51765000D02*
X198170000Y-31325000D01*
X192870000Y-31325000D02*
X192870000Y-51765000D01*
X198170000Y-31325000D02*
X196520000Y-31325000D01*
X190380000Y-51825000D02*
X200660000Y-51825000D01*
X192870000Y-51765000D02*
X198170000Y-51765000D01*
X200660000Y-51825000D02*
X200660000Y-31265000D01*
X190380000Y-31265000D02*
X190380000Y-51825000D01*
X194520000Y-31325000D02*
X192870000Y-31325000D01*
X200660000Y-31265000D02*
X190380000Y-31265000D01*
X194520000Y-31325000D02*
G75*
G03*
X196520000Y-31325000I1000000J0D01*
G01*
%TO.C,M2*%
X110490000Y-104140000D02*
X110490000Y-119380000D01*
X110490000Y-119380000D02*
X95250000Y-119380000D01*
X95250000Y-104140000D02*
X95250000Y-119380000D01*
X110490000Y-104140000D02*
X95250000Y-104140000D01*
%TO.C,U1*%
X138290000Y-40210000D02*
X138290000Y-39810000D01*
X135490000Y-51810000D02*
X135890000Y-51810000D01*
X127890000Y-30810000D02*
X128290000Y-30810000D01*
X125290000Y-30810000D02*
X125690000Y-30810000D01*
X92290000Y-51810000D02*
X92690000Y-51810000D01*
X99890000Y-30810000D02*
X100290000Y-30810000D01*
X94790000Y-51810000D02*
X95190000Y-51810000D01*
X87290000Y-30810000D02*
X87590000Y-30810000D01*
X132890000Y-30810000D02*
X133290000Y-30810000D01*
X115090000Y-30810000D02*
X115490000Y-30810000D01*
X138290000Y-45010000D02*
X138290000Y-51810000D01*
X102390000Y-30810000D02*
X102790000Y-30810000D01*
X92290000Y-30810000D02*
X92690000Y-30810000D01*
X130390000Y-51810000D02*
X130790000Y-51810000D01*
X135490000Y-30810000D02*
X135890000Y-30810000D01*
X110090000Y-30810000D02*
X110490000Y-30810000D01*
X97390000Y-51810000D02*
X97790000Y-51810000D01*
X97390000Y-30810000D02*
X97790000Y-30810000D01*
X112590000Y-51810000D02*
X112990000Y-51810000D01*
X120190000Y-51810000D02*
X120590000Y-51810000D01*
X89957000Y-51810000D02*
X89957000Y-48803000D01*
X89690000Y-30810000D02*
X90090000Y-30810000D01*
X104990000Y-30810000D02*
X105390000Y-30810000D01*
X107490000Y-51810000D02*
X107890000Y-51810000D01*
X87290000Y-51810000D02*
X87290000Y-30810000D01*
X138290000Y-42810000D02*
X138290000Y-42410000D01*
X122790000Y-30810000D02*
X123190000Y-30810000D01*
X117690000Y-51810000D02*
X118090000Y-51810000D01*
X107490000Y-30810000D02*
X107890000Y-30810000D01*
X122790000Y-51810000D02*
X123190000Y-51810000D01*
X127890000Y-51810000D02*
X128290000Y-51810000D01*
X110090000Y-51810000D02*
X110490000Y-51810000D01*
X94790000Y-30810000D02*
X95190000Y-30810000D01*
X132890000Y-51810000D02*
X133290000Y-51810000D01*
X99890000Y-51810000D02*
X100290000Y-51810000D01*
X115090000Y-51810000D02*
X115490000Y-51810000D01*
X117690000Y-30810000D02*
X118090000Y-30810000D01*
X130390000Y-30810000D02*
X130790000Y-30810000D01*
X87290000Y-51810000D02*
X87590000Y-51810000D01*
X89690000Y-51810000D02*
X90090000Y-51810000D01*
X89957000Y-48803000D02*
X87290000Y-48803000D01*
X102390000Y-51810000D02*
X102790000Y-51810000D01*
X112590000Y-30810000D02*
X112990000Y-30810000D01*
X104990000Y-51810000D02*
X105390000Y-51810000D01*
X138290000Y-30810000D02*
X138290000Y-37610000D01*
X120190000Y-30810000D02*
X120590000Y-30810000D01*
X125290000Y-51810000D02*
X125690000Y-51810000D01*
%TO.C,M12*%
X194310000Y-58420000D02*
X194310000Y-73660000D01*
X179070000Y-58420000D02*
X179070000Y-73660000D01*
X194310000Y-58420000D02*
X179070000Y-58420000D01*
X194310000Y-73660000D02*
X179070000Y-73660000D01*
%TO.C,C6*%
X169340000Y-28085000D02*
X164100000Y-28085000D01*
X164100000Y-30825000D02*
X164100000Y-28085000D01*
X169340000Y-30825000D02*
X164100000Y-30825000D01*
X169340000Y-30825000D02*
X169340000Y-28085000D01*
%TO.C,M10*%
X166370000Y-104140000D02*
X166370000Y-119380000D01*
X166370000Y-104140000D02*
X151130000Y-104140000D01*
X151130000Y-104140000D02*
X151130000Y-119380000D01*
X166370000Y-119380000D02*
X151130000Y-119380000D01*
%TO.C,R7*%
X98385000Y-71620000D02*
X91845000Y-71620000D01*
X98385000Y-69210000D02*
X98385000Y-68880000D01*
X91845000Y-68880000D02*
X91845000Y-69210000D01*
X98385000Y-68880000D02*
X91845000Y-68880000D01*
X91845000Y-71620000D02*
X91845000Y-71290000D01*
X98385000Y-71290000D02*
X98385000Y-71620000D01*
%TO.C,R4*%
X105520000Y-61480000D02*
X98980000Y-61480000D01*
X105520000Y-61150000D02*
X105520000Y-61480000D01*
X98980000Y-58740000D02*
X98980000Y-59070000D01*
X98980000Y-61480000D02*
X98980000Y-61150000D01*
X105520000Y-58740000D02*
X98980000Y-58740000D01*
X105520000Y-59070000D02*
X105520000Y-58740000D01*
%TO.C,D4*%
X110686000Y-62635000D02*
X110530000Y-62635000D01*
X108370000Y-62635000D02*
X108214000Y-62635000D01*
X108214484Y-62635000D02*
G75*
G03*
X108371392Y-65867335I1235516J-1560000D01*
G01*
X110529837Y-65236130D02*
G75*
G03*
X110530000Y-63154039I-1079837J1041130D01*
G01*
X108370000Y-63154039D02*
G75*
G03*
X108370163Y-65236130I1080000J-1040961D01*
G01*
X110528608Y-65867335D02*
G75*
G03*
X110685516Y-62635000I-1078608J1672335D01*
G01*
%TO.C,D2*%
X98870000Y-62660000D02*
X98714000Y-62660000D01*
X101186000Y-62660000D02*
X101030000Y-62660000D01*
X101028608Y-65892335D02*
G75*
G03*
X101185516Y-62660000I-1078608J1672335D01*
G01*
X98714484Y-62660000D02*
G75*
G03*
X98871392Y-65892335I1235516J-1560000D01*
G01*
X98870000Y-63179039D02*
G75*
G03*
X98870163Y-65261130I1080000J-1040961D01*
G01*
X101029837Y-65261130D02*
G75*
G03*
X101030000Y-63179039I-1079837J1041130D01*
G01*
%TO.C,M7*%
X138430000Y-127000000D02*
X138430000Y-142240000D01*
X138430000Y-142240000D02*
X123190000Y-142240000D01*
X138430000Y-127000000D02*
X123190000Y-127000000D01*
X123190000Y-127000000D02*
X123190000Y-142240000D01*
%TO.C,C2*%
X184940000Y-30865000D02*
X179700000Y-30865000D01*
X184940000Y-30865000D02*
X184940000Y-28125000D01*
X184940000Y-28125000D02*
X179700000Y-28125000D01*
X179700000Y-30865000D02*
X179700000Y-28125000D01*
%TO.C,D3*%
X105911000Y-62635000D02*
X105755000Y-62635000D01*
X103595000Y-62635000D02*
X103439000Y-62635000D01*
X103595000Y-63154039D02*
G75*
G03*
X103595163Y-65236130I1080000J-1040961D01*
G01*
X105753608Y-65867335D02*
G75*
G03*
X105910516Y-62635000I-1078608J1672335D01*
G01*
X103439484Y-62635000D02*
G75*
G03*
X103596392Y-65867335I1235516J-1560000D01*
G01*
X105754837Y-65236130D02*
G75*
G03*
X105755000Y-63154039I-1079837J1041130D01*
G01*
%TO.C,D1*%
X94145000Y-62635000D02*
X93989000Y-62635000D01*
X96461000Y-62635000D02*
X96305000Y-62635000D01*
X96303608Y-65867335D02*
G75*
G03*
X96460516Y-62635000I-1078608J1672335D01*
G01*
X94145000Y-63154039D02*
G75*
G03*
X94145163Y-65236130I1080000J-1040961D01*
G01*
X96304837Y-65236130D02*
G75*
G03*
X96305000Y-63154039I-1079837J1041130D01*
G01*
X93989484Y-62635000D02*
G75*
G03*
X94146392Y-65867335I1235516J-1560000D01*
G01*
%TO.C,R8*%
X117634000Y-28218000D02*
X117634000Y-28548000D01*
X117634000Y-26138000D02*
X117634000Y-25808000D01*
X124174000Y-25808000D02*
X124174000Y-26138000D01*
X124174000Y-28548000D02*
X124174000Y-28218000D01*
X117634000Y-28548000D02*
X124174000Y-28548000D01*
X117634000Y-25808000D02*
X124174000Y-25808000D01*
%TO.C,M4*%
X138430000Y-73660000D02*
X123190000Y-73660000D01*
X138430000Y-58420000D02*
X138430000Y-73660000D01*
X138430000Y-58420000D02*
X123190000Y-58420000D01*
X123190000Y-58420000D02*
X123190000Y-73660000D01*
%TO.C,M15*%
X179070000Y-127000000D02*
X179070000Y-142240000D01*
X194310000Y-127000000D02*
X194310000Y-142240000D01*
X194310000Y-142240000D02*
X179070000Y-142240000D01*
X194310000Y-127000000D02*
X179070000Y-127000000D01*
%TO.C,R2*%
X95510000Y-58780000D02*
X88970000Y-58780000D01*
X88970000Y-58780000D02*
X88970000Y-59110000D01*
X95510000Y-61520000D02*
X88970000Y-61520000D01*
X95510000Y-59110000D02*
X95510000Y-58780000D01*
X95510000Y-61190000D02*
X95510000Y-61520000D01*
X88970000Y-61520000D02*
X88970000Y-61190000D01*
%TO.C,M8*%
X166370000Y-73660000D02*
X151130000Y-73660000D01*
X151130000Y-58420000D02*
X151130000Y-73660000D01*
X166370000Y-58420000D02*
X166370000Y-73660000D01*
X166370000Y-58420000D02*
X151130000Y-58420000D01*
%TO.C,C4*%
X105330000Y-22252000D02*
X105330000Y-24992000D01*
X110570000Y-22252000D02*
X110570000Y-24992000D01*
X105330000Y-22252000D02*
X110570000Y-22252000D01*
X105330000Y-24992000D02*
X110570000Y-24992000D01*
%TO.C,M6*%
X138430000Y-104140000D02*
X123190000Y-104140000D01*
X123190000Y-104140000D02*
X123190000Y-119380000D01*
X138430000Y-104140000D02*
X138430000Y-119380000D01*
X138430000Y-119380000D02*
X123190000Y-119380000D01*
%TO.C,C3*%
X199590000Y-30745000D02*
X199590000Y-28005000D01*
X194350000Y-30745000D02*
X194350000Y-28005000D01*
X199590000Y-28005000D02*
X194350000Y-28005000D01*
X199590000Y-30745000D02*
X194350000Y-30745000D01*
%TO.C,M11*%
X166370000Y-126994000D02*
X151130000Y-126994000D01*
X166370000Y-142234000D02*
X151130000Y-142234000D01*
X166370000Y-126994000D02*
X166370000Y-142234000D01*
X151130000Y-126994000D02*
X151130000Y-142234000D01*
%TO.C,R5*%
X124034000Y-21360000D02*
X124034000Y-21690000D01*
X124034000Y-21690000D02*
X117494000Y-21690000D01*
X117494000Y-18950000D02*
X117494000Y-19280000D01*
X124034000Y-18950000D02*
X117494000Y-18950000D01*
X124034000Y-19280000D02*
X124034000Y-18950000D01*
X117494000Y-21690000D02*
X117494000Y-21360000D01*
%TO.C,C1*%
X98906000Y-23468000D02*
X98906000Y-18228000D01*
X96166000Y-23468000D02*
X98906000Y-23468000D01*
X96166000Y-18228000D02*
X98906000Y-18228000D01*
X96166000Y-23468000D02*
X96166000Y-18228000D01*
%TO.C,R10*%
X132830000Y-24710000D02*
X139370000Y-24710000D01*
X139370000Y-21970000D02*
X139370000Y-22300000D01*
X132830000Y-21970000D02*
X139370000Y-21970000D01*
X132830000Y-24380000D02*
X132830000Y-24710000D01*
X139370000Y-24710000D02*
X139370000Y-24380000D01*
X132830000Y-22300000D02*
X132830000Y-21970000D01*
%TO.C,U6*%
X126520000Y-22170000D02*
X126520000Y-25770000D01*
X127247205Y-21645816D02*
G75*
G03*
X126520000Y-22170000I1122795J-2324184D01*
G01*
X129468807Y-26326400D02*
G75*
G03*
X130970000Y-23970000I-1098807J2356400D01*
G01*
X126520000Y-25770000D02*
G75*
G03*
X127247205Y-26294184I1850000J1800000D01*
G01*
X130970000Y-23970000D02*
G75*
G03*
X129468807Y-21613600I-2600000J0D01*
G01*
%TO.C,M3*%
X110490000Y-127000000D02*
X95250000Y-127000000D01*
X110490000Y-142240000D02*
X95250000Y-142240000D01*
X95250000Y-127000000D02*
X95250000Y-142240000D01*
X110490000Y-127000000D02*
X110490000Y-142240000D01*
%TO.C,C5*%
X149400000Y-31350000D02*
X149400000Y-28610000D01*
X154640000Y-28610000D02*
X149400000Y-28610000D01*
X154640000Y-31350000D02*
X154640000Y-28610000D01*
X154640000Y-31350000D02*
X149400000Y-31350000D01*
%TO.C,R9*%
X117634000Y-22506000D02*
X124174000Y-22506000D01*
X117634000Y-22836000D02*
X117634000Y-22506000D01*
X117634000Y-24916000D02*
X117634000Y-25246000D01*
X124174000Y-22506000D02*
X124174000Y-22836000D01*
X124174000Y-25246000D02*
X124174000Y-24916000D01*
X117634000Y-25246000D02*
X124174000Y-25246000D01*
%TO.C,R3*%
X105500000Y-55580000D02*
X98960000Y-55580000D01*
X105500000Y-55910000D02*
X105500000Y-55580000D01*
X105500000Y-58320000D02*
X98960000Y-58320000D01*
X105500000Y-57990000D02*
X105500000Y-58320000D01*
X98960000Y-55580000D02*
X98960000Y-55910000D01*
X98960000Y-58320000D02*
X98960000Y-57990000D01*
%TO.C,M9*%
X166370000Y-81280000D02*
X151130000Y-81280000D01*
X151130000Y-81280000D02*
X151130000Y-96520000D01*
X166370000Y-81280000D02*
X166370000Y-96520000D01*
X166370000Y-96520000D02*
X151130000Y-96520000D01*
%TO.C,M1*%
X110490000Y-81280000D02*
X95250000Y-81280000D01*
X95250000Y-81280000D02*
X95250000Y-96520000D01*
X110490000Y-96520000D02*
X95250000Y-96520000D01*
X110490000Y-81280000D02*
X110490000Y-96520000D01*
%TO.C,Q1*%
X115642000Y-25930000D02*
X115642000Y-22330000D01*
X112693193Y-21773600D02*
G75*
G03*
X111192000Y-24130000I1098807J-2356400D01*
G01*
X114914795Y-26454184D02*
G75*
G03*
X115642000Y-25930000I-1122795J2324184D01*
G01*
X111192000Y-24130000D02*
G75*
G03*
X112693193Y-26486400I2600000J0D01*
G01*
X115642000Y-22330000D02*
G75*
G03*
X114914795Y-21805816I-1850000J-1800000D01*
G01*
%TO.C,U2*%
X148360000Y-31860000D02*
G75*
G03*
X150360000Y-31860000I1000000J0D01*
G01*
X146710000Y-31860000D02*
X146710000Y-49760000D01*
X152010000Y-31860000D02*
X150360000Y-31860000D01*
X154500000Y-49820000D02*
X154500000Y-31800000D01*
X144220000Y-31800000D02*
X144220000Y-49820000D01*
X146710000Y-49760000D02*
X152010000Y-49760000D01*
X144220000Y-49820000D02*
X154500000Y-49820000D01*
X148360000Y-31860000D02*
X146710000Y-31860000D01*
X152010000Y-49760000D02*
X152010000Y-31860000D01*
X154500000Y-31800000D02*
X144220000Y-31800000D01*
%TO.C,M14*%
X194310000Y-104140000D02*
X179070000Y-104140000D01*
X194310000Y-104140000D02*
X194310000Y-119380000D01*
X194310000Y-119380000D02*
X179070000Y-119380000D01*
X179070000Y-104140000D02*
X179070000Y-119380000D01*
%TO.C,U4*%
X175070000Y-51895000D02*
X185350000Y-51895000D01*
X182860000Y-51835000D02*
X182860000Y-31395000D01*
X177560000Y-51835000D02*
X182860000Y-51835000D01*
X179210000Y-31395000D02*
X177560000Y-31395000D01*
X175070000Y-31335000D02*
X175070000Y-51895000D01*
X185350000Y-51895000D02*
X185350000Y-31335000D01*
X182860000Y-31395000D02*
X181210000Y-31395000D01*
X185350000Y-31335000D02*
X175070000Y-31335000D01*
X177560000Y-31395000D02*
X177560000Y-51835000D01*
X179210000Y-31395000D02*
G75*
G03*
X181210000Y-31395000I1000000J0D01*
G01*
%TO.C,M13*%
X194310000Y-96520000D02*
X179070000Y-96520000D01*
X194310000Y-81280000D02*
X194310000Y-96520000D01*
X194310000Y-81280000D02*
X179070000Y-81280000D01*
X179070000Y-81280000D02*
X179070000Y-96520000D01*
%TO.C,M5*%
X138430000Y-81280000D02*
X138430000Y-96520000D01*
X138430000Y-96520000D02*
X123190000Y-96520000D01*
X123190000Y-81280000D02*
X123190000Y-96520000D01*
X138430000Y-81280000D02*
X123190000Y-81280000D01*
%TD*%
M02*
