%TF.GenerationSoftware,KiCad,Pcbnew,(6.0.11)*%
%TF.CreationDate,2023-02-19T21:57:41-06:00*%
%TF.ProjectId,HIDPanel,48494450-616e-4656-9c2e-6b696361645f,rev?*%
%TF.SameCoordinates,Original*%
%TF.FileFunction,Soldermask,Top*%
%TF.FilePolarity,Negative*%
%FSLAX46Y46*%
G04 Gerber Fmt 4.6, Leading zero omitted, Abs format (unit mm)*
G04 Created by KiCad (PCBNEW (6.0.11)) date 2023-02-19 21:57:41*
%MOMM*%
%LPD*%
G01*
G04 APERTURE LIST*
%ADD10C,3.500000*%
%ADD11C,1.560000*%
%ADD12C,1.524000*%
%ADD13C,3.200000*%
%ADD14C,1.500000*%
%ADD15R,1.500000X1.500000*%
%ADD16C,1.600000*%
%ADD17O,1.600000X1.600000*%
%ADD18R,1.600000X1.600000*%
%ADD19R,3.000000X3.000000*%
%ADD20C,3.000000*%
%ADD21C,1.800000*%
%ADD22R,1.800000X1.800000*%
%ADD23R,3.500000X1.700000*%
%ADD24O,1.700000X1.700000*%
%ADD25R,1.700000X1.700000*%
%ADD26R,1.700000X3.500000*%
%ADD27O,1.500000X1.500000*%
%ADD28O,1.800000X1.800000*%
G04 APERTURE END LIST*
D10*
%TO.C,M5*%
X120650000Y-133350000D03*
X140970000Y-133350000D03*
D11*
X127000000Y-138430000D03*
X129540000Y-138430000D03*
X132080000Y-138430000D03*
X134620000Y-138430000D03*
X137160000Y-138430000D03*
X129540000Y-128270000D03*
X127000000Y-128270000D03*
X132080000Y-128270000D03*
X134620000Y-128270000D03*
X137160000Y-128270000D03*
D12*
X124460000Y-128270000D03*
X124460000Y-138430000D03*
%TD*%
D10*
%TO.C,M4*%
X120650000Y-64770000D03*
X140970000Y-64770000D03*
D11*
X127000000Y-69850000D03*
X129540000Y-69850000D03*
X132080000Y-69850000D03*
X134620000Y-69850000D03*
X137160000Y-69850000D03*
X129540000Y-59690000D03*
X127000000Y-59690000D03*
X132080000Y-59690000D03*
X134620000Y-59690000D03*
X137160000Y-59690000D03*
D12*
X124460000Y-59690000D03*
X124460000Y-69850000D03*
%TD*%
D10*
%TO.C,M15*%
X176530000Y-87630000D03*
X196850000Y-87630000D03*
D11*
X182880000Y-92710000D03*
X185420000Y-92710000D03*
X187960000Y-92710000D03*
X190500000Y-92710000D03*
X193040000Y-92710000D03*
X185420000Y-82550000D03*
X182880000Y-82550000D03*
X187960000Y-82550000D03*
X190500000Y-82550000D03*
X193040000Y-82550000D03*
D12*
X180340000Y-82550000D03*
X180340000Y-92710000D03*
%TD*%
D10*
%TO.C,M14*%
X176530000Y-110490000D03*
X196850000Y-110490000D03*
D11*
X182880000Y-115570000D03*
X185420000Y-115570000D03*
X187960000Y-115570000D03*
X190500000Y-115570000D03*
X193040000Y-115570000D03*
X185420000Y-105410000D03*
X182880000Y-105410000D03*
X187960000Y-105410000D03*
X190500000Y-105410000D03*
X193040000Y-105410000D03*
D12*
X180340000Y-105410000D03*
X180340000Y-115570000D03*
%TD*%
D10*
%TO.C,M13*%
X176530000Y-133350000D03*
X196850000Y-133350000D03*
D11*
X182880000Y-138430000D03*
X185420000Y-138430000D03*
X187960000Y-138430000D03*
X190500000Y-138430000D03*
X193040000Y-138430000D03*
X185420000Y-128270000D03*
X182880000Y-128270000D03*
X187960000Y-128270000D03*
X190500000Y-128270000D03*
X193040000Y-128270000D03*
D12*
X180340000Y-128270000D03*
X180340000Y-138430000D03*
%TD*%
D10*
%TO.C,M12*%
X176530000Y-64770000D03*
X196850000Y-64770000D03*
D11*
X182880000Y-69850000D03*
X185420000Y-69850000D03*
X187960000Y-69850000D03*
X190500000Y-69850000D03*
X193040000Y-69850000D03*
X185420000Y-59690000D03*
X182880000Y-59690000D03*
X187960000Y-59690000D03*
X190500000Y-59690000D03*
X193040000Y-59690000D03*
D12*
X180340000Y-59690000D03*
X180340000Y-69850000D03*
%TD*%
D10*
%TO.C,M11*%
X148590000Y-87630000D03*
X168910000Y-87630000D03*
D11*
X154940000Y-92710000D03*
X157480000Y-92710000D03*
X160020000Y-92710000D03*
X162560000Y-92710000D03*
X165100000Y-92710000D03*
X157480000Y-82550000D03*
X154940000Y-82550000D03*
X160020000Y-82550000D03*
X162560000Y-82550000D03*
X165100000Y-82550000D03*
D12*
X152400000Y-82550000D03*
X152400000Y-92710000D03*
%TD*%
D10*
%TO.C,M10*%
X148590000Y-110490000D03*
X168910000Y-110490000D03*
D11*
X154940000Y-115570000D03*
X157480000Y-115570000D03*
X160020000Y-115570000D03*
X162560000Y-115570000D03*
X165100000Y-115570000D03*
X157480000Y-105410000D03*
X154940000Y-105410000D03*
X160020000Y-105410000D03*
X162560000Y-105410000D03*
X165100000Y-105410000D03*
D12*
X152400000Y-105410000D03*
X152400000Y-115570000D03*
%TD*%
D10*
%TO.C,M9*%
X148590000Y-133344000D03*
X168910000Y-133344000D03*
D11*
X154940000Y-138424000D03*
X157480000Y-138424000D03*
X160020000Y-138424000D03*
X162560000Y-138424000D03*
X165100000Y-138424000D03*
X157480000Y-128264000D03*
X154940000Y-128264000D03*
X160020000Y-128264000D03*
X162560000Y-128264000D03*
X165100000Y-128264000D03*
D12*
X152400000Y-128264000D03*
X152400000Y-138424000D03*
%TD*%
D10*
%TO.C,M8*%
X148590000Y-64770000D03*
X168910000Y-64770000D03*
D11*
X154940000Y-69850000D03*
X157480000Y-69850000D03*
X160020000Y-69850000D03*
X162560000Y-69850000D03*
X165100000Y-69850000D03*
X157480000Y-59690000D03*
X154940000Y-59690000D03*
X160020000Y-59690000D03*
X162560000Y-59690000D03*
X165100000Y-59690000D03*
D12*
X152400000Y-59690000D03*
X152400000Y-69850000D03*
%TD*%
D10*
%TO.C,M7*%
X120650000Y-87630000D03*
X140970000Y-87630000D03*
D11*
X127000000Y-92710000D03*
X129540000Y-92710000D03*
X132080000Y-92710000D03*
X134620000Y-92710000D03*
X137160000Y-92710000D03*
X129540000Y-82550000D03*
X127000000Y-82550000D03*
X132080000Y-82550000D03*
X134620000Y-82550000D03*
X137160000Y-82550000D03*
D12*
X124460000Y-82550000D03*
X124460000Y-92710000D03*
%TD*%
D10*
%TO.C,M6*%
X120650000Y-110490000D03*
X140970000Y-110490000D03*
D11*
X127000000Y-115570000D03*
X129540000Y-115570000D03*
X132080000Y-115570000D03*
X134620000Y-115570000D03*
X137160000Y-115570000D03*
X129540000Y-105410000D03*
X127000000Y-105410000D03*
X132080000Y-105410000D03*
X134620000Y-105410000D03*
X137160000Y-105410000D03*
D12*
X124460000Y-105410000D03*
X124460000Y-115570000D03*
%TD*%
D10*
%TO.C,M3*%
X92710000Y-87630000D03*
X113030000Y-87630000D03*
D11*
X99060000Y-92710000D03*
X101600000Y-92710000D03*
X104140000Y-92710000D03*
X106680000Y-92710000D03*
X109220000Y-92710000D03*
X101600000Y-82550000D03*
X99060000Y-82550000D03*
X104140000Y-82550000D03*
X106680000Y-82550000D03*
X109220000Y-82550000D03*
D12*
X96520000Y-82550000D03*
X96520000Y-92710000D03*
%TD*%
D10*
%TO.C,M2*%
X92710000Y-110490000D03*
X113030000Y-110490000D03*
D11*
X99060000Y-115570000D03*
X101600000Y-115570000D03*
X104140000Y-115570000D03*
X106680000Y-115570000D03*
X109220000Y-115570000D03*
X101600000Y-105410000D03*
X99060000Y-105410000D03*
X104140000Y-105410000D03*
X106680000Y-105410000D03*
X109220000Y-105410000D03*
D12*
X96520000Y-105410000D03*
X96520000Y-115570000D03*
%TD*%
D10*
%TO.C,M1*%
X92710000Y-133350000D03*
X113030000Y-133350000D03*
D11*
X99060000Y-138430000D03*
X101600000Y-138430000D03*
X104140000Y-138430000D03*
X106680000Y-138430000D03*
X109220000Y-138430000D03*
X101600000Y-128270000D03*
X99060000Y-128270000D03*
X104140000Y-128270000D03*
X106680000Y-128270000D03*
X109220000Y-128270000D03*
D12*
X96520000Y-128270000D03*
X96520000Y-138430000D03*
%TD*%
D13*
%TO.C,H4*%
X90000000Y-141000000D03*
%TD*%
%TO.C,H3*%
X198488000Y-141000000D03*
%TD*%
%TO.C,H2*%
X90000000Y-22000000D03*
%TD*%
%TO.C,H1*%
X199000000Y-22000000D03*
%TD*%
D14*
%TO.C,Q1*%
X113780000Y-23270000D03*
X113780000Y-25810000D03*
D15*
X113780000Y-28350000D03*
%TD*%
D16*
%TO.C,C4*%
X105290000Y-27320000D03*
X107790000Y-27320000D03*
%TD*%
D14*
%TO.C,U6*%
X128490000Y-28410000D03*
X128490000Y-25870000D03*
D15*
X128490000Y-23330000D03*
%TD*%
D16*
%TO.C,R10*%
X132670000Y-27930000D03*
D17*
X140290000Y-27930000D03*
%TD*%
%TO.C,R9*%
X125210000Y-24390000D03*
D16*
X117590000Y-24390000D03*
%TD*%
D17*
%TO.C,R8*%
X125170000Y-27670000D03*
D16*
X117550000Y-27670000D03*
%TD*%
D18*
%TO.C,U2*%
X145550000Y-33190000D03*
D17*
X145550000Y-35730000D03*
X145550000Y-38270000D03*
X145550000Y-40810000D03*
X145550000Y-43350000D03*
X145550000Y-45890000D03*
X145550000Y-48430000D03*
X153170000Y-48430000D03*
X153170000Y-45890000D03*
X153170000Y-43350000D03*
X153170000Y-40810000D03*
X153170000Y-38270000D03*
X153170000Y-35730000D03*
X153170000Y-33190000D03*
%TD*%
%TO.C,R7*%
X95960000Y-68550000D03*
D16*
X88340000Y-68550000D03*
%TD*%
D19*
%TO.C,J1*%
X91560000Y-59140000D03*
D20*
X91560000Y-64220000D03*
%TD*%
D17*
%TO.C,U5*%
X199330000Y-32655000D03*
X199330000Y-35195000D03*
X199330000Y-37735000D03*
X199330000Y-40275000D03*
X199330000Y-42815000D03*
X199330000Y-45355000D03*
X199330000Y-47895000D03*
X199330000Y-50435000D03*
X191710000Y-50435000D03*
X191710000Y-47895000D03*
X191710000Y-45355000D03*
X191710000Y-42815000D03*
X191710000Y-40275000D03*
X191710000Y-37735000D03*
X191710000Y-35195000D03*
D18*
X191710000Y-32655000D03*
%TD*%
D17*
%TO.C,U4*%
X184020000Y-32725000D03*
X184020000Y-35265000D03*
X184020000Y-37805000D03*
X184020000Y-40345000D03*
X184020000Y-42885000D03*
X184020000Y-45425000D03*
X184020000Y-47965000D03*
X184020000Y-50505000D03*
X176400000Y-50505000D03*
X176400000Y-47965000D03*
X176400000Y-45425000D03*
X176400000Y-42885000D03*
X176400000Y-40345000D03*
X176400000Y-37805000D03*
X176400000Y-35265000D03*
D18*
X176400000Y-32725000D03*
%TD*%
D17*
%TO.C,U3*%
X168550000Y-32655000D03*
X168550000Y-35195000D03*
X168550000Y-37735000D03*
X168550000Y-40275000D03*
X168550000Y-42815000D03*
X168550000Y-45355000D03*
X168550000Y-47895000D03*
X168550000Y-50435000D03*
X160930000Y-50435000D03*
X160930000Y-47895000D03*
X160930000Y-45355000D03*
X160930000Y-42815000D03*
X160930000Y-40275000D03*
X160930000Y-37735000D03*
X160930000Y-35195000D03*
D18*
X160930000Y-32655000D03*
%TD*%
D17*
%TO.C,R6*%
X97790000Y-27940000D03*
D16*
X90170000Y-27940000D03*
%TD*%
%TO.C,R5*%
X124574000Y-21076000D03*
D17*
X116954000Y-21076000D03*
%TD*%
%TO.C,R4*%
X108240000Y-59360000D03*
D16*
X115860000Y-59360000D03*
%TD*%
D17*
%TO.C,R3*%
X108240000Y-62662000D03*
D16*
X115860000Y-62662000D03*
%TD*%
%TO.C,R2*%
X105700000Y-62662000D03*
D17*
X98080000Y-62662000D03*
%TD*%
D16*
%TO.C,R1*%
X105700000Y-59360000D03*
D17*
X98080000Y-59360000D03*
%TD*%
D21*
%TO.C,D4*%
X113828000Y-68245000D03*
D22*
X113828000Y-65705000D03*
%TD*%
%TO.C,D3*%
X109002000Y-65710000D03*
D21*
X109002000Y-68250000D03*
%TD*%
D22*
%TO.C,D2*%
X104176000Y-65710000D03*
D21*
X104176000Y-68250000D03*
%TD*%
%TO.C,D1*%
X99350000Y-68175000D03*
D22*
X99350000Y-65635000D03*
%TD*%
D16*
%TO.C,C6*%
X165470000Y-29455000D03*
X167970000Y-29455000D03*
%TD*%
%TO.C,C5*%
X150770000Y-29980000D03*
X153270000Y-29980000D03*
%TD*%
%TO.C,C3*%
X195720000Y-29375000D03*
X198220000Y-29375000D03*
%TD*%
%TO.C,C2*%
X181070000Y-29495000D03*
X183570000Y-29495000D03*
%TD*%
%TO.C,C1*%
X97536000Y-22860000D03*
X97536000Y-20360000D03*
%TD*%
D23*
%TO.C,U1*%
X137576000Y-39878000D03*
D24*
X136676000Y-39878000D03*
D23*
X137576000Y-42418000D03*
D25*
X136676000Y-42418000D03*
D24*
X136676000Y-44958000D03*
D23*
X137576000Y-44958000D03*
D26*
X88646000Y-32628000D03*
D24*
X88646000Y-33528000D03*
X91186000Y-33528000D03*
D26*
X91186000Y-32628000D03*
D25*
X93726000Y-33528000D03*
D26*
X93726000Y-32628000D03*
D24*
X96266000Y-33528000D03*
D26*
X96266000Y-32628000D03*
X98806000Y-32628000D03*
D24*
X98806000Y-33528000D03*
X101346000Y-33528000D03*
D26*
X101346000Y-32628000D03*
D24*
X103886000Y-33528000D03*
D26*
X103886000Y-32628000D03*
D25*
X106426000Y-33528000D03*
D26*
X106426000Y-32628000D03*
X108966000Y-32628000D03*
D24*
X108966000Y-33528000D03*
D26*
X111506000Y-32628000D03*
D24*
X111506000Y-33528000D03*
X114046000Y-33528000D03*
D26*
X114046000Y-32628000D03*
X116586000Y-32628000D03*
D24*
X116586000Y-33528000D03*
D26*
X119126000Y-32628000D03*
D25*
X119126000Y-33528000D03*
D26*
X121666000Y-32628000D03*
D24*
X121666000Y-33528000D03*
X124206000Y-33528000D03*
D26*
X124206000Y-32628000D03*
D24*
X126746000Y-33528000D03*
D26*
X126746000Y-32628000D03*
X129286000Y-32628000D03*
D24*
X129286000Y-33528000D03*
D25*
X131826000Y-33528000D03*
D26*
X131826000Y-32628000D03*
D24*
X134366000Y-33528000D03*
D26*
X134366000Y-32628000D03*
D24*
X136906000Y-33528000D03*
D26*
X136906000Y-32628000D03*
D24*
X136906000Y-51308000D03*
D26*
X136906000Y-52208000D03*
X134366000Y-52208000D03*
D24*
X134366000Y-51308000D03*
D25*
X131826000Y-51308000D03*
D26*
X131826000Y-52208000D03*
D24*
X129286000Y-51308000D03*
D26*
X129286000Y-52208000D03*
D24*
X126746000Y-51308000D03*
D26*
X126746000Y-52208000D03*
X124206000Y-52208000D03*
D24*
X124206000Y-51308000D03*
X121666000Y-51308000D03*
D26*
X121666000Y-52208000D03*
X119126000Y-52208000D03*
D25*
X119126000Y-51308000D03*
D26*
X116586000Y-52208000D03*
D24*
X116586000Y-51308000D03*
X114046000Y-51308000D03*
D26*
X114046000Y-52208000D03*
X111506000Y-52208000D03*
D24*
X111506000Y-51308000D03*
X108966000Y-51308000D03*
D26*
X108966000Y-52208000D03*
X106426000Y-52208000D03*
D25*
X106426000Y-51308000D03*
D24*
X103886000Y-51308000D03*
D26*
X103886000Y-52208000D03*
X101346000Y-52208000D03*
D24*
X101346000Y-51308000D03*
D26*
X98806000Y-52208000D03*
D24*
X98806000Y-51308000D03*
D26*
X96266000Y-52208000D03*
D24*
X96266000Y-51308000D03*
D25*
X93726000Y-51308000D03*
D26*
X93726000Y-52208000D03*
X91186000Y-52208000D03*
D24*
X91186000Y-51308000D03*
D26*
X88646000Y-52208000D03*
D24*
X88646000Y-51308000D03*
D27*
X91806000Y-39993000D03*
X91806000Y-44843000D03*
D28*
X88776000Y-45143000D03*
X88776000Y-39693000D03*
%TD*%
M02*
