%TF.GenerationSoftware,KiCad,Pcbnew,(6.0.11)*%
%TF.CreationDate,2023-02-20T18:23:07-06:00*%
%TF.ProjectId,HIDPanel,48494450-616e-4656-9c2e-6b696361645f,rev?*%
%TF.SameCoordinates,Original*%
%TF.FileFunction,Copper,L2,Bot*%
%TF.FilePolarity,Positive*%
%FSLAX46Y46*%
G04 Gerber Fmt 4.6, Leading zero omitted, Abs format (unit mm)*
G04 Created by KiCad (PCBNEW (6.0.11)) date 2023-02-20 18:23:07*
%MOMM*%
%LPD*%
G01*
G04 APERTURE LIST*
%TA.AperFunction,ComponentPad*%
%ADD10R,1.600000X1.600000*%
%TD*%
%TA.AperFunction,ComponentPad*%
%ADD11O,1.600000X1.600000*%
%TD*%
%TA.AperFunction,ComponentPad*%
%ADD12C,1.600000*%
%TD*%
%TA.AperFunction,WasherPad*%
%ADD13C,3.500000*%
%TD*%
%TA.AperFunction,ComponentPad*%
%ADD14C,1.560000*%
%TD*%
%TA.AperFunction,ComponentPad*%
%ADD15C,1.524000*%
%TD*%
%TA.AperFunction,ComponentPad*%
%ADD16O,1.700000X1.700000*%
%TD*%
%TA.AperFunction,ComponentPad*%
%ADD17R,1.700000X1.700000*%
%TD*%
%TA.AperFunction,ComponentPad*%
%ADD18R,1.800000X1.800000*%
%TD*%
%TA.AperFunction,ComponentPad*%
%ADD19C,1.800000*%
%TD*%
%TA.AperFunction,ComponentPad*%
%ADD20R,1.500000X1.500000*%
%TD*%
%TA.AperFunction,ComponentPad*%
%ADD21C,1.500000*%
%TD*%
%TA.AperFunction,ComponentPad*%
%ADD22R,3.000000X3.000000*%
%TD*%
%TA.AperFunction,ComponentPad*%
%ADD23C,3.000000*%
%TD*%
%TA.AperFunction,ViaPad*%
%ADD24C,0.800000*%
%TD*%
%TA.AperFunction,Conductor*%
%ADD25C,0.350000*%
%TD*%
G04 APERTURE END LIST*
D10*
%TO.P,U3,1,X4*%
%TO.N,M1A*%
X160930000Y-32655000D03*
D11*
%TO.P,U3,2,X6*%
%TO.N,M2A*%
X160930000Y-35195000D03*
%TO.P,U3,3,X*%
%TO.N,ADC0INP*%
X160930000Y-37735000D03*
%TO.P,U3,4,X7*%
%TO.N,M3A*%
X160930000Y-40275000D03*
%TO.P,U3,5,X5*%
%TO.N,M4A*%
X160930000Y-42815000D03*
%TO.P,U3,6,Inh*%
%TO.N,GND*%
X160930000Y-45355000D03*
%TO.P,U3,7,VEE*%
X160930000Y-47895000D03*
%TO.P,U3,8,VSS*%
X160930000Y-50435000D03*
%TO.P,U3,9,C*%
%TO.N,SEL2T*%
X168550000Y-50435000D03*
%TO.P,U3,10,B*%
%TO.N,SEL1T*%
X168550000Y-47895000D03*
%TO.P,U3,11,A*%
%TO.N,SEL0T*%
X168550000Y-45355000D03*
%TO.P,U3,12,X3*%
%TO.N,M5A*%
X168550000Y-42815000D03*
%TO.P,U3,13,X0*%
%TO.N,M6A*%
X168550000Y-40275000D03*
%TO.P,U3,14,X1*%
%TO.N,M7A*%
X168550000Y-37735000D03*
%TO.P,U3,15,X2*%
%TO.N,M8A*%
X168550000Y-35195000D03*
%TO.P,U3,16,VDD*%
%TO.N,+5V*%
X168550000Y-32655000D03*
%TD*%
D12*
%TO.P,R1,1*%
%TO.N,Net-(D1-Pad1)*%
X105700000Y-59360000D03*
D11*
%TO.P,R1,2*%
%TO.N,LED0*%
X98080000Y-59360000D03*
%TD*%
D12*
%TO.P,R6,1*%
%TO.N,+3.3V*%
X90170000Y-27940000D03*
D11*
%TO.P,R6,2*%
%TO.N,Net-(R6-Pad2)*%
X97790000Y-27940000D03*
%TD*%
D10*
%TO.P,U5,1,X4*%
%TO.N,M9A*%
X191710000Y-32655000D03*
D11*
%TO.P,U5,2,X6*%
%TO.N,M11A*%
X191710000Y-35195000D03*
%TO.P,U5,3,X*%
%TO.N,ADC2INP*%
X191710000Y-37735000D03*
%TO.P,U5,4,X7*%
%TO.N,SW2M13*%
X191710000Y-40275000D03*
%TO.P,U5,5,X5*%
%TO.N,M12A*%
X191710000Y-42815000D03*
%TO.P,U5,6,Inh*%
%TO.N,GND*%
X191710000Y-45355000D03*
%TO.P,U5,7,VEE*%
X191710000Y-47895000D03*
%TO.P,U5,8,VSS*%
X191710000Y-50435000D03*
%TO.P,U5,9,C*%
%TO.N,SEL2T*%
X199330000Y-50435000D03*
%TO.P,U5,10,B*%
%TO.N,SEL1T*%
X199330000Y-47895000D03*
%TO.P,U5,11,A*%
%TO.N,SEL0T*%
X199330000Y-45355000D03*
%TO.P,U5,12,X3*%
%TO.N,M13A*%
X199330000Y-42815000D03*
%TO.P,U5,13,X0*%
%TO.N,M14A*%
X199330000Y-40275000D03*
%TO.P,U5,14,X1*%
%TO.N,M15A*%
X199330000Y-37735000D03*
%TO.P,U5,15,X2*%
%TO.N,M10A*%
X199330000Y-35195000D03*
%TO.P,U5,16,VDD*%
%TO.N,+5V*%
X199330000Y-32655000D03*
%TD*%
D13*
%TO.P,M2,*%
%TO.N,*%
X92710000Y-110490000D03*
X113030000Y-110490000D03*
D14*
%TO.P,M2,1,GND*%
%TO.N,GND*%
X99060000Y-118110000D03*
X101600000Y-118110000D03*
%TO.P,M2,2,ACC*%
%TO.N,ACC*%
X104140000Y-118110000D03*
%TO.P,M2,3,VCC*%
%TO.N,+3.3V*%
X106680000Y-118110000D03*
X109220000Y-118110000D03*
%TO.P,M2,4,SW1*%
%TO.N,SW1M2*%
X101600000Y-105410000D03*
X99060000Y-105410000D03*
%TO.P,M2,5,ANG*%
%TO.N,M2A*%
X104140000Y-105410000D03*
%TO.P,M2,6,SW2*%
%TO.N,unconnected-(M2-Pad6)*%
X106680000Y-105410000D03*
X109220000Y-105410000D03*
D15*
%TO.P,M2,7,IN1*%
%TO.N,unconnected-(M2-Pad7)*%
X96520000Y-105410000D03*
%TO.P,M2,8,IN2*%
%TO.N,unconnected-(M2-Pad8)*%
X96520000Y-118110000D03*
%TD*%
D16*
%TO.P,U1,1,GPIO0*%
%TO.N,LED0*%
X88646000Y-51308000D03*
%TO.P,U1,2,GPIO1*%
%TO.N,LED1*%
X91186000Y-51308000D03*
D17*
%TO.P,U1,3,GND*%
%TO.N,GND*%
X93726000Y-51308000D03*
D16*
%TO.P,U1,4,GPIO2*%
%TO.N,LED2*%
X96266000Y-51308000D03*
%TO.P,U1,5,GPIO3*%
%TO.N,LED3*%
X98806000Y-51308000D03*
%TO.P,U1,6,GPIO4*%
%TO.N,Net-(J1-Pad2)*%
X101346000Y-51308000D03*
%TO.P,U1,7,GPIO5*%
%TO.N,SW1M1*%
X103886000Y-51308000D03*
D17*
%TO.P,U1,8,GND*%
%TO.N,GND*%
X106426000Y-51308000D03*
D16*
%TO.P,U1,9,GPIO6*%
%TO.N,SW1M2*%
X108966000Y-51308000D03*
%TO.P,U1,10,GPIO7*%
%TO.N,SW1M3*%
X111506000Y-51308000D03*
%TO.P,U1,11,GPIO8*%
%TO.N,SW1M5*%
X114046000Y-51308000D03*
%TO.P,U1,12,GPIO9*%
%TO.N,SW1M6*%
X116586000Y-51308000D03*
D17*
%TO.P,U1,13,GND*%
%TO.N,GND*%
X119126000Y-51308000D03*
D16*
%TO.P,U1,14,GPIO10*%
%TO.N,SW1M7*%
X121666000Y-51308000D03*
%TO.P,U1,15,GPIO11*%
%TO.N,SW1M4*%
X124206000Y-51308000D03*
%TO.P,U1,16,GPIO12*%
%TO.N,SW1M9*%
X126746000Y-51308000D03*
%TO.P,U1,17,GPIO13*%
%TO.N,SW1M10*%
X129286000Y-51308000D03*
D17*
%TO.P,U1,18,GND*%
%TO.N,GND*%
X131826000Y-51308000D03*
D16*
%TO.P,U1,19,GPIO14*%
%TO.N,SW1M11*%
X134366000Y-51308000D03*
%TO.P,U1,20,GPIO15*%
%TO.N,SW1M8*%
X136906000Y-51308000D03*
%TO.P,U1,21,GPIO16*%
%TO.N,SW1M12*%
X136906000Y-33528000D03*
%TO.P,U1,22,GPIO17*%
%TO.N,SW1M15*%
X134366000Y-33528000D03*
D17*
%TO.P,U1,23,GND*%
%TO.N,GND*%
X131826000Y-33528000D03*
D16*
%TO.P,U1,24,GPIO18*%
%TO.N,SW1M14*%
X129286000Y-33528000D03*
%TO.P,U1,25,GPIO19*%
%TO.N,SW1M13*%
X126746000Y-33528000D03*
%TO.P,U1,26,GPIO20*%
%TO.N,SEL0*%
X124206000Y-33528000D03*
%TO.P,U1,27,GPIO21*%
%TO.N,SEL1*%
X121666000Y-33528000D03*
D17*
%TO.P,U1,28,GND*%
%TO.N,GND*%
X119126000Y-33528000D03*
D16*
%TO.P,U1,29,GPIO22*%
%TO.N,SEL2*%
X116586000Y-33528000D03*
%TO.P,U1,30,RUN*%
%TO.N,Net-(R6-Pad2)*%
X114046000Y-33528000D03*
%TO.P,U1,31,GPIO26_ADC0*%
%TO.N,ADC0INP*%
X111506000Y-33528000D03*
%TO.P,U1,32,GPIO27_ADC1*%
%TO.N,ADC1INP*%
X108966000Y-33528000D03*
D17*
%TO.P,U1,33,AGND*%
%TO.N,GND*%
X106426000Y-33528000D03*
D16*
%TO.P,U1,34,GPIO28_ADC2*%
%TO.N,ADC2INP*%
X103886000Y-33528000D03*
%TO.P,U1,35,ADC_VREF*%
%TO.N,ACC*%
X101346000Y-33528000D03*
%TO.P,U1,36,3V3*%
%TO.N,+3.3V*%
X98806000Y-33528000D03*
%TO.P,U1,37,3V3_EN*%
%TO.N,Net-(R5-Pad2)*%
X96266000Y-33528000D03*
D17*
%TO.P,U1,38,GND*%
%TO.N,GND*%
X93726000Y-33528000D03*
D16*
%TO.P,U1,39,VSYS*%
%TO.N,Net-(R5-Pad1)*%
X91186000Y-33528000D03*
%TO.P,U1,40,VBUS*%
%TO.N,+5V*%
X88646000Y-33528000D03*
%TO.P,U1,41,SWCLK*%
%TO.N,unconnected-(U1-Pad41)*%
X136676000Y-44958000D03*
D17*
%TO.P,U1,42,GND*%
%TO.N,GND*%
X136676000Y-42418000D03*
D16*
%TO.P,U1,43,SWDIO*%
%TO.N,unconnected-(U1-Pad43)*%
X136676000Y-39878000D03*
%TD*%
D13*
%TO.P,M12,*%
%TO.N,*%
X196850000Y-64770000D03*
X176530000Y-64770000D03*
D14*
%TO.P,M12,1,GND*%
%TO.N,GND*%
X182880000Y-72390000D03*
X185420000Y-72390000D03*
%TO.P,M12,2,ACC*%
%TO.N,ACC*%
X187960000Y-72390000D03*
%TO.P,M12,3,VCC*%
%TO.N,+3.3V*%
X193040000Y-72390000D03*
X190500000Y-72390000D03*
%TO.P,M12,4,SW1*%
%TO.N,SW1M12*%
X185420000Y-59690000D03*
X182880000Y-59690000D03*
%TO.P,M12,5,ANG*%
%TO.N,M12A*%
X187960000Y-59690000D03*
%TO.P,M12,6,SW2*%
%TO.N,SW2M12*%
X190500000Y-59690000D03*
X193040000Y-59690000D03*
D15*
%TO.P,M12,7,IN1*%
%TO.N,unconnected-(M12-Pad7)*%
X180340000Y-59690000D03*
%TO.P,M12,8,IN2*%
%TO.N,unconnected-(M12-Pad8)*%
X180340000Y-72390000D03*
%TD*%
D12*
%TO.P,C6,1*%
%TO.N,+5V*%
X167970000Y-29455000D03*
%TO.P,C6,2*%
%TO.N,GND*%
X165470000Y-29455000D03*
%TD*%
D13*
%TO.P,M10,*%
%TO.N,*%
X148590000Y-110490000D03*
X168910000Y-110490000D03*
D14*
%TO.P,M10,1,GND*%
%TO.N,GND*%
X154940000Y-118110000D03*
X157480000Y-118110000D03*
%TO.P,M10,2,ACC*%
%TO.N,ACC*%
X160020000Y-118110000D03*
%TO.P,M10,3,VCC*%
%TO.N,+3.3V*%
X165100000Y-118110000D03*
X162560000Y-118110000D03*
%TO.P,M10,4,SW1*%
%TO.N,SW1M10*%
X157480000Y-105410000D03*
X154940000Y-105410000D03*
%TO.P,M10,5,ANG*%
%TO.N,M10A*%
X160020000Y-105410000D03*
%TO.P,M10,6,SW2*%
%TO.N,SW2M10*%
X162560000Y-105410000D03*
X165100000Y-105410000D03*
D15*
%TO.P,M10,7,IN1*%
%TO.N,unconnected-(M10-Pad7)*%
X152400000Y-105410000D03*
%TO.P,M10,8,IN2*%
%TO.N,unconnected-(M10-Pad8)*%
X152400000Y-118110000D03*
%TD*%
D12*
%TO.P,R7,1*%
%TO.N,Net-(J1-Pad2)*%
X88340000Y-68550000D03*
D11*
%TO.P,R7,2*%
%TO.N,+3.3V*%
X95960000Y-68550000D03*
%TD*%
D12*
%TO.P,R4,1*%
%TO.N,Net-(D4-Pad1)*%
X115860000Y-59360000D03*
D11*
%TO.P,R4,2*%
%TO.N,LED3*%
X108240000Y-59360000D03*
%TD*%
D18*
%TO.P,D4,1,K*%
%TO.N,Net-(D4-Pad1)*%
X113828000Y-65705000D03*
D19*
%TO.P,D4,2,A*%
%TO.N,+3.3V*%
X113828000Y-68245000D03*
%TD*%
D18*
%TO.P,D2,1,K*%
%TO.N,Net-(D2-Pad1)*%
X104176000Y-65710000D03*
D19*
%TO.P,D2,2,A*%
%TO.N,+3.3V*%
X104176000Y-68250000D03*
%TD*%
D13*
%TO.P,M7,*%
%TO.N,*%
X120650000Y-133350000D03*
X140970000Y-133350000D03*
D14*
%TO.P,M7,1,GND*%
%TO.N,GND*%
X127000000Y-140970000D03*
X129540000Y-140970000D03*
%TO.P,M7,2,ACC*%
%TO.N,ACC*%
X132080000Y-140970000D03*
%TO.P,M7,3,VCC*%
%TO.N,+3.3V*%
X137160000Y-140970000D03*
X134620000Y-140970000D03*
%TO.P,M7,4,SW1*%
%TO.N,SW1M5*%
X129540000Y-128270000D03*
X127000000Y-128270000D03*
%TO.P,M7,5,ANG*%
%TO.N,M5A*%
X132080000Y-128270000D03*
%TO.P,M7,6,SW2*%
%TO.N,unconnected-(M7-Pad6)*%
X134620000Y-128270000D03*
X137160000Y-128270000D03*
D15*
%TO.P,M7,7,IN1*%
%TO.N,unconnected-(M7-Pad7)*%
X124460000Y-128270000D03*
%TO.P,M7,8,IN2*%
%TO.N,unconnected-(M7-Pad8)*%
X124460000Y-140970000D03*
%TD*%
D12*
%TO.P,C2,1*%
%TO.N,+5V*%
X183570000Y-29495000D03*
%TO.P,C2,2*%
%TO.N,GND*%
X181070000Y-29495000D03*
%TD*%
D18*
%TO.P,D3,1,K*%
%TO.N,Net-(D3-Pad1)*%
X109002000Y-65710000D03*
D19*
%TO.P,D3,2,A*%
%TO.N,+3.3V*%
X109002000Y-68250000D03*
%TD*%
D18*
%TO.P,D1,1,K*%
%TO.N,Net-(D1-Pad1)*%
X99350000Y-65635000D03*
D19*
%TO.P,D1,2,A*%
%TO.N,+3.3V*%
X99350000Y-68175000D03*
%TD*%
D12*
%TO.P,R8,1*%
%TO.N,+5V*%
X117550000Y-27670000D03*
D11*
%TO.P,R8,2*%
%TO.N,Net-(Q1-Pad2)*%
X125170000Y-27670000D03*
%TD*%
D13*
%TO.P,M4,*%
%TO.N,*%
X140970000Y-64770000D03*
X120650000Y-64770000D03*
D14*
%TO.P,M4,1,GND*%
%TO.N,GND*%
X127000000Y-72390000D03*
X129540000Y-72390000D03*
%TO.P,M4,2,ACC*%
%TO.N,ACC*%
X132080000Y-72390000D03*
%TO.P,M4,3,VCC*%
%TO.N,+3.3V*%
X134620000Y-72390000D03*
X137160000Y-72390000D03*
%TO.P,M4,4,SW1*%
%TO.N,SW1M4*%
X127000000Y-59690000D03*
X129540000Y-59690000D03*
%TO.P,M4,5,ANG*%
%TO.N,M4A*%
X132080000Y-59690000D03*
%TO.P,M4,6,SW2*%
%TO.N,SW2M4*%
X137160000Y-59690000D03*
X134620000Y-59690000D03*
D15*
%TO.P,M4,7,IN1*%
%TO.N,unconnected-(M4-Pad7)*%
X124460000Y-59690000D03*
%TO.P,M4,8,IN2*%
%TO.N,unconnected-(M4-Pad8)*%
X124460000Y-72390000D03*
%TD*%
D13*
%TO.P,M15,*%
%TO.N,*%
X176530000Y-133350000D03*
X196850000Y-133350000D03*
D14*
%TO.P,M15,1,GND*%
%TO.N,GND*%
X182880000Y-140970000D03*
X185420000Y-140970000D03*
%TO.P,M15,2,ACC*%
%TO.N,ACC*%
X187960000Y-140970000D03*
%TO.P,M15,3,VCC*%
%TO.N,+3.3V*%
X190500000Y-140970000D03*
X193040000Y-140970000D03*
%TO.P,M15,4,SW1*%
%TO.N,SW1M13*%
X185420000Y-128270000D03*
X182880000Y-128270000D03*
%TO.P,M15,5,ANG*%
%TO.N,M13A*%
X187960000Y-128270000D03*
%TO.P,M15,6,SW2*%
%TO.N,SW2M13*%
X190500000Y-128270000D03*
X193040000Y-128270000D03*
D15*
%TO.P,M15,7,IN1*%
%TO.N,unconnected-(M15-Pad7)*%
X180340000Y-128270000D03*
%TO.P,M15,8,IN2*%
%TO.N,unconnected-(M15-Pad8)*%
X180340000Y-140970000D03*
%TD*%
D12*
%TO.P,R2,1*%
%TO.N,Net-(D2-Pad1)*%
X105700000Y-62662000D03*
D11*
%TO.P,R2,2*%
%TO.N,LED1*%
X98080000Y-62662000D03*
%TD*%
D13*
%TO.P,M8,*%
%TO.N,*%
X148590000Y-64770000D03*
X168910000Y-64770000D03*
D14*
%TO.P,M8,1,GND*%
%TO.N,GND*%
X157480000Y-72390000D03*
X154940000Y-72390000D03*
%TO.P,M8,2,ACC*%
%TO.N,ACC*%
X160020000Y-72390000D03*
%TO.P,M8,3,VCC*%
%TO.N,+3.3V*%
X165100000Y-72390000D03*
X162560000Y-72390000D03*
%TO.P,M8,4,SW1*%
%TO.N,SW1M8*%
X157480000Y-59690000D03*
X154940000Y-59690000D03*
%TO.P,M8,5,ANG*%
%TO.N,M8A*%
X160020000Y-59690000D03*
%TO.P,M8,6,SW2*%
%TO.N,SW2M8*%
X165100000Y-59690000D03*
X162560000Y-59690000D03*
D15*
%TO.P,M8,7,IN1*%
%TO.N,unconnected-(M8-Pad7)*%
X152400000Y-59690000D03*
%TO.P,M8,8,IN2*%
%TO.N,unconnected-(M8-Pad8)*%
X152400000Y-72390000D03*
%TD*%
D12*
%TO.P,C4,1*%
%TO.N,ACC*%
X105290000Y-27320000D03*
%TO.P,C4,2*%
%TO.N,GND*%
X107790000Y-27320000D03*
%TD*%
D13*
%TO.P,M6,*%
%TO.N,*%
X120650000Y-110490000D03*
X140970000Y-110490000D03*
D14*
%TO.P,M6,1,GND*%
%TO.N,GND*%
X129540000Y-118110000D03*
X127000000Y-118110000D03*
%TO.P,M6,2,ACC*%
%TO.N,ACC*%
X132080000Y-118110000D03*
%TO.P,M6,3,VCC*%
%TO.N,+3.3V*%
X134620000Y-118110000D03*
X137160000Y-118110000D03*
%TO.P,M6,4,SW1*%
%TO.N,SW1M6*%
X127000000Y-105410000D03*
X129540000Y-105410000D03*
%TO.P,M6,5,ANG*%
%TO.N,M6A*%
X132080000Y-105410000D03*
%TO.P,M6,6,SW2*%
%TO.N,unconnected-(M6-Pad6)*%
X134620000Y-105410000D03*
X137160000Y-105410000D03*
D15*
%TO.P,M6,7,IN1*%
%TO.N,unconnected-(M6-Pad7)*%
X124460000Y-105410000D03*
%TO.P,M6,8,IN2*%
%TO.N,unconnected-(M6-Pad8)*%
X124460000Y-118110000D03*
%TD*%
D12*
%TO.P,C3,1*%
%TO.N,+5V*%
X198220000Y-29375000D03*
%TO.P,C3,2*%
%TO.N,GND*%
X195720000Y-29375000D03*
%TD*%
D13*
%TO.P,M11,*%
%TO.N,*%
X148590000Y-133344000D03*
X168910000Y-133344000D03*
D14*
%TO.P,M11,1,GND*%
%TO.N,GND*%
X157480000Y-140964000D03*
X154940000Y-140964000D03*
%TO.P,M11,2,ACC*%
%TO.N,ACC*%
X160020000Y-140964000D03*
%TO.P,M11,3,VCC*%
%TO.N,+3.3V*%
X162560000Y-140964000D03*
X165100000Y-140964000D03*
%TO.P,M11,4,SW1*%
%TO.N,SW1M9*%
X157480000Y-128264000D03*
X154940000Y-128264000D03*
%TO.P,M11,5,ANG*%
%TO.N,M9A*%
X160020000Y-128264000D03*
%TO.P,M11,6,SW2*%
%TO.N,SW2M9*%
X165100000Y-128264000D03*
X162560000Y-128264000D03*
D15*
%TO.P,M11,7,IN1*%
%TO.N,unconnected-(M11-Pad7)*%
X152400000Y-128264000D03*
%TO.P,M11,8,IN2*%
%TO.N,unconnected-(M11-Pad8)*%
X152400000Y-140964000D03*
%TD*%
D12*
%TO.P,R5,1*%
%TO.N,Net-(R5-Pad1)*%
X124574000Y-21076000D03*
D11*
%TO.P,R5,2*%
%TO.N,Net-(R5-Pad2)*%
X116954000Y-21076000D03*
%TD*%
D12*
%TO.P,C1,1*%
%TO.N,+5V*%
X97536000Y-22860000D03*
%TO.P,C1,2*%
%TO.N,GND*%
X97536000Y-20360000D03*
%TD*%
%TO.P,R10,1*%
%TO.N,Net-(R10-Pad1)*%
X132670000Y-27930000D03*
D11*
%TO.P,R10,2*%
%TO.N,GND*%
X140290000Y-27930000D03*
%TD*%
D20*
%TO.P,U6,1,REF*%
%TO.N,Net-(R10-Pad1)*%
X128490000Y-23330000D03*
D21*
%TO.P,U6,2,A*%
%TO.N,GND*%
X128490000Y-25870000D03*
%TO.P,U6,3,K*%
%TO.N,Net-(Q1-Pad2)*%
X128490000Y-28410000D03*
%TD*%
D13*
%TO.P,M3,*%
%TO.N,*%
X113030000Y-133350000D03*
X92710000Y-133350000D03*
D14*
%TO.P,M3,1,GND*%
%TO.N,GND*%
X101600000Y-140970000D03*
X99060000Y-140970000D03*
%TO.P,M3,2,ACC*%
%TO.N,ACC*%
X104140000Y-140970000D03*
%TO.P,M3,3,VCC*%
%TO.N,+3.3V*%
X109220000Y-140970000D03*
X106680000Y-140970000D03*
%TO.P,M3,4,SW1*%
%TO.N,SW1M1*%
X99060000Y-128270000D03*
X101600000Y-128270000D03*
%TO.P,M3,5,ANG*%
%TO.N,M1A*%
X104140000Y-128270000D03*
%TO.P,M3,6,SW2*%
%TO.N,unconnected-(M3-Pad6)*%
X106680000Y-128270000D03*
X109220000Y-128270000D03*
D15*
%TO.P,M3,7,IN1*%
%TO.N,unconnected-(M3-Pad7)*%
X96520000Y-128270000D03*
%TO.P,M3,8,IN2*%
%TO.N,unconnected-(M3-Pad8)*%
X96520000Y-140970000D03*
%TD*%
D12*
%TO.P,C5,1*%
%TO.N,+5V*%
X153270000Y-29980000D03*
%TO.P,C5,2*%
%TO.N,GND*%
X150770000Y-29980000D03*
%TD*%
%TO.P,R9,1*%
%TO.N,ACC*%
X117590000Y-24390000D03*
D11*
%TO.P,R9,2*%
%TO.N,Net-(R10-Pad1)*%
X125210000Y-24390000D03*
%TD*%
D12*
%TO.P,R3,1*%
%TO.N,Net-(D3-Pad1)*%
X115860000Y-62662000D03*
D11*
%TO.P,R3,2*%
%TO.N,LED2*%
X108240000Y-62662000D03*
%TD*%
D13*
%TO.P,M9,*%
%TO.N,*%
X148590000Y-87630000D03*
X168910000Y-87630000D03*
D14*
%TO.P,M9,1,GND*%
%TO.N,GND*%
X157480000Y-95250000D03*
X154940000Y-95250000D03*
%TO.P,M9,2,ACC*%
%TO.N,ACC*%
X160020000Y-95250000D03*
%TO.P,M9,3,VCC*%
%TO.N,+3.3V*%
X162560000Y-95250000D03*
X165100000Y-95250000D03*
%TO.P,M9,4,SW1*%
%TO.N,SW1M11*%
X154940000Y-82550000D03*
X157480000Y-82550000D03*
%TO.P,M9,5,ANG*%
%TO.N,M11A*%
X160020000Y-82550000D03*
%TO.P,M9,6,SW2*%
%TO.N,SW2M11*%
X165100000Y-82550000D03*
X162560000Y-82550000D03*
D15*
%TO.P,M9,7,IN1*%
%TO.N,unconnected-(M9-Pad7)*%
X152400000Y-82550000D03*
%TO.P,M9,8,IN2*%
%TO.N,unconnected-(M9-Pad8)*%
X152400000Y-95250000D03*
%TD*%
D13*
%TO.P,M1,*%
%TO.N,*%
X92710000Y-87630000D03*
X113030000Y-87630000D03*
D14*
%TO.P,M1,1,GND*%
%TO.N,GND*%
X101600000Y-95250000D03*
X99060000Y-95250000D03*
%TO.P,M1,2,ACC*%
%TO.N,ACC*%
X104140000Y-95250000D03*
%TO.P,M1,3,VCC*%
%TO.N,+3.3V*%
X109220000Y-95250000D03*
X106680000Y-95250000D03*
%TO.P,M1,4,SW1*%
%TO.N,SW1M3*%
X101600000Y-82550000D03*
X99060000Y-82550000D03*
%TO.P,M1,5,ANG*%
%TO.N,M3A*%
X104140000Y-82550000D03*
%TO.P,M1,6,SW2*%
%TO.N,unconnected-(M1-Pad6)*%
X106680000Y-82550000D03*
X109220000Y-82550000D03*
D15*
%TO.P,M1,7,IN1*%
%TO.N,unconnected-(M1-Pad7)*%
X96520000Y-82550000D03*
%TO.P,M1,8,IN2*%
%TO.N,unconnected-(M1-Pad8)*%
X96520000Y-95250000D03*
%TD*%
D20*
%TO.P,Q1,1,E*%
%TO.N,ACC*%
X113780000Y-28350000D03*
D21*
%TO.P,Q1,2,B*%
%TO.N,Net-(Q1-Pad2)*%
X113780000Y-25810000D03*
%TO.P,Q1,3,C*%
%TO.N,+5V*%
X113780000Y-23270000D03*
%TD*%
D22*
%TO.P,J1,1,Pin_1*%
%TO.N,GND*%
X91560000Y-59140000D03*
D23*
%TO.P,J1,2,Pin_2*%
%TO.N,Net-(J1-Pad2)*%
X91560000Y-64220000D03*
%TD*%
D10*
%TO.P,U2,1*%
%TO.N,SEL0*%
X145550000Y-33190000D03*
D11*
%TO.P,U2,2*%
%TO.N,GND*%
X145550000Y-35730000D03*
%TO.P,U2,3*%
%TO.N,SEL0T*%
X145550000Y-38270000D03*
%TO.P,U2,4*%
%TO.N,SEL1*%
X145550000Y-40810000D03*
%TO.P,U2,5*%
%TO.N,GND*%
X145550000Y-43350000D03*
%TO.P,U2,6*%
%TO.N,SEL1T*%
X145550000Y-45890000D03*
%TO.P,U2,7,GND*%
%TO.N,GND*%
X145550000Y-48430000D03*
%TO.P,U2,8*%
%TO.N,SEL2T*%
X153170000Y-48430000D03*
%TO.P,U2,9*%
%TO.N,SEL2*%
X153170000Y-45890000D03*
%TO.P,U2,10*%
%TO.N,GND*%
X153170000Y-43350000D03*
%TO.P,U2,11*%
%TO.N,unconnected-(U2-Pad11)*%
X153170000Y-40810000D03*
%TO.P,U2,12*%
%TO.N,GND*%
X153170000Y-38270000D03*
%TO.P,U2,13*%
X153170000Y-35730000D03*
%TO.P,U2,14,VCC*%
%TO.N,+5V*%
X153170000Y-33190000D03*
%TD*%
D13*
%TO.P,M14,*%
%TO.N,*%
X196850000Y-110490000D03*
X176530000Y-110490000D03*
D14*
%TO.P,M14,1,GND*%
%TO.N,GND*%
X185420000Y-118110000D03*
X182880000Y-118110000D03*
%TO.P,M14,2,ACC*%
%TO.N,ACC*%
X187960000Y-118110000D03*
%TO.P,M14,3,VCC*%
%TO.N,+3.3V*%
X193040000Y-118110000D03*
X190500000Y-118110000D03*
%TO.P,M14,4,SW1*%
%TO.N,SW1M14*%
X182880000Y-105410000D03*
X185420000Y-105410000D03*
%TO.P,M14,5,ANG*%
%TO.N,M14A*%
X187960000Y-105410000D03*
%TO.P,M14,6,SW2*%
%TO.N,SW2M14*%
X190500000Y-105410000D03*
X193040000Y-105410000D03*
D15*
%TO.P,M14,7,IN1*%
%TO.N,unconnected-(M14-Pad7)*%
X180340000Y-105410000D03*
%TO.P,M14,8,IN2*%
%TO.N,unconnected-(M14-Pad8)*%
X180340000Y-118110000D03*
%TD*%
D10*
%TO.P,U4,1,X4*%
%TO.N,SW2M4*%
X176400000Y-32725000D03*
D11*
%TO.P,U4,2,X6*%
%TO.N,SW2M8*%
X176400000Y-35265000D03*
%TO.P,U4,3,X*%
%TO.N,ADC1INP*%
X176400000Y-37805000D03*
%TO.P,U4,4,X7*%
%TO.N,SW2M11*%
X176400000Y-40345000D03*
%TO.P,U4,5,X5*%
%TO.N,SW2M10*%
X176400000Y-42885000D03*
%TO.P,U4,6,Inh*%
%TO.N,GND*%
X176400000Y-45425000D03*
%TO.P,U4,7,VEE*%
X176400000Y-47965000D03*
%TO.P,U4,8,VSS*%
X176400000Y-50505000D03*
%TO.P,U4,9,C*%
%TO.N,SEL2T*%
X184020000Y-50505000D03*
%TO.P,U4,10,B*%
%TO.N,SEL1T*%
X184020000Y-47965000D03*
%TO.P,U4,11,A*%
%TO.N,SEL0T*%
X184020000Y-45425000D03*
%TO.P,U4,12,X3*%
%TO.N,SW2M12*%
X184020000Y-42885000D03*
%TO.P,U4,13,X0*%
%TO.N,SW2M15*%
X184020000Y-40345000D03*
%TO.P,U4,14,X1*%
%TO.N,SW2M14*%
X184020000Y-37805000D03*
%TO.P,U4,15,X2*%
%TO.N,SW2M9*%
X184020000Y-35265000D03*
%TO.P,U4,16,VDD*%
%TO.N,+5V*%
X184020000Y-32725000D03*
%TD*%
D13*
%TO.P,M13,*%
%TO.N,*%
X196850000Y-87630000D03*
X176530000Y-87630000D03*
D14*
%TO.P,M13,1,GND*%
%TO.N,GND*%
X182880000Y-95250000D03*
X185420000Y-95250000D03*
%TO.P,M13,2,ACC*%
%TO.N,ACC*%
X187960000Y-95250000D03*
%TO.P,M13,3,VCC*%
%TO.N,+3.3V*%
X190500000Y-95250000D03*
X193040000Y-95250000D03*
%TO.P,M13,4,SW1*%
%TO.N,SW1M15*%
X185420000Y-82550000D03*
X182880000Y-82550000D03*
%TO.P,M13,5,ANG*%
%TO.N,M15A*%
X187960000Y-82550000D03*
%TO.P,M13,6,SW2*%
%TO.N,SW2M15*%
X190500000Y-82550000D03*
X193040000Y-82550000D03*
D15*
%TO.P,M13,7,IN1*%
%TO.N,unconnected-(M13-Pad7)*%
X180340000Y-82550000D03*
%TO.P,M13,8,IN2*%
%TO.N,unconnected-(M13-Pad8)*%
X180340000Y-95250000D03*
%TD*%
D13*
%TO.P,M5,*%
%TO.N,*%
X140970000Y-87630000D03*
X120650000Y-87630000D03*
D14*
%TO.P,M5,1,GND*%
%TO.N,GND*%
X129540000Y-95250000D03*
X127000000Y-95250000D03*
%TO.P,M5,2,ACC*%
%TO.N,ACC*%
X132080000Y-95250000D03*
%TO.P,M5,3,VCC*%
%TO.N,+3.3V*%
X137160000Y-95250000D03*
X134620000Y-95250000D03*
%TO.P,M5,4,SW1*%
%TO.N,SW1M7*%
X129540000Y-82550000D03*
X127000000Y-82550000D03*
%TO.P,M5,5,ANG*%
%TO.N,M7A*%
X132080000Y-82550000D03*
%TO.P,M5,6,SW2*%
%TO.N,unconnected-(M5-Pad6)*%
X134620000Y-82550000D03*
X137160000Y-82550000D03*
D15*
%TO.P,M5,7,IN1*%
%TO.N,unconnected-(M5-Pad7)*%
X124460000Y-82550000D03*
%TO.P,M5,8,IN2*%
%TO.N,unconnected-(M5-Pad8)*%
X124460000Y-95250000D03*
%TD*%
D24*
%TO.N,+3.3V*%
X94067345Y-139358655D03*
%TO.N,+5V*%
X145510000Y-26030000D03*
X181780000Y-22720000D03*
X166580000Y-22480000D03*
X148970000Y-27320000D03*
X195220000Y-24200000D03*
X102108000Y-23622000D03*
%TO.N,+3.3V*%
X116534000Y-69894000D03*
%TO.N,ADC2INP*%
X193300000Y-36570000D03*
X191300000Y-24505000D03*
%TO.N,ADC1INP*%
X177260000Y-28815000D03*
X172380000Y-24345000D03*
%TO.N,ADC0INP*%
X159500000Y-28660000D03*
X156360000Y-25730000D03*
%TO.N,SEL0T*%
X171464500Y-29425000D03*
X188310000Y-28585000D03*
X188290000Y-25700500D03*
X171530000Y-25700500D03*
%TO.N,SEL1T*%
X170870000Y-28615000D03*
X187020000Y-26970500D03*
X170540000Y-26975000D03*
X187040000Y-28555000D03*
%TO.N,ACC*%
X159740000Y-121440000D03*
X131750000Y-75850000D03*
X158990000Y-98560000D03*
X104090000Y-98560000D03*
X102300000Y-121510000D03*
X187340000Y-76060000D03*
X88392000Y-96040000D03*
X159940000Y-76095500D03*
X131250000Y-121440000D03*
X187710000Y-121220000D03*
X89430000Y-116790000D03*
X88392000Y-92964000D03*
X130890000Y-98570000D03*
X88670000Y-124210000D03*
%TO.N,M1A*%
X89330000Y-97610000D03*
X88646000Y-91694000D03*
X89780000Y-123540000D03*
X116332000Y-72136000D03*
X118080000Y-69930000D03*
X90760000Y-116820000D03*
%TO.N,M2A*%
X118950000Y-70820000D03*
X89674500Y-98806000D03*
X89970000Y-91240000D03*
X117094000Y-73152000D03*
%TO.N,M3A*%
X119950000Y-71595500D03*
X117856000Y-74168000D03*
%TO.N,M5A*%
X142510000Y-100570000D03*
X143500000Y-117200000D03*
X170750000Y-71520000D03*
X143530000Y-124670000D03*
X143500000Y-92770000D03*
X168905000Y-77665000D03*
%TO.N,M6A*%
X141150000Y-100220000D03*
X141760000Y-92770000D03*
X169310000Y-71520000D03*
X168760000Y-76510000D03*
%TO.N,M7A*%
X167420000Y-76040000D03*
X168150000Y-71570000D03*
%TO.N,M9A*%
X200730000Y-104340000D03*
X199445500Y-76520000D03*
X200640000Y-80840000D03*
X199850000Y-102350000D03*
%TO.N,M10A*%
X198800000Y-102900000D03*
X199610000Y-105180000D03*
X198970000Y-78670000D03*
X199270000Y-81620000D03*
%TO.N,M11A*%
X198284345Y-79920345D03*
X198374000Y-82296000D03*
%TO.N,SW1M1*%
X119080000Y-74500000D03*
X105970000Y-56260000D03*
X90970000Y-123350000D03*
X91480000Y-91653984D03*
X105664000Y-73152000D03*
X108994000Y-73914000D03*
X89916000Y-105918000D03*
X90678000Y-99314000D03*
X90932000Y-104140000D03*
X91810000Y-115640000D03*
%TO.N,SW1M2*%
X119820000Y-75290000D03*
X104270000Y-73980000D03*
X91706500Y-100943500D03*
X108770000Y-56260000D03*
X91706500Y-93540000D03*
X107780000Y-74250000D03*
%TO.N,SW1M3*%
X120950000Y-75880000D03*
X111370000Y-56610000D03*
%TO.N,SW1M4*%
X124180000Y-56680000D03*
%TO.N,SW1M5*%
X120940000Y-58480000D03*
X116190000Y-100330000D03*
X116230000Y-93480000D03*
X116760000Y-116800000D03*
X125690000Y-78470000D03*
X116870000Y-122840000D03*
%TO.N,SW1M6*%
X128150000Y-73520000D03*
X117520000Y-101180000D03*
X126930000Y-67270000D03*
X128150000Y-78790000D03*
X117580000Y-92110000D03*
X121970000Y-58140000D03*
%TO.N,SW1M7*%
X127670000Y-66260000D03*
X130440000Y-78750000D03*
X130840000Y-73620000D03*
X122960000Y-57600000D03*
%TO.N,SW1M8*%
X151360000Y-54480000D03*
%TO.N,SW1M9*%
X125960000Y-56720000D03*
X130790000Y-58550000D03*
X144200000Y-93880000D03*
X144940000Y-116910000D03*
X144785000Y-123325000D03*
X145850000Y-80440000D03*
X144380000Y-70950000D03*
X143840000Y-99840000D03*
%TO.N,SW1M10*%
X144120000Y-59270000D03*
X147220000Y-80370000D03*
X145600000Y-100460000D03*
X145722636Y-93341190D03*
X145900000Y-70830000D03*
X143110000Y-55090000D03*
%TO.N,SW1M11*%
X148860000Y-80360000D03*
X145650000Y-59490000D03*
X147380000Y-70960000D03*
X144645000Y-54785000D03*
%TO.N,SW1M12*%
X162440000Y-56840000D03*
X167720000Y-57020000D03*
X155970000Y-57740000D03*
X176350000Y-57700000D03*
X152760000Y-54180000D03*
X136610000Y-37350500D03*
%TO.N,SW1M13*%
X171200000Y-101400000D03*
X172370000Y-114790000D03*
X148870000Y-71040000D03*
X147400000Y-54390000D03*
X126800000Y-37680000D03*
X147400000Y-59320000D03*
X170270000Y-93200000D03*
X173940000Y-124800000D03*
X150060000Y-79840000D03*
%TO.N,SW1M14*%
X129300000Y-37790000D03*
X170960000Y-92090000D03*
X148840000Y-59010000D03*
X153590000Y-79360000D03*
X148520000Y-54370000D03*
X172660000Y-101050000D03*
X153750000Y-73710000D03*
%TO.N,SW1M15*%
X149840000Y-54070000D03*
X150360000Y-59130000D03*
X156510000Y-78670000D03*
X134130000Y-37360000D03*
X156250000Y-74025500D03*
%TO.N,SW2M13*%
X199355000Y-107155000D03*
X197790000Y-103620000D03*
X191600000Y-124070000D03*
X197090000Y-80550000D03*
X198670000Y-83750000D03*
%TO.N,SW2M14*%
X184050000Y-74080000D03*
X184040000Y-93620000D03*
X185130000Y-100700000D03*
X184050000Y-78210000D03*
%TO.N,SW2M9*%
X173940000Y-123270000D03*
X173780000Y-93160000D03*
X173890000Y-114740000D03*
X181730000Y-74060000D03*
X181300000Y-78780000D03*
X174040000Y-102590000D03*
%TO.N,SW2M8*%
X169150000Y-56925500D03*
%TO.N,SW2M10*%
X171550000Y-77520000D03*
X173960000Y-71195500D03*
X169970000Y-91120000D03*
X169190000Y-101090000D03*
%TO.N,SW2M11*%
X175350000Y-70090000D03*
X170290000Y-78950000D03*
%TO.N,Net-(R6-Pad2)*%
X101854000Y-28702000D03*
%TO.N,SW2M4*%
X143330000Y-60660000D03*
X170280000Y-56155500D03*
%TD*%
D25*
%TO.N,ACC*%
X95750000Y-143130000D02*
X102488000Y-143130000D01*
X93980000Y-137668000D02*
X94996000Y-138684000D01*
X94996000Y-138684000D02*
X94996000Y-142376000D01*
X94996000Y-142376000D02*
X95750000Y-143130000D01*
X91948000Y-137668000D02*
X93980000Y-137668000D01*
X88670000Y-134390000D02*
X91948000Y-137668000D01*
X88670000Y-124210000D02*
X88670000Y-134390000D01*
X185800000Y-143130000D02*
X187960000Y-140970000D01*
X156846000Y-143130000D02*
X157854000Y-143130000D01*
X156846000Y-143130000D02*
X185800000Y-143130000D01*
X128396000Y-143130000D02*
X156846000Y-143130000D01*
%TO.N,+3.3V*%
X160280000Y-138684000D02*
X188214000Y-138684000D01*
X188214000Y-138684000D02*
X190500000Y-140970000D01*
X111252000Y-138938000D02*
X132842000Y-138938000D01*
X132842000Y-138938000D02*
X133350000Y-139446000D01*
X109220000Y-140970000D02*
X111252000Y-138938000D01*
X160280000Y-138684000D02*
X162560000Y-140964000D01*
X134112000Y-138684000D02*
X160280000Y-138684000D01*
X133350000Y-139446000D02*
X134112000Y-138684000D01*
%TO.N,ACC*%
X128396000Y-143130000D02*
X129920000Y-143130000D01*
X102488000Y-143130000D02*
X128396000Y-143130000D01*
X157854000Y-143130000D02*
X160020000Y-140964000D01*
X129920000Y-143130000D02*
X132080000Y-140970000D01*
X102488000Y-143130000D02*
X103250000Y-143130000D01*
X104140000Y-142240000D02*
X104140000Y-140970000D01*
X103250000Y-143130000D02*
X104140000Y-142240000D01*
%TO.N,+3.3V*%
X134620000Y-140716000D02*
X134620000Y-140970000D01*
X133350000Y-139446000D02*
X134620000Y-140716000D01*
X87122000Y-133752000D02*
X92728655Y-139358655D01*
X94067345Y-139358655D02*
X92728655Y-139358655D01*
%TO.N,+5V*%
X184020000Y-29945000D02*
X183570000Y-29495000D01*
X168550000Y-30035000D02*
X167970000Y-29455000D01*
X150450000Y-27320000D02*
X148970000Y-27320000D01*
X97536000Y-22860000D02*
X97536000Y-24638000D01*
X118500000Y-22800000D02*
X124910000Y-22800000D01*
X113780000Y-23270000D02*
X114250000Y-22800000D01*
X117550000Y-26880000D02*
X117550000Y-27670000D01*
X124910000Y-22800000D02*
X126460000Y-21250000D01*
X181780000Y-22720000D02*
X193740000Y-22720000D01*
X97536000Y-24638000D02*
X88646000Y-33528000D01*
X149060000Y-22480000D02*
X145510000Y-26030000D01*
X153170000Y-30080000D02*
X153270000Y-29980000D01*
X102108000Y-23622000D02*
X113428000Y-23622000D01*
X126460000Y-21250000D02*
X131580000Y-21250000D01*
X166580000Y-22480000D02*
X181540000Y-22480000D01*
X145270000Y-25790000D02*
X145510000Y-26030000D01*
X153110000Y-29980000D02*
X150450000Y-27320000D01*
X199330000Y-32655000D02*
X199330000Y-30485000D01*
X118500000Y-22800000D02*
X119090000Y-23390000D01*
X114250000Y-22800000D02*
X118500000Y-22800000D01*
X168550000Y-32655000D02*
X168550000Y-30035000D01*
X153270000Y-29980000D02*
X153110000Y-29980000D01*
X199330000Y-30485000D02*
X198220000Y-29375000D01*
X119090000Y-23390000D02*
X119090000Y-25340000D01*
X113428000Y-23622000D02*
X113780000Y-23270000D01*
X184020000Y-32725000D02*
X184020000Y-29945000D01*
X136120000Y-25790000D02*
X145270000Y-25790000D01*
X153270000Y-30140000D02*
X153270000Y-29980000D01*
X193740000Y-22720000D02*
X195220000Y-24200000D01*
X166580000Y-22480000D02*
X149060000Y-22480000D01*
X181540000Y-22480000D02*
X181780000Y-22720000D01*
X131580000Y-21250000D02*
X136120000Y-25790000D01*
X119090000Y-25340000D02*
X117550000Y-26880000D01*
X153170000Y-33190000D02*
X153170000Y-30080000D01*
%TO.N,Net-(D1-Pad1)*%
X99350000Y-65635000D02*
X99425000Y-65635000D01*
X99425000Y-65635000D02*
X105700000Y-59360000D01*
%TO.N,+3.3V*%
X137160000Y-140970000D02*
X134620000Y-140970000D01*
X86868000Y-72390000D02*
X86868000Y-38608000D01*
X119010000Y-72370000D02*
X119930000Y-72370000D01*
X95960000Y-68550000D02*
X95970000Y-68560000D01*
X103220000Y-120810000D02*
X105950000Y-120810000D01*
X190500000Y-72390000D02*
X190500000Y-74340000D01*
X174880000Y-75610000D02*
X186280000Y-75610000D01*
X87122000Y-133752000D02*
X87122000Y-123338000D01*
X190500000Y-120690000D02*
X190500000Y-118110000D01*
X160250516Y-75310000D02*
X161560000Y-75310000D01*
X87122000Y-122928000D02*
X89260000Y-120790000D01*
X96774000Y-35560000D02*
X98806000Y-33528000D01*
X133260000Y-75030000D02*
X134090000Y-75860000D01*
X86868000Y-38608000D02*
X86868000Y-31242000D01*
X165100000Y-140964000D02*
X162560000Y-140964000D01*
X165100000Y-118110000D02*
X162560000Y-118110000D01*
X174880000Y-75540000D02*
X174880000Y-75610000D01*
X186280000Y-75610000D02*
X186880000Y-75010000D01*
X169820000Y-75010000D02*
X174230000Y-75010000D01*
X134620000Y-72390000D02*
X134620000Y-73670000D01*
X134180000Y-97580000D02*
X134330000Y-97730000D01*
X119930000Y-72560000D02*
X122400000Y-75030000D01*
X162560000Y-96600000D02*
X161430000Y-97730000D01*
X87122000Y-123338000D02*
X87122000Y-122928000D01*
X137160000Y-72390000D02*
X134620000Y-72390000D01*
X134090000Y-75860000D02*
X148780000Y-75860000D01*
X86868000Y-94852000D02*
X89222000Y-94852000D01*
X86868000Y-72390000D02*
X86868000Y-94852000D01*
X134070000Y-97690000D02*
X134180000Y-97580000D01*
X161560000Y-75310000D02*
X165540000Y-75310000D01*
X134620000Y-118110000D02*
X134620000Y-120280000D01*
X165540000Y-75310000D02*
X166340000Y-74510000D01*
X166340000Y-74510000D02*
X169320000Y-74510000D01*
X116534000Y-69894000D02*
X119010000Y-72370000D01*
X162560000Y-95250000D02*
X162560000Y-96600000D01*
X189400000Y-75440000D02*
X190500000Y-74340000D01*
X130640000Y-120420000D02*
X131940000Y-120420000D01*
X174290000Y-74950000D02*
X174880000Y-75540000D01*
X134330000Y-97730000D02*
X161430000Y-97730000D01*
X162560000Y-120440000D02*
X162140000Y-120860000D01*
X134620000Y-120280000D02*
X134130000Y-120770000D01*
X186880000Y-75010000D02*
X188350000Y-75010000D01*
X106210000Y-97690000D02*
X134070000Y-97690000D01*
X95950000Y-68560000D02*
X90190000Y-68560000D01*
X106680000Y-95250000D02*
X106680000Y-97220000D01*
X131940000Y-120420000D02*
X132290000Y-120770000D01*
X122400000Y-75030000D02*
X133260000Y-75030000D01*
X86868000Y-95144000D02*
X87122000Y-95398000D01*
X86868000Y-38608000D02*
X89916000Y-35560000D01*
X105950000Y-120810000D02*
X130250000Y-120810000D01*
X103000000Y-97810000D02*
X103250000Y-97560000D01*
X103250000Y-97560000D02*
X105470000Y-97560000D01*
X161430000Y-97730000D02*
X163280000Y-99580000D01*
X160400000Y-120240000D02*
X160990000Y-120830000D01*
X186710000Y-120280000D02*
X188240000Y-120280000D01*
X113828000Y-68245000D02*
X109007000Y-68245000D01*
X162560000Y-118110000D02*
X162560000Y-120440000D01*
X148780000Y-75860000D02*
X149840000Y-74800000D01*
X186170000Y-99580000D02*
X190500000Y-95250000D01*
X162140000Y-120860000D02*
X186130000Y-120860000D01*
X104176000Y-68250000D02*
X99425000Y-68250000D01*
X159070000Y-120240000D02*
X160400000Y-120240000D01*
X165100000Y-72390000D02*
X162560000Y-72390000D01*
X134620000Y-73670000D02*
X133260000Y-75030000D01*
X105600000Y-97690000D02*
X106210000Y-97690000D01*
X134620000Y-95250000D02*
X134620000Y-97140000D01*
X160990000Y-120830000D02*
X160990000Y-120860000D01*
X95960000Y-68550000D02*
X95950000Y-68560000D01*
X109002000Y-68250000D02*
X104176000Y-68250000D01*
X101460000Y-120600000D02*
X103010000Y-120600000D01*
X160990000Y-120860000D02*
X162140000Y-120860000D01*
X99425000Y-68250000D02*
X99350000Y-68175000D01*
X174230000Y-75010000D02*
X174290000Y-74950000D01*
X188970000Y-121010000D02*
X190180000Y-121010000D01*
X130250000Y-120810000D02*
X130640000Y-120420000D01*
X109220000Y-118110000D02*
X106680000Y-118110000D01*
X86868000Y-31242000D02*
X90170000Y-27940000D01*
X98965000Y-68560000D02*
X99350000Y-68175000D01*
X106680000Y-120080000D02*
X105950000Y-120810000D01*
X163280000Y-99580000D02*
X186170000Y-99580000D01*
X169320000Y-74510000D02*
X169820000Y-75010000D01*
X159740516Y-74800000D02*
X160250516Y-75310000D01*
X161560000Y-75310000D02*
X162030000Y-75310000D01*
X137160000Y-95250000D02*
X134620000Y-95250000D01*
X186130000Y-120860000D02*
X186710000Y-120280000D01*
X188780000Y-75440000D02*
X189400000Y-75440000D01*
X105490000Y-97580000D02*
X105600000Y-97690000D01*
X193040000Y-140970000D02*
X190500000Y-140970000D01*
X86868000Y-71882000D02*
X86868000Y-72390000D01*
X193040000Y-95250000D02*
X190500000Y-95250000D01*
X106680000Y-118110000D02*
X106680000Y-120080000D01*
X158540000Y-120770000D02*
X159070000Y-120240000D01*
X134130000Y-120770000D02*
X158540000Y-120770000D01*
X89260000Y-120790000D02*
X101270000Y-120790000D01*
X101270000Y-120790000D02*
X101460000Y-120600000D01*
X134620000Y-97140000D02*
X134180000Y-97580000D01*
X188240000Y-120280000D02*
X188970000Y-121010000D01*
X162560000Y-72390000D02*
X162560000Y-74780000D01*
X190180000Y-121010000D02*
X190500000Y-120690000D01*
X103010000Y-120600000D02*
X103220000Y-120810000D01*
X87122000Y-95398000D02*
X87122000Y-123338000D01*
X89222000Y-94852000D02*
X92180000Y-97810000D01*
X132290000Y-120770000D02*
X134130000Y-120770000D01*
X162560000Y-74780000D02*
X162030000Y-75310000D01*
X109007000Y-68245000D02*
X109002000Y-68250000D01*
X105470000Y-97560000D02*
X105490000Y-97580000D01*
X193040000Y-118110000D02*
X190500000Y-118110000D01*
X90190000Y-68560000D02*
X86868000Y-71882000D01*
X165100000Y-95250000D02*
X162560000Y-95250000D01*
X149840000Y-74800000D02*
X159740516Y-74800000D01*
X95970000Y-68560000D02*
X98965000Y-68560000D01*
X119930000Y-72370000D02*
X119930000Y-72560000D01*
X86868000Y-94852000D02*
X86868000Y-95144000D01*
X92180000Y-97810000D02*
X103000000Y-97810000D01*
X109220000Y-95250000D02*
X106680000Y-95250000D01*
X137160000Y-118110000D02*
X134620000Y-118110000D01*
X106680000Y-97220000D02*
X106210000Y-97690000D01*
X188350000Y-75010000D02*
X188780000Y-75440000D01*
X89916000Y-35560000D02*
X96774000Y-35560000D01*
%TO.N,Net-(D2-Pad1)*%
X105700000Y-64186000D02*
X104176000Y-65710000D01*
X105700000Y-62662000D02*
X105700000Y-64186000D01*
%TO.N,Net-(D3-Pad1)*%
X112050000Y-62662000D02*
X109002000Y-65710000D01*
X115860000Y-62662000D02*
X112050000Y-62662000D01*
%TO.N,Net-(D4-Pad1)*%
X117260000Y-60760000D02*
X115860000Y-59360000D01*
X113828000Y-65705000D02*
X115775000Y-65705000D01*
X115775000Y-65705000D02*
X117260000Y-64220000D01*
X117260000Y-64220000D02*
X117260000Y-60760000D01*
%TO.N,Net-(J1-Pad2)*%
X98830000Y-64220000D02*
X100640000Y-62410000D01*
X96012000Y-56896000D02*
X94996000Y-55880000D01*
X100330000Y-49530000D02*
X101346000Y-50546000D01*
X95504000Y-49530000D02*
X100330000Y-49530000D01*
X94996000Y-50038000D02*
X95504000Y-49530000D01*
X101346000Y-50546000D02*
X101346000Y-51308000D01*
X100640000Y-62410000D02*
X100640000Y-58410000D01*
X88340000Y-67440000D02*
X88340000Y-68550000D01*
X91560000Y-64220000D02*
X88340000Y-67440000D01*
X91560000Y-64220000D02*
X98830000Y-64220000D01*
X100640000Y-58410000D02*
X99126000Y-56896000D01*
X99126000Y-56896000D02*
X96012000Y-56896000D01*
X94996000Y-55880000D02*
X94996000Y-50038000D01*
%TO.N,LED0*%
X90424000Y-56896000D02*
X88646000Y-55118000D01*
X98080000Y-59360000D02*
X95682000Y-59360000D01*
X88646000Y-55118000D02*
X88646000Y-51308000D01*
X95682000Y-59360000D02*
X93218000Y-56896000D01*
X93218000Y-56896000D02*
X90424000Y-56896000D01*
%TO.N,LED1*%
X99817000Y-58837000D02*
X98638000Y-57658000D01*
X99817000Y-59655000D02*
X99817000Y-58837000D01*
X95250000Y-57658000D02*
X93872000Y-56280000D01*
X98080000Y-61392000D02*
X99817000Y-59655000D01*
X98638000Y-57658000D02*
X95250000Y-57658000D01*
X91186000Y-54864000D02*
X91186000Y-51308000D01*
X98080000Y-62662000D02*
X98080000Y-61392000D01*
X92602000Y-56280000D02*
X91186000Y-54864000D01*
X93872000Y-56280000D02*
X92602000Y-56280000D01*
%TO.N,LED2*%
X106295000Y-58185000D02*
X105213299Y-58185000D01*
X106980000Y-58870000D02*
X106295000Y-58185000D01*
X105213299Y-58185000D02*
X105178299Y-58220000D01*
X106980000Y-61402000D02*
X106980000Y-58870000D01*
X101774000Y-58220000D02*
X98920000Y-55366000D01*
X97022000Y-55366000D02*
X96266000Y-54610000D01*
X108240000Y-62662000D02*
X106980000Y-61402000D01*
X96266000Y-54610000D02*
X96266000Y-51308000D01*
X98920000Y-55366000D02*
X97022000Y-55366000D01*
X105178299Y-58220000D02*
X101774000Y-58220000D01*
%TO.N,LED3*%
X106825000Y-57635000D02*
X102835000Y-57635000D01*
X102835000Y-57635000D02*
X101460000Y-56260000D01*
X108240000Y-59050000D02*
X106825000Y-57635000D01*
X101460000Y-56248000D02*
X98806000Y-53594000D01*
X101460000Y-56260000D02*
X101460000Y-56248000D01*
X98806000Y-53594000D02*
X98806000Y-51308000D01*
X108240000Y-59360000D02*
X108240000Y-59050000D01*
%TO.N,ADC2INP*%
X193300000Y-36570000D02*
X192135000Y-37735000D01*
X105318000Y-29810000D02*
X103886000Y-31242000D01*
X149195000Y-23525000D02*
X190320000Y-23525000D01*
X103886000Y-31242000D02*
X103886000Y-33528000D01*
X142910000Y-29810000D02*
X149195000Y-23525000D01*
X192135000Y-37735000D02*
X191710000Y-37735000D01*
X190320000Y-23525000D02*
X191300000Y-24505000D01*
X105318000Y-29810000D02*
X142910000Y-29810000D01*
%TO.N,ADC1INP*%
X177910000Y-36295000D02*
X177910000Y-29465000D01*
X108966000Y-31496000D02*
X108966000Y-33528000D01*
X172380000Y-24345000D02*
X149485000Y-24345000D01*
X143320000Y-30550000D02*
X109912000Y-30550000D01*
X176400000Y-37805000D02*
X177910000Y-36295000D01*
X109912000Y-30550000D02*
X108966000Y-31496000D01*
X144780000Y-29090000D02*
X143320000Y-30550000D01*
X149485000Y-24345000D02*
X144780000Y-29050000D01*
X177910000Y-29465000D02*
X177260000Y-28815000D01*
X144780000Y-29050000D02*
X144780000Y-29090000D01*
%TO.N,ADC0INP*%
X162610000Y-36055000D02*
X160930000Y-37735000D01*
X149420000Y-25730000D02*
X143740000Y-31410000D01*
X111506000Y-32512000D02*
X111506000Y-33528000D01*
X162610000Y-31320000D02*
X162610000Y-36055000D01*
X143740000Y-31410000D02*
X112608000Y-31410000D01*
X112608000Y-31410000D02*
X111506000Y-32512000D01*
X159950000Y-28660000D02*
X162610000Y-31320000D01*
X159500000Y-28660000D02*
X159950000Y-28660000D01*
X156360000Y-25730000D02*
X149420000Y-25730000D01*
%TO.N,SEL2*%
X144140000Y-47150000D02*
X151910000Y-47150000D01*
X139636000Y-36576000D02*
X118872000Y-36576000D01*
X142840000Y-39780000D02*
X139636000Y-36576000D01*
X142840000Y-45850000D02*
X144140000Y-47150000D01*
X151910000Y-47150000D02*
X153170000Y-45890000D01*
X142840000Y-45850000D02*
X142840000Y-39780000D01*
X116586000Y-34290000D02*
X116586000Y-33528000D01*
X118872000Y-36576000D02*
X116586000Y-34290000D01*
%TO.N,SEL1*%
X123952000Y-35814000D02*
X121666000Y-33528000D01*
X140554000Y-35814000D02*
X123952000Y-35814000D01*
X145550000Y-40810000D02*
X140554000Y-35814000D01*
%TO.N,SEL0*%
X125730000Y-35052000D02*
X143688000Y-35052000D01*
X143688000Y-35052000D02*
X145550000Y-33190000D01*
X125730000Y-35052000D02*
X124206000Y-33528000D01*
%TO.N,SEL0T*%
X171410000Y-29479500D02*
X171410000Y-51365000D01*
X171350000Y-25485000D02*
X188160000Y-25485000D01*
X147420000Y-36400000D02*
X145550000Y-38270000D01*
X182990000Y-52555000D02*
X182160000Y-51725000D01*
X167250000Y-52675000D02*
X166410000Y-51835000D01*
X147450000Y-36400000D02*
X147420000Y-36400000D01*
X188160000Y-25485000D02*
X188160000Y-25570500D01*
X188160000Y-25485000D02*
X199760000Y-25485000D01*
X198555000Y-45355000D02*
X199330000Y-45355000D01*
X188160000Y-25570500D02*
X188290000Y-25700500D01*
X171464500Y-29425000D02*
X171410000Y-29479500D01*
X198370000Y-52685000D02*
X197430000Y-51745000D01*
X186660000Y-30235000D02*
X186660000Y-50935000D01*
X182160000Y-51725000D02*
X182160000Y-47515000D01*
X197430000Y-51745000D02*
X197430000Y-46480000D01*
X155180000Y-28465000D02*
X158160000Y-25485000D01*
X158160000Y-25485000D02*
X171350000Y-25485000D01*
X171410000Y-51365000D02*
X170100000Y-52675000D01*
X155180000Y-33280000D02*
X153980000Y-34480000D01*
X166410000Y-51835000D02*
X166410000Y-46820000D01*
X171350000Y-25485000D02*
X171350000Y-25520500D01*
X153980000Y-34480000D02*
X149370000Y-34480000D01*
X182160000Y-47515000D02*
X184020000Y-45655000D01*
X185040000Y-52555000D02*
X182990000Y-52555000D01*
X202590000Y-28315000D02*
X202590000Y-51475000D01*
X170100000Y-52675000D02*
X167250000Y-52675000D01*
X171350000Y-25520500D02*
X171530000Y-25700500D01*
X197430000Y-46480000D02*
X198555000Y-45355000D01*
X188310000Y-28585000D02*
X186660000Y-30235000D01*
X167875000Y-45355000D02*
X168550000Y-45355000D01*
X155180000Y-28465000D02*
X155180000Y-33280000D01*
X184020000Y-45655000D02*
X184020000Y-45425000D01*
X199760000Y-25485000D02*
X202590000Y-28315000D01*
X201380000Y-52685000D02*
X198370000Y-52685000D01*
X202590000Y-51475000D02*
X201380000Y-52685000D01*
X186660000Y-50935000D02*
X185040000Y-52555000D01*
X166410000Y-46820000D02*
X167875000Y-45355000D01*
X149370000Y-34480000D02*
X147450000Y-36400000D01*
%TO.N,SEL1T*%
X170870000Y-28615000D02*
X170690000Y-28795000D01*
X170520000Y-26475000D02*
X187010000Y-26475000D01*
X197980000Y-51245000D02*
X197980000Y-49245000D01*
X155800000Y-29045000D02*
X155800000Y-34950000D01*
X170690000Y-28795000D02*
X170690000Y-51035000D01*
X198860000Y-52125000D02*
X197980000Y-51245000D01*
X167100000Y-51435000D02*
X167100000Y-49345000D01*
X150480000Y-37000000D02*
X147170000Y-40310000D01*
X197980000Y-49245000D02*
X199330000Y-47895000D01*
X202010000Y-51035000D02*
X200920000Y-52125000D01*
X155800000Y-34950000D02*
X153750000Y-37000000D01*
X199310000Y-26475000D02*
X202010000Y-29175000D01*
X147170000Y-40310000D02*
X147170000Y-44270000D01*
X187010000Y-26475000D02*
X199310000Y-26475000D01*
X170520000Y-26955000D02*
X170540000Y-26975000D01*
X184020000Y-48075000D02*
X184020000Y-47965000D01*
X167670000Y-52005000D02*
X167100000Y-51435000D01*
X187010000Y-26960500D02*
X187020000Y-26970500D01*
X186030000Y-50585000D02*
X184690000Y-51925000D01*
X170520000Y-26475000D02*
X170520000Y-26955000D01*
X184690000Y-51925000D02*
X183360000Y-51925000D01*
X170690000Y-51035000D02*
X169720000Y-52005000D01*
X169720000Y-52005000D02*
X167670000Y-52005000D01*
X147170000Y-44270000D02*
X145550000Y-45890000D01*
X187010000Y-26475000D02*
X187010000Y-26960500D01*
X158370000Y-26475000D02*
X170520000Y-26475000D01*
X187040000Y-28555000D02*
X186030000Y-29565000D01*
X155800000Y-29045000D02*
X158370000Y-26475000D01*
X182770000Y-51335000D02*
X182770000Y-49325000D01*
X186030000Y-29565000D02*
X186030000Y-50585000D01*
X200920000Y-52125000D02*
X198860000Y-52125000D01*
X182770000Y-49325000D02*
X184020000Y-48075000D01*
X167100000Y-49345000D02*
X168550000Y-47895000D01*
X153750000Y-37000000D02*
X150480000Y-37000000D01*
X183360000Y-51925000D02*
X182770000Y-51335000D01*
X202010000Y-29175000D02*
X202010000Y-51035000D01*
%TO.N,SEL2T*%
X185390000Y-49135000D02*
X184020000Y-50505000D01*
X169960000Y-27765000D02*
X169960000Y-49025000D01*
X155300000Y-39765000D02*
X155300000Y-46300000D01*
X185310000Y-27745000D02*
X185290000Y-27765000D01*
X156350000Y-30065000D02*
X158650000Y-27765000D01*
X201170000Y-48595000D02*
X199330000Y-50435000D01*
X199270000Y-27745000D02*
X185310000Y-27745000D01*
X156350000Y-38715000D02*
X156350000Y-30065000D01*
X169960000Y-49025000D02*
X168550000Y-50435000D01*
X201170000Y-29645000D02*
X199270000Y-27745000D01*
X185390000Y-27865000D02*
X185390000Y-49135000D01*
X169960000Y-27765000D02*
X185290000Y-27765000D01*
X155300000Y-39765000D02*
X156350000Y-38715000D01*
X155300000Y-46300000D02*
X153170000Y-48430000D01*
X201170000Y-48595000D02*
X201170000Y-29645000D01*
X185390000Y-27865000D02*
X185290000Y-27765000D01*
X158650000Y-27765000D02*
X169960000Y-27765000D01*
%TO.N,Net-(R10-Pad1)*%
X132670000Y-27930000D02*
X132670000Y-24390000D01*
X126270000Y-23330000D02*
X125210000Y-24390000D01*
X131610000Y-23330000D02*
X128490000Y-23330000D01*
X128490000Y-23330000D02*
X126270000Y-23330000D01*
X132670000Y-24390000D02*
X131610000Y-23330000D01*
%TO.N,ACC*%
X118640000Y-73170000D02*
X119650000Y-73170000D01*
X122330000Y-75850000D02*
X131750000Y-75850000D01*
X117940000Y-59520000D02*
X117940000Y-66464000D01*
X158450000Y-75480000D02*
X150540000Y-75480000D01*
X116175000Y-57755000D02*
X117940000Y-59520000D01*
X87630000Y-72136000D02*
X88916000Y-70850000D01*
X132560000Y-76660000D02*
X131750000Y-75850000D01*
X104090000Y-98560000D02*
X130880000Y-98560000D01*
X170870000Y-98580000D02*
X185690000Y-98580000D01*
X116340000Y-70870000D02*
X118640000Y-73170000D01*
X185690000Y-98580000D02*
X187960000Y-96310000D01*
X88916000Y-70850000D02*
X113554000Y-70850000D01*
X116320000Y-70850000D02*
X116340000Y-70870000D01*
X89900000Y-121510000D02*
X102300000Y-121510000D01*
X101346000Y-33528000D02*
X100838000Y-33020000D01*
X131250000Y-121440000D02*
X159740000Y-121440000D01*
X110950000Y-25930000D02*
X112420000Y-24460000D01*
X159740000Y-121440000D02*
X187490000Y-121440000D01*
X131180000Y-121510000D02*
X102300000Y-121510000D01*
X117520000Y-24460000D02*
X117590000Y-24390000D01*
X102616000Y-54610000D02*
X105091000Y-57085000D01*
X131250000Y-121440000D02*
X131180000Y-121510000D01*
X102616000Y-38608000D02*
X102616000Y-54610000D01*
X87884000Y-115244000D02*
X87884000Y-96548000D01*
X158980000Y-98570000D02*
X158990000Y-98560000D01*
X89430000Y-116790000D02*
X87884000Y-115244000D01*
X107705000Y-57085000D02*
X108375000Y-57755000D01*
X87884000Y-96548000D02*
X88392000Y-96040000D01*
X173720000Y-75850000D02*
X174390000Y-76520000D01*
X108375000Y-57755000D02*
X116175000Y-57755000D01*
X187490000Y-121440000D02*
X187710000Y-121220000D01*
X88670000Y-122740000D02*
X89900000Y-121510000D01*
X187960000Y-96310000D02*
X187960000Y-95250000D01*
X168845000Y-75265000D02*
X169430000Y-75850000D01*
X113780000Y-28350000D02*
X113200000Y-28350000D01*
X186880000Y-76520000D02*
X187340000Y-76060000D01*
X105091000Y-57085000D02*
X107705000Y-57085000D01*
X88670000Y-124210000D02*
X88670000Y-122740000D01*
X174390000Y-76520000D02*
X186880000Y-76520000D01*
X100838000Y-33020000D02*
X100838000Y-28067000D01*
X130890000Y-98570000D02*
X158980000Y-98570000D01*
X150540000Y-75480000D02*
X149360000Y-76660000D01*
X87630000Y-92202000D02*
X87630000Y-72136000D01*
X101346000Y-37338000D02*
X102616000Y-38608000D01*
X104060000Y-98590000D02*
X91820000Y-98590000D01*
X159940000Y-76095500D02*
X165834500Y-76095500D01*
X159065500Y-76095500D02*
X158450000Y-75480000D01*
X169430000Y-75850000D02*
X173720000Y-75850000D01*
X165834500Y-76095500D02*
X166665000Y-75265000D01*
X117940000Y-66464000D02*
X113554000Y-70850000D01*
X130880000Y-98560000D02*
X130890000Y-98570000D01*
X100838000Y-28067000D02*
X101585000Y-27320000D01*
X161830000Y-93440000D02*
X165730000Y-93440000D01*
X89270000Y-96040000D02*
X88392000Y-96040000D01*
X119650000Y-73170000D02*
X122330000Y-75850000D01*
X101585000Y-27320000D02*
X105290000Y-27320000D01*
X113554000Y-70850000D02*
X116320000Y-70850000D01*
X110780000Y-25930000D02*
X106680000Y-25930000D01*
X112420000Y-24460000D02*
X117520000Y-24460000D01*
X166665000Y-75265000D02*
X168845000Y-75265000D01*
X110780000Y-25930000D02*
X110950000Y-25930000D01*
X149360000Y-76660000D02*
X132560000Y-76660000D01*
X106680000Y-25930000D02*
X105290000Y-27320000D01*
X165730000Y-93440000D02*
X170870000Y-98580000D01*
X88392000Y-92964000D02*
X87630000Y-92202000D01*
X91820000Y-98590000D02*
X89270000Y-96040000D01*
X160020000Y-95250000D02*
X161830000Y-93440000D01*
X159940000Y-76095500D02*
X159065500Y-76095500D01*
X101346000Y-33528000D02*
X101346000Y-37338000D01*
X113200000Y-28350000D02*
X110780000Y-25930000D01*
X104090000Y-98560000D02*
X104060000Y-98590000D01*
%TO.N,M1A*%
X152524000Y-56010000D02*
X156180000Y-52354000D01*
X122940000Y-58920000D02*
X124150000Y-57710000D01*
X126170000Y-57710000D02*
X127870000Y-56010000D01*
X119900000Y-69930000D02*
X123870000Y-65960000D01*
X156180000Y-42540000D02*
X158590000Y-40130000D01*
X118080000Y-69930000D02*
X119900000Y-69930000D01*
X158590000Y-34995000D02*
X160930000Y-32655000D01*
X88900000Y-114960000D02*
X88900000Y-98040000D01*
X123870000Y-65960000D02*
X123870000Y-61480000D01*
X158590000Y-40130000D02*
X158590000Y-34995000D01*
X124150000Y-57710000D02*
X126170000Y-57710000D01*
X127870000Y-56010000D02*
X152524000Y-56010000D01*
X94890000Y-130490000D02*
X103190000Y-130490000D01*
X90760000Y-116820000D02*
X88900000Y-114960000D01*
X89780000Y-123540000D02*
X89780000Y-125380000D01*
X89780000Y-125380000D02*
X94890000Y-130490000D01*
X89720000Y-71570000D02*
X88392000Y-72898000D01*
X88392000Y-72898000D02*
X88392000Y-91440000D01*
X115766000Y-71570000D02*
X89720000Y-71570000D01*
X116332000Y-72136000D02*
X115766000Y-71570000D01*
X122940000Y-60550000D02*
X122940000Y-58920000D01*
X88900000Y-98040000D02*
X89330000Y-97610000D01*
X88392000Y-91440000D02*
X88646000Y-91694000D01*
X156180000Y-52354000D02*
X156180000Y-42540000D01*
X103190000Y-130490000D02*
X104140000Y-129540000D01*
X123870000Y-61480000D02*
X122940000Y-60550000D01*
X104140000Y-129540000D02*
X104140000Y-128270000D01*
%TO.N,M2A*%
X156810000Y-52840000D02*
X156810000Y-43300000D01*
X153020000Y-56630000D02*
X156810000Y-52840000D01*
X118950000Y-70820000D02*
X119895484Y-70820000D01*
X115320000Y-72320000D02*
X116152000Y-73152000D01*
X159280000Y-40830000D02*
X159280000Y-36845000D01*
X156810000Y-43300000D02*
X159280000Y-40830000D01*
X125630000Y-59180000D02*
X128180000Y-56630000D01*
X119895984Y-70820500D02*
X120229500Y-70820500D01*
X119895484Y-70820000D02*
X119895984Y-70820500D01*
X89674500Y-98806000D02*
X89662000Y-98818500D01*
X125630000Y-65420000D02*
X125630000Y-59180000D01*
X90494000Y-72320000D02*
X115320000Y-72320000D01*
X128180000Y-56630000D02*
X153020000Y-56630000D01*
X89030000Y-90300000D02*
X89030000Y-73784000D01*
X102640000Y-106910000D02*
X104140000Y-105410000D01*
X159280000Y-36845000D02*
X160930000Y-35195000D01*
X92460000Y-106910000D02*
X102640000Y-106910000D01*
X120229500Y-70820500D02*
X125630000Y-65420000D01*
X116152000Y-73152000D02*
X117094000Y-73152000D01*
X89662000Y-98818500D02*
X89662000Y-104112000D01*
X89030000Y-73784000D02*
X90494000Y-72320000D01*
X89970000Y-91240000D02*
X89030000Y-90300000D01*
X89662000Y-104112000D02*
X92460000Y-106910000D01*
%TO.N,M3A*%
X115788000Y-74168000D02*
X114620000Y-73000000D01*
X129046000Y-57390000D02*
X153240000Y-57390000D01*
X114620000Y-73000000D02*
X107340000Y-73000000D01*
X157490000Y-43715000D02*
X160930000Y-40275000D01*
X104140000Y-76200000D02*
X104140000Y-82550000D01*
X107340000Y-73000000D02*
X104140000Y-76200000D01*
X119950000Y-71595500D02*
X120634500Y-71595500D01*
X128270000Y-63960000D02*
X128270000Y-58166000D01*
X128270000Y-58166000D02*
X129046000Y-57390000D01*
X120634500Y-71595500D02*
X128270000Y-63960000D01*
X117856000Y-74168000D02*
X115788000Y-74168000D01*
X153240000Y-57390000D02*
X157490000Y-53140000D01*
X157490000Y-53140000D02*
X157490000Y-43715000D01*
%TO.N,M4A*%
X158050000Y-45695000D02*
X160930000Y-42815000D01*
X158050000Y-53786000D02*
X158050000Y-45695000D01*
X153670000Y-58166000D02*
X158050000Y-53786000D01*
X133604000Y-58166000D02*
X153670000Y-58166000D01*
X132080000Y-59690000D02*
X133604000Y-58166000D01*
%TO.N,M5A*%
X168905000Y-77665000D02*
X168240000Y-78330000D01*
X157720000Y-78330000D02*
X157040000Y-77650000D01*
X144360000Y-91910000D02*
X143500000Y-92770000D01*
X151180000Y-78810000D02*
X145990000Y-78810000D01*
X132080000Y-127000000D02*
X132080000Y-128270000D01*
X143500000Y-115900000D02*
X143500000Y-117200000D01*
X143530000Y-124670000D02*
X142440000Y-125760000D01*
X165470000Y-45380000D02*
X168035000Y-42815000D01*
X142510000Y-100570000D02*
X144300000Y-102360000D01*
X144300000Y-102360000D02*
X144300000Y-115100000D01*
X144360000Y-80440000D02*
X144360000Y-91910000D01*
X172270000Y-68320000D02*
X172270000Y-61700000D01*
X144300000Y-115100000D02*
X143500000Y-115900000D01*
X133320000Y-125760000D02*
X132080000Y-127000000D01*
X157040000Y-77650000D02*
X152340000Y-77650000D01*
X170750000Y-71520000D02*
X170750000Y-69840000D01*
X169480000Y-59960000D02*
X165470000Y-55950000D01*
X142440000Y-125760000D02*
X133320000Y-125760000D01*
X152340000Y-77650000D02*
X151180000Y-78810000D01*
X165470000Y-55950000D02*
X165470000Y-45380000D01*
X170750000Y-69840000D02*
X172270000Y-68320000D01*
X168240000Y-78330000D02*
X157720000Y-78330000D01*
X145990000Y-78810000D02*
X144360000Y-80440000D01*
X168035000Y-42815000D02*
X168550000Y-42815000D01*
X170530000Y-59960000D02*
X169480000Y-59960000D01*
X172270000Y-61700000D02*
X170530000Y-59960000D01*
%TO.N,M6A*%
X143730000Y-79920000D02*
X143730000Y-90800000D01*
X133720000Y-102500000D02*
X132080000Y-104140000D01*
X169310000Y-71520000D02*
X169310000Y-70540000D01*
X158260000Y-77600000D02*
X157560000Y-76900000D01*
X141150000Y-100220000D02*
X138870000Y-102500000D01*
X165640000Y-63370000D02*
X168240000Y-60770000D01*
X169310000Y-70540000D02*
X165640000Y-66870000D01*
X168550000Y-40380000D02*
X168550000Y-40275000D01*
X157560000Y-76900000D02*
X151370000Y-76900000D01*
X150180000Y-78090000D02*
X145560000Y-78090000D01*
X165640000Y-66870000D02*
X165640000Y-63370000D01*
X168240000Y-59590000D02*
X164910000Y-56260000D01*
X168240000Y-60770000D02*
X168240000Y-59590000D01*
X143730000Y-90800000D02*
X141760000Y-92770000D01*
X132080000Y-104140000D02*
X132080000Y-105410000D01*
X145560000Y-78090000D02*
X143730000Y-79920000D01*
X164910000Y-44020000D02*
X168550000Y-40380000D01*
X164910000Y-56260000D02*
X164910000Y-44020000D01*
X168760000Y-76510000D02*
X168490000Y-76510000D01*
X167400000Y-77600000D02*
X158260000Y-77600000D01*
X138870000Y-102500000D02*
X133720000Y-102500000D01*
X151370000Y-76900000D02*
X150180000Y-78090000D01*
X168490000Y-76510000D02*
X167400000Y-77600000D01*
%TO.N,M7A*%
X168150000Y-70390000D02*
X164870000Y-67110000D01*
X157980000Y-76190000D02*
X150950000Y-76190000D01*
X166670000Y-59010000D02*
X164320000Y-56660000D01*
X164870000Y-62810000D02*
X166670000Y-61010000D01*
X164870000Y-67110000D02*
X164870000Y-62810000D01*
X168150000Y-71570000D02*
X168150000Y-70390000D01*
X145000000Y-77360000D02*
X141960000Y-80400000D01*
X167420000Y-76040000D02*
X166590000Y-76870000D01*
X158660000Y-76870000D02*
X157980000Y-76190000D01*
X166590000Y-76870000D02*
X158660000Y-76870000D01*
X164320000Y-41965000D02*
X168550000Y-37735000D01*
X166670000Y-61010000D02*
X166670000Y-59010000D01*
X141960000Y-80400000D02*
X134230000Y-80400000D01*
X150950000Y-76190000D02*
X149780000Y-77360000D01*
X149780000Y-77360000D02*
X145000000Y-77360000D01*
X134230000Y-80400000D02*
X132080000Y-82550000D01*
X164320000Y-56660000D02*
X164320000Y-41965000D01*
%TO.N,M8A*%
X168235000Y-35195000D02*
X163670000Y-39760000D01*
X161350000Y-57990000D02*
X160020000Y-59320000D01*
X160020000Y-59320000D02*
X160020000Y-59690000D01*
X168550000Y-35195000D02*
X168235000Y-35195000D01*
X162680000Y-57990000D02*
X161350000Y-57990000D01*
X163670000Y-57000000D02*
X162680000Y-57990000D01*
X163670000Y-39760000D02*
X163670000Y-57000000D01*
%TO.N,M9A*%
X192885000Y-32655000D02*
X191710000Y-32655000D01*
X200160000Y-75805500D02*
X200160000Y-58290000D01*
X198270000Y-56400000D02*
X196810000Y-56400000D01*
X200160000Y-58290000D02*
X198270000Y-56400000D01*
X185710000Y-130580000D02*
X162336000Y-130580000D01*
X195580000Y-38020000D02*
X195580000Y-35350000D01*
X200730000Y-104340000D02*
X200730000Y-106830000D01*
X196810000Y-56400000D02*
X194500000Y-54090000D01*
X201940000Y-108040000D02*
X201940000Y-121210000D01*
X195580000Y-35350000D02*
X192885000Y-32655000D01*
X199850000Y-102350000D02*
X199850000Y-101380000D01*
X199850000Y-101380000D02*
X201360000Y-99870000D01*
X162336000Y-130580000D02*
X160020000Y-128264000D01*
X198150000Y-125000000D02*
X188640000Y-125000000D01*
X186650000Y-129640000D02*
X185710000Y-130580000D01*
X201360000Y-81560000D02*
X200640000Y-80840000D01*
X188640000Y-125000000D02*
X186650000Y-126990000D01*
X186650000Y-126990000D02*
X186650000Y-129640000D01*
X199445500Y-76520000D02*
X200160000Y-75805500D01*
X200730000Y-106830000D02*
X201940000Y-108040000D01*
X201940000Y-121210000D02*
X198150000Y-125000000D01*
X201360000Y-99870000D02*
X201360000Y-81560000D01*
X194500000Y-54090000D02*
X194500000Y-39100000D01*
X194500000Y-39100000D02*
X195580000Y-38020000D01*
%TO.N,M10A*%
X197230000Y-55650000D02*
X195090000Y-53510000D01*
X184630000Y-116350000D02*
X186620000Y-114360000D01*
X199330000Y-35670000D02*
X199330000Y-35195000D01*
X200600000Y-82950000D02*
X199270000Y-81620000D01*
X198970000Y-78670000D02*
X200900000Y-76740000D01*
X200900000Y-57900000D02*
X198650000Y-55650000D01*
X187440000Y-107570000D02*
X186620000Y-108390000D01*
X198800000Y-101290000D02*
X200600000Y-99490000D01*
X168540000Y-116350000D02*
X160020000Y-107830000D01*
X197220000Y-107570000D02*
X187440000Y-107570000D01*
X199610000Y-105180000D02*
X197220000Y-107570000D01*
X160020000Y-107830000D02*
X160020000Y-105410000D01*
X186620000Y-108390000D02*
X186620000Y-114360000D01*
X200600000Y-99490000D02*
X200600000Y-82950000D01*
X195090000Y-53510000D02*
X195090000Y-39910000D01*
X168540000Y-116350000D02*
X184630000Y-116350000D01*
X200900000Y-76740000D02*
X200900000Y-57900000D01*
X195090000Y-39910000D02*
X199330000Y-35670000D01*
X198800000Y-102900000D02*
X198800000Y-101290000D01*
X198650000Y-55650000D02*
X197230000Y-55650000D01*
%TO.N,M11A*%
X185290000Y-97730000D02*
X172500000Y-97730000D01*
X197866000Y-79502000D02*
X197866000Y-71106000D01*
X198374000Y-82296000D02*
X198374000Y-82804000D01*
X194850000Y-60370000D02*
X194850000Y-57210000D01*
X186660000Y-87212000D02*
X186660000Y-96360000D01*
X194460000Y-37750000D02*
X194460000Y-36070000D01*
X198374000Y-82804000D02*
X196342000Y-84836000D01*
X193290000Y-66530000D02*
X193290000Y-61930000D01*
X196342000Y-84836000D02*
X189036000Y-84836000D01*
X198284345Y-79920345D02*
X197866000Y-79502000D01*
X194850000Y-57210000D02*
X193830000Y-56190000D01*
X197866000Y-71106000D02*
X193290000Y-66530000D01*
X172500000Y-97730000D02*
X160020000Y-85250000D01*
X194460000Y-36070000D02*
X193585000Y-35195000D01*
X186660000Y-96360000D02*
X185290000Y-97730000D01*
X193830000Y-56190000D02*
X193830000Y-38380000D01*
X193830000Y-38380000D02*
X194460000Y-37750000D01*
X160020000Y-85250000D02*
X160020000Y-82550000D01*
X189036000Y-84836000D02*
X186660000Y-87212000D01*
X193585000Y-35195000D02*
X191710000Y-35195000D01*
X193290000Y-61930000D02*
X194850000Y-60370000D01*
%TO.N,M12A*%
X188150000Y-46375000D02*
X191710000Y-42815000D01*
X187960000Y-59690000D02*
X188150000Y-59500000D01*
X188150000Y-59500000D02*
X188150000Y-46375000D01*
%TO.N,M13A*%
X202720000Y-121640000D02*
X202720000Y-56430000D01*
X196880000Y-52290000D02*
X196880000Y-45265000D01*
X190460000Y-125770000D02*
X198590000Y-125770000D01*
X187960000Y-128270000D02*
X190460000Y-125770000D01*
X197970000Y-53380000D02*
X196880000Y-52290000D01*
X196880000Y-45265000D02*
X199330000Y-42815000D01*
X199670000Y-53380000D02*
X197970000Y-53380000D01*
X202720000Y-56430000D02*
X199670000Y-53380000D01*
X198590000Y-125770000D02*
X202720000Y-121640000D01*
%TO.N,M14A*%
X202160000Y-57360000D02*
X198990000Y-54190000D01*
X196490000Y-106820000D02*
X202160000Y-101150000D01*
X196310000Y-43140000D02*
X199175000Y-40275000D01*
X197770000Y-54190000D02*
X196310000Y-52730000D01*
X199175000Y-40275000D02*
X199330000Y-40275000D01*
X188360000Y-106820000D02*
X196490000Y-106820000D01*
X202160000Y-101150000D02*
X202160000Y-57360000D01*
X196310000Y-52730000D02*
X196310000Y-43140000D01*
X187960000Y-105410000D02*
X187960000Y-106420000D01*
X198990000Y-54190000D02*
X197770000Y-54190000D01*
X187960000Y-106420000D02*
X188360000Y-106820000D01*
%TO.N,M15A*%
X189570000Y-84160000D02*
X195140000Y-84160000D01*
X201450000Y-77850000D02*
X201450000Y-57560000D01*
X195690000Y-40410000D02*
X198365000Y-37735000D01*
X197510000Y-54860000D02*
X195690000Y-53040000D01*
X187960000Y-82550000D02*
X189570000Y-84160000D01*
X198365000Y-37735000D02*
X199330000Y-37735000D01*
X198750000Y-54860000D02*
X197510000Y-54860000D01*
X195690000Y-53040000D02*
X195690000Y-40410000D01*
X201450000Y-57560000D02*
X198750000Y-54860000D01*
X195140000Y-84160000D02*
X201450000Y-77850000D01*
%TO.N,Net-(Q1-Pad2)*%
X125910000Y-28410000D02*
X125170000Y-27670000D01*
X128490000Y-28410000D02*
X125910000Y-28410000D01*
X125170000Y-27670000D02*
X123680000Y-29160000D01*
X123680000Y-29160000D02*
X116850000Y-29160000D01*
X113780000Y-26090000D02*
X113780000Y-25810000D01*
X116850000Y-29160000D02*
X113780000Y-26090000D01*
%TO.N,Net-(R5-Pad1)*%
X98002000Y-29972000D02*
X94742000Y-29972000D01*
X94742000Y-29972000D02*
X91186000Y-33528000D01*
X111493000Y-21838000D02*
X101460000Y-21838000D01*
X124574000Y-21076000D02*
X119240000Y-21076000D01*
X119240000Y-21076000D02*
X117970000Y-19806000D01*
X99420000Y-28554000D02*
X98002000Y-29972000D01*
X117970000Y-19806000D02*
X113525000Y-19806000D01*
X101460000Y-21838000D02*
X99420000Y-23878000D01*
X113525000Y-19806000D02*
X111493000Y-21838000D01*
X99420000Y-23878000D02*
X99420000Y-28554000D01*
%TO.N,Net-(R5-Pad2)*%
X112128000Y-22600000D02*
X113144000Y-21584000D01*
X100180000Y-24200000D02*
X100180000Y-29106000D01*
X100180000Y-24200000D02*
X101780000Y-22600000D01*
X113144000Y-21584000D02*
X116446000Y-21584000D01*
X100180000Y-29106000D02*
X96266000Y-33020000D01*
X101780000Y-22600000D02*
X112128000Y-22600000D01*
X116446000Y-21584000D02*
X116954000Y-21076000D01*
X96266000Y-33020000D02*
X96266000Y-33528000D01*
%TO.N,SW1M1*%
X98298000Y-129794000D02*
X99060000Y-129032000D01*
X89630000Y-75216000D02*
X91694000Y-73152000D01*
X89820000Y-113650000D02*
X89820000Y-106014000D01*
X90970000Y-123350000D02*
X90970000Y-125080000D01*
X90970000Y-125080000D02*
X95684000Y-129794000D01*
X118531000Y-75049000D02*
X119080000Y-74500000D01*
X89820000Y-106014000D02*
X89916000Y-105918000D01*
X104030000Y-54320000D02*
X104030000Y-51452000D01*
X104030000Y-51452000D02*
X103886000Y-51308000D01*
X95684000Y-129794000D02*
X98298000Y-129794000D01*
X90932000Y-104140000D02*
X90678000Y-103886000D01*
X91810000Y-115640000D02*
X89820000Y-113650000D01*
X89630000Y-89803984D02*
X89630000Y-75216000D01*
X114434000Y-73914000D02*
X115569000Y-75049000D01*
X90678000Y-103886000D02*
X90678000Y-99314000D01*
X115569000Y-75049000D02*
X118531000Y-75049000D01*
X105970000Y-56260000D02*
X104030000Y-54320000D01*
X108994000Y-73914000D02*
X114434000Y-73914000D01*
X91694000Y-73152000D02*
X105664000Y-73152000D01*
X99060000Y-129032000D02*
X99060000Y-128270000D01*
X91480000Y-91653984D02*
X89630000Y-89803984D01*
%TO.N,SW1M2*%
X108770000Y-51504000D02*
X108966000Y-51308000D01*
X114980000Y-75700000D02*
X119410000Y-75700000D01*
X95850000Y-89790000D02*
X95850000Y-85760000D01*
X107780000Y-74250000D02*
X108220000Y-74690000D01*
X97100000Y-103450000D02*
X99060000Y-105410000D01*
X91706500Y-93540000D02*
X92100000Y-93540000D01*
X90880000Y-80790000D02*
X90880000Y-75360000D01*
X113970000Y-74690000D02*
X114980000Y-75700000D01*
X108220000Y-74690000D02*
X113970000Y-74690000D01*
X108770000Y-56260000D02*
X108770000Y-51504000D01*
X91706500Y-100943500D02*
X91706500Y-101116500D01*
X94040000Y-103450000D02*
X97100000Y-103450000D01*
X91706500Y-101116500D02*
X94040000Y-103450000D01*
X95850000Y-85760000D02*
X90880000Y-80790000D01*
X90880000Y-75360000D02*
X92260000Y-73980000D01*
X92260000Y-73980000D02*
X104270000Y-73980000D01*
X92100000Y-93540000D02*
X95850000Y-89790000D01*
X119410000Y-75700000D02*
X119820000Y-75290000D01*
%TO.N,SW1M3*%
X113470000Y-75520000D02*
X106320000Y-75520000D01*
X103120000Y-84070000D02*
X101600000Y-82550000D01*
X106320000Y-75520000D02*
X105410000Y-76430000D01*
X104820000Y-84070000D02*
X103120000Y-84070000D01*
X114450000Y-76500000D02*
X113470000Y-75520000D01*
X105410000Y-76430000D02*
X105410000Y-83480000D01*
X120330000Y-76500000D02*
X114450000Y-76500000D01*
X105410000Y-83480000D02*
X104820000Y-84070000D01*
X111370000Y-56610000D02*
X111370000Y-51444000D01*
X111370000Y-51444000D02*
X111506000Y-51308000D01*
X120950000Y-75880000D02*
X120330000Y-76500000D01*
%TO.N,SW1M4*%
X124180000Y-56680000D02*
X124180000Y-51334000D01*
X124180000Y-51334000D02*
X124206000Y-51308000D01*
%TO.N,SW1M5*%
X120940000Y-58480000D02*
X120940000Y-58180000D01*
X114046000Y-53286000D02*
X114046000Y-51308000D01*
X119240000Y-79860000D02*
X116130000Y-82970000D01*
X116130000Y-93380000D02*
X116230000Y-93480000D01*
X116190000Y-100330000D02*
X116190000Y-116230000D01*
X117060000Y-54300000D02*
X115060000Y-54300000D01*
X125690000Y-78470000D02*
X124300000Y-79860000D01*
X116870000Y-122880000D02*
X119500000Y-125510000D01*
X116870000Y-122840000D02*
X116870000Y-122880000D01*
X116130000Y-82970000D02*
X116130000Y-93380000D01*
X124240000Y-125510000D02*
X127000000Y-128270000D01*
X116190000Y-116230000D02*
X116760000Y-116800000D01*
X124300000Y-79860000D02*
X119240000Y-79860000D01*
X120940000Y-58180000D02*
X117060000Y-54300000D01*
X119500000Y-125510000D02*
X124240000Y-125510000D01*
X115060000Y-54300000D02*
X114046000Y-53286000D01*
%TO.N,SW1M6*%
X128150000Y-73520000D02*
X128210000Y-73460000D01*
X117520000Y-101180000D02*
X117520000Y-102110000D01*
X121970000Y-57730000D02*
X117550000Y-53310000D01*
X117000000Y-53310000D02*
X116620000Y-52930000D01*
X119070000Y-103660000D02*
X125250000Y-103660000D01*
X119470000Y-80670000D02*
X116840000Y-83300000D01*
X116620000Y-52930000D02*
X116620000Y-51342000D01*
X128150000Y-78790000D02*
X126270000Y-80670000D01*
X116840000Y-91370000D02*
X117580000Y-92110000D01*
X116840000Y-83300000D02*
X116840000Y-91370000D01*
X117520000Y-102110000D02*
X119070000Y-103660000D01*
X125250000Y-103660000D02*
X127000000Y-105410000D01*
X116620000Y-51342000D02*
X116586000Y-51308000D01*
X121970000Y-58140000D02*
X121970000Y-57730000D01*
X128210000Y-73460000D02*
X128210000Y-68550000D01*
X126270000Y-80670000D02*
X119470000Y-80670000D01*
X117550000Y-53310000D02*
X117000000Y-53310000D01*
X128210000Y-68550000D02*
X126930000Y-67270000D01*
%TO.N,SW1M7*%
X130760000Y-69350000D02*
X127670000Y-66260000D01*
X130440000Y-78750000D02*
X130440000Y-81650000D01*
X121710000Y-51352000D02*
X121666000Y-51308000D01*
X130760000Y-73540000D02*
X130760000Y-69350000D01*
X122960000Y-57600000D02*
X121710000Y-56350000D01*
X121710000Y-56350000D02*
X121710000Y-51352000D01*
X130840000Y-73620000D02*
X130760000Y-73540000D01*
X130440000Y-81650000D02*
X129540000Y-82550000D01*
%TO.N,SW1M8*%
X150480000Y-55360000D02*
X146500000Y-55360000D01*
X151360000Y-54480000D02*
X150480000Y-55360000D01*
X146500000Y-55360000D02*
X144400000Y-53260000D01*
X137408000Y-51308000D02*
X136906000Y-51308000D01*
X144400000Y-53260000D02*
X139360000Y-53260000D01*
X139360000Y-53260000D02*
X137408000Y-51308000D01*
%TO.N,SW1M9*%
X144947636Y-93020174D02*
X144947636Y-93132364D01*
X137320000Y-67350000D02*
X140500000Y-70530000D01*
X125960000Y-52094000D02*
X126746000Y-51308000D01*
X144240000Y-101020000D02*
X145080000Y-101860000D01*
X143840000Y-99840000D02*
X144240000Y-100240000D01*
X145260000Y-92707810D02*
X144947636Y-93020174D01*
X144240000Y-100240000D02*
X144240000Y-101020000D01*
X144785000Y-123325000D02*
X146500000Y-125040000D01*
X143960000Y-70530000D02*
X144380000Y-70950000D01*
X154940000Y-126790000D02*
X154940000Y-128264000D01*
X125960000Y-56720000D02*
X125960000Y-52094000D01*
X145260000Y-81030000D02*
X145260000Y-92707810D01*
X153190000Y-125040000D02*
X154940000Y-126790000D01*
X130790000Y-58550000D02*
X130790000Y-62510000D01*
X145080000Y-101860000D02*
X145080000Y-116770000D01*
X140500000Y-70530000D02*
X143960000Y-70530000D01*
X135630000Y-67350000D02*
X137320000Y-67350000D01*
X130790000Y-62510000D02*
X135630000Y-67350000D01*
X146500000Y-125040000D02*
X153190000Y-125040000D01*
X144947636Y-93132364D02*
X144200000Y-93880000D01*
X145080000Y-116770000D02*
X144940000Y-116910000D01*
X145850000Y-80440000D02*
X145260000Y-81030000D01*
%TO.N,SW1M10*%
X144640000Y-69570000D02*
X144640000Y-59790000D01*
X145600000Y-100460000D02*
X145890000Y-100750000D01*
X147220000Y-80610000D02*
X145910000Y-81920000D01*
X131280000Y-55090000D02*
X129286000Y-53096000D01*
X154940000Y-103750000D02*
X154940000Y-105410000D01*
X145910000Y-93153826D02*
X145722636Y-93341190D01*
X144640000Y-59790000D02*
X144120000Y-59270000D01*
X129286000Y-53096000D02*
X129286000Y-51308000D01*
X143110000Y-55090000D02*
X131280000Y-55090000D01*
X145910000Y-81920000D02*
X145910000Y-93153826D01*
X147220000Y-80370000D02*
X147220000Y-80610000D01*
X145890000Y-100750000D02*
X151940000Y-100750000D01*
X145900000Y-70830000D02*
X144640000Y-69570000D01*
X151940000Y-100750000D02*
X154940000Y-103750000D01*
%TO.N,SW1M11*%
X153470000Y-81080000D02*
X154940000Y-82550000D01*
X143940000Y-54080000D02*
X136680000Y-54080000D01*
X144645000Y-54785000D02*
X143940000Y-54080000D01*
X149580000Y-81080000D02*
X153470000Y-81080000D01*
X134366000Y-51766000D02*
X134366000Y-51308000D01*
X145340000Y-68920000D02*
X145340000Y-59800000D01*
X147380000Y-70960000D02*
X145340000Y-68920000D01*
X136680000Y-54080000D02*
X134366000Y-51766000D01*
X148860000Y-80360000D02*
X149580000Y-81080000D01*
X145340000Y-59800000D02*
X145650000Y-59490000D01*
%TO.N,SW1M12*%
X152760000Y-54180000D02*
X148770000Y-50190000D01*
X168450000Y-57700000D02*
X176350000Y-57700000D01*
X159880000Y-57740000D02*
X155970000Y-57740000D01*
X139360000Y-46910000D02*
X135190000Y-46910000D01*
X162110000Y-57170000D02*
X160450000Y-57170000D01*
X162440000Y-56840000D02*
X162110000Y-57170000D01*
X160450000Y-57170000D02*
X159880000Y-57740000D01*
X134280000Y-46000000D02*
X134280000Y-39510000D01*
X135190000Y-46910000D02*
X134280000Y-46000000D01*
X134280000Y-39510000D02*
X136439500Y-37350500D01*
X142640000Y-50190000D02*
X139360000Y-46910000D01*
X167770000Y-57020000D02*
X168450000Y-57700000D01*
X136439500Y-37350500D02*
X136610000Y-37350500D01*
X148770000Y-50190000D02*
X142640000Y-50190000D01*
X167720000Y-57020000D02*
X167770000Y-57020000D01*
%TO.N,SW1M13*%
X148870000Y-71040000D02*
X152300000Y-67610000D01*
X160440000Y-80470000D02*
X161300000Y-81330000D01*
X126730000Y-44350000D02*
X126730000Y-37750000D01*
X161300000Y-85500000D02*
X169000000Y-93200000D01*
X145570000Y-52570000D02*
X140250000Y-52570000D01*
X147400000Y-54390000D02*
X147390000Y-54390000D01*
X131690000Y-49310000D02*
X126730000Y-44350000D01*
X147760000Y-59320000D02*
X147400000Y-59320000D01*
X150690000Y-80470000D02*
X160440000Y-80470000D01*
X173940000Y-124800000D02*
X173950000Y-124790000D01*
X172370000Y-104560000D02*
X172370000Y-114790000D01*
X179400000Y-124790000D02*
X182880000Y-128270000D01*
X171200000Y-101400000D02*
X171200000Y-103390000D01*
X152300000Y-63860000D02*
X147760000Y-59320000D01*
X150060000Y-79840000D02*
X150690000Y-80470000D01*
X140250000Y-52570000D02*
X136990000Y-49310000D01*
X161300000Y-81330000D02*
X161300000Y-85500000D01*
X147390000Y-54390000D02*
X145570000Y-52570000D01*
X171200000Y-103390000D02*
X172370000Y-104560000D01*
X152300000Y-67610000D02*
X152300000Y-63860000D01*
X169000000Y-93200000D02*
X170270000Y-93200000D01*
X126730000Y-37750000D02*
X126800000Y-37680000D01*
X136990000Y-49310000D02*
X131690000Y-49310000D01*
X173950000Y-124790000D02*
X179400000Y-124790000D01*
%TO.N,SW1M14*%
X172660000Y-101050000D02*
X173280000Y-101670000D01*
X148520000Y-54370000D02*
X148520000Y-54290000D01*
X153940000Y-79710000D02*
X161720000Y-79710000D01*
X148840000Y-59390000D02*
X148840000Y-59010000D01*
X173280000Y-101670000D02*
X179270000Y-101670000D01*
X138390000Y-48580000D02*
X133210000Y-48580000D01*
X179270000Y-101670000D02*
X182880000Y-105280000D01*
X163820000Y-86890000D02*
X168930000Y-92000000D01*
X182880000Y-105280000D02*
X182880000Y-105410000D01*
X170870000Y-92000000D02*
X170960000Y-92090000D01*
X148520000Y-54290000D02*
X145830000Y-51600000D01*
X153660000Y-64210000D02*
X148840000Y-59390000D01*
X153660000Y-73620000D02*
X153660000Y-64210000D01*
X129300000Y-44670000D02*
X129300000Y-37790000D01*
X168930000Y-92000000D02*
X170870000Y-92000000D01*
X153750000Y-73710000D02*
X153660000Y-73620000D01*
X153590000Y-79360000D02*
X153940000Y-79710000D01*
X161720000Y-79710000D02*
X163820000Y-81810000D01*
X141410000Y-51600000D02*
X138390000Y-48580000D01*
X163820000Y-81810000D02*
X163820000Y-86890000D01*
X145830000Y-51600000D02*
X141410000Y-51600000D01*
X133210000Y-48580000D02*
X129300000Y-44670000D01*
%TO.N,SW1M15*%
X156230000Y-65590000D02*
X150360000Y-59720000D01*
X134190000Y-47800000D02*
X133350000Y-46960000D01*
X174050000Y-77530000D02*
X182300000Y-77530000D01*
X182300000Y-77530000D02*
X182880000Y-78110000D01*
X156250000Y-74025500D02*
X156230000Y-74005500D01*
X141890000Y-50830000D02*
X138860000Y-47800000D01*
X138860000Y-47800000D02*
X134190000Y-47800000D01*
X171030000Y-76660000D02*
X173180000Y-76660000D01*
X168670000Y-79020000D02*
X171030000Y-76660000D01*
X156230000Y-74005500D02*
X156230000Y-65590000D01*
X173180000Y-76660000D02*
X174050000Y-77530000D01*
X156510000Y-78670000D02*
X156860000Y-79020000D01*
X182880000Y-78110000D02*
X182880000Y-82550000D01*
X156860000Y-79020000D02*
X168670000Y-79020000D01*
X146360000Y-50830000D02*
X141890000Y-50830000D01*
X133350000Y-46960000D02*
X133350000Y-38140000D01*
X133350000Y-38140000D02*
X134130000Y-37360000D01*
X149600000Y-54070000D02*
X146360000Y-50830000D01*
X150360000Y-59720000D02*
X150360000Y-59130000D01*
X149840000Y-54070000D02*
X149600000Y-54070000D01*
%TO.N,SW2M13*%
X197090000Y-80550000D02*
X197090000Y-71460000D01*
X197790000Y-103620000D02*
X197790000Y-101160000D01*
X193150000Y-41715000D02*
X191710000Y-40275000D01*
X199355000Y-107155000D02*
X200420000Y-108220000D01*
X199890000Y-99060000D02*
X199890000Y-84970000D01*
X197090000Y-71460000D02*
X191800000Y-66170000D01*
X199890000Y-84970000D02*
X198670000Y-83750000D01*
X197790000Y-101160000D02*
X199890000Y-99060000D01*
X193150000Y-53180000D02*
X193150000Y-41715000D01*
X191800000Y-54530000D02*
X193150000Y-53180000D01*
X197350000Y-124070000D02*
X191600000Y-124070000D01*
X200420000Y-108220000D02*
X200420000Y-121000000D01*
X200420000Y-121000000D02*
X197350000Y-124070000D01*
X191800000Y-66170000D02*
X191800000Y-54530000D01*
%TO.N,SW2M12*%
X186660000Y-60700000D02*
X186660000Y-57060000D01*
X190500000Y-59690000D02*
X190500000Y-60750000D01*
X181580000Y-45325000D02*
X184020000Y-42885000D01*
X187470000Y-61510000D02*
X186660000Y-60700000D01*
X181580000Y-51980000D02*
X181580000Y-45325000D01*
X189740000Y-61510000D02*
X187470000Y-61510000D01*
X186660000Y-57060000D02*
X181580000Y-51980000D01*
X190500000Y-60750000D02*
X189740000Y-61510000D01*
%TO.N,SW2M14*%
X180260000Y-52970000D02*
X180260000Y-41565000D01*
X184080000Y-74050000D02*
X184080000Y-62910000D01*
X193040000Y-103370000D02*
X193040000Y-105410000D01*
X181560000Y-60390000D02*
X181560000Y-54270000D01*
X184050000Y-78210000D02*
X184050000Y-82290000D01*
X190370000Y-100700000D02*
X193040000Y-103370000D01*
X184050000Y-82290000D02*
X184110000Y-82350000D01*
X184110000Y-93550000D02*
X184040000Y-93620000D01*
X180260000Y-41565000D02*
X184020000Y-37805000D01*
X181560000Y-54270000D02*
X180260000Y-52970000D01*
X184080000Y-62910000D02*
X181560000Y-60390000D01*
X185130000Y-100700000D02*
X190370000Y-100700000D01*
X184110000Y-82350000D02*
X184110000Y-93550000D01*
X184050000Y-74080000D02*
X184080000Y-74050000D01*
%TO.N,SW2M15*%
X190500000Y-82550000D02*
X190500000Y-79820000D01*
X184150000Y-60530000D02*
X184150000Y-55510000D01*
X184150000Y-55510000D02*
X180890000Y-52250000D01*
X180890000Y-43830000D02*
X184020000Y-40700000D01*
X180890000Y-52250000D02*
X180890000Y-43830000D01*
X191760000Y-78560000D02*
X191760000Y-67060000D01*
X184020000Y-40700000D02*
X184020000Y-40345000D01*
X191760000Y-67060000D02*
X186700000Y-62000000D01*
X190500000Y-79820000D02*
X191760000Y-78560000D01*
X186700000Y-62000000D02*
X185620000Y-62000000D01*
X185620000Y-62000000D02*
X184150000Y-60530000D01*
%TO.N,SW2M9*%
X181570000Y-63290000D02*
X178910000Y-60630000D01*
X173410000Y-82330000D02*
X175290000Y-80450000D01*
X178910000Y-60630000D02*
X178910000Y-58870000D01*
X170864500Y-123270000D02*
X165870500Y-128264000D01*
X173940000Y-123270000D02*
X170864500Y-123270000D01*
X179480000Y-39805000D02*
X184020000Y-35265000D01*
X175400000Y-80340000D02*
X180250000Y-80340000D01*
X181290000Y-79300000D02*
X181290000Y-78790000D01*
X180560000Y-54620000D02*
X179480000Y-53540000D01*
X173130000Y-103500000D02*
X174040000Y-102590000D01*
X178910000Y-58870000D02*
X180560000Y-57220000D01*
X181570000Y-73900000D02*
X181570000Y-63290000D01*
X175290000Y-80450000D02*
X175400000Y-80340000D01*
X180560000Y-57220000D02*
X180560000Y-54620000D01*
X173780000Y-93160000D02*
X173410000Y-92790000D01*
X173410000Y-92790000D02*
X173410000Y-82330000D01*
X179480000Y-53540000D02*
X179480000Y-39805000D01*
X181730000Y-74060000D02*
X181570000Y-73900000D01*
X181290000Y-78790000D02*
X181300000Y-78780000D01*
X180250000Y-80340000D02*
X181290000Y-79300000D01*
X173130000Y-113980000D02*
X173130000Y-103500000D01*
X165870500Y-128264000D02*
X165100000Y-128264000D01*
X173890000Y-114740000D02*
X173130000Y-113980000D01*
%TO.N,SW2M8*%
X169154500Y-56930000D02*
X172040000Y-56930000D01*
X169150000Y-56925500D02*
X169154500Y-56930000D01*
X172040000Y-56930000D02*
X173810000Y-55160000D01*
X173810000Y-37855000D02*
X176400000Y-35265000D01*
X173810000Y-55160000D02*
X173810000Y-37855000D01*
%TO.N,SW2M10*%
X180690000Y-63350000D02*
X178280000Y-60940000D01*
X172380000Y-88710000D02*
X169970000Y-91120000D01*
X169190000Y-101090000D02*
X169190000Y-101320000D01*
X180690000Y-66330000D02*
X180690000Y-63350000D01*
X171550000Y-77520000D02*
X172380000Y-78350000D01*
X175824500Y-71195500D02*
X180690000Y-66330000D01*
X173960000Y-71195500D02*
X175824500Y-71195500D01*
X172380000Y-78350000D02*
X172380000Y-88710000D01*
X169190000Y-101320000D02*
X165100000Y-105410000D01*
X179600000Y-56990000D02*
X179600000Y-54850000D01*
X178280000Y-58310000D02*
X179600000Y-56990000D01*
X179600000Y-54850000D02*
X178790000Y-54040000D01*
X178790000Y-54040000D02*
X178790000Y-45275000D01*
X178790000Y-45275000D02*
X176400000Y-42885000D01*
X178280000Y-60940000D02*
X178280000Y-58310000D01*
%TO.N,SW2M11*%
X177650000Y-61400000D02*
X177650000Y-55320000D01*
X166690000Y-82550000D02*
X165100000Y-82550000D01*
X179860000Y-63610000D02*
X177650000Y-61400000D01*
X170290000Y-78950000D02*
X166690000Y-82550000D01*
X179860000Y-65980000D02*
X179860000Y-63610000D01*
X175350000Y-70090000D02*
X175750000Y-70090000D01*
X177650000Y-55320000D02*
X174640000Y-52310000D01*
X175750000Y-70090000D02*
X179860000Y-65980000D01*
X174640000Y-52310000D02*
X174640000Y-42105000D01*
X174640000Y-42105000D02*
X176400000Y-40345000D01*
%TO.N,Net-(R6-Pad2)*%
X102616000Y-34544000D02*
X103378000Y-35306000D01*
X102616000Y-34544000D02*
X102616000Y-29464000D01*
X102616000Y-29464000D02*
X101854000Y-28702000D01*
X114046000Y-33528000D02*
X114046000Y-35052000D01*
X114046000Y-35052000D02*
X113792000Y-35306000D01*
X113792000Y-35306000D02*
X103378000Y-35306000D01*
%TO.N,SW2M4*%
X173110000Y-36015000D02*
X176400000Y-32725000D01*
X171354500Y-56155500D02*
X173110000Y-54400000D01*
X170280000Y-56155500D02*
X171354500Y-56155500D01*
X142910000Y-60590000D02*
X142980000Y-60660000D01*
X173110000Y-54400000D02*
X173110000Y-36015000D01*
X142980000Y-60660000D02*
X143330000Y-60660000D01*
X142010000Y-59690000D02*
X142910000Y-60590000D01*
X137160000Y-59690000D02*
X142010000Y-59690000D01*
%TD*%
M02*
