M48
; DRILL file {KiCad (6.0.11)} date Mon Feb 20 18:23:08 2023
; FORMAT={-:-/ absolute / inch / decimal}
; #@! TF.CreationDate,2023-02-20T18:23:08-06:00
; #@! TF.GenerationSoftware,Kicad,Pcbnew,(6.0.11)
; #@! TF.FileFunction,Plated,1,2,PTH
FMAT,2
INCH
; #@! TA.AperFunction,Plated,PTH,ViaDrill
T1C0.0157
; #@! TA.AperFunction,Plated,PTH,ComponentDrill
T2C0.0300
; #@! TA.AperFunction,Plated,PTH,ComponentDrill
T3C0.0315
; #@! TA.AperFunction,Plated,PTH,ComponentDrill
T4C0.0354
; #@! TA.AperFunction,Plated,PTH,ComponentDrill
T5C0.0402
; #@! TA.AperFunction,Plated,PTH,ComponentDrill
T6C0.0598
%
G90
G05
T1
X3.48Y-3.66
X3.48Y-3.7811
X3.49Y-3.61
X3.4909Y-4.8902
X3.5169Y-3.8429
X3.5209Y-4.598
X3.5305Y-3.89
X3.5346Y-4.8638
X3.54Y-4.17
X3.5421Y-3.5921
X3.57Y-3.91
X3.5732Y-4.5992
X3.58Y-4.1
X3.5815Y-4.8563
X3.6016Y-3.6084
X3.6105Y-3.6827
X3.6105Y-3.9742
X3.6146Y-4.5528
X3.7034Y-5.4866
X4.01Y-1.13
X4.02Y-0.93
X4.0276Y-4.7839
X4.098Y-3.8803
X4.1051Y-2.9126
X4.16Y-2.88
X4.172Y-2.215
X4.2433Y-2.9232
X4.2823Y-2.215
X4.2911Y-2.91
X4.3846Y-2.2287
X4.5744Y-3.95
X4.576Y-3.6803
X4.58Y-2.84
X4.588Y-2.7517
X4.5969Y-4.5984
X4.6012Y-4.8362
X4.61Y-2.88
X4.6268Y-3.9835
X4.6291Y-3.6264
X4.64Y-2.92
X4.6488Y-2.7531
X4.6831Y-2.7882
X4.6882Y-2.9331
X4.7173Y-2.9642
X4.7224Y-2.8187
X4.7614Y-2.3024
X4.7618Y-2.9874
X4.802Y-2.289
X4.8409Y-2.2677
X4.889Y-2.2315
X4.9484Y-3.0894
X4.9591Y-2.2331
X4.9921Y-1.4835
X4.9972Y-2.6484
X5.0264Y-2.6087
X5.0453Y-2.8945
X5.0453Y-3.102
X5.0906Y-1.4878
X5.1354Y-3.1004
X5.1492Y-2.3051
X5.1512Y-2.8984
X5.1531Y-3.8807
X5.1673Y-4.7811
X5.187Y-2.9862
X5.2807Y-1.4709
X5.3783Y-1.4705
X5.5571Y-3.9457
X5.5811Y-3.6524
X5.6106Y-3.9594
X5.6343Y-2.1689
X5.6429Y-2.3882
X5.6496Y-3.6524
X5.6496Y-4.6142
X5.6508Y-4.9083
X5.663Y-3.9307
X5.674Y-2.3335
X5.6772Y-3.6961
X5.6843Y-2.7933
X5.6947Y-2.1569
X5.7002Y-4.8553
X5.7063Y-4.6028
X5.7287Y-1.0248
X5.7323Y-3.9551
X5.7343Y-2.3421
X5.7371Y-3.6748
X5.7421Y-3.1669
X5.7441Y-2.7886
X5.7961Y-3.1642
X5.8024Y-2.7937
X5.8031Y-2.1413
X5.8031Y-2.3354
X5.8472Y-2.1406
X5.8598Y-2.3232
X5.8606Y-3.1638
X5.861Y-2.7969
X5.865Y-1.0756
X5.8992Y-2.1287
X5.9079Y-3.1433
X5.9197Y-2.328
X5.9591Y-2.1449
X6.0142Y-2.1331
X6.0469Y-3.1244
X6.0531Y-2.902
X6.1406Y-2.2732
X6.1516Y-2.9144
X6.1559Y-1.013
X6.1618Y-3.0972
X6.2594Y-3.8803
X6.2795Y-1.1283
X6.289Y-4.7811
X6.2969Y-2.9959
X6.3953Y-2.2378
X6.5583Y-0.885
X6.5913Y-2.9937
X6.6031Y-2.2449
X6.6201Y-2.8177
X6.6441Y-3.0122
X6.6498Y-3.0577
X6.6594Y-2.2412
X6.661Y-3.9799
X6.6657Y-2.8157
X6.6917Y-3.5874
X6.7035Y-3.6693
X6.7039Y-2.2108
X6.7043Y-3.1083
X6.7142Y-1.062
X6.7224Y-2.8157
X6.7272Y-1.1266
X6.7307Y-3.6256
X6.7402Y-3.9921
X6.7506Y-1.1585
X6.7531Y-1.0118
X6.7539Y-3.052
X6.7862Y-4.5193
X6.7866Y-0.9585
X6.7976Y-3.9783
X6.8417Y-3.6677
X6.8461Y-4.5173
X6.848Y-4.8531
X6.848Y-4.9134
X6.8488Y-2.803
X6.852Y-4.039
X6.9035Y-2.7594
X6.9429Y-2.2717
X6.9787Y-1.1344
X7.1378Y-3.1016
X7.1547Y-2.9157
X7.1567Y-0.8945
X7.2457Y-3.6858
X7.2461Y-2.9165
X7.2461Y-3.0791
X7.2886Y-3.9646
X7.363Y-1.0618
X7.3638Y-1.1242
X7.3756Y-2.9945
X7.3902Y-4.7724
X7.413Y-1.0118
X7.4138Y-1.1254
X7.5315Y-0.9648
X7.5433Y-4.8846
X7.6102Y-1.4398
X7.6858Y-0.9528
X7.7594Y-3.1713
X7.787Y-4.0795
X7.8065Y-3.1465
X7.81Y-3.24
X7.8217Y-3.2972
X7.8268Y-4.0512
X7.8335Y-3.0972
X7.8453Y-3.2134
X7.8486Y-4.2187
X7.8522Y-3.0126
X7.8587Y-4.1409
X7.8681Y-4.0295
X7.8992Y-3.1827
X7.9028Y-4.1079
T2
X3.8Y-3.25
X3.8Y-3.75
X3.8Y-4.15
X3.8Y-4.65
X3.8Y-5.05
X3.8Y-5.55
X4.9Y-2.35
X4.9Y-2.85
X4.9Y-3.25
X4.9Y-3.75
X4.9Y-4.15
X4.9Y-4.65
X4.9Y-5.05
X4.9Y-5.55
X6.0Y-2.35
X6.0Y-2.85
X6.0Y-3.25
X6.0Y-3.75
X6.0Y-4.15
X6.0Y-4.65
X6.0Y-5.0498
X6.0Y-5.5498
X7.1Y-2.35
X7.1Y-2.85
X7.1Y-3.25
X7.1Y-3.75
X7.1Y-4.15
X7.1Y-4.65
X7.1Y-5.05
X7.1Y-5.55
T3
X3.478Y-2.6988
X3.55Y-1.1
X3.778Y-2.6988
X3.84Y-0.8016
X3.84Y-0.9
X3.85Y-1.1
X3.8614Y-2.337
X3.8614Y-2.467
X3.9Y-3.25
X3.9Y-3.75
X3.9Y-4.15
X3.9Y-4.65
X3.9Y-5.05
X3.9Y-5.55
X4.0Y-3.25
X4.0Y-3.75
X4.0Y-4.15
X4.0Y-4.65
X4.0Y-5.05
X4.0Y-5.55
X4.1Y-3.25
X4.1Y-3.75
X4.1Y-4.15
X4.1Y-4.65
X4.1Y-5.05
X4.1Y-5.55
X4.1453Y-1.0756
X4.1614Y-2.337
X4.1614Y-2.467
X4.2Y-3.25
X4.2Y-3.75
X4.2Y-4.15
X4.2Y-4.65
X4.2Y-5.05
X4.2Y-5.55
X4.2437Y-1.0756
X4.2614Y-2.337
X4.2614Y-2.467
X4.3Y-3.25
X4.3Y-3.75
X4.3Y-4.15
X4.3Y-4.65
X4.3Y-5.05
X4.3Y-5.55
X4.4795Y-0.9161
X4.4795Y-1.0161
X4.4795Y-1.1161
X4.5614Y-2.337
X4.5614Y-2.467
X4.6045Y-0.8298
X4.628Y-1.0894
X4.6295Y-0.9602
X4.9045Y-0.8298
X4.928Y-1.0894
X4.9295Y-0.9602
X5.0Y-2.35
X5.0Y-2.85
X5.0Y-3.25
X5.0Y-3.75
X5.0Y-4.15
X5.0Y-4.65
X5.0Y-5.05
X5.0Y-5.55
X5.0587Y-0.9185
X5.0587Y-1.0185
X5.0587Y-1.1185
X5.1Y-2.35
X5.1Y-2.85
X5.1Y-3.25
X5.1Y-3.75
X5.1Y-4.15
X5.1Y-4.65
X5.1Y-5.05
X5.1Y-5.55
X5.2Y-2.35
X5.2Y-2.85
X5.2Y-3.25
X5.2Y-3.75
X5.2Y-4.15
X5.2Y-4.65
X5.2Y-5.05
X5.2Y-5.55
X5.2232Y-1.0996
X5.3Y-2.35
X5.3Y-2.85
X5.3Y-3.25
X5.3Y-3.75
X5.3Y-4.15
X5.3Y-4.65
X5.3Y-5.05
X5.3Y-5.55
X5.4Y-2.35
X5.4Y-2.85
X5.4Y-3.25
X5.4Y-3.75
X5.4Y-4.15
X5.4Y-4.65
X5.4Y-5.05
X5.4Y-5.55
X5.5232Y-1.0996
X5.7303Y-1.3067
X5.7303Y-1.4067
X5.7303Y-1.5067
X5.7303Y-1.6067
X5.7303Y-1.7067
X5.7303Y-1.8067
X5.7303Y-1.9067
X5.9358Y-1.1803
X6.0303Y-1.3067
X6.0303Y-1.4067
X6.0303Y-1.5067
X6.0303Y-1.6067
X6.0303Y-1.7067
X6.0303Y-1.8067
X6.0303Y-1.9067
X6.0343Y-1.1803
X6.1Y-2.35
X6.1Y-2.85
X6.1Y-3.25
X6.1Y-3.75
X6.1Y-4.15
X6.1Y-4.65
X6.1Y-5.0498
X6.1Y-5.5498
X6.2Y-2.35
X6.2Y-2.85
X6.2Y-3.25
X6.2Y-3.75
X6.2Y-4.15
X6.2Y-4.65
X6.2Y-5.0498
X6.2Y-5.5498
X6.3Y-2.35
X6.3Y-2.85
X6.3Y-3.25
X6.3Y-3.75
X6.3Y-4.15
X6.3Y-4.65
X6.3Y-5.0498
X6.3Y-5.5498
X6.3358Y-1.2856
X6.3358Y-1.3856
X6.3358Y-1.4856
X6.3358Y-1.5856
X6.3358Y-1.6856
X6.3358Y-1.7856
X6.3358Y-1.8856
X6.3358Y-1.9856
X6.4Y-2.35
X6.4Y-2.85
X6.4Y-3.25
X6.4Y-3.75
X6.4Y-4.15
X6.4Y-4.65
X6.4Y-5.0498
X6.4Y-5.5498
X6.5Y-2.35
X6.5Y-2.85
X6.5Y-3.25
X6.5Y-3.75
X6.5Y-4.15
X6.5Y-4.65
X6.5Y-5.0498
X6.5Y-5.5498
X6.5146Y-1.1596
X6.613Y-1.1596
X6.6358Y-1.2856
X6.6358Y-1.3856
X6.6358Y-1.4856
X6.6358Y-1.5856
X6.6358Y-1.6856
X6.6358Y-1.7856
X6.6358Y-1.8856
X6.6358Y-1.9856
X6.9449Y-1.2884
X6.9449Y-1.3884
X6.9449Y-1.4884
X6.9449Y-1.5884
X6.9449Y-1.6884
X6.9449Y-1.7884
X6.9449Y-1.8884
X6.9449Y-1.9884
X7.1287Y-1.1612
X7.2Y-2.35
X7.2Y-2.85
X7.2Y-3.25
X7.2Y-3.75
X7.2Y-4.15
X7.2Y-4.65
X7.2Y-5.05
X7.2Y-5.55
X7.2272Y-1.1612
X7.2449Y-1.2884
X7.2449Y-1.3884
X7.2449Y-1.4884
X7.2449Y-1.5884
X7.2449Y-1.6884
X7.2449Y-1.7884
X7.2449Y-1.8884
X7.2449Y-1.9884
X7.3Y-2.35
X7.3Y-2.85
X7.3Y-3.25
X7.3Y-3.75
X7.3Y-4.15
X7.3Y-4.65
X7.3Y-5.05
X7.3Y-5.55
X7.4Y-2.35
X7.4Y-2.85
X7.4Y-3.25
X7.4Y-3.75
X7.4Y-4.15
X7.4Y-4.65
X7.4Y-5.05
X7.4Y-5.55
X7.5Y-2.35
X7.5Y-2.85
X7.5Y-3.25
X7.5Y-3.75
X7.5Y-4.15
X7.5Y-4.65
X7.5Y-5.05
X7.5Y-5.55
X7.5476Y-1.2856
X7.5476Y-1.3856
X7.5476Y-1.4856
X7.5476Y-1.5856
X7.5476Y-1.6856
X7.5476Y-1.7856
X7.5476Y-1.8856
X7.5476Y-1.9856
X7.6Y-2.35
X7.6Y-2.85
X7.6Y-3.25
X7.6Y-3.75
X7.6Y-4.15
X7.6Y-4.65
X7.6Y-5.05
X7.6Y-5.55
X7.7055Y-1.1565
X7.8039Y-1.1565
X7.8476Y-1.2856
X7.8476Y-1.3856
X7.8476Y-1.4856
X7.8476Y-1.5856
X7.8476Y-1.6856
X7.8476Y-1.7856
X7.8476Y-1.8856
X7.8476Y-1.9856
T4
X3.9114Y-2.5841
X3.9114Y-2.6841
X4.1014Y-2.587
X4.1014Y-2.687
X4.2914Y-2.587
X4.2914Y-2.687
X4.4814Y-2.5868
X4.4814Y-2.6868
T5
X3.49Y-1.32
X3.49Y-2.02
X3.59Y-1.32
X3.59Y-2.02
X3.69Y-1.32
X3.69Y-2.02
X3.79Y-1.32
X3.79Y-2.02
X3.89Y-1.32
X3.89Y-2.02
X3.99Y-1.32
X3.99Y-2.02
X4.09Y-1.32
X4.09Y-2.02
X4.19Y-1.32
X4.19Y-2.02
X4.29Y-1.32
X4.29Y-2.02
X4.39Y-1.32
X4.39Y-2.02
X4.49Y-1.32
X4.49Y-2.02
X4.59Y-1.32
X4.59Y-2.02
X4.69Y-1.32
X4.69Y-2.02
X4.79Y-1.32
X4.79Y-2.02
X4.89Y-1.32
X4.89Y-2.02
X4.99Y-1.32
X4.99Y-2.02
X5.09Y-1.32
X5.09Y-2.02
X5.19Y-1.32
X5.19Y-2.02
X5.29Y-1.32
X5.29Y-2.02
X5.3809Y-1.57
X5.3809Y-1.67
X5.3809Y-1.77
X5.39Y-1.32
X5.39Y-2.02
T6
X3.6047Y-2.3283
X3.6047Y-2.5283
T0
M30
