%TF.GenerationSoftware,KiCad,Pcbnew,(6.0.11)*%
%TF.CreationDate,2023-03-17T21:07:47-05:00*%
%TF.ProjectId,HIDPanel,48494450-616e-4656-9c2e-6b696361645f,rev?*%
%TF.SameCoordinates,Original*%
%TF.FileFunction,Soldermask,Top*%
%TF.FilePolarity,Negative*%
%FSLAX46Y46*%
G04 Gerber Fmt 4.6, Leading zero omitted, Abs format (unit mm)*
G04 Created by KiCad (PCBNEW (6.0.11)) date 2023-03-17 21:07:47*
%MOMM*%
%LPD*%
G01*
G04 APERTURE LIST*
%ADD10R,1.000000X1.500000*%
%ADD11O,1.700000X1.700000*%
%ADD12R,1.700000X1.700000*%
%ADD13R,1.600000X1.600000*%
%ADD14O,1.600000X1.600000*%
%ADD15C,1.600000*%
%ADD16C,3.500000*%
%ADD17C,1.560000*%
%ADD18C,1.524000*%
%ADD19O,1.500000X1.500000*%
%ADD20O,1.800000X1.800000*%
%ADD21R,1.700000X3.500000*%
%ADD22R,3.500000X1.700000*%
%ADD23R,1.800000X1.800000*%
%ADD24C,1.800000*%
%ADD25R,1.500000X1.500000*%
%ADD26C,1.500000*%
%ADD27C,3.200000*%
G04 APERTURE END LIST*
D10*
%TO.C,JP1*%
X147820000Y-27090000D03*
X146520000Y-27090000D03*
X145220000Y-27090000D03*
%TD*%
D11*
%TO.C,J1*%
X102235000Y-70200000D03*
D12*
X104775000Y-70200000D03*
%TD*%
D13*
%TO.C,U3*%
X160930000Y-32655000D03*
D14*
X160930000Y-35195000D03*
X160930000Y-37735000D03*
X160930000Y-40275000D03*
X160930000Y-42815000D03*
X160930000Y-45355000D03*
X160930000Y-47895000D03*
X160930000Y-50435000D03*
X168550000Y-50435000D03*
X168550000Y-47895000D03*
X168550000Y-45355000D03*
X168550000Y-42815000D03*
X168550000Y-40275000D03*
X168550000Y-37735000D03*
X168550000Y-35195000D03*
X168550000Y-32655000D03*
%TD*%
%TO.C,R1*%
X88460000Y-56910000D03*
D15*
X96080000Y-56910000D03*
%TD*%
%TO.C,R6*%
X91460000Y-27400000D03*
D14*
X99080000Y-27400000D03*
%TD*%
D13*
%TO.C,U5*%
X191710000Y-32655000D03*
D14*
X191710000Y-35195000D03*
X191710000Y-37735000D03*
X191710000Y-40275000D03*
X191710000Y-42815000D03*
X191710000Y-45355000D03*
X191710000Y-47895000D03*
X191710000Y-50435000D03*
X199330000Y-50435000D03*
X199330000Y-47895000D03*
X199330000Y-45355000D03*
X199330000Y-42815000D03*
X199330000Y-40275000D03*
X199330000Y-37735000D03*
X199330000Y-35195000D03*
X199330000Y-32655000D03*
%TD*%
D16*
%TO.C,M2*%
X92710000Y-110490000D03*
X113030000Y-110490000D03*
D17*
X99060000Y-118110000D03*
X101600000Y-118110000D03*
X104140000Y-118110000D03*
X106680000Y-118110000D03*
X109220000Y-118110000D03*
X101600000Y-105410000D03*
X99060000Y-105410000D03*
X104140000Y-105410000D03*
X106680000Y-105410000D03*
X109220000Y-105410000D03*
D18*
X96520000Y-105410000D03*
X96520000Y-118110000D03*
%TD*%
D19*
%TO.C,U1*%
X91820000Y-43735000D03*
X91820000Y-38885000D03*
D20*
X88790000Y-44035000D03*
X88790000Y-38585000D03*
D21*
X88660000Y-51100000D03*
D11*
X88660000Y-50200000D03*
D21*
X91200000Y-51100000D03*
D11*
X91200000Y-50200000D03*
D21*
X93740000Y-51100000D03*
D12*
X93740000Y-50200000D03*
D21*
X96280000Y-51100000D03*
D11*
X96280000Y-50200000D03*
D21*
X98820000Y-51100000D03*
D11*
X98820000Y-50200000D03*
D21*
X101360000Y-51100000D03*
D11*
X101360000Y-50200000D03*
D21*
X103900000Y-51100000D03*
D11*
X103900000Y-50200000D03*
D12*
X106440000Y-50200000D03*
D21*
X106440000Y-51100000D03*
X108980000Y-51100000D03*
D11*
X108980000Y-50200000D03*
D21*
X111520000Y-51100000D03*
D11*
X111520000Y-50200000D03*
D21*
X114060000Y-51100000D03*
D11*
X114060000Y-50200000D03*
D21*
X116600000Y-51100000D03*
D11*
X116600000Y-50200000D03*
D12*
X119140000Y-50200000D03*
D21*
X119140000Y-51100000D03*
D11*
X121680000Y-50200000D03*
D21*
X121680000Y-51100000D03*
D11*
X124220000Y-50200000D03*
D21*
X124220000Y-51100000D03*
X126760000Y-51100000D03*
D11*
X126760000Y-50200000D03*
X129300000Y-50200000D03*
D21*
X129300000Y-51100000D03*
D12*
X131840000Y-50200000D03*
D21*
X131840000Y-51100000D03*
X134380000Y-51100000D03*
D11*
X134380000Y-50200000D03*
D21*
X136920000Y-51100000D03*
D11*
X136920000Y-50200000D03*
D21*
X136920000Y-31520000D03*
D11*
X136920000Y-32420000D03*
D21*
X134380000Y-31520000D03*
D11*
X134380000Y-32420000D03*
D12*
X131840000Y-32420000D03*
D21*
X131840000Y-31520000D03*
D11*
X129300000Y-32420000D03*
D21*
X129300000Y-31520000D03*
X126760000Y-31520000D03*
D11*
X126760000Y-32420000D03*
D21*
X124220000Y-31520000D03*
D11*
X124220000Y-32420000D03*
X121680000Y-32420000D03*
D21*
X121680000Y-31520000D03*
X119140000Y-31520000D03*
D12*
X119140000Y-32420000D03*
D21*
X116600000Y-31520000D03*
D11*
X116600000Y-32420000D03*
D21*
X114060000Y-31520000D03*
D11*
X114060000Y-32420000D03*
D21*
X111520000Y-31520000D03*
D11*
X111520000Y-32420000D03*
D21*
X108980000Y-31520000D03*
D11*
X108980000Y-32420000D03*
D12*
X106440000Y-32420000D03*
D21*
X106440000Y-31520000D03*
D11*
X103900000Y-32420000D03*
D21*
X103900000Y-31520000D03*
D11*
X101360000Y-32420000D03*
D21*
X101360000Y-31520000D03*
D11*
X98820000Y-32420000D03*
D21*
X98820000Y-31520000D03*
D11*
X96280000Y-32420000D03*
D21*
X96280000Y-31520000D03*
D12*
X93740000Y-32420000D03*
D21*
X93740000Y-31520000D03*
D11*
X91200000Y-32420000D03*
D21*
X91200000Y-31520000D03*
X88660000Y-31520000D03*
D11*
X88660000Y-32420000D03*
X136690000Y-43850000D03*
D22*
X137590000Y-43850000D03*
D12*
X136690000Y-41310000D03*
D22*
X137590000Y-41310000D03*
D11*
X136690000Y-38770000D03*
D22*
X137590000Y-38770000D03*
%TD*%
D16*
%TO.C,M12*%
X196850000Y-64770000D03*
X176530000Y-64770000D03*
D17*
X182880000Y-72390000D03*
X185420000Y-72390000D03*
X187960000Y-72390000D03*
X193040000Y-72390000D03*
X190500000Y-72390000D03*
X185420000Y-59690000D03*
X182880000Y-59690000D03*
X187960000Y-59690000D03*
X190500000Y-59690000D03*
X193040000Y-59690000D03*
D18*
X180340000Y-59690000D03*
X180340000Y-72390000D03*
%TD*%
D15*
%TO.C,C6*%
X167970000Y-29455000D03*
X165470000Y-29455000D03*
%TD*%
D16*
%TO.C,M10*%
X148590000Y-110490000D03*
X168910000Y-110490000D03*
D17*
X154940000Y-118110000D03*
X157480000Y-118110000D03*
X160020000Y-118110000D03*
X165100000Y-118110000D03*
X162560000Y-118110000D03*
X157480000Y-105410000D03*
X154940000Y-105410000D03*
X160020000Y-105410000D03*
X162560000Y-105410000D03*
X165100000Y-105410000D03*
D18*
X152400000Y-105410000D03*
X152400000Y-118110000D03*
%TD*%
D15*
%TO.C,R7*%
X98925000Y-70250000D03*
D14*
X91305000Y-70250000D03*
%TD*%
D15*
%TO.C,R4*%
X106060000Y-60110000D03*
D14*
X98440000Y-60110000D03*
%TD*%
D23*
%TO.C,D4*%
X109450000Y-62925000D03*
D24*
X109450000Y-65465000D03*
%TD*%
D23*
%TO.C,D2*%
X99950000Y-62950000D03*
D24*
X99950000Y-65490000D03*
%TD*%
D16*
%TO.C,M7*%
X120650000Y-133350000D03*
X140970000Y-133350000D03*
D17*
X127000000Y-140970000D03*
X129540000Y-140970000D03*
X132080000Y-140970000D03*
X137160000Y-140970000D03*
X134620000Y-140970000D03*
X129540000Y-128270000D03*
X127000000Y-128270000D03*
X132080000Y-128270000D03*
X134620000Y-128270000D03*
X137160000Y-128270000D03*
D18*
X124460000Y-128270000D03*
X124460000Y-140970000D03*
%TD*%
D15*
%TO.C,C2*%
X183570000Y-29495000D03*
X181070000Y-29495000D03*
%TD*%
D23*
%TO.C,D3*%
X104675000Y-62925000D03*
D24*
X104675000Y-65465000D03*
%TD*%
D23*
%TO.C,D1*%
X95225000Y-62925000D03*
D24*
X95225000Y-65465000D03*
%TD*%
D15*
%TO.C,R8*%
X117094000Y-27178000D03*
D14*
X124714000Y-27178000D03*
%TD*%
D16*
%TO.C,M4*%
X140970000Y-64770000D03*
X120650000Y-64770000D03*
D17*
X127000000Y-72390000D03*
X129540000Y-72390000D03*
X132080000Y-72390000D03*
X134620000Y-72390000D03*
X137160000Y-72390000D03*
X127000000Y-59690000D03*
X129540000Y-59690000D03*
X132080000Y-59690000D03*
X137160000Y-59690000D03*
X134620000Y-59690000D03*
D18*
X124460000Y-59690000D03*
X124460000Y-72390000D03*
%TD*%
D16*
%TO.C,M15*%
X176530000Y-133350000D03*
X196850000Y-133350000D03*
D17*
X182880000Y-140970000D03*
X185420000Y-140970000D03*
X187960000Y-140970000D03*
X190500000Y-140970000D03*
X193040000Y-140970000D03*
X185420000Y-128270000D03*
X182880000Y-128270000D03*
X187960000Y-128270000D03*
X190500000Y-128270000D03*
X193040000Y-128270000D03*
D18*
X180340000Y-128270000D03*
X180340000Y-140970000D03*
%TD*%
D15*
%TO.C,R2*%
X96050000Y-60150000D03*
D14*
X88430000Y-60150000D03*
%TD*%
D16*
%TO.C,M8*%
X148590000Y-64770000D03*
X168910000Y-64770000D03*
D17*
X157480000Y-72390000D03*
X154940000Y-72390000D03*
X160020000Y-72390000D03*
X165100000Y-72390000D03*
X162560000Y-72390000D03*
X157480000Y-59690000D03*
X154940000Y-59690000D03*
X160020000Y-59690000D03*
X165100000Y-59690000D03*
X162560000Y-59690000D03*
D18*
X152400000Y-59690000D03*
X152400000Y-72390000D03*
%TD*%
D15*
%TO.C,C4*%
X106700000Y-23622000D03*
X109200000Y-23622000D03*
%TD*%
D16*
%TO.C,M6*%
X120650000Y-110490000D03*
X140970000Y-110490000D03*
D17*
X129540000Y-118110000D03*
X127000000Y-118110000D03*
X132080000Y-118110000D03*
X134620000Y-118110000D03*
X137160000Y-118110000D03*
X127000000Y-105410000D03*
X129540000Y-105410000D03*
X132080000Y-105410000D03*
X134620000Y-105410000D03*
X137160000Y-105410000D03*
D18*
X124460000Y-105410000D03*
X124460000Y-118110000D03*
%TD*%
D15*
%TO.C,C3*%
X198220000Y-29375000D03*
X195720000Y-29375000D03*
%TD*%
D16*
%TO.C,M11*%
X148590000Y-133344000D03*
X168910000Y-133344000D03*
D17*
X157480000Y-140964000D03*
X154940000Y-140964000D03*
X160020000Y-140964000D03*
X162560000Y-140964000D03*
X165100000Y-140964000D03*
X157480000Y-128264000D03*
X154940000Y-128264000D03*
X160020000Y-128264000D03*
X165100000Y-128264000D03*
X162560000Y-128264000D03*
D18*
X152400000Y-128264000D03*
X152400000Y-140964000D03*
%TD*%
D15*
%TO.C,R5*%
X124574000Y-20320000D03*
D14*
X116954000Y-20320000D03*
%TD*%
D15*
%TO.C,C1*%
X97536000Y-22098000D03*
X97536000Y-19598000D03*
%TD*%
%TO.C,R10*%
X132290000Y-23340000D03*
D14*
X139910000Y-23340000D03*
%TD*%
D25*
%TO.C,U6*%
X128370000Y-21430000D03*
D26*
X128370000Y-23970000D03*
X128370000Y-26510000D03*
%TD*%
D27*
%TO.C,H1*%
X199000000Y-22000000D03*
%TD*%
D16*
%TO.C,M3*%
X113030000Y-133350000D03*
X92710000Y-133350000D03*
D17*
X101600000Y-140970000D03*
X99060000Y-140970000D03*
X104140000Y-140970000D03*
X109220000Y-140970000D03*
X106680000Y-140970000D03*
X99060000Y-128270000D03*
X101600000Y-128270000D03*
X104140000Y-128270000D03*
X106680000Y-128270000D03*
X109220000Y-128270000D03*
D18*
X96520000Y-128270000D03*
X96520000Y-140970000D03*
%TD*%
D27*
%TO.C,H4*%
X90000000Y-148000000D03*
%TD*%
D15*
%TO.C,C5*%
X153270000Y-29980000D03*
X150770000Y-29980000D03*
%TD*%
%TO.C,R9*%
X117094000Y-23876000D03*
D14*
X124714000Y-23876000D03*
%TD*%
D27*
%TO.C,H3*%
X198488000Y-148000000D03*
%TD*%
D15*
%TO.C,R3*%
X106040000Y-56950000D03*
D14*
X98420000Y-56950000D03*
%TD*%
D16*
%TO.C,M9*%
X148590000Y-87630000D03*
X168910000Y-87630000D03*
D17*
X157480000Y-95250000D03*
X154940000Y-95250000D03*
X160020000Y-95250000D03*
X162560000Y-95250000D03*
X165100000Y-95250000D03*
X154940000Y-82550000D03*
X157480000Y-82550000D03*
X160020000Y-82550000D03*
X165100000Y-82550000D03*
X162560000Y-82550000D03*
D18*
X152400000Y-82550000D03*
X152400000Y-95250000D03*
%TD*%
D16*
%TO.C,M1*%
X92710000Y-87630000D03*
X113030000Y-87630000D03*
D17*
X101600000Y-95250000D03*
X99060000Y-95250000D03*
X104140000Y-95250000D03*
X109220000Y-95250000D03*
X106680000Y-95250000D03*
X101600000Y-82550000D03*
X99060000Y-82550000D03*
X104140000Y-82550000D03*
X106680000Y-82550000D03*
X109220000Y-82550000D03*
D18*
X96520000Y-82550000D03*
X96520000Y-95250000D03*
%TD*%
D25*
%TO.C,Q1*%
X113792000Y-26670000D03*
D26*
X113792000Y-24130000D03*
X113792000Y-21590000D03*
%TD*%
D14*
%TO.C,U2*%
X153170000Y-33190000D03*
X153170000Y-35730000D03*
X153170000Y-38270000D03*
X153170000Y-40810000D03*
X153170000Y-43350000D03*
X153170000Y-45890000D03*
X153170000Y-48430000D03*
X145550000Y-48430000D03*
X145550000Y-45890000D03*
X145550000Y-43350000D03*
X145550000Y-40810000D03*
X145550000Y-38270000D03*
X145550000Y-35730000D03*
D13*
X145550000Y-33190000D03*
%TD*%
D27*
%TO.C,H2*%
X90000000Y-22000000D03*
%TD*%
D16*
%TO.C,M14*%
X196850000Y-110490000D03*
X176530000Y-110490000D03*
D17*
X185420000Y-118110000D03*
X182880000Y-118110000D03*
X187960000Y-118110000D03*
X193040000Y-118110000D03*
X190500000Y-118110000D03*
X182880000Y-105410000D03*
X185420000Y-105410000D03*
X187960000Y-105410000D03*
X190500000Y-105410000D03*
X193040000Y-105410000D03*
D18*
X180340000Y-105410000D03*
X180340000Y-118110000D03*
%TD*%
D13*
%TO.C,U4*%
X176400000Y-32725000D03*
D14*
X176400000Y-35265000D03*
X176400000Y-37805000D03*
X176400000Y-40345000D03*
X176400000Y-42885000D03*
X176400000Y-45425000D03*
X176400000Y-47965000D03*
X176400000Y-50505000D03*
X184020000Y-50505000D03*
X184020000Y-47965000D03*
X184020000Y-45425000D03*
X184020000Y-42885000D03*
X184020000Y-40345000D03*
X184020000Y-37805000D03*
X184020000Y-35265000D03*
X184020000Y-32725000D03*
%TD*%
D16*
%TO.C,M13*%
X196850000Y-87630000D03*
X176530000Y-87630000D03*
D17*
X182880000Y-95250000D03*
X185420000Y-95250000D03*
X187960000Y-95250000D03*
X190500000Y-95250000D03*
X193040000Y-95250000D03*
X185420000Y-82550000D03*
X182880000Y-82550000D03*
X187960000Y-82550000D03*
X190500000Y-82550000D03*
X193040000Y-82550000D03*
D18*
X180340000Y-82550000D03*
X180340000Y-95250000D03*
%TD*%
D16*
%TO.C,M5*%
X140970000Y-87630000D03*
X120650000Y-87630000D03*
D17*
X129540000Y-95250000D03*
X127000000Y-95250000D03*
X132080000Y-95250000D03*
X137160000Y-95250000D03*
X134620000Y-95250000D03*
X129540000Y-82550000D03*
X127000000Y-82550000D03*
X132080000Y-82550000D03*
X134620000Y-82550000D03*
X137160000Y-82550000D03*
D18*
X124460000Y-82550000D03*
X124460000Y-95250000D03*
%TD*%
M02*
