%TF.GenerationSoftware,KiCad,Pcbnew,(6.0.11)*%
%TF.CreationDate,2023-03-18T13:52:01-05:00*%
%TF.ProjectId,HIDPanel,48494450-616e-4656-9c2e-6b696361645f,rev?*%
%TF.SameCoordinates,Original*%
%TF.FileFunction,Copper,L2,Bot*%
%TF.FilePolarity,Positive*%
%FSLAX46Y46*%
G04 Gerber Fmt 4.6, Leading zero omitted, Abs format (unit mm)*
G04 Created by KiCad (PCBNEW (6.0.11)) date 2023-03-18 13:52:01*
%MOMM*%
%LPD*%
G01*
G04 APERTURE LIST*
%TA.AperFunction,ComponentPad*%
%ADD10R,1.600000X1.600000*%
%TD*%
%TA.AperFunction,ComponentPad*%
%ADD11O,1.600000X1.600000*%
%TD*%
%TA.AperFunction,ComponentPad*%
%ADD12C,1.600000*%
%TD*%
%TA.AperFunction,WasherPad*%
%ADD13C,3.500000*%
%TD*%
%TA.AperFunction,ComponentPad*%
%ADD14C,1.560000*%
%TD*%
%TA.AperFunction,ComponentPad*%
%ADD15C,1.524000*%
%TD*%
%TA.AperFunction,ComponentPad*%
%ADD16O,1.700000X1.700000*%
%TD*%
%TA.AperFunction,ComponentPad*%
%ADD17R,1.700000X1.700000*%
%TD*%
%TA.AperFunction,ComponentPad*%
%ADD18R,1.800000X1.800000*%
%TD*%
%TA.AperFunction,ComponentPad*%
%ADD19C,1.800000*%
%TD*%
%TA.AperFunction,ComponentPad*%
%ADD20R,1.500000X1.500000*%
%TD*%
%TA.AperFunction,ComponentPad*%
%ADD21C,1.500000*%
%TD*%
%TA.AperFunction,ViaPad*%
%ADD22C,0.800000*%
%TD*%
%TA.AperFunction,Conductor*%
%ADD23C,0.350000*%
%TD*%
G04 APERTURE END LIST*
D10*
%TO.P,U3,1,X4*%
%TO.N,M1A*%
X160930000Y-32655000D03*
D11*
%TO.P,U3,2,X6*%
%TO.N,M2A*%
X160930000Y-35195000D03*
%TO.P,U3,3,X*%
%TO.N,ADC0INP*%
X160930000Y-37735000D03*
%TO.P,U3,4,X7*%
%TO.N,M3A*%
X160930000Y-40275000D03*
%TO.P,U3,5,X5*%
%TO.N,M4A*%
X160930000Y-42815000D03*
%TO.P,U3,6,Inh*%
%TO.N,GND*%
X160930000Y-45355000D03*
%TO.P,U3,7,VEE*%
X160930000Y-47895000D03*
%TO.P,U3,8,VSS*%
X160930000Y-50435000D03*
%TO.P,U3,9,C*%
%TO.N,SEL2T*%
X168550000Y-50435000D03*
%TO.P,U3,10,B*%
%TO.N,SEL1T*%
X168550000Y-47895000D03*
%TO.P,U3,11,A*%
%TO.N,SEL0T*%
X168550000Y-45355000D03*
%TO.P,U3,12,X3*%
%TO.N,M5A*%
X168550000Y-42815000D03*
%TO.P,U3,13,X0*%
%TO.N,M6A*%
X168550000Y-40275000D03*
%TO.P,U3,14,X1*%
%TO.N,M7A*%
X168550000Y-37735000D03*
%TO.P,U3,15,X2*%
%TO.N,M8A*%
X168550000Y-35195000D03*
%TO.P,U3,16,VDD*%
%TO.N,+5V*%
X168550000Y-32655000D03*
%TD*%
D12*
%TO.P,R1,1*%
%TO.N,Net-(D1-Pad1)*%
X97100000Y-57000000D03*
D11*
%TO.P,R1,2*%
%TO.N,LED0*%
X89480000Y-57000000D03*
%TD*%
D12*
%TO.P,R6,1*%
%TO.N,+3.3V*%
X91460000Y-27400000D03*
D11*
%TO.P,R6,2*%
%TO.N,Net-(R6-Pad2)*%
X99080000Y-27400000D03*
%TD*%
D10*
%TO.P,U5,1,X4*%
%TO.N,M9A*%
X191710000Y-32655000D03*
D11*
%TO.P,U5,2,X6*%
%TO.N,M11A*%
X191710000Y-35195000D03*
%TO.P,U5,3,X*%
%TO.N,ADC2INP*%
X191710000Y-37735000D03*
%TO.P,U5,4,X7*%
%TO.N,SW2M13*%
X191710000Y-40275000D03*
%TO.P,U5,5,X5*%
%TO.N,M12A*%
X191710000Y-42815000D03*
%TO.P,U5,6,Inh*%
%TO.N,GND*%
X191710000Y-45355000D03*
%TO.P,U5,7,VEE*%
X191710000Y-47895000D03*
%TO.P,U5,8,VSS*%
X191710000Y-50435000D03*
%TO.P,U5,9,C*%
%TO.N,SEL2T*%
X199330000Y-50435000D03*
%TO.P,U5,10,B*%
%TO.N,SEL1T*%
X199330000Y-47895000D03*
%TO.P,U5,11,A*%
%TO.N,SEL0T*%
X199330000Y-45355000D03*
%TO.P,U5,12,X3*%
%TO.N,M13A*%
X199330000Y-42815000D03*
%TO.P,U5,13,X0*%
%TO.N,M14A*%
X199330000Y-40275000D03*
%TO.P,U5,14,X1*%
%TO.N,M15A*%
X199330000Y-37735000D03*
%TO.P,U5,15,X2*%
%TO.N,M10A*%
X199330000Y-35195000D03*
%TO.P,U5,16,VDD*%
%TO.N,+5V*%
X199330000Y-32655000D03*
%TD*%
D13*
%TO.P,M2,*%
%TO.N,*%
X92710000Y-110490000D03*
X113030000Y-110490000D03*
D14*
%TO.P,M2,1,GND*%
%TO.N,GND*%
X99060000Y-118110000D03*
X101600000Y-118110000D03*
%TO.P,M2,2,ACC*%
%TO.N,ACC*%
X104140000Y-118110000D03*
%TO.P,M2,3,VCC*%
%TO.N,+3.3V*%
X106680000Y-118110000D03*
X109220000Y-118110000D03*
%TO.P,M2,4,SW1*%
%TO.N,SW1M2*%
X101600000Y-105410000D03*
X99060000Y-105410000D03*
%TO.P,M2,5,ANG*%
%TO.N,M2A*%
X104140000Y-105410000D03*
%TO.P,M2,6,SW2*%
%TO.N,unconnected-(M2-Pad6)*%
X106680000Y-105410000D03*
X109220000Y-105410000D03*
D15*
%TO.P,M2,7,IN1*%
%TO.N,unconnected-(M2-Pad7)*%
X96520000Y-105410000D03*
%TO.P,M2,8,IN2*%
%TO.N,unconnected-(M2-Pad8)*%
X96520000Y-118110000D03*
%TD*%
D16*
%TO.P,U1,1,GPIO0*%
%TO.N,LED0*%
X88660000Y-50200000D03*
%TO.P,U1,2,GPIO1*%
%TO.N,LED1*%
X91200000Y-50200000D03*
D17*
%TO.P,U1,3,GND*%
%TO.N,GND*%
X93740000Y-50200000D03*
D16*
%TO.P,U1,4,GPIO2*%
%TO.N,LED2*%
X96280000Y-50200000D03*
%TO.P,U1,5,GPIO3*%
%TO.N,LED3*%
X98820000Y-50200000D03*
%TO.P,U1,6,GPIO4*%
%TO.N,Net-(J1-Pad2)*%
X101360000Y-50200000D03*
%TO.P,U1,7,GPIO5*%
%TO.N,SW1M1*%
X103900000Y-50200000D03*
D17*
%TO.P,U1,8,GND*%
%TO.N,GND*%
X106440000Y-50200000D03*
D16*
%TO.P,U1,9,GPIO6*%
%TO.N,SW1M2*%
X108980000Y-50200000D03*
%TO.P,U1,10,GPIO7*%
%TO.N,SW1M3*%
X111520000Y-50200000D03*
%TO.P,U1,11,GPIO8*%
%TO.N,SW1M5*%
X114060000Y-50200000D03*
%TO.P,U1,12,GPIO9*%
%TO.N,SW1M6*%
X116600000Y-50200000D03*
D17*
%TO.P,U1,13,GND*%
%TO.N,GND*%
X119140000Y-50200000D03*
D16*
%TO.P,U1,14,GPIO10*%
%TO.N,SW1M7*%
X121680000Y-50200000D03*
%TO.P,U1,15,GPIO11*%
%TO.N,SW1M4*%
X124220000Y-50200000D03*
%TO.P,U1,16,GPIO12*%
%TO.N,SW1M9*%
X126760000Y-50200000D03*
%TO.P,U1,17,GPIO13*%
%TO.N,SW1M10*%
X129300000Y-50200000D03*
D17*
%TO.P,U1,18,GND*%
%TO.N,GND*%
X131840000Y-50200000D03*
D16*
%TO.P,U1,19,GPIO14*%
%TO.N,SW1M11*%
X134380000Y-50200000D03*
%TO.P,U1,20,GPIO15*%
%TO.N,SW1M8*%
X136920000Y-50200000D03*
%TO.P,U1,21,GPIO16*%
%TO.N,SW1M12*%
X136920000Y-32420000D03*
%TO.P,U1,22,GPIO17*%
%TO.N,SW1M15*%
X134380000Y-32420000D03*
D17*
%TO.P,U1,23,GND*%
%TO.N,GND*%
X131840000Y-32420000D03*
D16*
%TO.P,U1,24,GPIO18*%
%TO.N,SW1M14*%
X129300000Y-32420000D03*
%TO.P,U1,25,GPIO19*%
%TO.N,SW1M13*%
X126760000Y-32420000D03*
%TO.P,U1,26,GPIO20*%
%TO.N,SEL0*%
X124220000Y-32420000D03*
%TO.P,U1,27,GPIO21*%
%TO.N,SEL1*%
X121680000Y-32420000D03*
D17*
%TO.P,U1,28,GND*%
%TO.N,GND*%
X119140000Y-32420000D03*
D16*
%TO.P,U1,29,GPIO22*%
%TO.N,SEL2*%
X116600000Y-32420000D03*
%TO.P,U1,30,RUN*%
%TO.N,Net-(R6-Pad2)*%
X114060000Y-32420000D03*
%TO.P,U1,31,GPIO26_ADC0*%
%TO.N,ADC0INP*%
X111520000Y-32420000D03*
%TO.P,U1,32,GPIO27_ADC1*%
%TO.N,ADC1INP*%
X108980000Y-32420000D03*
D17*
%TO.P,U1,33,AGND*%
%TO.N,GND*%
X106440000Y-32420000D03*
D16*
%TO.P,U1,34,GPIO28_ADC2*%
%TO.N,ADC2INP*%
X103900000Y-32420000D03*
%TO.P,U1,35,ADC_VREF*%
%TO.N,ACC*%
X101360000Y-32420000D03*
%TO.P,U1,36,3V3*%
%TO.N,+3.3V*%
X98820000Y-32420000D03*
%TO.P,U1,37,3V3_EN*%
%TO.N,Net-(R5-Pad2)*%
X96280000Y-32420000D03*
D17*
%TO.P,U1,38,GND*%
%TO.N,GND*%
X93740000Y-32420000D03*
D16*
%TO.P,U1,39,VSYS*%
%TO.N,Net-(R5-Pad1)*%
X91200000Y-32420000D03*
%TO.P,U1,40,VBUS*%
%TO.N,+5V*%
X88660000Y-32420000D03*
%TO.P,U1,41,SWCLK*%
%TO.N,unconnected-(U1-Pad41)*%
X136690000Y-43850000D03*
D17*
%TO.P,U1,42,GND*%
%TO.N,GND*%
X136690000Y-41310000D03*
D16*
%TO.P,U1,43,SWDIO*%
%TO.N,unconnected-(U1-Pad43)*%
X136690000Y-38770000D03*
%TD*%
D13*
%TO.P,M12,*%
%TO.N,*%
X196850000Y-64770000D03*
X176530000Y-64770000D03*
D14*
%TO.P,M12,1,GND*%
%TO.N,GND*%
X182880000Y-72390000D03*
X185420000Y-72390000D03*
%TO.P,M12,2,ACC*%
%TO.N,ACC*%
X187960000Y-72390000D03*
%TO.P,M12,3,VCC*%
%TO.N,+3.3V*%
X193040000Y-72390000D03*
X190500000Y-72390000D03*
%TO.P,M12,4,SW1*%
%TO.N,SW1M12*%
X185420000Y-59690000D03*
X182880000Y-59690000D03*
%TO.P,M12,5,ANG*%
%TO.N,M12A*%
X187960000Y-59690000D03*
%TO.P,M12,6,SW2*%
%TO.N,SW2M12*%
X190500000Y-59690000D03*
X193040000Y-59690000D03*
D15*
%TO.P,M12,7,IN1*%
%TO.N,unconnected-(M12-Pad7)*%
X180340000Y-59690000D03*
%TO.P,M12,8,IN2*%
%TO.N,unconnected-(M12-Pad8)*%
X180340000Y-72390000D03*
%TD*%
D12*
%TO.P,C6,1*%
%TO.N,+5V*%
X167970000Y-29455000D03*
%TO.P,C6,2*%
%TO.N,GND*%
X165470000Y-29455000D03*
%TD*%
D13*
%TO.P,M10,*%
%TO.N,*%
X148590000Y-110490000D03*
X168910000Y-110490000D03*
D14*
%TO.P,M10,1,GND*%
%TO.N,GND*%
X154940000Y-118110000D03*
X157480000Y-118110000D03*
%TO.P,M10,2,ACC*%
%TO.N,ACC*%
X160020000Y-118110000D03*
%TO.P,M10,3,VCC*%
%TO.N,+3.3V*%
X165100000Y-118110000D03*
X162560000Y-118110000D03*
%TO.P,M10,4,SW1*%
%TO.N,SW1M10*%
X157480000Y-105410000D03*
X154940000Y-105410000D03*
%TO.P,M10,5,ANG*%
%TO.N,M10A*%
X160020000Y-105410000D03*
%TO.P,M10,6,SW2*%
%TO.N,SW2M10*%
X162560000Y-105410000D03*
X165100000Y-105410000D03*
D15*
%TO.P,M10,7,IN1*%
%TO.N,unconnected-(M10-Pad7)*%
X152400000Y-105410000D03*
%TO.P,M10,8,IN2*%
%TO.N,unconnected-(M10-Pad8)*%
X152400000Y-118110000D03*
%TD*%
D12*
%TO.P,R7,1*%
%TO.N,Net-(J1-Pad2)*%
X101000000Y-70250000D03*
D11*
%TO.P,R7,2*%
%TO.N,+3.3V*%
X93380000Y-70250000D03*
%TD*%
D12*
%TO.P,R4,1*%
%TO.N,Net-(D4-Pad1)*%
X107200000Y-60110000D03*
D11*
%TO.P,R4,2*%
%TO.N,LED3*%
X99580000Y-60110000D03*
%TD*%
D18*
%TO.P,D4,1,K*%
%TO.N,Net-(D4-Pad1)*%
X109450000Y-62925000D03*
D19*
%TO.P,D4,2,A*%
%TO.N,+3.3V*%
X109450000Y-65465000D03*
%TD*%
D18*
%TO.P,D2,1,K*%
%TO.N,Net-(D2-Pad1)*%
X99950000Y-62950000D03*
D19*
%TO.P,D2,2,A*%
%TO.N,+3.3V*%
X99950000Y-65490000D03*
%TD*%
D13*
%TO.P,M7,*%
%TO.N,*%
X120650000Y-133350000D03*
X140970000Y-133350000D03*
D14*
%TO.P,M7,1,GND*%
%TO.N,GND*%
X127000000Y-140970000D03*
X129540000Y-140970000D03*
%TO.P,M7,2,ACC*%
%TO.N,ACC*%
X132080000Y-140970000D03*
%TO.P,M7,3,VCC*%
%TO.N,+3.3V*%
X137160000Y-140970000D03*
X134620000Y-140970000D03*
%TO.P,M7,4,SW1*%
%TO.N,SW1M5*%
X129540000Y-128270000D03*
X127000000Y-128270000D03*
%TO.P,M7,5,ANG*%
%TO.N,M5A*%
X132080000Y-128270000D03*
%TO.P,M7,6,SW2*%
%TO.N,unconnected-(M7-Pad6)*%
X134620000Y-128270000D03*
X137160000Y-128270000D03*
D15*
%TO.P,M7,7,IN1*%
%TO.N,unconnected-(M7-Pad7)*%
X124460000Y-128270000D03*
%TO.P,M7,8,IN2*%
%TO.N,unconnected-(M7-Pad8)*%
X124460000Y-140970000D03*
%TD*%
D12*
%TO.P,C2,1*%
%TO.N,+5V*%
X183570000Y-29495000D03*
%TO.P,C2,2*%
%TO.N,GND*%
X181070000Y-29495000D03*
%TD*%
D18*
%TO.P,D3,1,K*%
%TO.N,Net-(D3-Pad1)*%
X104675000Y-62925000D03*
D19*
%TO.P,D3,2,A*%
%TO.N,+3.3V*%
X104675000Y-65465000D03*
%TD*%
D18*
%TO.P,D1,1,K*%
%TO.N,Net-(D1-Pad1)*%
X95225000Y-62925000D03*
D19*
%TO.P,D1,2,A*%
%TO.N,+3.3V*%
X95225000Y-65465000D03*
%TD*%
D12*
%TO.P,R8,1*%
%TO.N,+5V*%
X117094000Y-27178000D03*
D11*
%TO.P,R8,2*%
%TO.N,Net-(Q1-Pad2)*%
X124714000Y-27178000D03*
%TD*%
D13*
%TO.P,M4,*%
%TO.N,*%
X140970000Y-64770000D03*
X120650000Y-64770000D03*
D14*
%TO.P,M4,1,GND*%
%TO.N,GND*%
X127000000Y-72390000D03*
X129540000Y-72390000D03*
%TO.P,M4,2,ACC*%
%TO.N,ACC*%
X132080000Y-72390000D03*
%TO.P,M4,3,VCC*%
%TO.N,+3.3V*%
X134620000Y-72390000D03*
X137160000Y-72390000D03*
%TO.P,M4,4,SW1*%
%TO.N,SW1M4*%
X127000000Y-59690000D03*
X129540000Y-59690000D03*
%TO.P,M4,5,ANG*%
%TO.N,M4A*%
X132080000Y-59690000D03*
%TO.P,M4,6,SW2*%
%TO.N,SW2M4*%
X137160000Y-59690000D03*
X134620000Y-59690000D03*
D15*
%TO.P,M4,7,IN1*%
%TO.N,unconnected-(M4-Pad7)*%
X124460000Y-59690000D03*
%TO.P,M4,8,IN2*%
%TO.N,unconnected-(M4-Pad8)*%
X124460000Y-72390000D03*
%TD*%
D13*
%TO.P,M15,*%
%TO.N,*%
X176530000Y-133350000D03*
X196850000Y-133350000D03*
D14*
%TO.P,M15,1,GND*%
%TO.N,GND*%
X182880000Y-140970000D03*
X185420000Y-140970000D03*
%TO.P,M15,2,ACC*%
%TO.N,ACC*%
X187960000Y-140970000D03*
%TO.P,M15,3,VCC*%
%TO.N,+3.3V*%
X190500000Y-140970000D03*
X193040000Y-140970000D03*
%TO.P,M15,4,SW1*%
%TO.N,SW1M13*%
X185420000Y-128270000D03*
X182880000Y-128270000D03*
%TO.P,M15,5,ANG*%
%TO.N,M13A*%
X187960000Y-128270000D03*
%TO.P,M15,6,SW2*%
%TO.N,SW2M13*%
X190500000Y-128270000D03*
X193040000Y-128270000D03*
D15*
%TO.P,M15,7,IN1*%
%TO.N,unconnected-(M15-Pad7)*%
X180340000Y-128270000D03*
%TO.P,M15,8,IN2*%
%TO.N,unconnected-(M15-Pad8)*%
X180340000Y-140970000D03*
%TD*%
D12*
%TO.P,R2,1*%
%TO.N,Net-(D2-Pad1)*%
X97100000Y-60100000D03*
D11*
%TO.P,R2,2*%
%TO.N,LED1*%
X89480000Y-60100000D03*
%TD*%
D13*
%TO.P,M8,*%
%TO.N,*%
X148590000Y-64770000D03*
X168910000Y-64770000D03*
D14*
%TO.P,M8,1,GND*%
%TO.N,GND*%
X157480000Y-72390000D03*
X154940000Y-72390000D03*
%TO.P,M8,2,ACC*%
%TO.N,ACC*%
X160020000Y-72390000D03*
%TO.P,M8,3,VCC*%
%TO.N,+3.3V*%
X165100000Y-72390000D03*
X162560000Y-72390000D03*
%TO.P,M8,4,SW1*%
%TO.N,SW1M8*%
X157480000Y-59690000D03*
X154940000Y-59690000D03*
%TO.P,M8,5,ANG*%
%TO.N,M8A*%
X160020000Y-59690000D03*
%TO.P,M8,6,SW2*%
%TO.N,SW2M8*%
X165100000Y-59690000D03*
X162560000Y-59690000D03*
D15*
%TO.P,M8,7,IN1*%
%TO.N,unconnected-(M8-Pad7)*%
X152400000Y-59690000D03*
%TO.P,M8,8,IN2*%
%TO.N,unconnected-(M8-Pad8)*%
X152400000Y-72390000D03*
%TD*%
D12*
%TO.P,C4,1*%
%TO.N,ACC*%
X106700000Y-23622000D03*
%TO.P,C4,2*%
%TO.N,GND*%
X109200000Y-23622000D03*
%TD*%
D13*
%TO.P,M6,*%
%TO.N,*%
X120650000Y-110490000D03*
X140970000Y-110490000D03*
D14*
%TO.P,M6,1,GND*%
%TO.N,GND*%
X129540000Y-118110000D03*
X127000000Y-118110000D03*
%TO.P,M6,2,ACC*%
%TO.N,ACC*%
X132080000Y-118110000D03*
%TO.P,M6,3,VCC*%
%TO.N,+3.3V*%
X134620000Y-118110000D03*
X137160000Y-118110000D03*
%TO.P,M6,4,SW1*%
%TO.N,SW1M6*%
X127000000Y-105410000D03*
X129540000Y-105410000D03*
%TO.P,M6,5,ANG*%
%TO.N,M6A*%
X132080000Y-105410000D03*
%TO.P,M6,6,SW2*%
%TO.N,unconnected-(M6-Pad6)*%
X134620000Y-105410000D03*
X137160000Y-105410000D03*
D15*
%TO.P,M6,7,IN1*%
%TO.N,unconnected-(M6-Pad7)*%
X124460000Y-105410000D03*
%TO.P,M6,8,IN2*%
%TO.N,unconnected-(M6-Pad8)*%
X124460000Y-118110000D03*
%TD*%
D12*
%TO.P,C3,1*%
%TO.N,+5V*%
X198220000Y-29375000D03*
%TO.P,C3,2*%
%TO.N,GND*%
X195720000Y-29375000D03*
%TD*%
D13*
%TO.P,M11,*%
%TO.N,*%
X148590000Y-133344000D03*
X168910000Y-133344000D03*
D14*
%TO.P,M11,1,GND*%
%TO.N,GND*%
X157480000Y-140964000D03*
X154940000Y-140964000D03*
%TO.P,M11,2,ACC*%
%TO.N,ACC*%
X160020000Y-140964000D03*
%TO.P,M11,3,VCC*%
%TO.N,+3.3V*%
X162560000Y-140964000D03*
X165100000Y-140964000D03*
%TO.P,M11,4,SW1*%
%TO.N,SW1M9*%
X157480000Y-128264000D03*
X154940000Y-128264000D03*
%TO.P,M11,5,ANG*%
%TO.N,M9A*%
X160020000Y-128264000D03*
%TO.P,M11,6,SW2*%
%TO.N,SW2M9*%
X165100000Y-128264000D03*
X162560000Y-128264000D03*
D15*
%TO.P,M11,7,IN1*%
%TO.N,unconnected-(M11-Pad7)*%
X152400000Y-128264000D03*
%TO.P,M11,8,IN2*%
%TO.N,unconnected-(M11-Pad8)*%
X152400000Y-140964000D03*
%TD*%
D12*
%TO.P,R5,1*%
%TO.N,Net-(R5-Pad1)*%
X124574000Y-20320000D03*
D11*
%TO.P,R5,2*%
%TO.N,Net-(R5-Pad2)*%
X116954000Y-20320000D03*
%TD*%
D12*
%TO.P,C1,1*%
%TO.N,+5V*%
X97536000Y-22098000D03*
%TO.P,C1,2*%
%TO.N,GND*%
X97536000Y-19598000D03*
%TD*%
%TO.P,R10,1*%
%TO.N,Net-(R10-Pad1)*%
X132290000Y-23340000D03*
D11*
%TO.P,R10,2*%
%TO.N,GND*%
X139910000Y-23340000D03*
%TD*%
D20*
%TO.P,U6,1,REF*%
%TO.N,Net-(R10-Pad1)*%
X128370000Y-21430000D03*
D21*
%TO.P,U6,2,A*%
%TO.N,GND*%
X128370000Y-23970000D03*
%TO.P,U6,3,K*%
%TO.N,Net-(Q1-Pad2)*%
X128370000Y-26510000D03*
%TD*%
D13*
%TO.P,M3,*%
%TO.N,*%
X113030000Y-133350000D03*
X92710000Y-133350000D03*
D14*
%TO.P,M3,1,GND*%
%TO.N,GND*%
X101600000Y-140970000D03*
X99060000Y-140970000D03*
%TO.P,M3,2,ACC*%
%TO.N,ACC*%
X104140000Y-140970000D03*
%TO.P,M3,3,VCC*%
%TO.N,+3.3V*%
X109220000Y-140970000D03*
X106680000Y-140970000D03*
%TO.P,M3,4,SW1*%
%TO.N,SW1M1*%
X99060000Y-128270000D03*
X101600000Y-128270000D03*
%TO.P,M3,5,ANG*%
%TO.N,M1A*%
X104140000Y-128270000D03*
%TO.P,M3,6,SW2*%
%TO.N,unconnected-(M3-Pad6)*%
X106680000Y-128270000D03*
X109220000Y-128270000D03*
D15*
%TO.P,M3,7,IN1*%
%TO.N,unconnected-(M3-Pad7)*%
X96520000Y-128270000D03*
%TO.P,M3,8,IN2*%
%TO.N,unconnected-(M3-Pad8)*%
X96520000Y-140970000D03*
%TD*%
D12*
%TO.P,C5,1*%
%TO.N,+5V*%
X153270000Y-29980000D03*
%TO.P,C5,2*%
%TO.N,GND*%
X150770000Y-29980000D03*
%TD*%
%TO.P,R9,1*%
%TO.N,ACC*%
X117094000Y-23876000D03*
D11*
%TO.P,R9,2*%
%TO.N,Net-(R10-Pad1)*%
X124714000Y-23876000D03*
%TD*%
D12*
%TO.P,R3,1*%
%TO.N,Net-(D3-Pad1)*%
X107200000Y-57000000D03*
D11*
%TO.P,R3,2*%
%TO.N,LED2*%
X99580000Y-57000000D03*
%TD*%
D13*
%TO.P,M9,*%
%TO.N,*%
X148590000Y-87630000D03*
X168910000Y-87630000D03*
D14*
%TO.P,M9,1,GND*%
%TO.N,GND*%
X157480000Y-95250000D03*
X154940000Y-95250000D03*
%TO.P,M9,2,ACC*%
%TO.N,ACC*%
X160020000Y-95250000D03*
%TO.P,M9,3,VCC*%
%TO.N,+3.3V*%
X162560000Y-95250000D03*
X165100000Y-95250000D03*
%TO.P,M9,4,SW1*%
%TO.N,SW1M11*%
X154940000Y-82550000D03*
X157480000Y-82550000D03*
%TO.P,M9,5,ANG*%
%TO.N,M11A*%
X160020000Y-82550000D03*
%TO.P,M9,6,SW2*%
%TO.N,SW2M11*%
X165100000Y-82550000D03*
X162560000Y-82550000D03*
D15*
%TO.P,M9,7,IN1*%
%TO.N,unconnected-(M9-Pad7)*%
X152400000Y-82550000D03*
%TO.P,M9,8,IN2*%
%TO.N,unconnected-(M9-Pad8)*%
X152400000Y-95250000D03*
%TD*%
D13*
%TO.P,M1,*%
%TO.N,*%
X92710000Y-87630000D03*
X113030000Y-87630000D03*
D14*
%TO.P,M1,1,GND*%
%TO.N,GND*%
X101600000Y-95250000D03*
X99060000Y-95250000D03*
%TO.P,M1,2,ACC*%
%TO.N,ACC*%
X104140000Y-95250000D03*
%TO.P,M1,3,VCC*%
%TO.N,+3.3V*%
X109220000Y-95250000D03*
X106680000Y-95250000D03*
%TO.P,M1,4,SW1*%
%TO.N,SW1M3*%
X101600000Y-82550000D03*
X99060000Y-82550000D03*
%TO.P,M1,5,ANG*%
%TO.N,M3A*%
X104140000Y-82550000D03*
%TO.P,M1,6,SW2*%
%TO.N,unconnected-(M1-Pad6)*%
X106680000Y-82550000D03*
X109220000Y-82550000D03*
D15*
%TO.P,M1,7,IN1*%
%TO.N,unconnected-(M1-Pad7)*%
X96520000Y-82550000D03*
%TO.P,M1,8,IN2*%
%TO.N,unconnected-(M1-Pad8)*%
X96520000Y-95250000D03*
%TD*%
D20*
%TO.P,Q1,1,E*%
%TO.N,ACC*%
X113792000Y-26670000D03*
D21*
%TO.P,Q1,2,B*%
%TO.N,Net-(Q1-Pad2)*%
X113792000Y-24130000D03*
%TO.P,Q1,3,C*%
%TO.N,+5V*%
X113792000Y-21590000D03*
%TD*%
D17*
%TO.P,J1,1,Pin_1*%
%TO.N,GND*%
X90400000Y-69100000D03*
D16*
%TO.P,J1,2,Pin_2*%
%TO.N,Net-(J1-Pad2)*%
X90400000Y-71640000D03*
%TD*%
D10*
%TO.P,U2,1*%
%TO.N,SEL0*%
X145550000Y-33190000D03*
D11*
%TO.P,U2,2*%
%TO.N,Net-(U2-Pad10)*%
X145550000Y-35730000D03*
%TO.P,U2,3*%
%TO.N,SEL0T*%
X145550000Y-38270000D03*
%TO.P,U2,4*%
%TO.N,SEL1*%
X145550000Y-40810000D03*
%TO.P,U2,5*%
%TO.N,Net-(U2-Pad10)*%
X145550000Y-43350000D03*
%TO.P,U2,6*%
%TO.N,SEL1T*%
X145550000Y-45890000D03*
%TO.P,U2,7,GND*%
%TO.N,GND*%
X145550000Y-48430000D03*
%TO.P,U2,8*%
%TO.N,SEL2T*%
X153170000Y-48430000D03*
%TO.P,U2,9*%
%TO.N,SEL2*%
X153170000Y-45890000D03*
%TO.P,U2,10*%
%TO.N,Net-(U2-Pad10)*%
X153170000Y-43350000D03*
%TO.P,U2,11*%
%TO.N,unconnected-(U2-Pad11)*%
X153170000Y-40810000D03*
%TO.P,U2,12*%
%TO.N,GND*%
X153170000Y-38270000D03*
%TO.P,U2,13*%
X153170000Y-35730000D03*
%TO.P,U2,14,VCC*%
%TO.N,+5V*%
X153170000Y-33190000D03*
%TD*%
D13*
%TO.P,M14,*%
%TO.N,*%
X196850000Y-110490000D03*
X176530000Y-110490000D03*
D14*
%TO.P,M14,1,GND*%
%TO.N,GND*%
X185420000Y-118110000D03*
X182880000Y-118110000D03*
%TO.P,M14,2,ACC*%
%TO.N,ACC*%
X187960000Y-118110000D03*
%TO.P,M14,3,VCC*%
%TO.N,+3.3V*%
X193040000Y-118110000D03*
X190500000Y-118110000D03*
%TO.P,M14,4,SW1*%
%TO.N,SW1M14*%
X182880000Y-105410000D03*
X185420000Y-105410000D03*
%TO.P,M14,5,ANG*%
%TO.N,M14A*%
X187960000Y-105410000D03*
%TO.P,M14,6,SW2*%
%TO.N,SW2M14*%
X190500000Y-105410000D03*
X193040000Y-105410000D03*
D15*
%TO.P,M14,7,IN1*%
%TO.N,unconnected-(M14-Pad7)*%
X180340000Y-105410000D03*
%TO.P,M14,8,IN2*%
%TO.N,unconnected-(M14-Pad8)*%
X180340000Y-118110000D03*
%TD*%
D10*
%TO.P,U4,1,X4*%
%TO.N,SW2M4*%
X176400000Y-32725000D03*
D11*
%TO.P,U4,2,X6*%
%TO.N,SW2M8*%
X176400000Y-35265000D03*
%TO.P,U4,3,X*%
%TO.N,ADC1INP*%
X176400000Y-37805000D03*
%TO.P,U4,4,X7*%
%TO.N,SW2M11*%
X176400000Y-40345000D03*
%TO.P,U4,5,X5*%
%TO.N,SW2M10*%
X176400000Y-42885000D03*
%TO.P,U4,6,Inh*%
%TO.N,GND*%
X176400000Y-45425000D03*
%TO.P,U4,7,VEE*%
X176400000Y-47965000D03*
%TO.P,U4,8,VSS*%
X176400000Y-50505000D03*
%TO.P,U4,9,C*%
%TO.N,SEL2T*%
X184020000Y-50505000D03*
%TO.P,U4,10,B*%
%TO.N,SEL1T*%
X184020000Y-47965000D03*
%TO.P,U4,11,A*%
%TO.N,SEL0T*%
X184020000Y-45425000D03*
%TO.P,U4,12,X3*%
%TO.N,SW2M12*%
X184020000Y-42885000D03*
%TO.P,U4,13,X0*%
%TO.N,SW2M15*%
X184020000Y-40345000D03*
%TO.P,U4,14,X1*%
%TO.N,SW2M14*%
X184020000Y-37805000D03*
%TO.P,U4,15,X2*%
%TO.N,SW2M9*%
X184020000Y-35265000D03*
%TO.P,U4,16,VDD*%
%TO.N,+5V*%
X184020000Y-32725000D03*
%TD*%
D13*
%TO.P,M13,*%
%TO.N,*%
X196850000Y-87630000D03*
X176530000Y-87630000D03*
D14*
%TO.P,M13,1,GND*%
%TO.N,GND*%
X182880000Y-95250000D03*
X185420000Y-95250000D03*
%TO.P,M13,2,ACC*%
%TO.N,ACC*%
X187960000Y-95250000D03*
%TO.P,M13,3,VCC*%
%TO.N,+3.3V*%
X190500000Y-95250000D03*
X193040000Y-95250000D03*
%TO.P,M13,4,SW1*%
%TO.N,SW1M15*%
X185420000Y-82550000D03*
X182880000Y-82550000D03*
%TO.P,M13,5,ANG*%
%TO.N,M15A*%
X187960000Y-82550000D03*
%TO.P,M13,6,SW2*%
%TO.N,SW2M15*%
X190500000Y-82550000D03*
X193040000Y-82550000D03*
D15*
%TO.P,M13,7,IN1*%
%TO.N,unconnected-(M13-Pad7)*%
X180340000Y-82550000D03*
%TO.P,M13,8,IN2*%
%TO.N,unconnected-(M13-Pad8)*%
X180340000Y-95250000D03*
%TD*%
D13*
%TO.P,M5,*%
%TO.N,*%
X140970000Y-87630000D03*
X120650000Y-87630000D03*
D14*
%TO.P,M5,1,GND*%
%TO.N,GND*%
X129540000Y-95250000D03*
X127000000Y-95250000D03*
%TO.P,M5,2,ACC*%
%TO.N,ACC*%
X132080000Y-95250000D03*
%TO.P,M5,3,VCC*%
%TO.N,+3.3V*%
X137160000Y-95250000D03*
X134620000Y-95250000D03*
%TO.P,M5,4,SW1*%
%TO.N,SW1M7*%
X129540000Y-82550000D03*
X127000000Y-82550000D03*
%TO.P,M5,5,ANG*%
%TO.N,M7A*%
X132080000Y-82550000D03*
%TO.P,M5,6,SW2*%
%TO.N,unconnected-(M5-Pad6)*%
X134620000Y-82550000D03*
X137160000Y-82550000D03*
D15*
%TO.P,M5,7,IN1*%
%TO.N,unconnected-(M5-Pad7)*%
X124460000Y-82550000D03*
%TO.P,M5,8,IN2*%
%TO.N,unconnected-(M5-Pad8)*%
X124460000Y-95250000D03*
%TD*%
D22*
%TO.N,+5V*%
X147500000Y-22475000D03*
X181780000Y-22720000D03*
X166580000Y-22480000D03*
X151454500Y-26504500D03*
X193100000Y-24600000D03*
X103124000Y-22098000D03*
%TO.N,+3.3V*%
X114000000Y-70200000D03*
X94067345Y-139358655D03*
%TO.N,ADC2INP*%
X193300000Y-36570000D03*
X191300000Y-24505000D03*
%TO.N,ADC1INP*%
X177260000Y-28815000D03*
X172380000Y-24345000D03*
%TO.N,ADC0INP*%
X159500000Y-28660000D03*
X156575000Y-25300000D03*
%TO.N,SEL0T*%
X171464500Y-29425000D03*
X188310000Y-28585000D03*
X188290000Y-25700500D03*
X171530000Y-25700500D03*
%TO.N,SEL1T*%
X170870000Y-28615000D03*
X187020000Y-26970500D03*
X170540000Y-26975000D03*
X187040000Y-28555000D03*
%TO.N,ACC*%
X159740000Y-121440000D03*
X132600000Y-76500000D03*
X158990000Y-98560000D03*
X104090000Y-98560000D03*
X102300000Y-121510000D03*
X187340000Y-76060000D03*
X88392000Y-96040000D03*
X160500000Y-74874500D03*
X131250000Y-121440000D03*
X187710000Y-121220000D03*
X89430000Y-116790000D03*
X88392000Y-92964000D03*
X130890000Y-98570000D03*
X88670000Y-124210000D03*
%TO.N,M1A*%
X89330000Y-97610000D03*
X88646000Y-91694000D03*
X89780000Y-123540000D03*
X113600000Y-72200000D03*
X116905000Y-71105000D03*
X90760000Y-116820000D03*
%TO.N,M2A*%
X117785000Y-71985000D03*
X89674500Y-98806000D03*
X89970000Y-91240000D03*
X114600000Y-73100000D03*
%TO.N,M3A*%
X118872750Y-72900000D03*
X115400000Y-74000000D03*
%TO.N,M5A*%
X142510000Y-100570000D03*
X143500000Y-117200000D03*
X170750000Y-71520000D03*
X143530000Y-124670000D03*
X143500000Y-92770000D03*
X168905000Y-77665000D03*
%TO.N,M6A*%
X141150000Y-100220000D03*
X141760000Y-92770000D03*
X169310000Y-71520000D03*
X168760000Y-76510000D03*
%TO.N,M7A*%
X167580000Y-75880000D03*
X168150000Y-71570000D03*
%TO.N,M9A*%
X200730000Y-104340000D03*
X199445500Y-76520000D03*
X200640000Y-80840000D03*
X199850000Y-102350000D03*
%TO.N,M10A*%
X198800000Y-102900000D03*
X199610000Y-105180000D03*
X198970000Y-78670000D03*
X199270000Y-81620000D03*
%TO.N,M11A*%
X198284345Y-79920345D03*
X198374000Y-82296000D03*
%TO.N,SW1M1*%
X116425000Y-75325000D03*
X110770000Y-59730000D03*
X90970000Y-123350000D03*
X91480000Y-91653984D03*
X104275000Y-75400000D03*
X108750000Y-75350000D03*
X89916000Y-105918000D03*
X90678000Y-99314000D03*
X90932000Y-104140000D03*
X91810000Y-115640000D03*
%TO.N,SW1M2*%
X117825000Y-76175000D03*
X103237500Y-76662500D03*
X91706500Y-100943500D03*
X112850000Y-65800000D03*
X91706500Y-93540000D03*
X107175000Y-76725000D03*
%TO.N,SW1M3*%
X119050000Y-77150000D03*
X114300000Y-66200000D03*
%TO.N,SW1M4*%
X124180000Y-56680000D03*
%TO.N,SW1M5*%
X120940000Y-58480000D03*
X116190000Y-100330000D03*
X116230000Y-93480000D03*
X116760000Y-116800000D03*
X125690000Y-78470000D03*
X116870000Y-122840000D03*
%TO.N,SW1M6*%
X128150000Y-73520000D03*
X117520000Y-101180000D03*
X126930000Y-67270000D03*
X128150000Y-78790000D03*
X117580000Y-92110000D03*
X121970000Y-58140000D03*
%TO.N,SW1M7*%
X127670000Y-66260000D03*
X130440000Y-78750000D03*
X130840000Y-73620000D03*
X122960000Y-57600000D03*
%TO.N,SW1M8*%
X151360000Y-54480000D03*
%TO.N,SW1M9*%
X125960000Y-56720000D03*
X130790000Y-58550000D03*
X144200000Y-93880000D03*
X144940000Y-116910000D03*
X144785000Y-123325000D03*
X146400000Y-79800000D03*
X144380000Y-70950000D03*
X143840000Y-99840000D03*
%TO.N,SW1M10*%
X144120000Y-59270000D03*
X147500000Y-78900000D03*
X145600000Y-100460000D03*
X145722636Y-93341190D03*
X145900000Y-70830000D03*
X143110000Y-55090000D03*
%TO.N,SW1M11*%
X148800000Y-78600000D03*
X145650000Y-59490000D03*
X147380000Y-70960000D03*
X144645000Y-54785000D03*
%TO.N,SW1M12*%
X162440000Y-56840000D03*
X167720000Y-57020000D03*
X155970000Y-57740000D03*
X176350000Y-57700000D03*
X152760000Y-54180000D03*
X135200000Y-37470000D03*
%TO.N,SW1M13*%
X171200000Y-101400000D03*
X172370000Y-114790000D03*
X148870000Y-71040000D03*
X147400000Y-54390000D03*
X126800000Y-37680000D03*
X147400000Y-59320000D03*
X170270000Y-93200000D03*
X173940000Y-124800000D03*
X150400000Y-78600000D03*
%TO.N,SW1M14*%
X129300000Y-37790000D03*
X170960000Y-92090000D03*
X148840000Y-59010000D03*
X153710000Y-78910000D03*
X148520000Y-54370000D03*
X172660000Y-101050000D03*
X153750000Y-73710000D03*
%TO.N,SW1M15*%
X149840000Y-54070000D03*
X150360000Y-59130000D03*
X156510000Y-78670000D03*
X133690000Y-37800000D03*
X156230000Y-73730000D03*
%TO.N,SW2M13*%
X199355000Y-107155000D03*
X197790000Y-103620000D03*
X191600000Y-124070000D03*
X197090000Y-80550000D03*
X198670000Y-83750000D03*
%TO.N,SW2M14*%
X184050000Y-74080000D03*
X184040000Y-93620000D03*
X185130000Y-100700000D03*
X184050000Y-78210000D03*
%TO.N,SW2M9*%
X173940000Y-123270000D03*
X173780000Y-93160000D03*
X173890000Y-114740000D03*
X181730000Y-74060000D03*
X181300000Y-78780000D03*
X174040000Y-102590000D03*
%TO.N,SW2M8*%
X169150000Y-56925500D03*
%TO.N,SW2M10*%
X171550000Y-77520000D03*
X173960000Y-71195500D03*
X169970000Y-91120000D03*
X169190000Y-101090000D03*
%TO.N,SW2M11*%
X175350000Y-70090000D03*
X170290000Y-78950000D03*
%TO.N,Net-(R6-Pad2)*%
X102970000Y-27940000D03*
%TO.N,SW2M4*%
X143330000Y-60660000D03*
X170280000Y-56155500D03*
%TO.N,Net-(U2-Pad10)*%
X146520000Y-28890000D03*
%TD*%
D23*
%TO.N,+3.3V*%
X89200000Y-27400000D02*
X91460000Y-27400000D01*
X86868000Y-38608000D02*
X86868000Y-29732000D01*
X86868000Y-29732000D02*
X89200000Y-27400000D01*
%TO.N,SEL0T*%
X198555000Y-45355000D02*
X199330000Y-45355000D01*
X198370000Y-52685000D02*
X197430000Y-51745000D01*
X202400000Y-51665000D02*
X201380000Y-52685000D01*
X202400000Y-28800000D02*
X202400000Y-51665000D01*
X197430000Y-46480000D02*
X198555000Y-45355000D01*
X199085000Y-25485000D02*
X202400000Y-28800000D01*
X201380000Y-52685000D02*
X198370000Y-52685000D01*
X197430000Y-51745000D02*
X197430000Y-46480000D01*
X188160000Y-25485000D02*
X199085000Y-25485000D01*
%TO.N,SEL1T*%
X198860000Y-52125000D02*
X197980000Y-51245000D01*
X197980000Y-51245000D02*
X197980000Y-49245000D01*
X197980000Y-49245000D02*
X199330000Y-47895000D01*
X200920000Y-52125000D02*
X198860000Y-52125000D01*
X201700000Y-51345000D02*
X200920000Y-52125000D01*
X198975000Y-26475000D02*
X201700000Y-29200000D01*
X187010000Y-26475000D02*
X198975000Y-26475000D01*
X201700000Y-29200000D02*
X201700000Y-51345000D01*
%TO.N,SEL2T*%
X199270000Y-27745000D02*
X185310000Y-27745000D01*
X185310000Y-27745000D02*
X185290000Y-27765000D01*
X201000000Y-48765000D02*
X201000000Y-29475000D01*
X199330000Y-50435000D02*
X201000000Y-48765000D01*
X201000000Y-29475000D02*
X199270000Y-27745000D01*
%TO.N,ADC2INP*%
X175305000Y-24505000D02*
X191300000Y-24505000D01*
X174200000Y-23400000D02*
X175305000Y-24505000D01*
X142780000Y-23400000D02*
X174200000Y-23400000D01*
X136870000Y-29310000D02*
X142780000Y-23400000D01*
X103900000Y-31392000D02*
X105982000Y-29310000D01*
X103900000Y-32420000D02*
X103900000Y-31392000D01*
X105982000Y-29310000D02*
X136870000Y-29310000D01*
%TO.N,+5V*%
X191220000Y-22720000D02*
X181780000Y-22720000D01*
X193100000Y-24600000D02*
X191220000Y-22720000D01*
X184020000Y-29945000D02*
X183570000Y-29495000D01*
X168550000Y-30035000D02*
X167970000Y-29455000D01*
X117094000Y-27178000D02*
X119358000Y-27178000D01*
X120840000Y-28660000D02*
X130200000Y-28660000D01*
X88660000Y-32420000D02*
X88660000Y-30740000D01*
X126970000Y-20110000D02*
X124982000Y-22098000D01*
X141955000Y-22475000D02*
X139590000Y-20110000D01*
X153170000Y-30080000D02*
X153270000Y-29980000D01*
X166580000Y-22480000D02*
X181540000Y-22480000D01*
X97536000Y-23364000D02*
X97536000Y-22098000D01*
X199330000Y-32655000D02*
X199330000Y-30485000D01*
X114300000Y-22098000D02*
X124982000Y-22098000D01*
X113284000Y-21082000D02*
X113792000Y-21590000D01*
X103124000Y-22098000D02*
X104140000Y-21082000D01*
X88660000Y-30740000D02*
X90238000Y-29162000D01*
X119358000Y-27178000D02*
X120840000Y-28660000D01*
X134830000Y-20110000D02*
X126970000Y-20110000D01*
X168550000Y-32655000D02*
X168550000Y-30035000D01*
X199330000Y-30485000D02*
X198220000Y-29375000D01*
X153270000Y-27570000D02*
X153270000Y-29980000D01*
X149055000Y-22475000D02*
X149060000Y-22480000D01*
X91738000Y-29162000D02*
X97536000Y-23364000D01*
X147500000Y-22475000D02*
X141955000Y-22475000D01*
X184020000Y-32725000D02*
X184020000Y-29945000D01*
X153270000Y-30140000D02*
X153270000Y-29980000D01*
X113792000Y-21590000D02*
X114300000Y-22098000D01*
X149060000Y-22480000D02*
X166580000Y-22480000D01*
X139590000Y-20110000D02*
X134830000Y-20110000D01*
X181540000Y-22480000D02*
X181780000Y-22720000D01*
X152204500Y-26504500D02*
X153270000Y-27570000D01*
X130200000Y-28660000D02*
X134830000Y-24030000D01*
X90238000Y-29162000D02*
X91738000Y-29162000D01*
X147500000Y-22475000D02*
X149055000Y-22475000D01*
X153170000Y-33190000D02*
X153170000Y-30080000D01*
X104140000Y-21082000D02*
X113284000Y-21082000D01*
X151454500Y-26504500D02*
X152204500Y-26504500D01*
X134830000Y-24030000D02*
X134830000Y-20110000D01*
%TO.N,Net-(D1-Pad1)*%
X95225000Y-62925000D02*
X95100000Y-62800000D01*
X95920000Y-57000000D02*
X97100000Y-57000000D01*
X95100000Y-57820000D02*
X95920000Y-57000000D01*
X95100000Y-62800000D02*
X95100000Y-57820000D01*
%TO.N,+3.3V*%
X137160000Y-140970000D02*
X134620000Y-140970000D01*
X103220000Y-120810000D02*
X105950000Y-120810000D01*
X87122000Y-133752000D02*
X87122000Y-123338000D01*
X190500000Y-120690000D02*
X190500000Y-118110000D01*
X87122000Y-122928000D02*
X89260000Y-120790000D01*
X158200000Y-74600000D02*
X158700000Y-74100000D01*
X94067345Y-139358655D02*
X92728655Y-139358655D01*
X160280000Y-138684000D02*
X188214000Y-138684000D01*
X165100000Y-73900000D02*
X165300000Y-74100000D01*
X165100000Y-140964000D02*
X162560000Y-140964000D01*
X165100000Y-118110000D02*
X162560000Y-118110000D01*
X134620000Y-73670000D02*
X134245000Y-74045000D01*
X134620000Y-140716000D02*
X134620000Y-140970000D01*
X95320000Y-65560000D02*
X95225000Y-65465000D01*
X98820000Y-32880000D02*
X98820000Y-32420000D01*
X134620000Y-72390000D02*
X134620000Y-73670000D01*
X134180000Y-97580000D02*
X134330000Y-97730000D01*
X132842000Y-138938000D02*
X133350000Y-139446000D01*
X162560000Y-96600000D02*
X161430000Y-97730000D01*
X134800000Y-74600000D02*
X158200000Y-74600000D01*
X87122000Y-123338000D02*
X87122000Y-122928000D01*
X137160000Y-72390000D02*
X134620000Y-72390000D01*
X86868000Y-94852000D02*
X89222000Y-94852000D01*
X86868000Y-62768000D02*
X86868000Y-94852000D01*
X134070000Y-97690000D02*
X134180000Y-97580000D01*
X119530000Y-75030000D02*
X133260000Y-75030000D01*
X99880000Y-65560000D02*
X95320000Y-65560000D01*
X134620000Y-118110000D02*
X134620000Y-120280000D01*
X114000000Y-70200000D02*
X114700000Y-70200000D01*
X94065000Y-65465000D02*
X95225000Y-65465000D01*
X162560000Y-95250000D02*
X162560000Y-96600000D01*
X130640000Y-120420000D02*
X131940000Y-120420000D01*
X86868000Y-38608000D02*
X86868000Y-36622000D01*
X134330000Y-97730000D02*
X161430000Y-97730000D01*
X86868000Y-62768000D02*
X86868000Y-38608000D01*
X169820000Y-75010000D02*
X174230000Y-75010000D01*
X109450000Y-65465000D02*
X109355000Y-65560000D01*
X162560000Y-120440000D02*
X162140000Y-120860000D01*
X134620000Y-120280000D02*
X134130000Y-120770000D01*
X94800000Y-65840000D02*
X94800000Y-68830000D01*
X106210000Y-97690000D02*
X134070000Y-97690000D01*
X106680000Y-95250000D02*
X106680000Y-97220000D01*
X133350000Y-139446000D02*
X134112000Y-138684000D01*
X111252000Y-138938000D02*
X132842000Y-138938000D01*
X131940000Y-120420000D02*
X132290000Y-120770000D01*
X86868000Y-95144000D02*
X87122000Y-95398000D01*
X105950000Y-120810000D02*
X130250000Y-120810000D01*
X165300000Y-74100000D02*
X165600000Y-74100000D01*
X174880000Y-75610000D02*
X186280000Y-75610000D01*
X103000000Y-97810000D02*
X103250000Y-97560000D01*
X103250000Y-97560000D02*
X105470000Y-97560000D01*
X161430000Y-97730000D02*
X163280000Y-99580000D01*
X160400000Y-120240000D02*
X160990000Y-120830000D01*
X186710000Y-120280000D02*
X188240000Y-120280000D01*
X160280000Y-138684000D02*
X162560000Y-140964000D01*
X188350000Y-75010000D02*
X188780000Y-75440000D01*
X162560000Y-118110000D02*
X162560000Y-120440000D01*
X109220000Y-140970000D02*
X111252000Y-138938000D01*
X87122000Y-133752000D02*
X92728655Y-139358655D01*
X165600000Y-74100000D02*
X165700000Y-74200000D01*
X186170000Y-99580000D02*
X190500000Y-95250000D01*
X169010000Y-74200000D02*
X169820000Y-75010000D01*
X162140000Y-120860000D02*
X186130000Y-120860000D01*
X134245000Y-74045000D02*
X133260000Y-75030000D01*
X159070000Y-120240000D02*
X160400000Y-120240000D01*
X165100000Y-72390000D02*
X162560000Y-72390000D01*
X174290000Y-74950000D02*
X174880000Y-75540000D01*
X105600000Y-97690000D02*
X106210000Y-97690000D01*
X134620000Y-95250000D02*
X134620000Y-97140000D01*
X160990000Y-120830000D02*
X160990000Y-120860000D01*
X101460000Y-120600000D02*
X103010000Y-120600000D01*
X160990000Y-120860000D02*
X162140000Y-120860000D01*
X188970000Y-121010000D02*
X190180000Y-121010000D01*
X130250000Y-120810000D02*
X130640000Y-120420000D01*
X109220000Y-118110000D02*
X106680000Y-118110000D01*
X95225000Y-65465000D02*
X94425000Y-65465000D01*
X106680000Y-120080000D02*
X105950000Y-120810000D01*
X163280000Y-99580000D02*
X186170000Y-99580000D01*
X104770000Y-65560000D02*
X104675000Y-65465000D01*
X94800000Y-68830000D02*
X93380000Y-70250000D01*
X134245000Y-74045000D02*
X134800000Y-74600000D01*
X137160000Y-95250000D02*
X134620000Y-95250000D01*
X186130000Y-120860000D02*
X186710000Y-120280000D01*
X188214000Y-138684000D02*
X190500000Y-140970000D01*
X174230000Y-75010000D02*
X174290000Y-74950000D01*
X165700000Y-74200000D02*
X169010000Y-74200000D01*
X133350000Y-139446000D02*
X134620000Y-140716000D01*
X105490000Y-97580000D02*
X105600000Y-97690000D01*
X193040000Y-140970000D02*
X190500000Y-140970000D01*
X158700000Y-74100000D02*
X165300000Y-74100000D01*
X109355000Y-65560000D02*
X104770000Y-65560000D01*
X94425000Y-65465000D02*
X94800000Y-65840000D01*
X174880000Y-75540000D02*
X174880000Y-75610000D01*
X134112000Y-138684000D02*
X160280000Y-138684000D01*
X193040000Y-95250000D02*
X190500000Y-95250000D01*
X106680000Y-118110000D02*
X106680000Y-120080000D01*
X158540000Y-120770000D02*
X159070000Y-120240000D01*
X134130000Y-120770000D02*
X158540000Y-120770000D01*
X89260000Y-120790000D02*
X101270000Y-120790000D01*
X101270000Y-120790000D02*
X101460000Y-120600000D01*
X134620000Y-97140000D02*
X134180000Y-97580000D01*
X188240000Y-120280000D02*
X188970000Y-121010000D01*
X165100000Y-72390000D02*
X165100000Y-73900000D01*
X96140000Y-35560000D02*
X98820000Y-32880000D01*
X189400000Y-75440000D02*
X190500000Y-74340000D01*
X190180000Y-121010000D02*
X190500000Y-120690000D01*
X86868000Y-62768000D02*
X91368000Y-62768000D01*
X103010000Y-120600000D02*
X103220000Y-120810000D01*
X87122000Y-95398000D02*
X87122000Y-123338000D01*
X89222000Y-94852000D02*
X92180000Y-97810000D01*
X190500000Y-74340000D02*
X190500000Y-72390000D01*
X132290000Y-120770000D02*
X134130000Y-120770000D01*
X186880000Y-75010000D02*
X188350000Y-75010000D01*
X99950000Y-65490000D02*
X99880000Y-65560000D01*
X91368000Y-62768000D02*
X94065000Y-65465000D01*
X188780000Y-75440000D02*
X189400000Y-75440000D01*
X105470000Y-97560000D02*
X105490000Y-97580000D01*
X193040000Y-118110000D02*
X190500000Y-118110000D01*
X165100000Y-95250000D02*
X162560000Y-95250000D01*
X87930000Y-35560000D02*
X96140000Y-35560000D01*
X86868000Y-94852000D02*
X86868000Y-95144000D01*
X92180000Y-97810000D02*
X103000000Y-97810000D01*
X114700000Y-70200000D02*
X119530000Y-75030000D01*
X86868000Y-36622000D02*
X87930000Y-35560000D01*
X109220000Y-95250000D02*
X106680000Y-95250000D01*
X137160000Y-118110000D02*
X134620000Y-118110000D01*
X106680000Y-97220000D02*
X106210000Y-97690000D01*
X186280000Y-75610000D02*
X186880000Y-75010000D01*
%TO.N,Net-(D2-Pad1)*%
X97100000Y-61800000D02*
X98500000Y-63200000D01*
X99700000Y-63200000D02*
X99950000Y-62950000D01*
X97100000Y-60100000D02*
X97100000Y-61800000D01*
X98500000Y-63200000D02*
X99700000Y-63200000D01*
%TO.N,Net-(D3-Pad1)*%
X105040000Y-57000000D02*
X107200000Y-57000000D01*
X104600000Y-62850000D02*
X104600000Y-57440000D01*
X104675000Y-62925000D02*
X104600000Y-62850000D01*
X104600000Y-57440000D02*
X105040000Y-57000000D01*
%TO.N,Net-(D4-Pad1)*%
X107200000Y-60800000D02*
X109325000Y-62925000D01*
X107200000Y-60110000D02*
X107200000Y-60800000D01*
X109325000Y-62925000D02*
X109450000Y-62925000D01*
%TO.N,Net-(J1-Pad2)*%
X95100000Y-72200000D02*
X97050000Y-70250000D01*
X102650000Y-66525000D02*
X102650000Y-53410000D01*
X90960000Y-72200000D02*
X95100000Y-72200000D01*
X102650000Y-53410000D02*
X101346000Y-52106000D01*
X101000000Y-68175000D02*
X102650000Y-66525000D01*
X101346000Y-52106000D02*
X101346000Y-50214000D01*
X97050000Y-70250000D02*
X101000000Y-70250000D01*
X101000000Y-70250000D02*
X101000000Y-68175000D01*
X101346000Y-50214000D02*
X101360000Y-50200000D01*
X90400000Y-71640000D02*
X90960000Y-72200000D01*
%TO.N,LED0*%
X88660000Y-50200000D02*
X89500000Y-51040000D01*
X89500000Y-56980000D02*
X89480000Y-57000000D01*
X89500000Y-51040000D02*
X89500000Y-56980000D01*
%TO.N,LED1*%
X91200000Y-50200000D02*
X91186000Y-50214000D01*
X91186000Y-58214000D02*
X89480000Y-59920000D01*
X91186000Y-50214000D02*
X91186000Y-58214000D01*
X89480000Y-59920000D02*
X89480000Y-60100000D01*
%TO.N,LED2*%
X96290000Y-50990000D02*
X99280000Y-53980000D01*
X99280000Y-53980000D02*
X99280000Y-56700000D01*
X96280000Y-50200000D02*
X96290000Y-50210000D01*
X96290000Y-50210000D02*
X96290000Y-50990000D01*
X99280000Y-56700000D02*
X99580000Y-57000000D01*
%TO.N,LED3*%
X101200000Y-53000000D02*
X101200000Y-58400000D01*
X99580000Y-60020000D02*
X99580000Y-60110000D01*
X101200000Y-58400000D02*
X99580000Y-60020000D01*
X98820000Y-50200000D02*
X98820000Y-50620000D01*
X98820000Y-50620000D02*
X101200000Y-53000000D01*
%TO.N,ADC2INP*%
X193300000Y-36570000D02*
X192135000Y-37735000D01*
X192135000Y-37735000D02*
X191710000Y-37735000D01*
%TO.N,ADC1INP*%
X142855000Y-24345000D02*
X137110000Y-30090000D01*
X177910000Y-36295000D02*
X177910000Y-29465000D01*
X137110000Y-30090000D02*
X109760000Y-30090000D01*
X172380000Y-24345000D02*
X142855000Y-24345000D01*
X176400000Y-37805000D02*
X177910000Y-36295000D01*
X109760000Y-30090000D02*
X108980000Y-30870000D01*
X108980000Y-30870000D02*
X108980000Y-32420000D01*
X177910000Y-29465000D02*
X177260000Y-28815000D01*
%TO.N,ADC0INP*%
X156325000Y-25050000D02*
X143340000Y-25050000D01*
X162610000Y-36055000D02*
X160930000Y-37735000D01*
X143340000Y-25050000D02*
X137530000Y-30860000D01*
X162610000Y-31320000D02*
X162610000Y-36055000D01*
X137530000Y-30860000D02*
X112100000Y-30860000D01*
X111520000Y-31440000D02*
X111520000Y-32420000D01*
X112100000Y-30860000D02*
X111520000Y-31440000D01*
X156575000Y-25300000D02*
X156325000Y-25050000D01*
X159950000Y-28660000D02*
X162610000Y-31320000D01*
X159500000Y-28660000D02*
X159950000Y-28660000D01*
%TO.N,SEL2*%
X116600000Y-32420000D02*
X116600000Y-34304000D01*
X139636000Y-36576000D02*
X142840000Y-39780000D01*
X149130000Y-49930000D02*
X153170000Y-45890000D01*
X142840000Y-49270000D02*
X143500000Y-49930000D01*
X116600000Y-34304000D02*
X118872000Y-36576000D01*
X143500000Y-49930000D02*
X149130000Y-49930000D01*
X142840000Y-39780000D02*
X142840000Y-49270000D01*
X118872000Y-36576000D02*
X139636000Y-36576000D01*
%TO.N,SEL1*%
X144880000Y-40810000D02*
X139884000Y-35814000D01*
X121680000Y-33542000D02*
X121680000Y-32420000D01*
X123952000Y-35814000D02*
X121680000Y-33542000D01*
X145550000Y-40810000D02*
X144880000Y-40810000D01*
X139884000Y-35814000D02*
X123952000Y-35814000D01*
%TO.N,SEL0*%
X126412000Y-35052000D02*
X124220000Y-32860000D01*
X145550000Y-33190000D02*
X143688000Y-35052000D01*
X143688000Y-35052000D02*
X126412000Y-35052000D01*
X124220000Y-32860000D02*
X124220000Y-32420000D01*
%TO.N,SEL0T*%
X171410000Y-29479500D02*
X171410000Y-51365000D01*
X171350000Y-25485000D02*
X188160000Y-25485000D01*
X147420000Y-36400000D02*
X145550000Y-38270000D01*
X182990000Y-52555000D02*
X182160000Y-51725000D01*
X167250000Y-52675000D02*
X166410000Y-51835000D01*
X147450000Y-36400000D02*
X147420000Y-36400000D01*
X188160000Y-25485000D02*
X188160000Y-25570500D01*
X188160000Y-25570500D02*
X188290000Y-25700500D01*
X171464500Y-29425000D02*
X171410000Y-29479500D01*
X186660000Y-30235000D02*
X186660000Y-50935000D01*
X182160000Y-51725000D02*
X182160000Y-47515000D01*
X155180000Y-28465000D02*
X158160000Y-25485000D01*
X158160000Y-25485000D02*
X171350000Y-25485000D01*
X171410000Y-51365000D02*
X170100000Y-52675000D01*
X155180000Y-33280000D02*
X153980000Y-34480000D01*
X166410000Y-51835000D02*
X166410000Y-46820000D01*
X171350000Y-25485000D02*
X171350000Y-25520500D01*
X153980000Y-34480000D02*
X149370000Y-34480000D01*
X182160000Y-47515000D02*
X184020000Y-45655000D01*
X185040000Y-52555000D02*
X182990000Y-52555000D01*
X170100000Y-52675000D02*
X167250000Y-52675000D01*
X171350000Y-25520500D02*
X171530000Y-25700500D01*
X188310000Y-28585000D02*
X186660000Y-30235000D01*
X167875000Y-45355000D02*
X168550000Y-45355000D01*
X155180000Y-28465000D02*
X155180000Y-33280000D01*
X184020000Y-45655000D02*
X184020000Y-45425000D01*
X186660000Y-50935000D02*
X185040000Y-52555000D01*
X166410000Y-46820000D02*
X167875000Y-45355000D01*
X149370000Y-34480000D02*
X147450000Y-36400000D01*
%TO.N,SEL1T*%
X170870000Y-28615000D02*
X170690000Y-28795000D01*
X170520000Y-26475000D02*
X187010000Y-26475000D01*
X170690000Y-28795000D02*
X170690000Y-51035000D01*
X167100000Y-51435000D02*
X167100000Y-49345000D01*
X154670000Y-44130000D02*
X154190000Y-44610000D01*
X149670000Y-45890000D02*
X145550000Y-45890000D01*
X170520000Y-26955000D02*
X170540000Y-26975000D01*
X184020000Y-48075000D02*
X184020000Y-47965000D01*
X167670000Y-52005000D02*
X167100000Y-51435000D01*
X187010000Y-26960500D02*
X187020000Y-26970500D01*
X186030000Y-50585000D02*
X184690000Y-51925000D01*
X170520000Y-26475000D02*
X170520000Y-26955000D01*
X184690000Y-51925000D02*
X183360000Y-51925000D01*
X158370000Y-26475000D02*
X155800000Y-29045000D01*
X170690000Y-51035000D02*
X169720000Y-52005000D01*
X169720000Y-52005000D02*
X167670000Y-52005000D01*
X187010000Y-26475000D02*
X187010000Y-26960500D01*
X154190000Y-44610000D02*
X150950000Y-44610000D01*
X154670000Y-36080000D02*
X154670000Y-44130000D01*
X187040000Y-28555000D02*
X186030000Y-29565000D01*
X182770000Y-51335000D02*
X182770000Y-49325000D01*
X186030000Y-29565000D02*
X186030000Y-50585000D01*
X182770000Y-49325000D02*
X184020000Y-48075000D01*
X155800000Y-29045000D02*
X155800000Y-34950000D01*
X167100000Y-49345000D02*
X168550000Y-47895000D01*
X170520000Y-26475000D02*
X158370000Y-26475000D01*
X183360000Y-51925000D02*
X182770000Y-51335000D01*
X155800000Y-34950000D02*
X154670000Y-36080000D01*
X150950000Y-44610000D02*
X149670000Y-45890000D01*
%TO.N,SEL2T*%
X185390000Y-49135000D02*
X184020000Y-50505000D01*
X169960000Y-27765000D02*
X169960000Y-49025000D01*
X155540000Y-46060000D02*
X153170000Y-48430000D01*
X158650000Y-27765000D02*
X156350000Y-30065000D01*
X156350000Y-40230000D02*
X155540000Y-41040000D01*
X169960000Y-27765000D02*
X158650000Y-27765000D01*
X155540000Y-41040000D02*
X155540000Y-46060000D01*
X169960000Y-49025000D02*
X168550000Y-50435000D01*
X185390000Y-27865000D02*
X185390000Y-49135000D01*
X169960000Y-27765000D02*
X185290000Y-27765000D01*
X156350000Y-30065000D02*
X156350000Y-40230000D01*
X185390000Y-27865000D02*
X185290000Y-27765000D01*
%TO.N,Net-(R10-Pad1)*%
X125260000Y-23330000D02*
X124714000Y-23876000D01*
X126470000Y-23330000D02*
X125260000Y-23330000D01*
X131620000Y-23340000D02*
X131610000Y-23330000D01*
X131610000Y-23330000D02*
X130270000Y-23330000D01*
X132290000Y-23340000D02*
X131620000Y-23340000D01*
X130270000Y-23330000D02*
X128370000Y-21430000D01*
X128370000Y-21430000D02*
X126470000Y-23330000D01*
%TO.N,ACC*%
X108850000Y-56250000D02*
X108850000Y-59450000D01*
X101360000Y-32420000D02*
X101346000Y-32434000D01*
X101360000Y-32420000D02*
X101490000Y-32290000D01*
X160500000Y-74874500D02*
X160525500Y-74900000D01*
X104090000Y-98560000D02*
X130880000Y-98560000D01*
X170870000Y-98580000D02*
X185690000Y-98580000D01*
X111070000Y-22050000D02*
X111890000Y-22870000D01*
X168480000Y-74900000D02*
X169430000Y-75850000D01*
X93980000Y-137668000D02*
X94996000Y-138684000D01*
X185690000Y-98580000D02*
X187960000Y-96310000D01*
X87630000Y-92202000D02*
X87630000Y-81770000D01*
X173720000Y-75850000D02*
X174390000Y-76520000D01*
X89900000Y-121510000D02*
X102300000Y-121510000D01*
X160500000Y-74874500D02*
X160074500Y-75300000D01*
X131250000Y-121440000D02*
X159740000Y-121440000D01*
X132000000Y-75900000D02*
X119200000Y-75900000D01*
X108850000Y-59450000D02*
X111800000Y-62400000D01*
X94996000Y-142376000D02*
X95750000Y-143130000D01*
X160525500Y-74900000D02*
X168480000Y-74900000D01*
X109100000Y-71200000D02*
X108100000Y-72200000D01*
X102488000Y-143130000D02*
X128396000Y-143130000D01*
X159740000Y-121440000D02*
X187490000Y-121440000D01*
X91948000Y-137668000D02*
X93980000Y-137668000D01*
X111800000Y-68500000D02*
X108100000Y-72200000D01*
X104308000Y-23622000D02*
X106700000Y-23622000D01*
X87630000Y-81770000D02*
X97200000Y-72200000D01*
X94996000Y-138684000D02*
X94996000Y-142376000D01*
X103250000Y-143130000D02*
X104140000Y-142240000D01*
X131180000Y-121510000D02*
X102300000Y-121510000D01*
X95750000Y-143130000D02*
X102488000Y-143130000D01*
X131250000Y-121440000D02*
X131180000Y-121510000D01*
X87884000Y-115244000D02*
X87884000Y-96548000D01*
X158980000Y-98570000D02*
X158990000Y-98560000D01*
X111800000Y-62400000D02*
X111800000Y-68500000D01*
X89430000Y-116790000D02*
X87884000Y-115244000D01*
X87884000Y-96548000D02*
X88392000Y-96040000D01*
X101346000Y-37338000D02*
X102616000Y-38608000D01*
X187490000Y-121440000D02*
X187710000Y-121220000D01*
X134900000Y-75300000D02*
X133700000Y-76500000D01*
X156846000Y-143130000D02*
X185800000Y-143130000D01*
X88670000Y-122740000D02*
X89900000Y-121510000D01*
X187960000Y-96310000D02*
X187960000Y-95250000D01*
X157854000Y-143130000D02*
X160020000Y-140964000D01*
X128396000Y-143130000D02*
X156846000Y-143130000D01*
X106180000Y-53580000D02*
X108850000Y-56250000D01*
X133700000Y-76500000D02*
X132600000Y-76500000D01*
X104140000Y-142240000D02*
X104140000Y-140970000D01*
X103940000Y-53580000D02*
X106180000Y-53580000D01*
X88670000Y-124210000D02*
X88670000Y-134390000D01*
X88670000Y-124210000D02*
X88670000Y-122740000D01*
X186880000Y-76520000D02*
X187340000Y-76060000D01*
X102150000Y-28840000D02*
X102150000Y-25780000D01*
X101346000Y-32434000D02*
X101346000Y-37338000D01*
X130890000Y-98570000D02*
X158980000Y-98570000D01*
X102150000Y-25780000D02*
X104308000Y-23622000D01*
X109008000Y-25930000D02*
X106700000Y-23622000D01*
X104060000Y-98590000D02*
X91820000Y-98590000D01*
X109008000Y-25930000D02*
X113052000Y-25930000D01*
X88670000Y-134390000D02*
X91948000Y-137668000D01*
X129920000Y-143130000D02*
X132080000Y-140970000D01*
X102488000Y-143130000D02*
X103250000Y-143130000D01*
X101490000Y-29500000D02*
X102150000Y-28840000D01*
X114760000Y-22870000D02*
X115766000Y-23876000D01*
X106700000Y-23622000D02*
X108272000Y-22050000D01*
X108272000Y-22050000D02*
X111070000Y-22050000D01*
X130880000Y-98560000D02*
X130890000Y-98570000D01*
X161830000Y-93440000D02*
X165730000Y-93440000D01*
X114500000Y-71200000D02*
X109100000Y-71200000D01*
X132600000Y-76500000D02*
X132000000Y-75900000D01*
X111890000Y-22870000D02*
X114760000Y-22870000D01*
X89270000Y-96040000D02*
X88392000Y-96040000D01*
X185800000Y-143130000D02*
X187960000Y-140970000D01*
X174390000Y-76520000D02*
X186880000Y-76520000D01*
X119200000Y-75900000D02*
X114500000Y-71200000D01*
X160074500Y-75300000D02*
X134900000Y-75300000D01*
X102616000Y-38608000D02*
X102616000Y-52256000D01*
X165730000Y-93440000D02*
X170870000Y-98580000D01*
X91820000Y-98590000D02*
X89270000Y-96040000D01*
X156846000Y-143130000D02*
X157854000Y-143130000D01*
X160020000Y-95250000D02*
X161830000Y-93440000D01*
X101490000Y-32290000D02*
X101490000Y-29500000D01*
X115766000Y-23876000D02*
X117094000Y-23876000D01*
X88392000Y-92964000D02*
X87630000Y-92202000D01*
X169430000Y-75850000D02*
X173720000Y-75850000D01*
X102616000Y-52256000D02*
X103940000Y-53580000D01*
X128396000Y-143130000D02*
X129920000Y-143130000D01*
X113052000Y-25930000D02*
X113792000Y-26670000D01*
X97200000Y-72200000D02*
X108100000Y-72200000D01*
X104090000Y-98560000D02*
X104060000Y-98590000D01*
%TO.N,M1A*%
X156360000Y-52174000D02*
X156360000Y-42360000D01*
X126170000Y-57710000D02*
X127870000Y-56010000D01*
X158590000Y-40130000D02*
X158590000Y-34995000D01*
X88900000Y-114960000D02*
X88900000Y-98040000D01*
X88392000Y-82083000D02*
X88392000Y-91440000D01*
X88392000Y-91440000D02*
X88646000Y-91694000D01*
X94890000Y-130490000D02*
X103190000Y-130490000D01*
X97575000Y-72900000D02*
X88392000Y-82083000D01*
X112900000Y-72900000D02*
X97575000Y-72900000D01*
X90760000Y-116820000D02*
X88900000Y-114960000D01*
X152524000Y-56010000D02*
X156360000Y-52174000D01*
X89780000Y-123540000D02*
X89780000Y-125380000D01*
X124150000Y-57710000D02*
X126170000Y-57710000D01*
X89780000Y-125380000D02*
X94890000Y-130490000D01*
X116905000Y-71105000D02*
X116905000Y-64955000D01*
X113600000Y-72200000D02*
X112900000Y-72900000D01*
X88900000Y-98040000D02*
X89330000Y-97610000D01*
X156360000Y-42360000D02*
X158590000Y-40130000D01*
X116905000Y-64955000D02*
X124150000Y-57710000D01*
X127870000Y-56010000D02*
X152524000Y-56010000D01*
X158590000Y-34995000D02*
X160930000Y-32655000D01*
X103190000Y-130490000D02*
X104140000Y-129540000D01*
X104140000Y-129540000D02*
X104140000Y-128270000D01*
%TO.N,M2A*%
X153020000Y-56630000D02*
X157180000Y-52470000D01*
X89030000Y-90300000D02*
X89970000Y-91240000D01*
X128180000Y-56630000D02*
X153020000Y-56630000D01*
X114000000Y-73700000D02*
X97850000Y-73700000D01*
X114600000Y-73100000D02*
X114000000Y-73700000D01*
X97850000Y-73700000D02*
X89030000Y-82520000D01*
X117785000Y-71985000D02*
X125630000Y-64140000D01*
X125630000Y-59180000D02*
X128180000Y-56630000D01*
X157180000Y-42930000D02*
X159280000Y-40830000D01*
X157180000Y-52470000D02*
X157180000Y-42930000D01*
X89674500Y-98806000D02*
X89662000Y-98818500D01*
X125630000Y-64140000D02*
X125630000Y-59180000D01*
X102640000Y-106910000D02*
X104140000Y-105410000D01*
X159280000Y-40830000D02*
X159280000Y-36845000D01*
X92460000Y-106910000D02*
X102640000Y-106910000D01*
X89030000Y-82520000D02*
X89030000Y-90300000D01*
X89662000Y-98818500D02*
X89662000Y-104112000D01*
X159280000Y-36845000D02*
X160930000Y-35195000D01*
X89662000Y-104112000D02*
X92460000Y-106910000D01*
%TO.N,M3A*%
X157970000Y-52660000D02*
X157970000Y-43235000D01*
X153240000Y-57390000D02*
X157970000Y-52660000D01*
X107675000Y-74500000D02*
X104140000Y-78035000D01*
X118872750Y-72900000D02*
X119330000Y-72900000D01*
X128270000Y-63960000D02*
X128270000Y-58166000D01*
X104140000Y-78035000D02*
X104140000Y-82550000D01*
X119330000Y-72900000D02*
X128270000Y-63960000D01*
X157970000Y-43235000D02*
X160930000Y-40275000D01*
X129046000Y-57390000D02*
X153240000Y-57390000D01*
X115400000Y-74000000D02*
X114900000Y-74500000D01*
X128270000Y-58166000D02*
X129046000Y-57390000D01*
X114900000Y-74500000D02*
X107675000Y-74500000D01*
%TO.N,M4A*%
X133604000Y-58166000D02*
X153670000Y-58166000D01*
X158920000Y-44825000D02*
X160930000Y-42815000D01*
X132080000Y-59690000D02*
X133604000Y-58166000D01*
X153670000Y-58166000D02*
X158920000Y-52916000D01*
X158920000Y-52916000D02*
X158920000Y-44825000D01*
%TO.N,M5A*%
X147150000Y-77650000D02*
X144360000Y-80440000D01*
X144360000Y-80440000D02*
X144360000Y-91910000D01*
X132080000Y-127000000D02*
X132080000Y-128270000D01*
X143500000Y-115900000D02*
X143500000Y-117200000D01*
X143530000Y-124670000D02*
X142440000Y-125760000D01*
X165470000Y-45380000D02*
X168035000Y-42815000D01*
X142510000Y-100570000D02*
X144300000Y-102360000D01*
X144300000Y-102360000D02*
X144300000Y-115100000D01*
X144360000Y-91910000D02*
X143500000Y-92770000D01*
X172270000Y-68320000D02*
X172270000Y-61700000D01*
X144300000Y-115100000D02*
X143500000Y-115900000D01*
X133320000Y-125760000D02*
X132080000Y-127000000D01*
X170750000Y-71520000D02*
X170750000Y-69840000D01*
X169480000Y-59960000D02*
X165470000Y-55950000D01*
X142440000Y-125760000D02*
X133320000Y-125760000D01*
X168890000Y-77650000D02*
X147150000Y-77650000D01*
X165470000Y-55950000D02*
X165470000Y-45380000D01*
X170750000Y-69840000D02*
X172270000Y-68320000D01*
X168905000Y-77665000D02*
X168890000Y-77650000D01*
X168035000Y-42815000D02*
X168550000Y-42815000D01*
X170530000Y-59960000D02*
X169480000Y-59960000D01*
X172270000Y-61700000D02*
X170530000Y-59960000D01*
%TO.N,M6A*%
X133720000Y-102500000D02*
X132080000Y-104140000D01*
X169310000Y-71520000D02*
X169310000Y-70540000D01*
X143730000Y-90800000D02*
X141760000Y-92770000D01*
X141150000Y-100220000D02*
X138870000Y-102500000D01*
X165640000Y-63370000D02*
X168240000Y-60770000D01*
X146750000Y-76900000D02*
X143730000Y-79920000D01*
X169310000Y-70540000D02*
X165640000Y-66870000D01*
X168550000Y-40380000D02*
X168550000Y-40275000D01*
X168100000Y-76900000D02*
X146750000Y-76900000D01*
X165640000Y-66870000D02*
X165640000Y-63370000D01*
X168240000Y-59590000D02*
X164910000Y-56260000D01*
X143730000Y-79920000D02*
X143730000Y-90800000D01*
X168240000Y-60770000D02*
X168240000Y-59590000D01*
X132080000Y-104140000D02*
X132080000Y-105410000D01*
X164910000Y-44020000D02*
X168550000Y-40380000D01*
X168490000Y-76510000D02*
X168100000Y-76900000D01*
X164910000Y-56260000D02*
X164910000Y-44020000D01*
X168760000Y-76510000D02*
X168490000Y-76510000D01*
X138870000Y-102500000D02*
X133720000Y-102500000D01*
%TO.N,M7A*%
X167580000Y-75880000D02*
X167460000Y-76000000D01*
X168150000Y-70390000D02*
X164870000Y-67110000D01*
X166670000Y-59010000D02*
X164320000Y-56660000D01*
X164870000Y-62810000D02*
X166670000Y-61010000D01*
X164870000Y-67110000D02*
X164870000Y-62810000D01*
X168150000Y-71570000D02*
X168150000Y-70390000D01*
X141960000Y-80400000D02*
X134230000Y-80400000D01*
X146360000Y-76000000D02*
X141960000Y-80400000D01*
X134230000Y-80400000D02*
X132080000Y-82550000D01*
X164320000Y-41965000D02*
X168550000Y-37735000D01*
X166670000Y-61010000D02*
X166670000Y-59010000D01*
X167460000Y-76000000D02*
X146360000Y-76000000D01*
X164320000Y-56660000D02*
X164320000Y-41965000D01*
%TO.N,M8A*%
X168235000Y-35195000D02*
X163670000Y-39760000D01*
X161350000Y-57990000D02*
X160020000Y-59320000D01*
X160020000Y-59320000D02*
X160020000Y-59690000D01*
X168550000Y-35195000D02*
X168235000Y-35195000D01*
X162680000Y-57990000D02*
X161350000Y-57990000D01*
X163670000Y-57000000D02*
X162680000Y-57990000D01*
X163670000Y-39760000D02*
X163670000Y-57000000D01*
%TO.N,M9A*%
X192885000Y-32655000D02*
X191710000Y-32655000D01*
X200160000Y-75805500D02*
X200160000Y-58290000D01*
X198270000Y-56400000D02*
X196810000Y-56400000D01*
X200160000Y-58290000D02*
X198270000Y-56400000D01*
X185710000Y-130580000D02*
X162336000Y-130580000D01*
X195580000Y-38020000D02*
X195580000Y-35350000D01*
X200730000Y-104340000D02*
X200730000Y-106830000D01*
X196810000Y-56400000D02*
X194500000Y-54090000D01*
X201940000Y-108040000D02*
X201940000Y-121210000D01*
X195580000Y-35350000D02*
X192885000Y-32655000D01*
X199850000Y-102350000D02*
X199850000Y-101380000D01*
X199850000Y-101380000D02*
X201360000Y-99870000D01*
X162336000Y-130580000D02*
X160020000Y-128264000D01*
X198150000Y-125000000D02*
X188640000Y-125000000D01*
X186650000Y-129640000D02*
X185710000Y-130580000D01*
X201360000Y-81560000D02*
X200640000Y-80840000D01*
X188640000Y-125000000D02*
X186650000Y-126990000D01*
X186650000Y-126990000D02*
X186650000Y-129640000D01*
X199445500Y-76520000D02*
X200160000Y-75805500D01*
X200730000Y-106830000D02*
X201940000Y-108040000D01*
X201940000Y-121210000D02*
X198150000Y-125000000D01*
X201360000Y-99870000D02*
X201360000Y-81560000D01*
X194500000Y-54090000D02*
X194500000Y-39100000D01*
X194500000Y-39100000D02*
X195580000Y-38020000D01*
%TO.N,M10A*%
X197230000Y-55650000D02*
X195090000Y-53510000D01*
X184630000Y-116350000D02*
X186620000Y-114360000D01*
X199330000Y-35670000D02*
X199330000Y-35195000D01*
X200600000Y-82950000D02*
X199270000Y-81620000D01*
X198970000Y-78670000D02*
X200900000Y-76740000D01*
X200900000Y-57900000D02*
X198650000Y-55650000D01*
X187440000Y-107570000D02*
X186620000Y-108390000D01*
X198800000Y-101290000D02*
X200600000Y-99490000D01*
X168540000Y-116350000D02*
X160020000Y-107830000D01*
X197220000Y-107570000D02*
X187440000Y-107570000D01*
X199610000Y-105180000D02*
X197220000Y-107570000D01*
X160020000Y-107830000D02*
X160020000Y-105410000D01*
X186620000Y-108390000D02*
X186620000Y-114360000D01*
X200600000Y-99490000D02*
X200600000Y-82950000D01*
X195090000Y-53510000D02*
X195090000Y-39910000D01*
X168540000Y-116350000D02*
X184630000Y-116350000D01*
X200900000Y-76740000D02*
X200900000Y-57900000D01*
X195090000Y-39910000D02*
X199330000Y-35670000D01*
X198800000Y-102900000D02*
X198800000Y-101290000D01*
X198650000Y-55650000D02*
X197230000Y-55650000D01*
%TO.N,M11A*%
X185290000Y-97730000D02*
X172500000Y-97730000D01*
X197866000Y-79502000D02*
X197866000Y-71106000D01*
X198374000Y-82296000D02*
X198374000Y-82804000D01*
X194850000Y-60370000D02*
X194850000Y-57210000D01*
X186660000Y-87212000D02*
X186660000Y-96360000D01*
X194460000Y-37750000D02*
X194460000Y-36070000D01*
X198374000Y-82804000D02*
X196342000Y-84836000D01*
X193290000Y-66530000D02*
X193290000Y-61930000D01*
X196342000Y-84836000D02*
X189036000Y-84836000D01*
X198284345Y-79920345D02*
X197866000Y-79502000D01*
X194850000Y-57210000D02*
X193830000Y-56190000D01*
X197866000Y-71106000D02*
X193290000Y-66530000D01*
X172500000Y-97730000D02*
X160020000Y-85250000D01*
X194460000Y-36070000D02*
X193585000Y-35195000D01*
X186660000Y-96360000D02*
X185290000Y-97730000D01*
X193830000Y-56190000D02*
X193830000Y-38380000D01*
X193830000Y-38380000D02*
X194460000Y-37750000D01*
X160020000Y-85250000D02*
X160020000Y-82550000D01*
X189036000Y-84836000D02*
X186660000Y-87212000D01*
X193585000Y-35195000D02*
X191710000Y-35195000D01*
X193290000Y-61930000D02*
X194850000Y-60370000D01*
%TO.N,M12A*%
X188150000Y-46375000D02*
X191710000Y-42815000D01*
X187960000Y-59690000D02*
X188150000Y-59500000D01*
X188150000Y-59500000D02*
X188150000Y-46375000D01*
%TO.N,M13A*%
X202720000Y-121640000D02*
X202720000Y-56430000D01*
X196880000Y-52290000D02*
X196880000Y-45265000D01*
X190460000Y-125770000D02*
X198590000Y-125770000D01*
X187960000Y-128270000D02*
X190460000Y-125770000D01*
X197970000Y-53380000D02*
X196880000Y-52290000D01*
X196880000Y-45265000D02*
X199330000Y-42815000D01*
X199670000Y-53380000D02*
X197970000Y-53380000D01*
X202720000Y-56430000D02*
X199670000Y-53380000D01*
X198590000Y-125770000D02*
X202720000Y-121640000D01*
%TO.N,M14A*%
X202160000Y-57360000D02*
X198990000Y-54190000D01*
X196490000Y-106820000D02*
X202160000Y-101150000D01*
X196310000Y-43140000D02*
X199175000Y-40275000D01*
X197770000Y-54190000D02*
X196310000Y-52730000D01*
X199175000Y-40275000D02*
X199330000Y-40275000D01*
X188360000Y-106820000D02*
X196490000Y-106820000D01*
X202160000Y-101150000D02*
X202160000Y-57360000D01*
X196310000Y-52730000D02*
X196310000Y-43140000D01*
X187960000Y-105410000D02*
X187960000Y-106420000D01*
X198990000Y-54190000D02*
X197770000Y-54190000D01*
X187960000Y-106420000D02*
X188360000Y-106820000D01*
%TO.N,M15A*%
X189570000Y-84160000D02*
X195140000Y-84160000D01*
X201450000Y-77850000D02*
X201450000Y-57560000D01*
X195690000Y-40410000D02*
X198365000Y-37735000D01*
X197510000Y-54860000D02*
X195690000Y-53040000D01*
X187960000Y-82550000D02*
X189570000Y-84160000D01*
X198365000Y-37735000D02*
X199330000Y-37735000D01*
X198750000Y-54860000D02*
X197510000Y-54860000D01*
X195690000Y-53040000D02*
X195690000Y-40410000D01*
X201450000Y-57560000D02*
X198750000Y-54860000D01*
X195140000Y-84160000D02*
X201450000Y-77850000D01*
%TO.N,Net-(Q1-Pad2)*%
X114650000Y-24130000D02*
X116080000Y-25560000D01*
X127702000Y-27178000D02*
X124714000Y-27178000D01*
X124698000Y-27178000D02*
X124714000Y-27178000D01*
X123080000Y-25560000D02*
X124698000Y-27178000D01*
X116080000Y-25560000D02*
X123080000Y-25560000D01*
X128370000Y-26510000D02*
X127702000Y-27178000D01*
X113792000Y-24130000D02*
X114650000Y-24130000D01*
%TO.N,Net-(R5-Pad1)*%
X122040000Y-18542000D02*
X123818000Y-20320000D01*
X100690000Y-28030000D02*
X100690000Y-21484000D01*
X91200000Y-32420000D02*
X91200000Y-30800000D01*
X99600000Y-29120000D02*
X100690000Y-28030000D01*
X92880000Y-29120000D02*
X99600000Y-29120000D01*
X91200000Y-30800000D02*
X92880000Y-29120000D01*
X123818000Y-20320000D02*
X124574000Y-20320000D01*
X103632000Y-18542000D02*
X122040000Y-18542000D01*
X100690000Y-21484000D02*
X103632000Y-18542000D01*
%TO.N,Net-(R5-Pad2)*%
X103886000Y-19812000D02*
X116446000Y-19812000D01*
X100015000Y-29925000D02*
X101450000Y-28490000D01*
X101450000Y-22248000D02*
X103886000Y-19812000D01*
X96280000Y-31500000D02*
X97855000Y-29925000D01*
X116446000Y-19812000D02*
X116954000Y-20320000D01*
X96280000Y-32420000D02*
X96280000Y-31500000D01*
X101450000Y-28490000D02*
X101450000Y-22248000D01*
X97855000Y-29925000D02*
X100015000Y-29925000D01*
%TO.N,SW1M1*%
X104275000Y-75400000D02*
X103975000Y-75700000D01*
X104030000Y-50330000D02*
X103900000Y-50200000D01*
X96925000Y-75700000D02*
X89630000Y-82995000D01*
X98298000Y-129794000D02*
X99060000Y-129032000D01*
X89820000Y-113650000D02*
X89820000Y-106014000D01*
X90970000Y-123350000D02*
X90970000Y-125080000D01*
X90970000Y-125080000D02*
X95684000Y-129794000D01*
X89820000Y-106014000D02*
X89916000Y-105918000D01*
X110770000Y-59730000D02*
X110770000Y-56750000D01*
X108775000Y-75325000D02*
X108750000Y-75350000D01*
X95684000Y-129794000D02*
X98298000Y-129794000D01*
X90932000Y-104140000D02*
X90678000Y-103886000D01*
X116425000Y-75325000D02*
X108775000Y-75325000D01*
X104030000Y-50580000D02*
X104030000Y-50330000D01*
X91810000Y-115640000D02*
X89820000Y-113650000D01*
X89630000Y-82995000D02*
X89630000Y-89803984D01*
X110770000Y-56750000D02*
X107160000Y-53140000D01*
X89630000Y-89803984D02*
X91480000Y-91653984D01*
X103975000Y-75700000D02*
X96925000Y-75700000D01*
X90678000Y-103886000D02*
X90678000Y-99314000D01*
X107160000Y-53140000D02*
X106590000Y-53140000D01*
X99060000Y-129032000D02*
X99060000Y-128270000D01*
X106590000Y-53140000D02*
X104030000Y-50580000D01*
%TO.N,SW1M2*%
X95850000Y-89790000D02*
X92100000Y-93540000D01*
X95850000Y-85760000D02*
X95850000Y-89790000D01*
X97100000Y-103450000D02*
X99060000Y-105410000D01*
X103200000Y-76700000D02*
X97025000Y-76700000D01*
X112850000Y-57480000D02*
X108770000Y-53400000D01*
X97025000Y-76700000D02*
X94650000Y-79075000D01*
X91706500Y-100943500D02*
X91706500Y-101116500D01*
X94040000Y-103450000D02*
X97100000Y-103450000D01*
X94650000Y-79075000D02*
X94650000Y-84560000D01*
X108770000Y-50410000D02*
X108980000Y-50200000D01*
X91706500Y-101116500D02*
X94040000Y-103450000D01*
X103237500Y-76662500D02*
X103200000Y-76700000D01*
X92100000Y-93540000D02*
X91706500Y-93540000D01*
X112850000Y-65800000D02*
X112850000Y-57480000D01*
X107725000Y-76175000D02*
X107175000Y-76725000D01*
X94650000Y-84560000D02*
X95850000Y-85760000D01*
X117825000Y-76175000D02*
X107725000Y-76175000D01*
X108770000Y-53400000D02*
X108770000Y-50410000D01*
%TO.N,SW1M3*%
X111370000Y-50350000D02*
X111520000Y-50200000D01*
X119050000Y-77150000D02*
X118925000Y-77025000D01*
X105410000Y-83480000D02*
X104820000Y-84070000D01*
X118925000Y-77025000D02*
X108450000Y-77025000D01*
X113900000Y-65800000D02*
X113900000Y-57200000D01*
X114300000Y-66200000D02*
X113900000Y-65800000D01*
X105410000Y-80065000D02*
X105410000Y-83480000D01*
X104820000Y-84070000D02*
X103120000Y-84070000D01*
X111370000Y-54670000D02*
X111370000Y-50350000D01*
X108450000Y-77025000D02*
X105410000Y-80065000D01*
X103120000Y-84070000D02*
X101600000Y-82550000D01*
X113900000Y-57200000D02*
X111370000Y-54670000D01*
%TO.N,SW1M4*%
X124180000Y-56680000D02*
X124180000Y-50240000D01*
X124180000Y-50240000D02*
X124220000Y-50200000D01*
%TO.N,SW1M5*%
X120940000Y-58180000D02*
X117060000Y-54300000D01*
X119240000Y-79860000D02*
X116130000Y-82970000D01*
X116130000Y-93380000D02*
X116230000Y-93480000D01*
X116190000Y-100330000D02*
X116190000Y-116230000D01*
X125690000Y-78470000D02*
X124300000Y-79860000D01*
X116870000Y-122880000D02*
X119500000Y-125510000D01*
X114060000Y-53300000D02*
X114060000Y-50200000D01*
X116870000Y-122840000D02*
X116870000Y-122880000D01*
X116130000Y-82970000D02*
X116130000Y-93380000D01*
X117060000Y-54300000D02*
X115060000Y-54300000D01*
X124240000Y-125510000D02*
X127000000Y-128270000D01*
X116190000Y-116230000D02*
X116760000Y-116800000D01*
X124300000Y-79860000D02*
X119240000Y-79860000D01*
X119500000Y-125510000D02*
X124240000Y-125510000D01*
X115060000Y-54300000D02*
X114060000Y-53300000D01*
X120940000Y-58480000D02*
X120940000Y-58180000D01*
%TO.N,SW1M6*%
X121970000Y-57730000D02*
X117550000Y-53310000D01*
X128150000Y-73520000D02*
X128210000Y-73460000D01*
X117520000Y-101180000D02*
X117520000Y-102110000D01*
X119070000Y-103660000D02*
X125250000Y-103660000D01*
X117550000Y-53310000D02*
X117000000Y-53310000D01*
X119470000Y-80670000D02*
X116840000Y-83300000D01*
X128150000Y-78790000D02*
X126270000Y-80670000D01*
X116840000Y-91370000D02*
X117580000Y-92110000D01*
X117000000Y-53310000D02*
X116620000Y-52930000D01*
X116840000Y-83300000D02*
X116840000Y-91370000D01*
X117520000Y-102110000D02*
X119070000Y-103660000D01*
X125250000Y-103660000D02*
X127000000Y-105410000D01*
X128210000Y-73460000D02*
X128210000Y-68550000D01*
X121970000Y-58140000D02*
X121970000Y-57730000D01*
X116620000Y-52930000D02*
X116620000Y-50220000D01*
X126270000Y-80670000D02*
X119470000Y-80670000D01*
X116620000Y-50220000D02*
X116600000Y-50200000D01*
X128210000Y-68550000D02*
X126930000Y-67270000D01*
%TO.N,SW1M7*%
X130760000Y-69350000D02*
X127670000Y-66260000D01*
X130440000Y-78750000D02*
X130440000Y-81650000D01*
X121710000Y-56350000D02*
X121710000Y-50230000D01*
X122960000Y-57600000D02*
X121710000Y-56350000D01*
X130760000Y-73540000D02*
X130760000Y-69350000D01*
X130840000Y-73620000D02*
X130760000Y-73540000D01*
X121710000Y-50230000D02*
X121680000Y-50200000D01*
X130440000Y-81650000D02*
X129540000Y-82550000D01*
%TO.N,SW1M8*%
X151360000Y-54480000D02*
X150480000Y-55360000D01*
X144490000Y-53350000D02*
X139450000Y-53350000D01*
X139450000Y-53350000D02*
X136920000Y-50820000D01*
X136920000Y-50820000D02*
X136920000Y-50200000D01*
X150480000Y-55360000D02*
X146500000Y-55360000D01*
X146500000Y-55360000D02*
X144490000Y-53350000D01*
%TO.N,SW1M9*%
X137320000Y-67350000D02*
X140500000Y-70530000D01*
X144947636Y-93132364D02*
X144200000Y-93880000D01*
X125960000Y-56720000D02*
X125960000Y-51000000D01*
X144240000Y-101020000D02*
X145080000Y-101860000D01*
X143840000Y-99840000D02*
X144240000Y-100240000D01*
X144240000Y-100240000D02*
X144240000Y-101020000D01*
X145260000Y-80940000D02*
X145260000Y-92707810D01*
X145260000Y-92707810D02*
X144947636Y-93020174D01*
X144785000Y-123325000D02*
X146500000Y-125040000D01*
X143960000Y-70530000D02*
X144380000Y-70950000D01*
X154940000Y-126790000D02*
X154940000Y-128264000D01*
X146400000Y-79800000D02*
X145260000Y-80940000D01*
X153190000Y-125040000D02*
X154940000Y-126790000D01*
X125960000Y-51000000D02*
X126760000Y-50200000D01*
X130790000Y-58550000D02*
X130790000Y-62510000D01*
X145080000Y-101860000D02*
X145080000Y-116770000D01*
X140500000Y-70530000D02*
X143960000Y-70530000D01*
X135630000Y-67350000D02*
X137320000Y-67350000D01*
X130790000Y-62510000D02*
X135630000Y-67350000D01*
X146500000Y-125040000D02*
X153190000Y-125040000D01*
X144947636Y-93020174D02*
X144947636Y-93132364D01*
X145080000Y-116770000D02*
X144940000Y-116910000D01*
%TO.N,SW1M10*%
X147500000Y-78900000D02*
X147500000Y-80330000D01*
X144640000Y-69570000D02*
X144640000Y-59790000D01*
X145600000Y-100460000D02*
X145890000Y-100750000D01*
X145910000Y-93153826D02*
X145722636Y-93341190D01*
X131280000Y-55090000D02*
X129300000Y-53110000D01*
X145910000Y-81920000D02*
X145910000Y-93153826D01*
X154940000Y-103750000D02*
X154940000Y-105410000D01*
X147500000Y-80330000D02*
X145910000Y-81920000D01*
X144640000Y-59790000D02*
X144120000Y-59270000D01*
X145890000Y-100750000D02*
X151940000Y-100750000D01*
X143110000Y-55090000D02*
X131280000Y-55090000D01*
X145900000Y-70830000D02*
X144640000Y-69570000D01*
X151940000Y-100750000D02*
X154940000Y-103750000D01*
X129300000Y-53110000D02*
X129300000Y-50200000D01*
%TO.N,SW1M11*%
X148800000Y-78600000D02*
X151280000Y-81080000D01*
X151280000Y-81080000D02*
X153470000Y-81080000D01*
X143940000Y-54080000D02*
X136680000Y-54080000D01*
X134380000Y-51780000D02*
X134380000Y-50200000D01*
X144645000Y-54785000D02*
X143940000Y-54080000D01*
X145340000Y-68920000D02*
X145340000Y-59800000D01*
X147380000Y-70960000D02*
X145340000Y-68920000D01*
X153470000Y-81080000D02*
X154940000Y-82550000D01*
X136680000Y-54080000D02*
X134380000Y-51780000D01*
X145340000Y-59800000D02*
X145650000Y-59490000D01*
%TO.N,SW1M12*%
X168450000Y-57700000D02*
X176350000Y-57700000D01*
X149190000Y-50610000D02*
X152760000Y-54180000D01*
X159880000Y-57740000D02*
X155970000Y-57740000D01*
X162110000Y-57170000D02*
X160450000Y-57170000D01*
X162440000Y-56840000D02*
X162110000Y-57170000D01*
X160450000Y-57170000D02*
X159880000Y-57740000D01*
X134720000Y-44900000D02*
X135960000Y-46140000D01*
X135960000Y-46140000D02*
X138590000Y-46140000D01*
X134720000Y-37950000D02*
X134720000Y-44900000D01*
X138590000Y-46140000D02*
X143060000Y-50610000D01*
X167770000Y-57020000D02*
X168450000Y-57700000D01*
X143060000Y-50610000D02*
X149190000Y-50610000D01*
X135200000Y-37470000D02*
X134720000Y-37950000D01*
X167720000Y-57020000D02*
X167770000Y-57020000D01*
%TO.N,SW1M13*%
X148870000Y-71040000D02*
X152300000Y-67610000D01*
X161300000Y-81330000D02*
X161300000Y-85500000D01*
X152270000Y-80470000D02*
X160440000Y-80470000D01*
X147400000Y-54390000D02*
X147390000Y-54390000D01*
X135080000Y-48670000D02*
X126730000Y-40320000D01*
X137890000Y-48670000D02*
X135080000Y-48670000D01*
X147760000Y-59320000D02*
X147400000Y-59320000D01*
X173940000Y-124800000D02*
X173950000Y-124790000D01*
X172370000Y-104560000D02*
X172370000Y-114790000D01*
X179400000Y-124790000D02*
X182880000Y-128270000D01*
X171200000Y-101400000D02*
X171200000Y-103390000D01*
X152300000Y-63860000D02*
X147760000Y-59320000D01*
X150400000Y-78600000D02*
X152270000Y-80470000D01*
X171200000Y-103390000D02*
X172370000Y-104560000D01*
X152300000Y-67610000D02*
X152300000Y-63860000D01*
X161300000Y-85500000D02*
X169000000Y-93200000D01*
X145650000Y-52650000D02*
X141870000Y-52650000D01*
X126730000Y-37750000D02*
X126800000Y-37680000D01*
X141870000Y-52650000D02*
X137890000Y-48670000D01*
X126730000Y-40320000D02*
X126730000Y-37750000D01*
X160440000Y-80470000D02*
X161300000Y-81330000D01*
X173950000Y-124790000D02*
X179400000Y-124790000D01*
X169000000Y-93200000D02*
X170270000Y-93200000D01*
X147390000Y-54390000D02*
X145650000Y-52650000D01*
%TO.N,SW1M14*%
X148520000Y-54290000D02*
X146180000Y-51950000D01*
X172660000Y-101050000D02*
X173280000Y-101670000D01*
X146180000Y-51950000D02*
X142310000Y-51950000D01*
X163820000Y-81810000D02*
X163820000Y-86890000D01*
X138350000Y-47990000D02*
X135820000Y-47990000D01*
X163820000Y-86890000D02*
X168930000Y-92000000D01*
X148840000Y-59390000D02*
X148840000Y-59010000D01*
X173280000Y-101670000D02*
X179270000Y-101670000D01*
X168930000Y-92000000D02*
X170870000Y-92000000D01*
X179270000Y-101670000D02*
X182880000Y-105280000D01*
X182880000Y-105280000D02*
X182880000Y-105410000D01*
X142310000Y-51950000D02*
X138350000Y-47990000D01*
X135820000Y-47990000D02*
X129300000Y-41470000D01*
X153660000Y-64210000D02*
X148840000Y-59390000D01*
X161720000Y-79710000D02*
X163820000Y-81810000D01*
X154510000Y-79710000D02*
X161720000Y-79710000D01*
X153660000Y-73620000D02*
X153660000Y-64210000D01*
X153750000Y-73710000D02*
X153660000Y-73620000D01*
X148520000Y-54370000D02*
X148520000Y-54290000D01*
X153710000Y-78910000D02*
X154510000Y-79710000D01*
X129300000Y-41470000D02*
X129300000Y-37790000D01*
X170870000Y-92000000D02*
X170960000Y-92090000D01*
%TO.N,SW1M15*%
X174050000Y-77530000D02*
X182300000Y-77530000D01*
X135990000Y-47050000D02*
X138410000Y-47050000D01*
X182300000Y-77530000D02*
X182880000Y-78110000D01*
X133690000Y-44750000D02*
X135990000Y-47050000D01*
X156230000Y-65590000D02*
X150360000Y-59720000D01*
X146800000Y-51270000D02*
X149600000Y-54070000D01*
X171030000Y-76660000D02*
X173180000Y-76660000D01*
X150360000Y-59720000D02*
X150360000Y-59130000D01*
X168670000Y-79020000D02*
X171030000Y-76660000D01*
X149600000Y-54070000D02*
X149840000Y-54070000D01*
X173180000Y-76660000D02*
X174050000Y-77530000D01*
X156230000Y-73730000D02*
X156230000Y-65590000D01*
X156510000Y-78670000D02*
X156860000Y-79020000D01*
X182880000Y-78110000D02*
X182880000Y-82550000D01*
X138410000Y-47050000D02*
X142630000Y-51270000D01*
X156860000Y-79020000D02*
X168670000Y-79020000D01*
X133690000Y-37800000D02*
X133690000Y-44750000D01*
X142630000Y-51270000D02*
X146800000Y-51270000D01*
%TO.N,SW2M13*%
X197090000Y-80550000D02*
X197090000Y-71460000D01*
X197790000Y-103620000D02*
X197790000Y-101160000D01*
X193150000Y-41715000D02*
X191710000Y-40275000D01*
X199355000Y-107155000D02*
X200420000Y-108220000D01*
X199890000Y-99060000D02*
X199890000Y-84970000D01*
X197090000Y-71460000D02*
X191800000Y-66170000D01*
X199890000Y-84970000D02*
X198670000Y-83750000D01*
X197790000Y-101160000D02*
X199890000Y-99060000D01*
X193150000Y-53180000D02*
X193150000Y-41715000D01*
X191800000Y-54530000D02*
X193150000Y-53180000D01*
X197350000Y-124070000D02*
X191600000Y-124070000D01*
X200420000Y-108220000D02*
X200420000Y-121000000D01*
X200420000Y-121000000D02*
X197350000Y-124070000D01*
X191800000Y-66170000D02*
X191800000Y-54530000D01*
%TO.N,SW2M12*%
X186660000Y-60700000D02*
X186660000Y-57060000D01*
X190500000Y-59690000D02*
X190500000Y-60750000D01*
X181580000Y-45325000D02*
X184020000Y-42885000D01*
X187470000Y-61510000D02*
X186660000Y-60700000D01*
X181580000Y-51980000D02*
X181580000Y-45325000D01*
X189740000Y-61510000D02*
X187470000Y-61510000D01*
X186660000Y-57060000D02*
X181580000Y-51980000D01*
X190500000Y-60750000D02*
X189740000Y-61510000D01*
%TO.N,SW2M14*%
X180260000Y-52970000D02*
X180260000Y-41565000D01*
X184080000Y-74050000D02*
X184080000Y-62910000D01*
X193040000Y-103370000D02*
X193040000Y-105410000D01*
X181560000Y-60390000D02*
X181560000Y-54270000D01*
X184050000Y-78210000D02*
X184050000Y-82290000D01*
X190370000Y-100700000D02*
X193040000Y-103370000D01*
X184050000Y-82290000D02*
X184110000Y-82350000D01*
X184110000Y-93550000D02*
X184040000Y-93620000D01*
X180260000Y-41565000D02*
X184020000Y-37805000D01*
X181560000Y-54270000D02*
X180260000Y-52970000D01*
X184080000Y-62910000D02*
X181560000Y-60390000D01*
X185130000Y-100700000D02*
X190370000Y-100700000D01*
X184110000Y-82350000D02*
X184110000Y-93550000D01*
X184050000Y-74080000D02*
X184080000Y-74050000D01*
%TO.N,SW2M15*%
X190500000Y-82550000D02*
X190500000Y-79820000D01*
X184150000Y-60530000D02*
X184150000Y-55510000D01*
X184150000Y-55510000D02*
X180890000Y-52250000D01*
X180890000Y-43830000D02*
X184020000Y-40700000D01*
X180890000Y-52250000D02*
X180890000Y-43830000D01*
X191760000Y-78560000D02*
X191760000Y-67060000D01*
X184020000Y-40700000D02*
X184020000Y-40345000D01*
X191760000Y-67060000D02*
X186700000Y-62000000D01*
X190500000Y-79820000D02*
X191760000Y-78560000D01*
X186700000Y-62000000D02*
X185620000Y-62000000D01*
X185620000Y-62000000D02*
X184150000Y-60530000D01*
%TO.N,SW2M9*%
X181570000Y-63290000D02*
X178910000Y-60630000D01*
X173410000Y-82330000D02*
X175290000Y-80450000D01*
X178910000Y-60630000D02*
X178910000Y-58870000D01*
X170864500Y-123270000D02*
X165870500Y-128264000D01*
X173940000Y-123270000D02*
X170864500Y-123270000D01*
X179480000Y-39805000D02*
X184020000Y-35265000D01*
X175400000Y-80340000D02*
X180250000Y-80340000D01*
X181290000Y-79300000D02*
X181290000Y-78790000D01*
X180560000Y-54620000D02*
X179480000Y-53540000D01*
X173130000Y-103500000D02*
X174040000Y-102590000D01*
X178910000Y-58870000D02*
X180560000Y-57220000D01*
X181570000Y-73900000D02*
X181570000Y-63290000D01*
X175290000Y-80450000D02*
X175400000Y-80340000D01*
X180560000Y-57220000D02*
X180560000Y-54620000D01*
X173780000Y-93160000D02*
X173410000Y-92790000D01*
X173410000Y-92790000D02*
X173410000Y-82330000D01*
X179480000Y-53540000D02*
X179480000Y-39805000D01*
X181730000Y-74060000D02*
X181570000Y-73900000D01*
X181290000Y-78790000D02*
X181300000Y-78780000D01*
X180250000Y-80340000D02*
X181290000Y-79300000D01*
X173130000Y-113980000D02*
X173130000Y-103500000D01*
X165870500Y-128264000D02*
X165100000Y-128264000D01*
X173890000Y-114740000D02*
X173130000Y-113980000D01*
%TO.N,SW2M8*%
X169154500Y-56930000D02*
X172040000Y-56930000D01*
X169150000Y-56925500D02*
X169154500Y-56930000D01*
X172040000Y-56930000D02*
X173810000Y-55160000D01*
X173810000Y-37855000D02*
X176400000Y-35265000D01*
X173810000Y-55160000D02*
X173810000Y-37855000D01*
%TO.N,SW2M10*%
X180690000Y-63350000D02*
X178280000Y-60940000D01*
X172380000Y-88710000D02*
X169970000Y-91120000D01*
X169190000Y-101090000D02*
X169190000Y-101320000D01*
X180690000Y-66330000D02*
X180690000Y-63350000D01*
X171550000Y-77520000D02*
X172380000Y-78350000D01*
X175824500Y-71195500D02*
X180690000Y-66330000D01*
X173960000Y-71195500D02*
X175824500Y-71195500D01*
X172380000Y-78350000D02*
X172380000Y-88710000D01*
X169190000Y-101320000D02*
X165100000Y-105410000D01*
X179600000Y-56990000D02*
X179600000Y-54850000D01*
X178280000Y-58310000D02*
X179600000Y-56990000D01*
X179600000Y-54850000D02*
X178790000Y-54040000D01*
X178790000Y-54040000D02*
X178790000Y-45275000D01*
X178790000Y-45275000D02*
X176400000Y-42885000D01*
X178280000Y-60940000D02*
X178280000Y-58310000D01*
%TO.N,SW2M11*%
X177650000Y-61400000D02*
X177650000Y-55320000D01*
X166690000Y-82550000D02*
X165100000Y-82550000D01*
X179860000Y-63610000D02*
X177650000Y-61400000D01*
X170290000Y-78950000D02*
X166690000Y-82550000D01*
X179860000Y-65980000D02*
X179860000Y-63610000D01*
X175350000Y-70090000D02*
X175750000Y-70090000D01*
X177650000Y-55320000D02*
X174640000Y-52310000D01*
X175750000Y-70090000D02*
X179860000Y-65980000D01*
X174640000Y-52310000D02*
X174640000Y-42105000D01*
X174640000Y-42105000D02*
X176400000Y-40345000D01*
%TO.N,Net-(R6-Pad2)*%
X104132000Y-36060000D02*
X113038000Y-36060000D01*
X102970000Y-27940000D02*
X103290000Y-28260000D01*
X114060000Y-35038000D02*
X114060000Y-32420000D01*
X102610000Y-33041817D02*
X102610000Y-34538000D01*
X102610000Y-34538000D02*
X104132000Y-36060000D01*
X102616000Y-33035817D02*
X102610000Y-33041817D01*
X113038000Y-36060000D02*
X114060000Y-35038000D01*
X103290000Y-28260000D02*
X103290000Y-28770000D01*
X103290000Y-28770000D02*
X102616000Y-29444000D01*
X102616000Y-29444000D02*
X102616000Y-33035817D01*
%TO.N,SW2M4*%
X173110000Y-36015000D02*
X176400000Y-32725000D01*
X171354500Y-56155500D02*
X173110000Y-54400000D01*
X170280000Y-56155500D02*
X171354500Y-56155500D01*
X142910000Y-60590000D02*
X142980000Y-60660000D01*
X173110000Y-54400000D02*
X173110000Y-36015000D01*
X142980000Y-60660000D02*
X143330000Y-60660000D01*
X142010000Y-59690000D02*
X142910000Y-60590000D01*
X137160000Y-59690000D02*
X142010000Y-59690000D01*
%TO.N,Net-(U2-Pad10)*%
X145550000Y-43350000D02*
X147220000Y-41680000D01*
X144060000Y-38820000D02*
X144060000Y-37390000D01*
X147220000Y-40380000D02*
X146380000Y-39540000D01*
X147220000Y-41680000D02*
X147220000Y-40380000D01*
X146380000Y-39540000D02*
X144780000Y-39540000D01*
X146640000Y-35730000D02*
X145550000Y-35730000D01*
X147210000Y-35160000D02*
X146640000Y-35730000D01*
X146520000Y-28890000D02*
X146520000Y-31020000D01*
X146520000Y-31020000D02*
X147210000Y-31710000D01*
X144780000Y-39540000D02*
X144060000Y-38820000D01*
X153170000Y-43350000D02*
X150190000Y-43350000D01*
X144060000Y-37390000D02*
X144080000Y-37370000D01*
X147210000Y-31710000D02*
X147210000Y-35160000D01*
X144080000Y-37200000D02*
X145550000Y-35730000D01*
X150190000Y-43350000D02*
X147220000Y-40380000D01*
X144080000Y-37370000D02*
X144080000Y-37200000D01*
%TD*%
M02*
