%TF.GenerationSoftware,KiCad,Pcbnew,(6.0.11)*%
%TF.CreationDate,2023-03-17T21:22:50-05:00*%
%TF.ProjectId,HIDControls,48494443-6f6e-4747-926f-6c732e6b6963,rev?*%
%TF.SameCoordinates,Original*%
%TF.FileFunction,Legend,Bot*%
%TF.FilePolarity,Positive*%
%FSLAX46Y46*%
G04 Gerber Fmt 4.6, Leading zero omitted, Abs format (unit mm)*
G04 Created by KiCad (PCBNEW (6.0.11)) date 2023-03-17 21:22:50*
%MOMM*%
%LPD*%
G01*
G04 APERTURE LIST*
%ADD10C,0.150000*%
%ADD11C,0.120000*%
G04 APERTURE END LIST*
D10*
X166494285Y-97956666D02*
X166018095Y-97956666D01*
X166589523Y-98242380D02*
X166256190Y-97242380D01*
X165922857Y-98242380D01*
X165113333Y-98242380D02*
X165589523Y-98242380D01*
X165589523Y-97242380D01*
X164780000Y-98242380D02*
X164780000Y-97242380D01*
X164399047Y-97242380D01*
X164303809Y-97290000D01*
X164256190Y-97337619D01*
X164208571Y-97432857D01*
X164208571Y-97575714D01*
X164256190Y-97670952D01*
X164303809Y-97718571D01*
X164399047Y-97766190D01*
X164780000Y-97766190D01*
X163827619Y-98194761D02*
X163684761Y-98242380D01*
X163446666Y-98242380D01*
X163351428Y-98194761D01*
X163303809Y-98147142D01*
X163256190Y-98051904D01*
X163256190Y-97956666D01*
X163303809Y-97861428D01*
X163351428Y-97813809D01*
X163446666Y-97766190D01*
X163637142Y-97718571D01*
X163732380Y-97670952D01*
X163780000Y-97623333D01*
X163827619Y-97528095D01*
X163827619Y-97432857D01*
X163780000Y-97337619D01*
X163732380Y-97290000D01*
X163637142Y-97242380D01*
X163399047Y-97242380D01*
X163256190Y-97290000D01*
X161494285Y-98242380D02*
X161827619Y-97766190D01*
X162065714Y-98242380D02*
X162065714Y-97242380D01*
X161684761Y-97242380D01*
X161589523Y-97290000D01*
X161541904Y-97337619D01*
X161494285Y-97432857D01*
X161494285Y-97575714D01*
X161541904Y-97670952D01*
X161589523Y-97718571D01*
X161684761Y-97766190D01*
X162065714Y-97766190D01*
X161113333Y-98194761D02*
X160970476Y-98242380D01*
X160732380Y-98242380D01*
X160637142Y-98194761D01*
X160589523Y-98147142D01*
X160541904Y-98051904D01*
X160541904Y-97956666D01*
X160589523Y-97861428D01*
X160637142Y-97813809D01*
X160732380Y-97766190D01*
X160922857Y-97718571D01*
X161018095Y-97670952D01*
X161065714Y-97623333D01*
X161113333Y-97528095D01*
X161113333Y-97432857D01*
X161065714Y-97337619D01*
X161018095Y-97290000D01*
X160922857Y-97242380D01*
X160684761Y-97242380D01*
X160541904Y-97290000D01*
X160208571Y-97242380D02*
X159589523Y-97242380D01*
X159922857Y-97623333D01*
X159780000Y-97623333D01*
X159684761Y-97670952D01*
X159637142Y-97718571D01*
X159589523Y-97813809D01*
X159589523Y-98051904D01*
X159637142Y-98147142D01*
X159684761Y-98194761D01*
X159780000Y-98242380D01*
X160065714Y-98242380D01*
X160160952Y-98194761D01*
X160208571Y-98147142D01*
X158970476Y-97242380D02*
X158875238Y-97242380D01*
X158780000Y-97290000D01*
X158732380Y-97337619D01*
X158684761Y-97432857D01*
X158637142Y-97623333D01*
X158637142Y-97861428D01*
X158684761Y-98051904D01*
X158732380Y-98147142D01*
X158780000Y-98194761D01*
X158875238Y-98242380D01*
X158970476Y-98242380D01*
X159065714Y-98194761D01*
X159113333Y-98147142D01*
X159160952Y-98051904D01*
X159208571Y-97861428D01*
X159208571Y-97623333D01*
X159160952Y-97432857D01*
X159113333Y-97337619D01*
X159065714Y-97290000D01*
X158970476Y-97242380D01*
X157684761Y-98242380D02*
X158256190Y-98242380D01*
X157970476Y-98242380D02*
X157970476Y-97242380D01*
X158065714Y-97385238D01*
X158160952Y-97480476D01*
X158256190Y-97528095D01*
X156732380Y-98242380D02*
X157303809Y-98242380D01*
X157018095Y-98242380D02*
X157018095Y-97242380D01*
X157113333Y-97385238D01*
X157208571Y-97480476D01*
X157303809Y-97528095D01*
X155779999Y-98242380D02*
X156351428Y-98242380D01*
X156065714Y-98242380D02*
X156065714Y-97242380D01*
X156160952Y-97385238D01*
X156256190Y-97480476D01*
X156351428Y-97528095D01*
X154827619Y-98242380D02*
X155399047Y-98242380D01*
X155113333Y-98242380D02*
X155113333Y-97242380D01*
X155208571Y-97385238D01*
X155303809Y-97480476D01*
X155399047Y-97528095D01*
X154446666Y-97956666D02*
X153970476Y-97956666D01*
X154541904Y-98242380D02*
X154208571Y-97242380D01*
X153875238Y-98242380D01*
X153351428Y-97242380D02*
X153256190Y-97242380D01*
X153160952Y-97290000D01*
X153113333Y-97337619D01*
X153065714Y-97432857D01*
X153018095Y-97623333D01*
X153018095Y-97861428D01*
X153065714Y-98051904D01*
X153113333Y-98147142D01*
X153160952Y-98194761D01*
X153256190Y-98242380D01*
X153351428Y-98242380D01*
X153446666Y-98194761D01*
X153494285Y-98147142D01*
X153541904Y-98051904D01*
X153589523Y-97861428D01*
X153589523Y-97623333D01*
X153541904Y-97432857D01*
X153494285Y-97337619D01*
X153446666Y-97290000D01*
X153351428Y-97242380D01*
X152065714Y-98242380D02*
X152637142Y-98242380D01*
X152351428Y-98242380D02*
X152351428Y-97242380D01*
X152446666Y-97385238D01*
X152541904Y-97480476D01*
X152637142Y-97528095D01*
X151113333Y-97290000D02*
X151208571Y-97242380D01*
X151351428Y-97242380D01*
X151494285Y-97290000D01*
X151589523Y-97385238D01*
X151637142Y-97480476D01*
X151684761Y-97670952D01*
X151684761Y-97813809D01*
X151637142Y-98004285D01*
X151589523Y-98099523D01*
X151494285Y-98194761D01*
X151351428Y-98242380D01*
X151256190Y-98242380D01*
X151113333Y-98194761D01*
X151065714Y-98147142D01*
X151065714Y-97813809D01*
X151256190Y-97813809D01*
X149589523Y-98623333D02*
X149637142Y-98575714D01*
X149732380Y-98432857D01*
X149779999Y-98337619D01*
X149827619Y-98194761D01*
X149875238Y-97956666D01*
X149875238Y-97766190D01*
X149827619Y-97528095D01*
X149779999Y-97385238D01*
X149732380Y-97290000D01*
X149637142Y-97147142D01*
X149589523Y-97099523D01*
X149018095Y-97242380D02*
X148827619Y-97242380D01*
X148732380Y-97290000D01*
X148637142Y-97385238D01*
X148589523Y-97575714D01*
X148589523Y-97909047D01*
X148637142Y-98099523D01*
X148732380Y-98194761D01*
X148827619Y-98242380D01*
X149018095Y-98242380D01*
X149113333Y-98194761D01*
X149208571Y-98099523D01*
X149256190Y-97909047D01*
X149256190Y-97575714D01*
X149208571Y-97385238D01*
X149113333Y-97290000D01*
X149018095Y-97242380D01*
X147589523Y-98242380D02*
X147922857Y-97766190D01*
X148160952Y-98242380D02*
X148160952Y-97242380D01*
X147779999Y-97242380D01*
X147684761Y-97290000D01*
X147637142Y-97337619D01*
X147589523Y-97432857D01*
X147589523Y-97575714D01*
X147637142Y-97670952D01*
X147684761Y-97718571D01*
X147779999Y-97766190D01*
X148160952Y-97766190D01*
X146446666Y-98194761D02*
X146303809Y-98242380D01*
X146065714Y-98242380D01*
X145970476Y-98194761D01*
X145922857Y-98147142D01*
X145875238Y-98051904D01*
X145875238Y-97956666D01*
X145922857Y-97861428D01*
X145970476Y-97813809D01*
X146065714Y-97766190D01*
X146256190Y-97718571D01*
X146351428Y-97670952D01*
X146399047Y-97623333D01*
X146446666Y-97528095D01*
X146446666Y-97432857D01*
X146399047Y-97337619D01*
X146351428Y-97290000D01*
X146256190Y-97242380D01*
X146018095Y-97242380D01*
X145875238Y-97290000D01*
X145446666Y-98242380D02*
X145446666Y-97242380D01*
X144970476Y-98242380D02*
X144970476Y-97242380D01*
X144637142Y-97956666D01*
X144303809Y-97242380D01*
X144303809Y-98242380D01*
X143827619Y-98242380D02*
X143827619Y-97242380D01*
X142875238Y-98242380D02*
X143351428Y-98242380D01*
X143351428Y-97242380D01*
X142589523Y-97956666D02*
X142113333Y-97956666D01*
X142684761Y-98242380D02*
X142351428Y-97242380D01*
X142018095Y-98242380D01*
X141113333Y-98242380D02*
X141446666Y-97766190D01*
X141684761Y-98242380D02*
X141684761Y-97242380D01*
X141303809Y-97242380D01*
X141208571Y-97290000D01*
X141160952Y-97337619D01*
X141113333Y-97432857D01*
X141113333Y-97575714D01*
X141160952Y-97670952D01*
X141208571Y-97718571D01*
X141303809Y-97766190D01*
X141684761Y-97766190D01*
X140018095Y-97242380D02*
X139399047Y-97242380D01*
X139732380Y-97623333D01*
X139589523Y-97623333D01*
X139494285Y-97670952D01*
X139446666Y-97718571D01*
X139399047Y-97813809D01*
X139399047Y-98051904D01*
X139446666Y-98147142D01*
X139494285Y-98194761D01*
X139589523Y-98242380D01*
X139875238Y-98242380D01*
X139970476Y-98194761D01*
X140018095Y-98147142D01*
X138494285Y-97242380D02*
X138970476Y-97242380D01*
X139018095Y-97718571D01*
X138970476Y-97670952D01*
X138875238Y-97623333D01*
X138637142Y-97623333D01*
X138541904Y-97670952D01*
X138494285Y-97718571D01*
X138446666Y-97813809D01*
X138446666Y-98051904D01*
X138494285Y-98147142D01*
X138541904Y-98194761D01*
X138637142Y-98242380D01*
X138875238Y-98242380D01*
X138970476Y-98194761D01*
X139018095Y-98147142D01*
X137256190Y-98242380D02*
X137256190Y-97242380D01*
X136922857Y-97956666D01*
X136589523Y-97242380D01*
X136589523Y-98242380D01*
X136113333Y-98242380D02*
X136113333Y-97242380D01*
X135779999Y-97956666D01*
X135446666Y-97242380D01*
X135446666Y-98242380D01*
X134208571Y-98242380D02*
X134208571Y-97242380D01*
X134208571Y-97718571D02*
X133637142Y-97718571D01*
X133637142Y-98242380D02*
X133637142Y-97242380D01*
X132970476Y-97242380D02*
X132779999Y-97242380D01*
X132684761Y-97290000D01*
X132589523Y-97385238D01*
X132541904Y-97575714D01*
X132541904Y-97909047D01*
X132589523Y-98099523D01*
X132684761Y-98194761D01*
X132779999Y-98242380D01*
X132970476Y-98242380D01*
X133065714Y-98194761D01*
X133160952Y-98099523D01*
X133208571Y-97909047D01*
X133208571Y-97575714D01*
X133160952Y-97385238D01*
X133065714Y-97290000D01*
X132970476Y-97242380D01*
X131637142Y-98242380D02*
X132113333Y-98242380D01*
X132113333Y-97242380D01*
X131303809Y-97718571D02*
X130970476Y-97718571D01*
X130827619Y-98242380D02*
X131303809Y-98242380D01*
X131303809Y-97242380D01*
X130827619Y-97242380D01*
X129684761Y-98194761D02*
X129541904Y-98242380D01*
X129303809Y-98242380D01*
X129208571Y-98194761D01*
X129160952Y-98147142D01*
X129113333Y-98051904D01*
X129113333Y-97956666D01*
X129160952Y-97861428D01*
X129208571Y-97813809D01*
X129303809Y-97766190D01*
X129494285Y-97718571D01*
X129589523Y-97670952D01*
X129637142Y-97623333D01*
X129684761Y-97528095D01*
X129684761Y-97432857D01*
X129637142Y-97337619D01*
X129589523Y-97290000D01*
X129494285Y-97242380D01*
X129256190Y-97242380D01*
X129113333Y-97290000D01*
X128684761Y-98242380D02*
X128684761Y-97242380D01*
X128303809Y-97242380D01*
X128208571Y-97290000D01*
X128160952Y-97337619D01*
X128113333Y-97432857D01*
X128113333Y-97575714D01*
X128160952Y-97670952D01*
X128208571Y-97718571D01*
X128303809Y-97766190D01*
X128684761Y-97766190D01*
X127732380Y-97956666D02*
X127256190Y-97956666D01*
X127827619Y-98242380D02*
X127494285Y-97242380D01*
X127160952Y-98242380D01*
X126256190Y-98147142D02*
X126303809Y-98194761D01*
X126446666Y-98242380D01*
X126541904Y-98242380D01*
X126684761Y-98194761D01*
X126779999Y-98099523D01*
X126827619Y-98004285D01*
X126875238Y-97813809D01*
X126875238Y-97670952D01*
X126827619Y-97480476D01*
X126779999Y-97385238D01*
X126684761Y-97290000D01*
X126541904Y-97242380D01*
X126446666Y-97242380D01*
X126303809Y-97290000D01*
X126256190Y-97337619D01*
X125827619Y-98242380D02*
X125827619Y-97242380D01*
X125351428Y-98242380D02*
X125351428Y-97242380D01*
X124779999Y-98242380D01*
X124779999Y-97242380D01*
X123779999Y-97290000D02*
X123875238Y-97242380D01*
X124018095Y-97242380D01*
X124160952Y-97290000D01*
X124256190Y-97385238D01*
X124303809Y-97480476D01*
X124351428Y-97670952D01*
X124351428Y-97813809D01*
X124303809Y-98004285D01*
X124256190Y-98099523D01*
X124160952Y-98194761D01*
X124018095Y-98242380D01*
X123922857Y-98242380D01*
X123779999Y-98194761D01*
X123732380Y-98147142D01*
X123732380Y-97813809D01*
X123922857Y-97813809D01*
X123399047Y-98623333D02*
X123351428Y-98575714D01*
X123256190Y-98432857D01*
X123208571Y-98337619D01*
X123160952Y-98194761D01*
X123113333Y-97956666D01*
X123113333Y-97766190D01*
X123160952Y-97528095D01*
X123208571Y-97385238D01*
X123256190Y-97290000D01*
X123351428Y-97147142D01*
X123399047Y-97099523D01*
X167369047Y-75334761D02*
X167226190Y-75382380D01*
X166988095Y-75382380D01*
X166892857Y-75334761D01*
X166845238Y-75287142D01*
X166797619Y-75191904D01*
X166797619Y-75096666D01*
X166845238Y-75001428D01*
X166892857Y-74953809D01*
X166988095Y-74906190D01*
X167178571Y-74858571D01*
X167273809Y-74810952D01*
X167321428Y-74763333D01*
X167369047Y-74668095D01*
X167369047Y-74572857D01*
X167321428Y-74477619D01*
X167273809Y-74430000D01*
X167178571Y-74382380D01*
X166940476Y-74382380D01*
X166797619Y-74430000D01*
X166369047Y-75382380D02*
X166369047Y-74382380D01*
X165988095Y-74382380D01*
X165892857Y-74430000D01*
X165845238Y-74477619D01*
X165797619Y-74572857D01*
X165797619Y-74715714D01*
X165845238Y-74810952D01*
X165892857Y-74858571D01*
X165988095Y-74906190D01*
X166369047Y-74906190D01*
X165369047Y-75382380D02*
X165369047Y-74382380D01*
X165130952Y-74382380D01*
X164988095Y-74430000D01*
X164892857Y-74525238D01*
X164845238Y-74620476D01*
X164797619Y-74810952D01*
X164797619Y-74953809D01*
X164845238Y-75144285D01*
X164892857Y-75239523D01*
X164988095Y-75334761D01*
X165130952Y-75382380D01*
X165369047Y-75382380D01*
X164511904Y-74382380D02*
X163940476Y-74382380D01*
X164226190Y-75382380D02*
X164226190Y-74382380D01*
X162892857Y-75334761D02*
X162750000Y-75382380D01*
X162511904Y-75382380D01*
X162416666Y-75334761D01*
X162369047Y-75287142D01*
X162321428Y-75191904D01*
X162321428Y-75096666D01*
X162369047Y-75001428D01*
X162416666Y-74953809D01*
X162511904Y-74906190D01*
X162702380Y-74858571D01*
X162797619Y-74810952D01*
X162845238Y-74763333D01*
X162892857Y-74668095D01*
X162892857Y-74572857D01*
X162845238Y-74477619D01*
X162797619Y-74430000D01*
X162702380Y-74382380D01*
X162464285Y-74382380D01*
X162321428Y-74430000D01*
X161988095Y-74382380D02*
X161750000Y-75382380D01*
X161559523Y-74668095D01*
X161369047Y-75382380D01*
X161130952Y-74382380D01*
X160750000Y-75382380D02*
X160750000Y-74382380D01*
X160416666Y-74382380D02*
X159845238Y-74382380D01*
X160130952Y-75382380D02*
X160130952Y-74382380D01*
X158940476Y-75287142D02*
X158988095Y-75334761D01*
X159130952Y-75382380D01*
X159226190Y-75382380D01*
X159369047Y-75334761D01*
X159464285Y-75239523D01*
X159511904Y-75144285D01*
X159559523Y-74953809D01*
X159559523Y-74810952D01*
X159511904Y-74620476D01*
X159464285Y-74525238D01*
X159369047Y-74430000D01*
X159226190Y-74382380D01*
X159130952Y-74382380D01*
X158988095Y-74430000D01*
X158940476Y-74477619D01*
X158511904Y-75382380D02*
X158511904Y-74382380D01*
X158511904Y-74858571D02*
X157940476Y-74858571D01*
X157940476Y-75382380D02*
X157940476Y-74382380D01*
X156750000Y-74334761D02*
X157607142Y-75620476D01*
X156464285Y-75334761D02*
X156321428Y-75382380D01*
X156083333Y-75382380D01*
X155988095Y-75334761D01*
X155940476Y-75287142D01*
X155892857Y-75191904D01*
X155892857Y-75096666D01*
X155940476Y-75001428D01*
X155988095Y-74953809D01*
X156083333Y-74906190D01*
X156273809Y-74858571D01*
X156369047Y-74810952D01*
X156416666Y-74763333D01*
X156464285Y-74668095D01*
X156464285Y-74572857D01*
X156416666Y-74477619D01*
X156369047Y-74430000D01*
X156273809Y-74382380D01*
X156035714Y-74382380D01*
X155892857Y-74430000D01*
X155511904Y-75334761D02*
X155369047Y-75382380D01*
X155130952Y-75382380D01*
X155035714Y-75334761D01*
X154988095Y-75287142D01*
X154940476Y-75191904D01*
X154940476Y-75096666D01*
X154988095Y-75001428D01*
X155035714Y-74953809D01*
X155130952Y-74906190D01*
X155321428Y-74858571D01*
X155416666Y-74810952D01*
X155464285Y-74763333D01*
X155511904Y-74668095D01*
X155511904Y-74572857D01*
X155464285Y-74477619D01*
X155416666Y-74430000D01*
X155321428Y-74382380D01*
X155083333Y-74382380D01*
X154940476Y-74430000D01*
X153988095Y-75382380D02*
X154559523Y-75382380D01*
X154273809Y-75382380D02*
X154273809Y-74382380D01*
X154369047Y-74525238D01*
X154464285Y-74620476D01*
X154559523Y-74668095D01*
X153607142Y-74477619D02*
X153559523Y-74430000D01*
X153464285Y-74382380D01*
X153226190Y-74382380D01*
X153130952Y-74430000D01*
X153083333Y-74477619D01*
X153035714Y-74572857D01*
X153035714Y-74668095D01*
X153083333Y-74810952D01*
X153654761Y-75382380D01*
X153035714Y-75382380D01*
X152607142Y-75382380D02*
X152607142Y-74382380D01*
X152369047Y-74382380D01*
X152226190Y-74430000D01*
X152130952Y-74525238D01*
X152083333Y-74620476D01*
X152035714Y-74810952D01*
X152035714Y-74953809D01*
X152083333Y-75144285D01*
X152130952Y-75239523D01*
X152226190Y-75334761D01*
X152369047Y-75382380D01*
X152607142Y-75382380D01*
X151083333Y-75382380D02*
X151654761Y-75382380D01*
X151369047Y-75382380D02*
X151369047Y-74382380D01*
X151464285Y-74525238D01*
X151559523Y-74620476D01*
X151654761Y-74668095D01*
X150464285Y-74382380D02*
X150369047Y-74382380D01*
X150273809Y-74430000D01*
X150226190Y-74477619D01*
X150178571Y-74572857D01*
X150130952Y-74763333D01*
X150130952Y-75001428D01*
X150178571Y-75191904D01*
X150226190Y-75287142D01*
X150273809Y-75334761D01*
X150369047Y-75382380D01*
X150464285Y-75382380D01*
X150559523Y-75334761D01*
X150607142Y-75287142D01*
X150654761Y-75191904D01*
X150702380Y-75001428D01*
X150702380Y-74763333D01*
X150654761Y-74572857D01*
X150607142Y-74477619D01*
X150559523Y-74430000D01*
X150464285Y-74382380D01*
X135833809Y-120102380D02*
X136024285Y-120102380D01*
X136119523Y-120150000D01*
X136167142Y-120197619D01*
X136262380Y-120340476D01*
X136310000Y-120530952D01*
X136310000Y-120911904D01*
X136262380Y-121007142D01*
X136214761Y-121054761D01*
X136119523Y-121102380D01*
X135929047Y-121102380D01*
X135833809Y-121054761D01*
X135786190Y-121007142D01*
X135738571Y-120911904D01*
X135738571Y-120673809D01*
X135786190Y-120578571D01*
X135833809Y-120530952D01*
X135929047Y-120483333D01*
X136119523Y-120483333D01*
X136214761Y-120530952D01*
X136262380Y-120578571D01*
X136310000Y-120673809D01*
X134548095Y-121102380D02*
X134548095Y-120102380D01*
X134214761Y-120816666D01*
X133881428Y-120102380D01*
X133881428Y-121102380D01*
X133405238Y-121102380D02*
X133405238Y-120102380D01*
X133071904Y-120816666D01*
X132738571Y-120102380D01*
X132738571Y-121102380D01*
X131167142Y-120578571D02*
X131024285Y-120626190D01*
X130976666Y-120673809D01*
X130929047Y-120769047D01*
X130929047Y-120911904D01*
X130976666Y-121007142D01*
X131024285Y-121054761D01*
X131119523Y-121102380D01*
X131500476Y-121102380D01*
X131500476Y-120102380D01*
X131167142Y-120102380D01*
X131071904Y-120150000D01*
X131024285Y-120197619D01*
X130976666Y-120292857D01*
X130976666Y-120388095D01*
X131024285Y-120483333D01*
X131071904Y-120530952D01*
X131167142Y-120578571D01*
X131500476Y-120578571D01*
X130500476Y-120102380D02*
X130500476Y-120911904D01*
X130452857Y-121007142D01*
X130405238Y-121054761D01*
X130310000Y-121102380D01*
X130119523Y-121102380D01*
X130024285Y-121054761D01*
X129976666Y-121007142D01*
X129929047Y-120911904D01*
X129929047Y-120102380D01*
X129595714Y-120102380D02*
X129024285Y-120102380D01*
X129310000Y-121102380D02*
X129310000Y-120102380D01*
X128833809Y-120102380D02*
X128262380Y-120102380D01*
X128548095Y-121102380D02*
X128548095Y-120102380D01*
X127738571Y-120102380D02*
X127548095Y-120102380D01*
X127452857Y-120150000D01*
X127357619Y-120245238D01*
X127310000Y-120435714D01*
X127310000Y-120769047D01*
X127357619Y-120959523D01*
X127452857Y-121054761D01*
X127548095Y-121102380D01*
X127738571Y-121102380D01*
X127833809Y-121054761D01*
X127929047Y-120959523D01*
X127976666Y-120769047D01*
X127976666Y-120435714D01*
X127929047Y-120245238D01*
X127833809Y-120150000D01*
X127738571Y-120102380D01*
X126881428Y-121102380D02*
X126881428Y-120102380D01*
X126310000Y-121102380D01*
X126310000Y-120102380D01*
X125881428Y-121054761D02*
X125738571Y-121102380D01*
X125500476Y-121102380D01*
X125405238Y-121054761D01*
X125357619Y-121007142D01*
X125310000Y-120911904D01*
X125310000Y-120816666D01*
X125357619Y-120721428D01*
X125405238Y-120673809D01*
X125500476Y-120626190D01*
X125690952Y-120578571D01*
X125786190Y-120530952D01*
X125833809Y-120483333D01*
X125881428Y-120388095D01*
X125881428Y-120292857D01*
X125833809Y-120197619D01*
X125786190Y-120150000D01*
X125690952Y-120102380D01*
X125452857Y-120102380D01*
X125310000Y-120150000D01*
X160440476Y-121102380D02*
X160440476Y-120102380D01*
X160202380Y-120102380D01*
X160059523Y-120150000D01*
X159964285Y-120245238D01*
X159916666Y-120340476D01*
X159869047Y-120530952D01*
X159869047Y-120673809D01*
X159916666Y-120864285D01*
X159964285Y-120959523D01*
X160059523Y-121054761D01*
X160202380Y-121102380D01*
X160440476Y-121102380D01*
X159440476Y-121102380D02*
X159440476Y-120102380D01*
X159059523Y-120102380D01*
X158964285Y-120150000D01*
X158916666Y-120197619D01*
X158869047Y-120292857D01*
X158869047Y-120435714D01*
X158916666Y-120530952D01*
X158964285Y-120578571D01*
X159059523Y-120626190D01*
X159440476Y-120626190D01*
X158488095Y-120816666D02*
X158011904Y-120816666D01*
X158583333Y-121102380D02*
X158250000Y-120102380D01*
X157916666Y-121102380D01*
X157583333Y-121102380D02*
X157583333Y-120102380D01*
X157345238Y-120102380D01*
X157202380Y-120150000D01*
X157107142Y-120245238D01*
X157059523Y-120340476D01*
X157011904Y-120530952D01*
X157011904Y-120673809D01*
X157059523Y-120864285D01*
X157107142Y-120959523D01*
X157202380Y-121054761D01*
X157345238Y-121102380D01*
X157583333Y-121102380D01*
X162272380Y-143962380D02*
X162272380Y-142962380D01*
X161891428Y-142962380D01*
X161796190Y-143010000D01*
X161748571Y-143057619D01*
X161700952Y-143152857D01*
X161700952Y-143295714D01*
X161748571Y-143390952D01*
X161796190Y-143438571D01*
X161891428Y-143486190D01*
X162272380Y-143486190D01*
X161320000Y-143914761D02*
X161177142Y-143962380D01*
X160939047Y-143962380D01*
X160843809Y-143914761D01*
X160796190Y-143867142D01*
X160748571Y-143771904D01*
X160748571Y-143676666D01*
X160796190Y-143581428D01*
X160843809Y-143533809D01*
X160939047Y-143486190D01*
X161129523Y-143438571D01*
X161224761Y-143390952D01*
X161272380Y-143343333D01*
X161320000Y-143248095D01*
X161320000Y-143152857D01*
X161272380Y-143057619D01*
X161224761Y-143010000D01*
X161129523Y-142962380D01*
X160891428Y-142962380D01*
X160748571Y-143010000D01*
X159891428Y-143295714D02*
X159891428Y-143962380D01*
X160129523Y-142914761D02*
X160367619Y-143629047D01*
X159748571Y-143629047D01*
X158653333Y-142914761D02*
X159510476Y-144200476D01*
X158415238Y-142962380D02*
X157748571Y-143962380D01*
X157748571Y-142962380D02*
X158415238Y-143962380D01*
X157034285Y-143438571D02*
X156891428Y-143486190D01*
X156843809Y-143533809D01*
X156796190Y-143629047D01*
X156796190Y-143771904D01*
X156843809Y-143867142D01*
X156891428Y-143914761D01*
X156986666Y-143962380D01*
X157367619Y-143962380D01*
X157367619Y-142962380D01*
X157034285Y-142962380D01*
X156939047Y-143010000D01*
X156891428Y-143057619D01*
X156843809Y-143152857D01*
X156843809Y-143248095D01*
X156891428Y-143343333D01*
X156939047Y-143390952D01*
X157034285Y-143438571D01*
X157367619Y-143438571D01*
X156177142Y-142962380D02*
X155986666Y-142962380D01*
X155891428Y-143010000D01*
X155796190Y-143105238D01*
X155748571Y-143295714D01*
X155748571Y-143629047D01*
X155796190Y-143819523D01*
X155891428Y-143914761D01*
X155986666Y-143962380D01*
X156177142Y-143962380D01*
X156272380Y-143914761D01*
X156367619Y-143819523D01*
X156415238Y-143629047D01*
X156415238Y-143295714D01*
X156367619Y-143105238D01*
X156272380Y-143010000D01*
X156177142Y-142962380D01*
X155415238Y-142962380D02*
X154748571Y-143962380D01*
X154748571Y-142962380D02*
X155415238Y-143962380D01*
X153415238Y-142962380D02*
X153224761Y-142962380D01*
X153129523Y-143010000D01*
X153034285Y-143105238D01*
X152986666Y-143295714D01*
X152986666Y-143629047D01*
X153034285Y-143819523D01*
X153129523Y-143914761D01*
X153224761Y-143962380D01*
X153415238Y-143962380D01*
X153510476Y-143914761D01*
X153605714Y-143819523D01*
X153653333Y-143629047D01*
X153653333Y-143295714D01*
X153605714Y-143105238D01*
X153510476Y-143010000D01*
X153415238Y-142962380D01*
X152558095Y-143962380D02*
X152558095Y-142962380D01*
X151986666Y-143962380D01*
X151986666Y-142962380D01*
X151510476Y-143438571D02*
X151177142Y-143438571D01*
X151034285Y-143962380D02*
X151510476Y-143962380D01*
X151510476Y-142962380D01*
X151034285Y-142962380D01*
X149272380Y-143962380D02*
X149605714Y-143486190D01*
X149843809Y-143962380D02*
X149843809Y-142962380D01*
X149462857Y-142962380D01*
X149367619Y-143010000D01*
X149320000Y-143057619D01*
X149272380Y-143152857D01*
X149272380Y-143295714D01*
X149320000Y-143390952D01*
X149367619Y-143438571D01*
X149462857Y-143486190D01*
X149843809Y-143486190D01*
X148843809Y-143438571D02*
X148510476Y-143438571D01*
X148367619Y-143962380D02*
X148843809Y-143962380D01*
X148843809Y-142962380D01*
X148367619Y-142962380D01*
X147939047Y-143962380D02*
X147939047Y-142962380D01*
X147558095Y-142962380D01*
X147462857Y-143010000D01*
X147415238Y-143057619D01*
X147367619Y-143152857D01*
X147367619Y-143295714D01*
X147415238Y-143390952D01*
X147462857Y-143438571D01*
X147558095Y-143486190D01*
X147939047Y-143486190D01*
X146462857Y-143962380D02*
X146939047Y-143962380D01*
X146939047Y-142962380D01*
X146177142Y-143676666D02*
X145700952Y-143676666D01*
X146272380Y-143962380D02*
X145939047Y-142962380D01*
X145605714Y-143962380D01*
X144700952Y-143867142D02*
X144748571Y-143914761D01*
X144891428Y-143962380D01*
X144986666Y-143962380D01*
X145129523Y-143914761D01*
X145224761Y-143819523D01*
X145272380Y-143724285D01*
X145320000Y-143533809D01*
X145320000Y-143390952D01*
X145272380Y-143200476D01*
X145224761Y-143105238D01*
X145129523Y-143010000D01*
X144986666Y-142962380D01*
X144891428Y-142962380D01*
X144748571Y-143010000D01*
X144700952Y-143057619D01*
X144272380Y-143438571D02*
X143939047Y-143438571D01*
X143796190Y-143962380D02*
X144272380Y-143962380D01*
X144272380Y-142962380D01*
X143796190Y-142962380D01*
X143367619Y-143962380D02*
X143367619Y-142962380D01*
X143034285Y-143676666D01*
X142700952Y-142962380D01*
X142700952Y-143962380D01*
X142224761Y-143438571D02*
X141891428Y-143438571D01*
X141748571Y-143962380D02*
X142224761Y-143962380D01*
X142224761Y-142962380D01*
X141748571Y-142962380D01*
X141320000Y-143962380D02*
X141320000Y-142962380D01*
X140748571Y-143962380D01*
X140748571Y-142962380D01*
X140415238Y-142962380D02*
X139843809Y-142962380D01*
X140129523Y-143962380D02*
X140129523Y-142962380D01*
X138462857Y-142962380D02*
X138462857Y-143676666D01*
X138510476Y-143819523D01*
X138605714Y-143914761D01*
X138748571Y-143962380D01*
X138843809Y-143962380D01*
X137796190Y-142962380D02*
X137605714Y-142962380D01*
X137510476Y-143010000D01*
X137415238Y-143105238D01*
X137367619Y-143295714D01*
X137367619Y-143629047D01*
X137415238Y-143819523D01*
X137510476Y-143914761D01*
X137605714Y-143962380D01*
X137796190Y-143962380D01*
X137891428Y-143914761D01*
X137986666Y-143819523D01*
X138034285Y-143629047D01*
X138034285Y-143295714D01*
X137986666Y-143105238D01*
X137891428Y-143010000D01*
X137796190Y-142962380D01*
X136748571Y-143486190D02*
X136748571Y-143962380D01*
X137081904Y-142962380D02*
X136748571Y-143486190D01*
X136415238Y-142962380D01*
X136129523Y-143914761D02*
X135986666Y-143962380D01*
X135748571Y-143962380D01*
X135653333Y-143914761D01*
X135605714Y-143867142D01*
X135558095Y-143771904D01*
X135558095Y-143676666D01*
X135605714Y-143581428D01*
X135653333Y-143533809D01*
X135748571Y-143486190D01*
X135939047Y-143438571D01*
X136034285Y-143390952D01*
X136081904Y-143343333D01*
X136129523Y-143248095D01*
X136129523Y-143152857D01*
X136081904Y-143057619D01*
X136034285Y-143010000D01*
X135939047Y-142962380D01*
X135700952Y-142962380D01*
X135558095Y-143010000D01*
X135272380Y-142962380D02*
X134700952Y-142962380D01*
X134986666Y-143962380D02*
X134986666Y-142962380D01*
X134367619Y-143962380D02*
X134367619Y-142962380D01*
X133320000Y-143867142D02*
X133367619Y-143914761D01*
X133510476Y-143962380D01*
X133605714Y-143962380D01*
X133748571Y-143914761D01*
X133843809Y-143819523D01*
X133891428Y-143724285D01*
X133939047Y-143533809D01*
X133939047Y-143390952D01*
X133891428Y-143200476D01*
X133843809Y-143105238D01*
X133748571Y-143010000D01*
X133605714Y-142962380D01*
X133510476Y-142962380D01*
X133367619Y-143010000D01*
X133320000Y-143057619D01*
X132891428Y-143962380D02*
X132891428Y-142962380D01*
X132320000Y-143962380D02*
X132748571Y-143390952D01*
X132320000Y-142962380D02*
X132891428Y-143533809D01*
X109608095Y-143057619D02*
X109560476Y-143010000D01*
X109465238Y-142962380D01*
X109227142Y-142962380D01*
X109131904Y-143010000D01*
X109084285Y-143057619D01*
X109036666Y-143152857D01*
X109036666Y-143248095D01*
X109084285Y-143390952D01*
X109655714Y-143962380D01*
X109036666Y-143962380D01*
X107941428Y-142962380D02*
X107274761Y-143962380D01*
X107274761Y-142962380D02*
X107941428Y-143962380D01*
X105703333Y-142962380D02*
X105893809Y-142962380D01*
X105989047Y-143010000D01*
X106036666Y-143057619D01*
X106131904Y-143200476D01*
X106179523Y-143390952D01*
X106179523Y-143771904D01*
X106131904Y-143867142D01*
X106084285Y-143914761D01*
X105989047Y-143962380D01*
X105798571Y-143962380D01*
X105703333Y-143914761D01*
X105655714Y-143867142D01*
X105608095Y-143771904D01*
X105608095Y-143533809D01*
X105655714Y-143438571D01*
X105703333Y-143390952D01*
X105798571Y-143343333D01*
X105989047Y-143343333D01*
X106084285Y-143390952D01*
X106131904Y-143438571D01*
X106179523Y-143533809D01*
X104417619Y-143962380D02*
X104417619Y-142962380D01*
X104084285Y-143676666D01*
X103750952Y-142962380D01*
X103750952Y-143962380D01*
X103274761Y-143962380D02*
X103274761Y-142962380D01*
X102941428Y-143676666D01*
X102608095Y-142962380D01*
X102608095Y-143962380D01*
X101036666Y-143438571D02*
X100893809Y-143486190D01*
X100846190Y-143533809D01*
X100798571Y-143629047D01*
X100798571Y-143771904D01*
X100846190Y-143867142D01*
X100893809Y-143914761D01*
X100989047Y-143962380D01*
X101370000Y-143962380D01*
X101370000Y-142962380D01*
X101036666Y-142962380D01*
X100941428Y-143010000D01*
X100893809Y-143057619D01*
X100846190Y-143152857D01*
X100846190Y-143248095D01*
X100893809Y-143343333D01*
X100941428Y-143390952D01*
X101036666Y-143438571D01*
X101370000Y-143438571D01*
X100370000Y-142962380D02*
X100370000Y-143771904D01*
X100322380Y-143867142D01*
X100274761Y-143914761D01*
X100179523Y-143962380D01*
X99989047Y-143962380D01*
X99893809Y-143914761D01*
X99846190Y-143867142D01*
X99798571Y-143771904D01*
X99798571Y-142962380D01*
X99465238Y-142962380D02*
X98893809Y-142962380D01*
X99179523Y-143962380D02*
X99179523Y-142962380D01*
X98703333Y-142962380D02*
X98131904Y-142962380D01*
X98417619Y-143962380D02*
X98417619Y-142962380D01*
X97608095Y-142962380D02*
X97417619Y-142962380D01*
X97322380Y-143010000D01*
X97227142Y-143105238D01*
X97179523Y-143295714D01*
X97179523Y-143629047D01*
X97227142Y-143819523D01*
X97322380Y-143914761D01*
X97417619Y-143962380D01*
X97608095Y-143962380D01*
X97703333Y-143914761D01*
X97798571Y-143819523D01*
X97846190Y-143629047D01*
X97846190Y-143295714D01*
X97798571Y-143105238D01*
X97703333Y-143010000D01*
X97608095Y-142962380D01*
X96750952Y-143962380D02*
X96750952Y-142962380D01*
X96179523Y-143962380D01*
X96179523Y-142962380D01*
X107417619Y-120102380D02*
X107608095Y-120102380D01*
X107703333Y-120150000D01*
X107750952Y-120197619D01*
X107846190Y-120340476D01*
X107893809Y-120530952D01*
X107893809Y-120911904D01*
X107846190Y-121007142D01*
X107798571Y-121054761D01*
X107703333Y-121102380D01*
X107512857Y-121102380D01*
X107417619Y-121054761D01*
X107370000Y-121007142D01*
X107322380Y-120911904D01*
X107322380Y-120673809D01*
X107370000Y-120578571D01*
X107417619Y-120530952D01*
X107512857Y-120483333D01*
X107703333Y-120483333D01*
X107798571Y-120530952D01*
X107846190Y-120578571D01*
X107893809Y-120673809D01*
X106131904Y-121102380D02*
X106131904Y-120102380D01*
X105798571Y-120816666D01*
X105465238Y-120102380D01*
X105465238Y-121102380D01*
X104989047Y-121102380D02*
X104989047Y-120102380D01*
X104655714Y-120816666D01*
X104322380Y-120102380D01*
X104322380Y-121102380D01*
X102750952Y-120578571D02*
X102608095Y-120626190D01*
X102560476Y-120673809D01*
X102512857Y-120769047D01*
X102512857Y-120911904D01*
X102560476Y-121007142D01*
X102608095Y-121054761D01*
X102703333Y-121102380D01*
X103084285Y-121102380D01*
X103084285Y-120102380D01*
X102750952Y-120102380D01*
X102655714Y-120150000D01*
X102608095Y-120197619D01*
X102560476Y-120292857D01*
X102560476Y-120388095D01*
X102608095Y-120483333D01*
X102655714Y-120530952D01*
X102750952Y-120578571D01*
X103084285Y-120578571D01*
X102084285Y-120102380D02*
X102084285Y-120911904D01*
X102036666Y-121007142D01*
X101989047Y-121054761D01*
X101893809Y-121102380D01*
X101703333Y-121102380D01*
X101608095Y-121054761D01*
X101560476Y-121007142D01*
X101512857Y-120911904D01*
X101512857Y-120102380D01*
X101179523Y-120102380D02*
X100608095Y-120102380D01*
X100893809Y-121102380D02*
X100893809Y-120102380D01*
X100417619Y-120102380D02*
X99846190Y-120102380D01*
X100131904Y-121102380D02*
X100131904Y-120102380D01*
X99322380Y-120102380D02*
X99131904Y-120102380D01*
X99036666Y-120150000D01*
X98941428Y-120245238D01*
X98893809Y-120435714D01*
X98893809Y-120769047D01*
X98941428Y-120959523D01*
X99036666Y-121054761D01*
X99131904Y-121102380D01*
X99322380Y-121102380D01*
X99417619Y-121054761D01*
X99512857Y-120959523D01*
X99560476Y-120769047D01*
X99560476Y-120435714D01*
X99512857Y-120245238D01*
X99417619Y-120150000D01*
X99322380Y-120102380D01*
X98465238Y-121102380D02*
X98465238Y-120102380D01*
X97893809Y-121102380D01*
X97893809Y-120102380D01*
X110274761Y-98242380D02*
X110608095Y-97766190D01*
X110846190Y-98242380D02*
X110846190Y-97242380D01*
X110465238Y-97242380D01*
X110370000Y-97290000D01*
X110322380Y-97337619D01*
X110274761Y-97432857D01*
X110274761Y-97575714D01*
X110322380Y-97670952D01*
X110370000Y-97718571D01*
X110465238Y-97766190D01*
X110846190Y-97766190D01*
X109846190Y-98242380D02*
X109846190Y-97242380D01*
X109274761Y-98242380D02*
X109703333Y-97670952D01*
X109274761Y-97242380D02*
X109846190Y-97813809D01*
X108655714Y-97242380D02*
X108560476Y-97242380D01*
X108465238Y-97290000D01*
X108417619Y-97337619D01*
X108370000Y-97432857D01*
X108322380Y-97623333D01*
X108322380Y-97861428D01*
X108370000Y-98051904D01*
X108417619Y-98147142D01*
X108465238Y-98194761D01*
X108560476Y-98242380D01*
X108655714Y-98242380D01*
X108750952Y-98194761D01*
X108798571Y-98147142D01*
X108846190Y-98051904D01*
X108893809Y-97861428D01*
X108893809Y-97623333D01*
X108846190Y-97432857D01*
X108798571Y-97337619D01*
X108750952Y-97290000D01*
X108655714Y-97242380D01*
X107846190Y-98242380D02*
X107655714Y-98242380D01*
X107560476Y-98194761D01*
X107512857Y-98147142D01*
X107417619Y-98004285D01*
X107370000Y-97813809D01*
X107370000Y-97432857D01*
X107417619Y-97337619D01*
X107465238Y-97290000D01*
X107560476Y-97242380D01*
X107750952Y-97242380D01*
X107846190Y-97290000D01*
X107893809Y-97337619D01*
X107941428Y-97432857D01*
X107941428Y-97670952D01*
X107893809Y-97766190D01*
X107846190Y-97813809D01*
X107750952Y-97861428D01*
X107560476Y-97861428D01*
X107465238Y-97813809D01*
X107417619Y-97766190D01*
X107370000Y-97670952D01*
X106179523Y-98242380D02*
X106179523Y-97242380D01*
X105798571Y-97242380D01*
X105703333Y-97290000D01*
X105655714Y-97337619D01*
X105608095Y-97432857D01*
X105608095Y-97575714D01*
X105655714Y-97670952D01*
X105703333Y-97718571D01*
X105798571Y-97766190D01*
X106179523Y-97766190D01*
X104989047Y-97242380D02*
X104798571Y-97242380D01*
X104703333Y-97290000D01*
X104608095Y-97385238D01*
X104560476Y-97575714D01*
X104560476Y-97909047D01*
X104608095Y-98099523D01*
X104703333Y-98194761D01*
X104798571Y-98242380D01*
X104989047Y-98242380D01*
X105084285Y-98194761D01*
X105179523Y-98099523D01*
X105227142Y-97909047D01*
X105227142Y-97575714D01*
X105179523Y-97385238D01*
X105084285Y-97290000D01*
X104989047Y-97242380D01*
X104274761Y-97242380D02*
X103703333Y-97242380D01*
X103989047Y-98242380D02*
X103989047Y-97242380D01*
X103370000Y-97718571D02*
X103036666Y-97718571D01*
X102893809Y-98242380D02*
X103370000Y-98242380D01*
X103370000Y-97242380D01*
X102893809Y-97242380D01*
X102465238Y-98242380D02*
X102465238Y-97242380D01*
X101893809Y-98242380D01*
X101893809Y-97242380D01*
X101560476Y-97242380D02*
X100989047Y-97242380D01*
X101274761Y-98242380D02*
X101274761Y-97242380D01*
X100655714Y-98242380D02*
X100655714Y-97242380D01*
X99989047Y-97242380D02*
X99798571Y-97242380D01*
X99703333Y-97290000D01*
X99608095Y-97385238D01*
X99560476Y-97575714D01*
X99560476Y-97909047D01*
X99608095Y-98099523D01*
X99703333Y-98194761D01*
X99798571Y-98242380D01*
X99989047Y-98242380D01*
X100084285Y-98194761D01*
X100179523Y-98099523D01*
X100227142Y-97909047D01*
X100227142Y-97575714D01*
X100179523Y-97385238D01*
X100084285Y-97290000D01*
X99989047Y-97242380D01*
X99131904Y-98242380D02*
X99131904Y-97242380D01*
X98798571Y-97956666D01*
X98465238Y-97242380D01*
X98465238Y-98242380D01*
X97989047Y-97718571D02*
X97655714Y-97718571D01*
X97512857Y-98242380D02*
X97989047Y-98242380D01*
X97989047Y-97242380D01*
X97512857Y-97242380D01*
X97227142Y-97242380D02*
X96655714Y-97242380D01*
X96941428Y-98242380D02*
X96941428Y-97242380D01*
X96322380Y-97718571D02*
X95989047Y-97718571D01*
X95846190Y-98242380D02*
X96322380Y-98242380D01*
X96322380Y-97242380D01*
X95846190Y-97242380D01*
X94846190Y-98242380D02*
X95179523Y-97766190D01*
X95417619Y-98242380D02*
X95417619Y-97242380D01*
X95036666Y-97242380D01*
X94941428Y-97290000D01*
X94893809Y-97337619D01*
X94846190Y-97432857D01*
X94846190Y-97575714D01*
X94893809Y-97670952D01*
X94941428Y-97718571D01*
X95036666Y-97766190D01*
X95417619Y-97766190D01*
X111489047Y-75334761D02*
X111346190Y-75382380D01*
X111108095Y-75382380D01*
X111012857Y-75334761D01*
X110965238Y-75287142D01*
X110917619Y-75191904D01*
X110917619Y-75096666D01*
X110965238Y-75001428D01*
X111012857Y-74953809D01*
X111108095Y-74906190D01*
X111298571Y-74858571D01*
X111393809Y-74810952D01*
X111441428Y-74763333D01*
X111489047Y-74668095D01*
X111489047Y-74572857D01*
X111441428Y-74477619D01*
X111393809Y-74430000D01*
X111298571Y-74382380D01*
X111060476Y-74382380D01*
X110917619Y-74430000D01*
X110489047Y-75382380D02*
X110489047Y-74382380D01*
X110108095Y-74382380D01*
X110012857Y-74430000D01*
X109965238Y-74477619D01*
X109917619Y-74572857D01*
X109917619Y-74715714D01*
X109965238Y-74810952D01*
X110012857Y-74858571D01*
X110108095Y-74906190D01*
X110489047Y-74906190D01*
X109489047Y-75382380D02*
X109489047Y-74382380D01*
X109250952Y-74382380D01*
X109108095Y-74430000D01*
X109012857Y-74525238D01*
X108965238Y-74620476D01*
X108917619Y-74810952D01*
X108917619Y-74953809D01*
X108965238Y-75144285D01*
X109012857Y-75239523D01*
X109108095Y-75334761D01*
X109250952Y-75382380D01*
X109489047Y-75382380D01*
X108631904Y-74382380D02*
X108060476Y-74382380D01*
X108346190Y-75382380D02*
X108346190Y-74382380D01*
X107012857Y-75334761D02*
X106870000Y-75382380D01*
X106631904Y-75382380D01*
X106536666Y-75334761D01*
X106489047Y-75287142D01*
X106441428Y-75191904D01*
X106441428Y-75096666D01*
X106489047Y-75001428D01*
X106536666Y-74953809D01*
X106631904Y-74906190D01*
X106822380Y-74858571D01*
X106917619Y-74810952D01*
X106965238Y-74763333D01*
X107012857Y-74668095D01*
X107012857Y-74572857D01*
X106965238Y-74477619D01*
X106917619Y-74430000D01*
X106822380Y-74382380D01*
X106584285Y-74382380D01*
X106441428Y-74430000D01*
X106108095Y-74382380D02*
X105870000Y-75382380D01*
X105679523Y-74668095D01*
X105489047Y-75382380D01*
X105250952Y-74382380D01*
X104870000Y-75382380D02*
X104870000Y-74382380D01*
X104536666Y-74382380D02*
X103965238Y-74382380D01*
X104250952Y-75382380D02*
X104250952Y-74382380D01*
X103060476Y-75287142D02*
X103108095Y-75334761D01*
X103250952Y-75382380D01*
X103346190Y-75382380D01*
X103489047Y-75334761D01*
X103584285Y-75239523D01*
X103631904Y-75144285D01*
X103679523Y-74953809D01*
X103679523Y-74810952D01*
X103631904Y-74620476D01*
X103584285Y-74525238D01*
X103489047Y-74430000D01*
X103346190Y-74382380D01*
X103250952Y-74382380D01*
X103108095Y-74430000D01*
X103060476Y-74477619D01*
X102631904Y-75382380D02*
X102631904Y-74382380D01*
X102631904Y-74858571D02*
X102060476Y-74858571D01*
X102060476Y-75382380D02*
X102060476Y-74382380D01*
X100870000Y-74334761D02*
X101727142Y-75620476D01*
X100584285Y-75334761D02*
X100441428Y-75382380D01*
X100203333Y-75382380D01*
X100108095Y-75334761D01*
X100060476Y-75287142D01*
X100012857Y-75191904D01*
X100012857Y-75096666D01*
X100060476Y-75001428D01*
X100108095Y-74953809D01*
X100203333Y-74906190D01*
X100393809Y-74858571D01*
X100489047Y-74810952D01*
X100536666Y-74763333D01*
X100584285Y-74668095D01*
X100584285Y-74572857D01*
X100536666Y-74477619D01*
X100489047Y-74430000D01*
X100393809Y-74382380D01*
X100155714Y-74382380D01*
X100012857Y-74430000D01*
X99631904Y-75334761D02*
X99489047Y-75382380D01*
X99250952Y-75382380D01*
X99155714Y-75334761D01*
X99108095Y-75287142D01*
X99060476Y-75191904D01*
X99060476Y-75096666D01*
X99108095Y-75001428D01*
X99155714Y-74953809D01*
X99250952Y-74906190D01*
X99441428Y-74858571D01*
X99536666Y-74810952D01*
X99584285Y-74763333D01*
X99631904Y-74668095D01*
X99631904Y-74572857D01*
X99584285Y-74477619D01*
X99536666Y-74430000D01*
X99441428Y-74382380D01*
X99203333Y-74382380D01*
X99060476Y-74430000D01*
X98108095Y-75382380D02*
X98679523Y-75382380D01*
X98393809Y-75382380D02*
X98393809Y-74382380D01*
X98489047Y-74525238D01*
X98584285Y-74620476D01*
X98679523Y-74668095D01*
X97727142Y-74477619D02*
X97679523Y-74430000D01*
X97584285Y-74382380D01*
X97346190Y-74382380D01*
X97250952Y-74430000D01*
X97203333Y-74477619D01*
X97155714Y-74572857D01*
X97155714Y-74668095D01*
X97203333Y-74810952D01*
X97774761Y-75382380D01*
X97155714Y-75382380D01*
X96727142Y-75382380D02*
X96727142Y-74382380D01*
X96489047Y-74382380D01*
X96346190Y-74430000D01*
X96250952Y-74525238D01*
X96203333Y-74620476D01*
X96155714Y-74810952D01*
X96155714Y-74953809D01*
X96203333Y-75144285D01*
X96250952Y-75239523D01*
X96346190Y-75334761D01*
X96489047Y-75382380D01*
X96727142Y-75382380D01*
X95203333Y-75382380D02*
X95774761Y-75382380D01*
X95489047Y-75382380D02*
X95489047Y-74382380D01*
X95584285Y-74525238D01*
X95679523Y-74620476D01*
X95774761Y-74668095D01*
X94584285Y-74382380D02*
X94489047Y-74382380D01*
X94393809Y-74430000D01*
X94346190Y-74477619D01*
X94298571Y-74572857D01*
X94250952Y-74763333D01*
X94250952Y-75001428D01*
X94298571Y-75191904D01*
X94346190Y-75287142D01*
X94393809Y-75334761D01*
X94489047Y-75382380D01*
X94584285Y-75382380D01*
X94679523Y-75334761D01*
X94727142Y-75287142D01*
X94774761Y-75191904D01*
X94822380Y-75001428D01*
X94822380Y-74763333D01*
X94774761Y-74572857D01*
X94727142Y-74477619D01*
X94679523Y-74430000D01*
X94584285Y-74382380D01*
X139452857Y-74858571D02*
X139119523Y-74858571D01*
X138976666Y-75382380D02*
X139452857Y-75382380D01*
X139452857Y-74382380D01*
X138976666Y-74382380D01*
X137976666Y-75287142D02*
X138024285Y-75334761D01*
X138167142Y-75382380D01*
X138262380Y-75382380D01*
X138405238Y-75334761D01*
X138500476Y-75239523D01*
X138548095Y-75144285D01*
X138595714Y-74953809D01*
X138595714Y-74810952D01*
X138548095Y-74620476D01*
X138500476Y-74525238D01*
X138405238Y-74430000D01*
X138262380Y-74382380D01*
X138167142Y-74382380D01*
X138024285Y-74430000D01*
X137976666Y-74477619D01*
X137024285Y-75382380D02*
X137595714Y-75382380D01*
X137310000Y-75382380D02*
X137310000Y-74382380D01*
X137405238Y-74525238D01*
X137500476Y-74620476D01*
X137595714Y-74668095D01*
X136643333Y-74477619D02*
X136595714Y-74430000D01*
X136500476Y-74382380D01*
X136262380Y-74382380D01*
X136167142Y-74430000D01*
X136119523Y-74477619D01*
X136071904Y-74572857D01*
X136071904Y-74668095D01*
X136119523Y-74810952D01*
X136690952Y-75382380D01*
X136071904Y-75382380D01*
X134310000Y-75382380D02*
X134643333Y-74906190D01*
X134881428Y-75382380D02*
X134881428Y-74382380D01*
X134500476Y-74382380D01*
X134405238Y-74430000D01*
X134357619Y-74477619D01*
X134310000Y-74572857D01*
X134310000Y-74715714D01*
X134357619Y-74810952D01*
X134405238Y-74858571D01*
X134500476Y-74906190D01*
X134881428Y-74906190D01*
X133690952Y-74382380D02*
X133500476Y-74382380D01*
X133405238Y-74430000D01*
X133310000Y-74525238D01*
X133262380Y-74715714D01*
X133262380Y-75049047D01*
X133310000Y-75239523D01*
X133405238Y-75334761D01*
X133500476Y-75382380D01*
X133690952Y-75382380D01*
X133786190Y-75334761D01*
X133881428Y-75239523D01*
X133929047Y-75049047D01*
X133929047Y-74715714D01*
X133881428Y-74525238D01*
X133786190Y-74430000D01*
X133690952Y-74382380D01*
X132976666Y-74382380D02*
X132405238Y-74382380D01*
X132690952Y-75382380D02*
X132690952Y-74382380D01*
X132119523Y-75096666D02*
X131643333Y-75096666D01*
X132214761Y-75382380D02*
X131881428Y-74382380D01*
X131548095Y-75382380D01*
X130643333Y-75382380D02*
X130976666Y-74906190D01*
X131214761Y-75382380D02*
X131214761Y-74382380D01*
X130833809Y-74382380D01*
X130738571Y-74430000D01*
X130690952Y-74477619D01*
X130643333Y-74572857D01*
X130643333Y-74715714D01*
X130690952Y-74810952D01*
X130738571Y-74858571D01*
X130833809Y-74906190D01*
X131214761Y-74906190D01*
X130024285Y-74906190D02*
X130024285Y-75382380D01*
X130357619Y-74382380D02*
X130024285Y-74906190D01*
X129690952Y-74382380D01*
X128595714Y-74858571D02*
X128262380Y-74858571D01*
X128119523Y-75382380D02*
X128595714Y-75382380D01*
X128595714Y-74382380D01*
X128119523Y-74382380D01*
X127690952Y-75382380D02*
X127690952Y-74382380D01*
X127119523Y-75382380D01*
X127119523Y-74382380D01*
X126071904Y-75287142D02*
X126119523Y-75334761D01*
X126262380Y-75382380D01*
X126357619Y-75382380D01*
X126500476Y-75334761D01*
X126595714Y-75239523D01*
X126643333Y-75144285D01*
X126690952Y-74953809D01*
X126690952Y-74810952D01*
X126643333Y-74620476D01*
X126595714Y-74525238D01*
X126500476Y-74430000D01*
X126357619Y-74382380D01*
X126262380Y-74382380D01*
X126119523Y-74430000D01*
X126071904Y-74477619D01*
X125452857Y-74382380D02*
X125262380Y-74382380D01*
X125167142Y-74430000D01*
X125071904Y-74525238D01*
X125024285Y-74715714D01*
X125024285Y-75049047D01*
X125071904Y-75239523D01*
X125167142Y-75334761D01*
X125262380Y-75382380D01*
X125452857Y-75382380D01*
X125548095Y-75334761D01*
X125643333Y-75239523D01*
X125690952Y-75049047D01*
X125690952Y-74715714D01*
X125643333Y-74525238D01*
X125548095Y-74430000D01*
X125452857Y-74382380D01*
X124595714Y-75382380D02*
X124595714Y-74382380D01*
X124357619Y-74382380D01*
X124214761Y-74430000D01*
X124119523Y-74525238D01*
X124071904Y-74620476D01*
X124024285Y-74810952D01*
X124024285Y-74953809D01*
X124071904Y-75144285D01*
X124119523Y-75239523D01*
X124214761Y-75334761D01*
X124357619Y-75382380D01*
X124595714Y-75382380D01*
X123595714Y-74858571D02*
X123262380Y-74858571D01*
X123119523Y-75382380D02*
X123595714Y-75382380D01*
X123595714Y-74382380D01*
X123119523Y-74382380D01*
X122119523Y-75382380D02*
X122452857Y-74906190D01*
X122690952Y-75382380D02*
X122690952Y-74382380D01*
X122310000Y-74382380D01*
X122214761Y-74430000D01*
X122167142Y-74477619D01*
X122119523Y-74572857D01*
X122119523Y-74715714D01*
X122167142Y-74810952D01*
X122214761Y-74858571D01*
X122310000Y-74906190D01*
X122690952Y-74906190D01*
X88900000Y-99060000D02*
X172720000Y-99060000D01*
X172720000Y-76200000D02*
X88900000Y-76200000D01*
X116840000Y-53340000D02*
X144780000Y-53340000D01*
X144780000Y-53340000D02*
X144780000Y-144780000D01*
X172720000Y-121920000D02*
X88900000Y-121920000D01*
X116840000Y-144780000D02*
X116840000Y-53340000D01*
%TO.C,C16*%
X119597142Y-70887142D02*
X119644761Y-70839523D01*
X119692380Y-70696666D01*
X119692380Y-70601428D01*
X119644761Y-70458571D01*
X119549523Y-70363333D01*
X119454285Y-70315714D01*
X119263809Y-70268095D01*
X119120952Y-70268095D01*
X118930476Y-70315714D01*
X118835238Y-70363333D01*
X118740000Y-70458571D01*
X118692380Y-70601428D01*
X118692380Y-70696666D01*
X118740000Y-70839523D01*
X118787619Y-70887142D01*
X119692380Y-71839523D02*
X119692380Y-71268095D01*
X119692380Y-71553809D02*
X118692380Y-71553809D01*
X118835238Y-71458571D01*
X118930476Y-71363333D01*
X118978095Y-71268095D01*
X118692380Y-72696666D02*
X118692380Y-72506190D01*
X118740000Y-72410952D01*
X118787619Y-72363333D01*
X118930476Y-72268095D01*
X119120952Y-72220476D01*
X119501904Y-72220476D01*
X119597142Y-72268095D01*
X119644761Y-72315714D01*
X119692380Y-72410952D01*
X119692380Y-72601428D01*
X119644761Y-72696666D01*
X119597142Y-72744285D01*
X119501904Y-72791904D01*
X119263809Y-72791904D01*
X119168571Y-72744285D01*
X119120952Y-72696666D01*
X119073333Y-72601428D01*
X119073333Y-72410952D01*
X119120952Y-72315714D01*
X119168571Y-72268095D01*
X119263809Y-72220476D01*
%TO.C,R10*%
X154312857Y-57094380D02*
X154646190Y-56618190D01*
X154884285Y-57094380D02*
X154884285Y-56094380D01*
X154503333Y-56094380D01*
X154408095Y-56142000D01*
X154360476Y-56189619D01*
X154312857Y-56284857D01*
X154312857Y-56427714D01*
X154360476Y-56522952D01*
X154408095Y-56570571D01*
X154503333Y-56618190D01*
X154884285Y-56618190D01*
X153360476Y-57094380D02*
X153931904Y-57094380D01*
X153646190Y-57094380D02*
X153646190Y-56094380D01*
X153741428Y-56237238D01*
X153836666Y-56332476D01*
X153931904Y-56380095D01*
X152741428Y-56094380D02*
X152646190Y-56094380D01*
X152550952Y-56142000D01*
X152503333Y-56189619D01*
X152455714Y-56284857D01*
X152408095Y-56475333D01*
X152408095Y-56713428D01*
X152455714Y-56903904D01*
X152503333Y-56999142D01*
X152550952Y-57046761D01*
X152646190Y-57094380D01*
X152741428Y-57094380D01*
X152836666Y-57046761D01*
X152884285Y-56999142D01*
X152931904Y-56903904D01*
X152979523Y-56713428D01*
X152979523Y-56475333D01*
X152931904Y-56284857D01*
X152884285Y-56189619D01*
X152836666Y-56142000D01*
X152741428Y-56094380D01*
%TO.C,R1*%
X107735666Y-125547380D02*
X108069000Y-125071190D01*
X108307095Y-125547380D02*
X108307095Y-124547380D01*
X107926142Y-124547380D01*
X107830904Y-124595000D01*
X107783285Y-124642619D01*
X107735666Y-124737857D01*
X107735666Y-124880714D01*
X107783285Y-124975952D01*
X107830904Y-125023571D01*
X107926142Y-125071190D01*
X108307095Y-125071190D01*
X106783285Y-125547380D02*
X107354714Y-125547380D01*
X107069000Y-125547380D02*
X107069000Y-124547380D01*
X107164238Y-124690238D01*
X107259476Y-124785476D01*
X107354714Y-124833095D01*
%TO.C,C18*%
X127154857Y-100092142D02*
X127202476Y-100139761D01*
X127345333Y-100187380D01*
X127440571Y-100187380D01*
X127583428Y-100139761D01*
X127678666Y-100044523D01*
X127726285Y-99949285D01*
X127773904Y-99758809D01*
X127773904Y-99615952D01*
X127726285Y-99425476D01*
X127678666Y-99330238D01*
X127583428Y-99235000D01*
X127440571Y-99187380D01*
X127345333Y-99187380D01*
X127202476Y-99235000D01*
X127154857Y-99282619D01*
X126202476Y-100187380D02*
X126773904Y-100187380D01*
X126488190Y-100187380D02*
X126488190Y-99187380D01*
X126583428Y-99330238D01*
X126678666Y-99425476D01*
X126773904Y-99473095D01*
X125631047Y-99615952D02*
X125726285Y-99568333D01*
X125773904Y-99520714D01*
X125821523Y-99425476D01*
X125821523Y-99377857D01*
X125773904Y-99282619D01*
X125726285Y-99235000D01*
X125631047Y-99187380D01*
X125440571Y-99187380D01*
X125345333Y-99235000D01*
X125297714Y-99282619D01*
X125250095Y-99377857D01*
X125250095Y-99425476D01*
X125297714Y-99520714D01*
X125345333Y-99568333D01*
X125440571Y-99615952D01*
X125631047Y-99615952D01*
X125726285Y-99663571D01*
X125773904Y-99711190D01*
X125821523Y-99806428D01*
X125821523Y-99996904D01*
X125773904Y-100092142D01*
X125726285Y-100139761D01*
X125631047Y-100187380D01*
X125440571Y-100187380D01*
X125345333Y-100139761D01*
X125297714Y-100092142D01*
X125250095Y-99996904D01*
X125250095Y-99806428D01*
X125297714Y-99711190D01*
X125345333Y-99663571D01*
X125440571Y-99615952D01*
%TO.C,R17*%
X170258201Y-117019902D02*
X170012475Y-116493132D01*
X170543916Y-116525031D02*
X169677890Y-116025031D01*
X169487414Y-116354945D01*
X169481034Y-116461233D01*
X169498464Y-116526282D01*
X169557133Y-116615140D01*
X169680851Y-116686569D01*
X169787139Y-116692949D01*
X169852188Y-116675519D01*
X169941047Y-116616850D01*
X170131523Y-116286935D01*
X169782011Y-117844688D02*
X170067725Y-117349817D01*
X169924868Y-117597253D02*
X169058843Y-117097253D01*
X169230180Y-117086203D01*
X169360277Y-117051343D01*
X169449136Y-116992674D01*
X168749319Y-117633364D02*
X168415986Y-118210714D01*
X169496297Y-118339560D01*
%TO.C,C3*%
X154897142Y-125163333D02*
X154944761Y-125115714D01*
X154992380Y-124972857D01*
X154992380Y-124877619D01*
X154944761Y-124734761D01*
X154849523Y-124639523D01*
X154754285Y-124591904D01*
X154563809Y-124544285D01*
X154420952Y-124544285D01*
X154230476Y-124591904D01*
X154135238Y-124639523D01*
X154040000Y-124734761D01*
X153992380Y-124877619D01*
X153992380Y-124972857D01*
X154040000Y-125115714D01*
X154087619Y-125163333D01*
X153992380Y-125496666D02*
X153992380Y-126115714D01*
X154373333Y-125782380D01*
X154373333Y-125925238D01*
X154420952Y-126020476D01*
X154468571Y-126068095D01*
X154563809Y-126115714D01*
X154801904Y-126115714D01*
X154897142Y-126068095D01*
X154944761Y-126020476D01*
X154992380Y-125925238D01*
X154992380Y-125639523D01*
X154944761Y-125544285D01*
X154897142Y-125496666D01*
%TO.C,R12*%
X98686857Y-57094380D02*
X99020190Y-56618190D01*
X99258285Y-57094380D02*
X99258285Y-56094380D01*
X98877333Y-56094380D01*
X98782095Y-56142000D01*
X98734476Y-56189619D01*
X98686857Y-56284857D01*
X98686857Y-56427714D01*
X98734476Y-56522952D01*
X98782095Y-56570571D01*
X98877333Y-56618190D01*
X99258285Y-56618190D01*
X97734476Y-57094380D02*
X98305904Y-57094380D01*
X98020190Y-57094380D02*
X98020190Y-56094380D01*
X98115428Y-56237238D01*
X98210666Y-56332476D01*
X98305904Y-56380095D01*
X97353523Y-56189619D02*
X97305904Y-56142000D01*
X97210666Y-56094380D01*
X96972571Y-56094380D01*
X96877333Y-56142000D01*
X96829714Y-56189619D01*
X96782095Y-56284857D01*
X96782095Y-56380095D01*
X96829714Y-56522952D01*
X97401142Y-57094380D01*
X96782095Y-57094380D01*
%TO.C,R15*%
X169480344Y-102547078D02*
X168901285Y-102496499D01*
X169194630Y-102052207D02*
X168328605Y-102552207D01*
X168519081Y-102882121D01*
X168607939Y-102940790D01*
X168672988Y-102958220D01*
X168779276Y-102951840D01*
X168902994Y-102880412D01*
X168961663Y-102791553D01*
X168979093Y-102726505D01*
X168972713Y-102620216D01*
X168782237Y-102290302D01*
X169956535Y-103371865D02*
X169670821Y-102876993D01*
X169813678Y-103124429D02*
X168947652Y-103624429D01*
X169023751Y-103470521D01*
X169058611Y-103340424D01*
X169052231Y-103234136D01*
X169542890Y-104655411D02*
X169304795Y-104243018D01*
X169693379Y-103963684D01*
X169675949Y-104028733D01*
X169682329Y-104135021D01*
X169801376Y-104341217D01*
X169890235Y-104399886D01*
X169955283Y-104417316D01*
X170061572Y-104410936D01*
X170267768Y-104291889D01*
X170326437Y-104203030D01*
X170343867Y-104137982D01*
X170337487Y-104031693D01*
X170218440Y-103825497D01*
X170129581Y-103766828D01*
X170064532Y-103749398D01*
%TO.C,C15*%
X142977142Y-70637142D02*
X143024761Y-70589523D01*
X143072380Y-70446666D01*
X143072380Y-70351428D01*
X143024761Y-70208571D01*
X142929523Y-70113333D01*
X142834285Y-70065714D01*
X142643809Y-70018095D01*
X142500952Y-70018095D01*
X142310476Y-70065714D01*
X142215238Y-70113333D01*
X142120000Y-70208571D01*
X142072380Y-70351428D01*
X142072380Y-70446666D01*
X142120000Y-70589523D01*
X142167619Y-70637142D01*
X143072380Y-71589523D02*
X143072380Y-71018095D01*
X143072380Y-71303809D02*
X142072380Y-71303809D01*
X142215238Y-71208571D01*
X142310476Y-71113333D01*
X142358095Y-71018095D01*
X142072380Y-72494285D02*
X142072380Y-72018095D01*
X142548571Y-71970476D01*
X142500952Y-72018095D01*
X142453333Y-72113333D01*
X142453333Y-72351428D01*
X142500952Y-72446666D01*
X142548571Y-72494285D01*
X142643809Y-72541904D01*
X142881904Y-72541904D01*
X142977142Y-72494285D01*
X143024761Y-72446666D01*
X143072380Y-72351428D01*
X143072380Y-72113333D01*
X143024761Y-72018095D01*
X142977142Y-71970476D01*
%TO.C,C9*%
X93130666Y-105225142D02*
X93178285Y-105272761D01*
X93321142Y-105320380D01*
X93416380Y-105320380D01*
X93559238Y-105272761D01*
X93654476Y-105177523D01*
X93702095Y-105082285D01*
X93749714Y-104891809D01*
X93749714Y-104748952D01*
X93702095Y-104558476D01*
X93654476Y-104463238D01*
X93559238Y-104368000D01*
X93416380Y-104320380D01*
X93321142Y-104320380D01*
X93178285Y-104368000D01*
X93130666Y-104415619D01*
X92654476Y-105320380D02*
X92464000Y-105320380D01*
X92368761Y-105272761D01*
X92321142Y-105225142D01*
X92225904Y-105082285D01*
X92178285Y-104891809D01*
X92178285Y-104510857D01*
X92225904Y-104415619D01*
X92273523Y-104368000D01*
X92368761Y-104320380D01*
X92559238Y-104320380D01*
X92654476Y-104368000D01*
X92702095Y-104415619D01*
X92749714Y-104510857D01*
X92749714Y-104748952D01*
X92702095Y-104844190D01*
X92654476Y-104891809D01*
X92559238Y-104939428D01*
X92368761Y-104939428D01*
X92273523Y-104891809D01*
X92225904Y-104844190D01*
X92178285Y-104748952D01*
%TO.C,C12*%
X128887142Y-62347142D02*
X128934761Y-62299523D01*
X128982380Y-62156666D01*
X128982380Y-62061428D01*
X128934761Y-61918571D01*
X128839523Y-61823333D01*
X128744285Y-61775714D01*
X128553809Y-61728095D01*
X128410952Y-61728095D01*
X128220476Y-61775714D01*
X128125238Y-61823333D01*
X128030000Y-61918571D01*
X127982380Y-62061428D01*
X127982380Y-62156666D01*
X128030000Y-62299523D01*
X128077619Y-62347142D01*
X128982380Y-63299523D02*
X128982380Y-62728095D01*
X128982380Y-63013809D02*
X127982380Y-63013809D01*
X128125238Y-62918571D01*
X128220476Y-62823333D01*
X128268095Y-62728095D01*
X128077619Y-63680476D02*
X128030000Y-63728095D01*
X127982380Y-63823333D01*
X127982380Y-64061428D01*
X128030000Y-64156666D01*
X128077619Y-64204285D01*
X128172857Y-64251904D01*
X128268095Y-64251904D01*
X128410952Y-64204285D01*
X128982380Y-63632857D01*
X128982380Y-64251904D01*
%TO.C,R3*%
X128146666Y-125672380D02*
X128480000Y-125196190D01*
X128718095Y-125672380D02*
X128718095Y-124672380D01*
X128337142Y-124672380D01*
X128241904Y-124720000D01*
X128194285Y-124767619D01*
X128146666Y-124862857D01*
X128146666Y-125005714D01*
X128194285Y-125100952D01*
X128241904Y-125148571D01*
X128337142Y-125196190D01*
X128718095Y-125196190D01*
X127813333Y-124672380D02*
X127194285Y-124672380D01*
X127527619Y-125053333D01*
X127384761Y-125053333D01*
X127289523Y-125100952D01*
X127241904Y-125148571D01*
X127194285Y-125243809D01*
X127194285Y-125481904D01*
X127241904Y-125577142D01*
X127289523Y-125624761D01*
X127384761Y-125672380D01*
X127670476Y-125672380D01*
X127765714Y-125624761D01*
X127813333Y-125577142D01*
%TO.C,R18*%
X120180344Y-116597078D02*
X119601285Y-116546499D01*
X119894630Y-116102207D02*
X119028605Y-116602207D01*
X119219081Y-116932121D01*
X119307939Y-116990790D01*
X119372988Y-117008220D01*
X119479276Y-117001840D01*
X119602994Y-116930412D01*
X119661663Y-116841553D01*
X119679093Y-116776505D01*
X119672713Y-116670216D01*
X119482237Y-116340302D01*
X120656535Y-117421865D02*
X120370821Y-116926993D01*
X120513678Y-117174429D02*
X119647652Y-117674429D01*
X119723751Y-117520521D01*
X119758611Y-117390424D01*
X119752231Y-117284136D01*
X120447377Y-118202450D02*
X120358519Y-118143781D01*
X120293470Y-118126352D01*
X120187182Y-118132731D01*
X120145943Y-118156541D01*
X120087274Y-118245399D01*
X120069844Y-118310448D01*
X120076224Y-118416736D01*
X120171462Y-118581693D01*
X120260320Y-118640362D01*
X120325369Y-118657792D01*
X120431657Y-118651413D01*
X120472896Y-118627603D01*
X120531565Y-118538745D01*
X120548995Y-118473696D01*
X120542616Y-118367408D01*
X120447377Y-118202450D01*
X120440998Y-118096162D01*
X120458427Y-118031113D01*
X120517097Y-117942255D01*
X120682054Y-117847017D01*
X120788342Y-117840637D01*
X120853391Y-117858067D01*
X120942249Y-117916736D01*
X121037487Y-118081693D01*
X121043867Y-118187982D01*
X121026437Y-118253030D01*
X120967768Y-118341889D01*
X120802811Y-118437127D01*
X120696523Y-118443507D01*
X120631474Y-118426077D01*
X120542616Y-118367408D01*
%TO.C,R2*%
X97686666Y-125522380D02*
X98020000Y-125046190D01*
X98258095Y-125522380D02*
X98258095Y-124522380D01*
X97877142Y-124522380D01*
X97781904Y-124570000D01*
X97734285Y-124617619D01*
X97686666Y-124712857D01*
X97686666Y-124855714D01*
X97734285Y-124950952D01*
X97781904Y-124998571D01*
X97877142Y-125046190D01*
X98258095Y-125046190D01*
X97305714Y-124617619D02*
X97258095Y-124570000D01*
X97162857Y-124522380D01*
X96924761Y-124522380D01*
X96829523Y-124570000D01*
X96781904Y-124617619D01*
X96734285Y-124712857D01*
X96734285Y-124808095D01*
X96781904Y-124950952D01*
X97353333Y-125522380D01*
X96734285Y-125522380D01*
%TO.C,C4*%
X121256666Y-130357142D02*
X121304285Y-130404761D01*
X121447142Y-130452380D01*
X121542380Y-130452380D01*
X121685238Y-130404761D01*
X121780476Y-130309523D01*
X121828095Y-130214285D01*
X121875714Y-130023809D01*
X121875714Y-129880952D01*
X121828095Y-129690476D01*
X121780476Y-129595238D01*
X121685238Y-129500000D01*
X121542380Y-129452380D01*
X121447142Y-129452380D01*
X121304285Y-129500000D01*
X121256666Y-129547619D01*
X120399523Y-129785714D02*
X120399523Y-130452380D01*
X120637619Y-129404761D02*
X120875714Y-130119047D01*
X120256666Y-130119047D01*
%TO.C,R9*%
X141528703Y-57488669D02*
X140949643Y-57438090D01*
X141242988Y-56993798D02*
X140376963Y-57493798D01*
X140567439Y-57823712D01*
X140656297Y-57882381D01*
X140721346Y-57899811D01*
X140827634Y-57893431D01*
X140951352Y-57822003D01*
X141010021Y-57733144D01*
X141027451Y-57668096D01*
X141021071Y-57561807D01*
X140830595Y-57231893D01*
X141766798Y-57901063D02*
X141862036Y-58066020D01*
X141868416Y-58172308D01*
X141850986Y-58237357D01*
X141774887Y-58391264D01*
X141633739Y-58527741D01*
X141303825Y-58718217D01*
X141197537Y-58724597D01*
X141132488Y-58707167D01*
X141043630Y-58648498D01*
X140948391Y-58483541D01*
X140942012Y-58377253D01*
X140959441Y-58312204D01*
X141018111Y-58223346D01*
X141224307Y-58104298D01*
X141330595Y-58097918D01*
X141395644Y-58115348D01*
X141484502Y-58174017D01*
X141579741Y-58338975D01*
X141586120Y-58445263D01*
X141568690Y-58510311D01*
X141510021Y-58599170D01*
%TO.C,R16*%
X121109201Y-103047459D02*
X120863475Y-102520689D01*
X121394916Y-102552588D02*
X120528890Y-102052588D01*
X120338414Y-102382502D01*
X120332034Y-102488790D01*
X120349464Y-102553839D01*
X120408133Y-102642697D01*
X120531851Y-102714126D01*
X120638139Y-102720506D01*
X120703188Y-102703076D01*
X120792047Y-102644407D01*
X120982523Y-102314492D01*
X120633011Y-103872245D02*
X120918725Y-103377374D01*
X120775868Y-103624810D02*
X119909843Y-103124810D01*
X120081180Y-103113760D01*
X120211277Y-103078900D01*
X120300136Y-103020231D01*
X119338414Y-104114553D02*
X119433652Y-103949596D01*
X119522511Y-103890927D01*
X119587559Y-103873497D01*
X119758896Y-103862447D01*
X119947663Y-103916446D01*
X120277578Y-104106922D01*
X120336247Y-104195780D01*
X120353676Y-104260829D01*
X120347297Y-104367117D01*
X120252059Y-104532074D01*
X120163200Y-104590743D01*
X120098151Y-104608173D01*
X119991863Y-104601793D01*
X119785667Y-104482746D01*
X119726998Y-104393887D01*
X119709568Y-104328839D01*
X119715948Y-104222551D01*
X119811186Y-104057593D01*
X119900044Y-103998924D01*
X119965093Y-103981494D01*
X120071381Y-103987874D01*
%TO.C,R8*%
X130996666Y-67082380D02*
X131330000Y-66606190D01*
X131568095Y-67082380D02*
X131568095Y-66082380D01*
X131187142Y-66082380D01*
X131091904Y-66130000D01*
X131044285Y-66177619D01*
X130996666Y-66272857D01*
X130996666Y-66415714D01*
X131044285Y-66510952D01*
X131091904Y-66558571D01*
X131187142Y-66606190D01*
X131568095Y-66606190D01*
X130425238Y-66510952D02*
X130520476Y-66463333D01*
X130568095Y-66415714D01*
X130615714Y-66320476D01*
X130615714Y-66272857D01*
X130568095Y-66177619D01*
X130520476Y-66130000D01*
X130425238Y-66082380D01*
X130234761Y-66082380D01*
X130139523Y-66130000D01*
X130091904Y-66177619D01*
X130044285Y-66272857D01*
X130044285Y-66320476D01*
X130091904Y-66415714D01*
X130139523Y-66463333D01*
X130234761Y-66510952D01*
X130425238Y-66510952D01*
X130520476Y-66558571D01*
X130568095Y-66606190D01*
X130615714Y-66701428D01*
X130615714Y-66891904D01*
X130568095Y-66987142D01*
X130520476Y-67034761D01*
X130425238Y-67082380D01*
X130234761Y-67082380D01*
X130139523Y-67034761D01*
X130091904Y-66987142D01*
X130044285Y-66891904D01*
X130044285Y-66701428D01*
X130091904Y-66606190D01*
X130139523Y-66558571D01*
X130234761Y-66510952D01*
%TO.C,C20*%
X138329942Y-120057942D02*
X138377561Y-120010323D01*
X138425180Y-119867466D01*
X138425180Y-119772228D01*
X138377561Y-119629371D01*
X138282323Y-119534133D01*
X138187085Y-119486514D01*
X137996609Y-119438895D01*
X137853752Y-119438895D01*
X137663276Y-119486514D01*
X137568038Y-119534133D01*
X137472800Y-119629371D01*
X137425180Y-119772228D01*
X137425180Y-119867466D01*
X137472800Y-120010323D01*
X137520419Y-120057942D01*
X137520419Y-120438895D02*
X137472800Y-120486514D01*
X137425180Y-120581752D01*
X137425180Y-120819847D01*
X137472800Y-120915085D01*
X137520419Y-120962704D01*
X137615657Y-121010323D01*
X137710895Y-121010323D01*
X137853752Y-120962704D01*
X138425180Y-120391276D01*
X138425180Y-121010323D01*
X137425180Y-121629371D02*
X137425180Y-121724609D01*
X137472800Y-121819847D01*
X137520419Y-121867466D01*
X137615657Y-121915085D01*
X137806133Y-121962704D01*
X138044228Y-121962704D01*
X138234704Y-121915085D01*
X138329942Y-121867466D01*
X138377561Y-121819847D01*
X138425180Y-121724609D01*
X138425180Y-121629371D01*
X138377561Y-121534133D01*
X138329942Y-121486514D01*
X138234704Y-121438895D01*
X138044228Y-121391276D01*
X137806133Y-121391276D01*
X137615657Y-121438895D01*
X137520419Y-121486514D01*
X137472800Y-121534133D01*
X137425180Y-121629371D01*
%TO.C,C1*%
X92622666Y-97639142D02*
X92670285Y-97686761D01*
X92813142Y-97734380D01*
X92908380Y-97734380D01*
X93051238Y-97686761D01*
X93146476Y-97591523D01*
X93194095Y-97496285D01*
X93241714Y-97305809D01*
X93241714Y-97162952D01*
X93194095Y-96972476D01*
X93146476Y-96877238D01*
X93051238Y-96782000D01*
X92908380Y-96734380D01*
X92813142Y-96734380D01*
X92670285Y-96782000D01*
X92622666Y-96829619D01*
X91670285Y-97734380D02*
X92241714Y-97734380D01*
X91956000Y-97734380D02*
X91956000Y-96734380D01*
X92051238Y-96877238D01*
X92146476Y-96972476D01*
X92241714Y-97020095D01*
%TO.C,C22*%
X142642857Y-100357142D02*
X142690476Y-100404761D01*
X142833333Y-100452380D01*
X142928571Y-100452380D01*
X143071428Y-100404761D01*
X143166666Y-100309523D01*
X143214285Y-100214285D01*
X143261904Y-100023809D01*
X143261904Y-99880952D01*
X143214285Y-99690476D01*
X143166666Y-99595238D01*
X143071428Y-99500000D01*
X142928571Y-99452380D01*
X142833333Y-99452380D01*
X142690476Y-99500000D01*
X142642857Y-99547619D01*
X142261904Y-99547619D02*
X142214285Y-99500000D01*
X142119047Y-99452380D01*
X141880952Y-99452380D01*
X141785714Y-99500000D01*
X141738095Y-99547619D01*
X141690476Y-99642857D01*
X141690476Y-99738095D01*
X141738095Y-99880952D01*
X142309523Y-100452380D01*
X141690476Y-100452380D01*
X141309523Y-99547619D02*
X141261904Y-99500000D01*
X141166666Y-99452380D01*
X140928571Y-99452380D01*
X140833333Y-99500000D01*
X140785714Y-99547619D01*
X140738095Y-99642857D01*
X140738095Y-99738095D01*
X140785714Y-99880952D01*
X141357142Y-100452380D01*
X140738095Y-100452380D01*
%TO.C,C13*%
X115027142Y-70937142D02*
X115074761Y-70889523D01*
X115122380Y-70746666D01*
X115122380Y-70651428D01*
X115074761Y-70508571D01*
X114979523Y-70413333D01*
X114884285Y-70365714D01*
X114693809Y-70318095D01*
X114550952Y-70318095D01*
X114360476Y-70365714D01*
X114265238Y-70413333D01*
X114170000Y-70508571D01*
X114122380Y-70651428D01*
X114122380Y-70746666D01*
X114170000Y-70889523D01*
X114217619Y-70937142D01*
X115122380Y-71889523D02*
X115122380Y-71318095D01*
X115122380Y-71603809D02*
X114122380Y-71603809D01*
X114265238Y-71508571D01*
X114360476Y-71413333D01*
X114408095Y-71318095D01*
X114122380Y-72222857D02*
X114122380Y-72841904D01*
X114503333Y-72508571D01*
X114503333Y-72651428D01*
X114550952Y-72746666D01*
X114598571Y-72794285D01*
X114693809Y-72841904D01*
X114931904Y-72841904D01*
X115027142Y-72794285D01*
X115074761Y-72746666D01*
X115122380Y-72651428D01*
X115122380Y-72365714D01*
X115074761Y-72270476D01*
X115027142Y-72222857D01*
%TO.C,C5*%
X115165142Y-139279333D02*
X115212761Y-139231714D01*
X115260380Y-139088857D01*
X115260380Y-138993619D01*
X115212761Y-138850761D01*
X115117523Y-138755523D01*
X115022285Y-138707904D01*
X114831809Y-138660285D01*
X114688952Y-138660285D01*
X114498476Y-138707904D01*
X114403238Y-138755523D01*
X114308000Y-138850761D01*
X114260380Y-138993619D01*
X114260380Y-139088857D01*
X114308000Y-139231714D01*
X114355619Y-139279333D01*
X114260380Y-140184095D02*
X114260380Y-139707904D01*
X114736571Y-139660285D01*
X114688952Y-139707904D01*
X114641333Y-139803142D01*
X114641333Y-140041238D01*
X114688952Y-140136476D01*
X114736571Y-140184095D01*
X114831809Y-140231714D01*
X115069904Y-140231714D01*
X115165142Y-140184095D01*
X115212761Y-140136476D01*
X115260380Y-140041238D01*
X115260380Y-139803142D01*
X115212761Y-139707904D01*
X115165142Y-139660285D01*
%TO.C,R13*%
X108592857Y-57094380D02*
X108926190Y-56618190D01*
X109164285Y-57094380D02*
X109164285Y-56094380D01*
X108783333Y-56094380D01*
X108688095Y-56142000D01*
X108640476Y-56189619D01*
X108592857Y-56284857D01*
X108592857Y-56427714D01*
X108640476Y-56522952D01*
X108688095Y-56570571D01*
X108783333Y-56618190D01*
X109164285Y-56618190D01*
X107640476Y-57094380D02*
X108211904Y-57094380D01*
X107926190Y-57094380D02*
X107926190Y-56094380D01*
X108021428Y-56237238D01*
X108116666Y-56332476D01*
X108211904Y-56380095D01*
X107307142Y-56094380D02*
X106688095Y-56094380D01*
X107021428Y-56475333D01*
X106878571Y-56475333D01*
X106783333Y-56522952D01*
X106735714Y-56570571D01*
X106688095Y-56665809D01*
X106688095Y-56903904D01*
X106735714Y-56999142D01*
X106783333Y-57046761D01*
X106878571Y-57094380D01*
X107164285Y-57094380D01*
X107259523Y-57046761D01*
X107307142Y-56999142D01*
%TO.C,C7*%
X171005142Y-70953333D02*
X171052761Y-70905714D01*
X171100380Y-70762857D01*
X171100380Y-70667619D01*
X171052761Y-70524761D01*
X170957523Y-70429523D01*
X170862285Y-70381904D01*
X170671809Y-70334285D01*
X170528952Y-70334285D01*
X170338476Y-70381904D01*
X170243238Y-70429523D01*
X170148000Y-70524761D01*
X170100380Y-70667619D01*
X170100380Y-70762857D01*
X170148000Y-70905714D01*
X170195619Y-70953333D01*
X170100380Y-71286666D02*
X170100380Y-71953333D01*
X171100380Y-71524761D01*
%TO.C,C17*%
X153842857Y-100332142D02*
X153890476Y-100379761D01*
X154033333Y-100427380D01*
X154128571Y-100427380D01*
X154271428Y-100379761D01*
X154366666Y-100284523D01*
X154414285Y-100189285D01*
X154461904Y-99998809D01*
X154461904Y-99855952D01*
X154414285Y-99665476D01*
X154366666Y-99570238D01*
X154271428Y-99475000D01*
X154128571Y-99427380D01*
X154033333Y-99427380D01*
X153890476Y-99475000D01*
X153842857Y-99522619D01*
X152890476Y-100427380D02*
X153461904Y-100427380D01*
X153176190Y-100427380D02*
X153176190Y-99427380D01*
X153271428Y-99570238D01*
X153366666Y-99665476D01*
X153461904Y-99713095D01*
X152557142Y-99427380D02*
X151890476Y-99427380D01*
X152319047Y-100427380D01*
%TO.C,C21*%
X146112857Y-104797142D02*
X146160476Y-104844761D01*
X146303333Y-104892380D01*
X146398571Y-104892380D01*
X146541428Y-104844761D01*
X146636666Y-104749523D01*
X146684285Y-104654285D01*
X146731904Y-104463809D01*
X146731904Y-104320952D01*
X146684285Y-104130476D01*
X146636666Y-104035238D01*
X146541428Y-103940000D01*
X146398571Y-103892380D01*
X146303333Y-103892380D01*
X146160476Y-103940000D01*
X146112857Y-103987619D01*
X145731904Y-103987619D02*
X145684285Y-103940000D01*
X145589047Y-103892380D01*
X145350952Y-103892380D01*
X145255714Y-103940000D01*
X145208095Y-103987619D01*
X145160476Y-104082857D01*
X145160476Y-104178095D01*
X145208095Y-104320952D01*
X145779523Y-104892380D01*
X145160476Y-104892380D01*
X144208095Y-104892380D02*
X144779523Y-104892380D01*
X144493809Y-104892380D02*
X144493809Y-103892380D01*
X144589047Y-104035238D01*
X144684285Y-104130476D01*
X144779523Y-104178095D01*
%TO.C,R7*%
X121258407Y-57985787D02*
X121012681Y-57459017D01*
X121544122Y-57490916D02*
X120678096Y-56990916D01*
X120487620Y-57320830D01*
X120481240Y-57427118D01*
X120498670Y-57492167D01*
X120557339Y-57581026D01*
X120681057Y-57652454D01*
X120787345Y-57658834D01*
X120852394Y-57641404D01*
X120941252Y-57582735D01*
X121131728Y-57252821D01*
X120225715Y-57774463D02*
X119892382Y-58351813D01*
X120972693Y-58480659D01*
%TO.C,C19*%
X152249142Y-119797142D02*
X152296761Y-119749523D01*
X152344380Y-119606666D01*
X152344380Y-119511428D01*
X152296761Y-119368571D01*
X152201523Y-119273333D01*
X152106285Y-119225714D01*
X151915809Y-119178095D01*
X151772952Y-119178095D01*
X151582476Y-119225714D01*
X151487238Y-119273333D01*
X151392000Y-119368571D01*
X151344380Y-119511428D01*
X151344380Y-119606666D01*
X151392000Y-119749523D01*
X151439619Y-119797142D01*
X152344380Y-120749523D02*
X152344380Y-120178095D01*
X152344380Y-120463809D02*
X151344380Y-120463809D01*
X151487238Y-120368571D01*
X151582476Y-120273333D01*
X151630095Y-120178095D01*
X152344380Y-121225714D02*
X152344380Y-121416190D01*
X152296761Y-121511428D01*
X152249142Y-121559047D01*
X152106285Y-121654285D01*
X151915809Y-121701904D01*
X151534857Y-121701904D01*
X151439619Y-121654285D01*
X151392000Y-121606666D01*
X151344380Y-121511428D01*
X151344380Y-121320952D01*
X151392000Y-121225714D01*
X151439619Y-121178095D01*
X151534857Y-121130476D01*
X151772952Y-121130476D01*
X151868190Y-121178095D01*
X151915809Y-121225714D01*
X151963428Y-121320952D01*
X151963428Y-121511428D01*
X151915809Y-121606666D01*
X151868190Y-121654285D01*
X151772952Y-121701904D01*
%TO.C,C10*%
X167977142Y-124477142D02*
X168024761Y-124429523D01*
X168072380Y-124286666D01*
X168072380Y-124191428D01*
X168024761Y-124048571D01*
X167929523Y-123953333D01*
X167834285Y-123905714D01*
X167643809Y-123858095D01*
X167500952Y-123858095D01*
X167310476Y-123905714D01*
X167215238Y-123953333D01*
X167120000Y-124048571D01*
X167072380Y-124191428D01*
X167072380Y-124286666D01*
X167120000Y-124429523D01*
X167167619Y-124477142D01*
X168072380Y-125429523D02*
X168072380Y-124858095D01*
X168072380Y-125143809D02*
X167072380Y-125143809D01*
X167215238Y-125048571D01*
X167310476Y-124953333D01*
X167358095Y-124858095D01*
X167072380Y-126048571D02*
X167072380Y-126143809D01*
X167120000Y-126239047D01*
X167167619Y-126286666D01*
X167262857Y-126334285D01*
X167453333Y-126381904D01*
X167691428Y-126381904D01*
X167881904Y-126334285D01*
X167977142Y-126286666D01*
X168024761Y-126239047D01*
X168072380Y-126143809D01*
X168072380Y-126048571D01*
X168024761Y-125953333D01*
X167977142Y-125905714D01*
X167881904Y-125858095D01*
X167691428Y-125810476D01*
X167453333Y-125810476D01*
X167262857Y-125858095D01*
X167167619Y-125905714D01*
X167120000Y-125953333D01*
X167072380Y-126048571D01*
%TO.C,R20*%
X134852857Y-102772380D02*
X135186190Y-102296190D01*
X135424285Y-102772380D02*
X135424285Y-101772380D01*
X135043333Y-101772380D01*
X134948095Y-101820000D01*
X134900476Y-101867619D01*
X134852857Y-101962857D01*
X134852857Y-102105714D01*
X134900476Y-102200952D01*
X134948095Y-102248571D01*
X135043333Y-102296190D01*
X135424285Y-102296190D01*
X134471904Y-101867619D02*
X134424285Y-101820000D01*
X134329047Y-101772380D01*
X134090952Y-101772380D01*
X133995714Y-101820000D01*
X133948095Y-101867619D01*
X133900476Y-101962857D01*
X133900476Y-102058095D01*
X133948095Y-102200952D01*
X134519523Y-102772380D01*
X133900476Y-102772380D01*
X133281428Y-101772380D02*
X133186190Y-101772380D01*
X133090952Y-101820000D01*
X133043333Y-101867619D01*
X132995714Y-101962857D01*
X132948095Y-102153333D01*
X132948095Y-102391428D01*
X132995714Y-102581904D01*
X133043333Y-102677142D01*
X133090952Y-102724761D01*
X133186190Y-102772380D01*
X133281428Y-102772380D01*
X133376666Y-102724761D01*
X133424285Y-102677142D01*
X133471904Y-102581904D01*
X133519523Y-102391428D01*
X133519523Y-102153333D01*
X133471904Y-101962857D01*
X133424285Y-101867619D01*
X133376666Y-101820000D01*
X133281428Y-101772380D01*
%TO.C,C8*%
X147423142Y-70699333D02*
X147470761Y-70651714D01*
X147518380Y-70508857D01*
X147518380Y-70413619D01*
X147470761Y-70270761D01*
X147375523Y-70175523D01*
X147280285Y-70127904D01*
X147089809Y-70080285D01*
X146946952Y-70080285D01*
X146756476Y-70127904D01*
X146661238Y-70175523D01*
X146566000Y-70270761D01*
X146518380Y-70413619D01*
X146518380Y-70508857D01*
X146566000Y-70651714D01*
X146613619Y-70699333D01*
X146946952Y-71270761D02*
X146899333Y-71175523D01*
X146851714Y-71127904D01*
X146756476Y-71080285D01*
X146708857Y-71080285D01*
X146613619Y-71127904D01*
X146566000Y-71175523D01*
X146518380Y-71270761D01*
X146518380Y-71461238D01*
X146566000Y-71556476D01*
X146613619Y-71604095D01*
X146708857Y-71651714D01*
X146756476Y-71651714D01*
X146851714Y-71604095D01*
X146899333Y-71556476D01*
X146946952Y-71461238D01*
X146946952Y-71270761D01*
X146994571Y-71175523D01*
X147042190Y-71127904D01*
X147137428Y-71080285D01*
X147327904Y-71080285D01*
X147423142Y-71127904D01*
X147470761Y-71175523D01*
X147518380Y-71270761D01*
X147518380Y-71461238D01*
X147470761Y-71556476D01*
X147423142Y-71604095D01*
X147327904Y-71651714D01*
X147137428Y-71651714D01*
X147042190Y-71604095D01*
X146994571Y-71556476D01*
X146946952Y-71461238D01*
%TO.C,C14*%
X91289142Y-70731142D02*
X91336761Y-70683523D01*
X91384380Y-70540666D01*
X91384380Y-70445428D01*
X91336761Y-70302571D01*
X91241523Y-70207333D01*
X91146285Y-70159714D01*
X90955809Y-70112095D01*
X90812952Y-70112095D01*
X90622476Y-70159714D01*
X90527238Y-70207333D01*
X90432000Y-70302571D01*
X90384380Y-70445428D01*
X90384380Y-70540666D01*
X90432000Y-70683523D01*
X90479619Y-70731142D01*
X91384380Y-71683523D02*
X91384380Y-71112095D01*
X91384380Y-71397809D02*
X90384380Y-71397809D01*
X90527238Y-71302571D01*
X90622476Y-71207333D01*
X90670095Y-71112095D01*
X90717714Y-72540666D02*
X91384380Y-72540666D01*
X90336761Y-72302571D02*
X91051047Y-72064476D01*
X91051047Y-72683523D01*
%TO.C,C6*%
X91329142Y-139299333D02*
X91376761Y-139251714D01*
X91424380Y-139108857D01*
X91424380Y-139013619D01*
X91376761Y-138870761D01*
X91281523Y-138775523D01*
X91186285Y-138727904D01*
X90995809Y-138680285D01*
X90852952Y-138680285D01*
X90662476Y-138727904D01*
X90567238Y-138775523D01*
X90472000Y-138870761D01*
X90424380Y-139013619D01*
X90424380Y-139108857D01*
X90472000Y-139251714D01*
X90519619Y-139299333D01*
X90424380Y-140156476D02*
X90424380Y-139966000D01*
X90472000Y-139870761D01*
X90519619Y-139823142D01*
X90662476Y-139727904D01*
X90852952Y-139680285D01*
X91233904Y-139680285D01*
X91329142Y-139727904D01*
X91376761Y-139775523D01*
X91424380Y-139870761D01*
X91424380Y-140061238D01*
X91376761Y-140156476D01*
X91329142Y-140204095D01*
X91233904Y-140251714D01*
X90995809Y-140251714D01*
X90900571Y-140204095D01*
X90852952Y-140156476D01*
X90805333Y-140061238D01*
X90805333Y-139870761D01*
X90852952Y-139775523D01*
X90900571Y-139727904D01*
X90995809Y-139680285D01*
%TO.C,C2*%
X123547142Y-79883333D02*
X123594761Y-79835714D01*
X123642380Y-79692857D01*
X123642380Y-79597619D01*
X123594761Y-79454761D01*
X123499523Y-79359523D01*
X123404285Y-79311904D01*
X123213809Y-79264285D01*
X123070952Y-79264285D01*
X122880476Y-79311904D01*
X122785238Y-79359523D01*
X122690000Y-79454761D01*
X122642380Y-79597619D01*
X122642380Y-79692857D01*
X122690000Y-79835714D01*
X122737619Y-79883333D01*
X122737619Y-80264285D02*
X122690000Y-80311904D01*
X122642380Y-80407142D01*
X122642380Y-80645238D01*
X122690000Y-80740476D01*
X122737619Y-80788095D01*
X122832857Y-80835714D01*
X122928095Y-80835714D01*
X123070952Y-80788095D01*
X123642380Y-80216666D01*
X123642380Y-80835714D01*
%TO.C,R19*%
X161442857Y-102702380D02*
X161776190Y-102226190D01*
X162014285Y-102702380D02*
X162014285Y-101702380D01*
X161633333Y-101702380D01*
X161538095Y-101750000D01*
X161490476Y-101797619D01*
X161442857Y-101892857D01*
X161442857Y-102035714D01*
X161490476Y-102130952D01*
X161538095Y-102178571D01*
X161633333Y-102226190D01*
X162014285Y-102226190D01*
X160490476Y-102702380D02*
X161061904Y-102702380D01*
X160776190Y-102702380D02*
X160776190Y-101702380D01*
X160871428Y-101845238D01*
X160966666Y-101940476D01*
X161061904Y-101988095D01*
X160014285Y-102702380D02*
X159823809Y-102702380D01*
X159728571Y-102654761D01*
X159680952Y-102607142D01*
X159585714Y-102464285D01*
X159538095Y-102273809D01*
X159538095Y-101892857D01*
X159585714Y-101797619D01*
X159633333Y-101750000D01*
X159728571Y-101702380D01*
X159919047Y-101702380D01*
X160014285Y-101750000D01*
X160061904Y-101797619D01*
X160109523Y-101892857D01*
X160109523Y-102130952D01*
X160061904Y-102226190D01*
X160014285Y-102273809D01*
X159919047Y-102321428D01*
X159728571Y-102321428D01*
X159633333Y-102273809D01*
X159585714Y-102226190D01*
X159538095Y-102130952D01*
%TO.C,R11*%
X164472857Y-57094380D02*
X164806190Y-56618190D01*
X165044285Y-57094380D02*
X165044285Y-56094380D01*
X164663333Y-56094380D01*
X164568095Y-56142000D01*
X164520476Y-56189619D01*
X164472857Y-56284857D01*
X164472857Y-56427714D01*
X164520476Y-56522952D01*
X164568095Y-56570571D01*
X164663333Y-56618190D01*
X165044285Y-56618190D01*
X163520476Y-57094380D02*
X164091904Y-57094380D01*
X163806190Y-57094380D02*
X163806190Y-56094380D01*
X163901428Y-56237238D01*
X163996666Y-56332476D01*
X164091904Y-56380095D01*
X162568095Y-57094380D02*
X163139523Y-57094380D01*
X162853809Y-57094380D02*
X162853809Y-56094380D01*
X162949047Y-56237238D01*
X163044285Y-56332476D01*
X163139523Y-56380095D01*
%TO.C,R14*%
X103512857Y-102820380D02*
X103846190Y-102344190D01*
X104084285Y-102820380D02*
X104084285Y-101820380D01*
X103703333Y-101820380D01*
X103608095Y-101868000D01*
X103560476Y-101915619D01*
X103512857Y-102010857D01*
X103512857Y-102153714D01*
X103560476Y-102248952D01*
X103608095Y-102296571D01*
X103703333Y-102344190D01*
X104084285Y-102344190D01*
X102560476Y-102820380D02*
X103131904Y-102820380D01*
X102846190Y-102820380D02*
X102846190Y-101820380D01*
X102941428Y-101963238D01*
X103036666Y-102058476D01*
X103131904Y-102106095D01*
X101703333Y-102153714D02*
X101703333Y-102820380D01*
X101941428Y-101772761D02*
X102179523Y-102487047D01*
X101560476Y-102487047D01*
D11*
%TO.C,C16*%
X120080000Y-74000000D02*
X120080000Y-68760000D01*
X122820000Y-74000000D02*
X120080000Y-74000000D01*
X122820000Y-74000000D02*
X122820000Y-68760000D01*
X122820000Y-68760000D02*
X120080000Y-68760000D01*
%TO.C,R10*%
X150400000Y-55272000D02*
X150400000Y-55602000D01*
X156940000Y-55272000D02*
X150400000Y-55272000D01*
X150400000Y-58012000D02*
X150400000Y-57682000D01*
X156940000Y-58012000D02*
X150400000Y-58012000D01*
X156940000Y-57682000D02*
X156940000Y-58012000D01*
X156940000Y-55602000D02*
X156940000Y-55272000D01*
%TO.C,R1*%
X104299000Y-126135000D02*
X104299000Y-126465000D01*
X110839000Y-123725000D02*
X110839000Y-124055000D01*
X104299000Y-124055000D02*
X104299000Y-123725000D01*
X104299000Y-126465000D02*
X110839000Y-126465000D01*
X110839000Y-126465000D02*
X110839000Y-126135000D01*
X104299000Y-123725000D02*
X110839000Y-123725000D01*
%TO.C,C18*%
X129132000Y-100865000D02*
X123892000Y-100865000D01*
X129132000Y-100865000D02*
X129132000Y-103605000D01*
X123892000Y-100865000D02*
X123892000Y-103605000D01*
X129132000Y-103605000D02*
X123892000Y-103605000D01*
%TO.C,R17*%
X168810666Y-120702346D02*
X169096455Y-120867346D01*
X169096455Y-120867346D02*
X172366455Y-115203540D01*
X167009334Y-119662346D02*
X166723545Y-119497346D01*
X172366455Y-115203540D02*
X172080666Y-115038540D01*
X169993545Y-113833540D02*
X170279334Y-113998540D01*
X166723545Y-119497346D02*
X169993545Y-113833540D01*
%TO.C,C3*%
X155490000Y-126620000D02*
X160730000Y-126620000D01*
X155490000Y-126620000D02*
X155490000Y-123880000D01*
X155490000Y-123880000D02*
X160730000Y-123880000D01*
X160730000Y-126620000D02*
X160730000Y-123880000D01*
%TO.C,R12*%
X101314000Y-58012000D02*
X94774000Y-58012000D01*
X94774000Y-58012000D02*
X94774000Y-57682000D01*
X101314000Y-57682000D02*
X101314000Y-58012000D01*
X94774000Y-55272000D02*
X94774000Y-55602000D01*
X101314000Y-55272000D02*
X94774000Y-55272000D01*
X101314000Y-55602000D02*
X101314000Y-55272000D01*
%TO.C,R15*%
X172239455Y-105524903D02*
X168969455Y-99861097D01*
X171953666Y-105689903D02*
X172239455Y-105524903D01*
X168969455Y-99861097D02*
X168683666Y-100026097D01*
X170152334Y-106729903D02*
X169866545Y-106894903D01*
X169866545Y-106894903D02*
X166596545Y-101231097D01*
X166596545Y-101231097D02*
X166882334Y-101066097D01*
%TO.C,C15*%
X141490000Y-73900000D02*
X141490000Y-68660000D01*
X141490000Y-73900000D02*
X138750000Y-73900000D01*
X141490000Y-68660000D02*
X138750000Y-68660000D01*
X138750000Y-73900000D02*
X138750000Y-68660000D01*
%TO.C,C9*%
X92122000Y-103738000D02*
X97362000Y-103738000D01*
X97362000Y-103738000D02*
X97362000Y-100998000D01*
X92122000Y-103738000D02*
X92122000Y-100998000D01*
X92122000Y-100998000D02*
X97362000Y-100998000D01*
%TO.C,C12*%
X134580000Y-61670000D02*
X134580000Y-64410000D01*
X134580000Y-64410000D02*
X129340000Y-64410000D01*
X129340000Y-61670000D02*
X129340000Y-64410000D01*
X134580000Y-61670000D02*
X129340000Y-61670000D01*
%TO.C,R3*%
X124710000Y-123850000D02*
X124710000Y-124180000D01*
X124710000Y-126590000D02*
X124710000Y-126260000D01*
X131250000Y-123850000D02*
X124710000Y-123850000D01*
X131250000Y-126590000D02*
X124710000Y-126590000D01*
X131250000Y-126260000D02*
X131250000Y-126590000D01*
X131250000Y-124180000D02*
X131250000Y-123850000D01*
%TO.C,R18*%
X119693455Y-113831098D02*
X122963455Y-119494904D01*
X119407666Y-113996098D02*
X119693455Y-113831098D01*
X120590545Y-120864904D02*
X120876334Y-120699904D01*
X117320545Y-115201098D02*
X120590545Y-120864904D01*
X122963455Y-119494904D02*
X122677666Y-119659904D01*
X117606334Y-115036098D02*
X117320545Y-115201098D01*
%TO.C,R2*%
X94250000Y-123700000D02*
X94250000Y-124030000D01*
X100790000Y-124030000D02*
X100790000Y-123700000D01*
X94250000Y-126440000D02*
X94250000Y-126110000D01*
X100790000Y-126440000D02*
X94250000Y-126440000D01*
X100790000Y-126110000D02*
X100790000Y-126440000D01*
X100790000Y-123700000D02*
X94250000Y-123700000D01*
%TO.C,C4*%
X122390000Y-123840000D02*
X122390000Y-129080000D01*
X119650000Y-123840000D02*
X122390000Y-123840000D01*
X119650000Y-123840000D02*
X119650000Y-129080000D01*
X119650000Y-129080000D02*
X122390000Y-129080000D01*
%TO.C,R9*%
X138283545Y-55732654D02*
X141553545Y-61396460D01*
X141553545Y-61396460D02*
X141839334Y-61231460D01*
X140656455Y-54362654D02*
X143926455Y-60026460D01*
X143926455Y-60026460D02*
X143640666Y-60191460D01*
X138569334Y-55567654D02*
X138283545Y-55732654D01*
X140370666Y-54527654D02*
X140656455Y-54362654D01*
%TO.C,R16*%
X117574545Y-105524903D02*
X120844545Y-99861097D01*
X119661666Y-106729903D02*
X119947455Y-106894903D01*
X123217455Y-101231097D02*
X122931666Y-101066097D01*
X120844545Y-99861097D02*
X121130334Y-100026097D01*
X117860334Y-105689903D02*
X117574545Y-105524903D01*
X119947455Y-106894903D02*
X123217455Y-101231097D01*
%TO.C,R8*%
X134140000Y-65570000D02*
X134140000Y-65240000D01*
X127600000Y-65240000D02*
X127600000Y-65570000D01*
X134140000Y-67650000D02*
X134140000Y-67980000D01*
X127600000Y-67980000D02*
X127600000Y-67650000D01*
X134140000Y-65240000D02*
X127600000Y-65240000D01*
X134140000Y-67980000D02*
X127600000Y-67980000D01*
%TO.C,C20*%
X144027200Y-121893000D02*
X144027200Y-119153000D01*
X138787200Y-121893000D02*
X144027200Y-121893000D01*
X138787200Y-119153000D02*
X144027200Y-119153000D01*
X138787200Y-121893000D02*
X138787200Y-119153000D01*
%TO.C,C1*%
X91086000Y-91340000D02*
X93826000Y-91340000D01*
X93826000Y-91340000D02*
X93826000Y-96580000D01*
X91086000Y-91340000D02*
X91086000Y-96580000D01*
X91086000Y-96580000D02*
X93826000Y-96580000D01*
%TO.C,C22*%
X144570000Y-103470000D02*
X144570000Y-100730000D01*
X139330000Y-100730000D02*
X144570000Y-100730000D01*
X139330000Y-103470000D02*
X144570000Y-103470000D01*
X139330000Y-103470000D02*
X139330000Y-100730000D01*
%TO.C,C13*%
X110800000Y-74200000D02*
X110800000Y-68960000D01*
X113540000Y-74200000D02*
X110800000Y-74200000D01*
X113540000Y-68960000D02*
X110800000Y-68960000D01*
X113540000Y-74200000D02*
X113540000Y-68960000D01*
%TO.C,C5*%
X111152000Y-136826000D02*
X111152000Y-142066000D01*
X111152000Y-142066000D02*
X113892000Y-142066000D01*
X113892000Y-136826000D02*
X113892000Y-142066000D01*
X111152000Y-136826000D02*
X113892000Y-136826000D01*
%TO.C,R13*%
X104680000Y-58012000D02*
X111220000Y-58012000D01*
X104680000Y-55602000D02*
X104680000Y-55272000D01*
X111220000Y-55272000D02*
X111220000Y-55602000D01*
X104680000Y-57682000D02*
X104680000Y-58012000D01*
X111220000Y-58012000D02*
X111220000Y-57682000D01*
X104680000Y-55272000D02*
X111220000Y-55272000D01*
%TO.C,C7*%
X169518000Y-73740000D02*
X166778000Y-73740000D01*
X169518000Y-73740000D02*
X169518000Y-68500000D01*
X166778000Y-73740000D02*
X166778000Y-68500000D01*
X169518000Y-68500000D02*
X166778000Y-68500000D01*
%TO.C,C17*%
X155675000Y-103600000D02*
X150435000Y-103600000D01*
X150435000Y-100860000D02*
X150435000Y-103600000D01*
X155675000Y-100860000D02*
X155675000Y-103600000D01*
X155675000Y-100860000D02*
X150435000Y-100860000D01*
%TO.C,C21*%
X150140000Y-103460000D02*
X144900000Y-103460000D01*
X150140000Y-100720000D02*
X144900000Y-100720000D01*
X144900000Y-100720000D02*
X144900000Y-103460000D01*
X150140000Y-100720000D02*
X150140000Y-103460000D01*
%TO.C,R7*%
X121439334Y-54587654D02*
X121153545Y-54422654D01*
X121153545Y-54422654D02*
X117883545Y-60086460D01*
X123240666Y-55627654D02*
X123526455Y-55792654D01*
X117883545Y-60086460D02*
X118169334Y-60251460D01*
X120256455Y-61456460D02*
X119970666Y-61291460D01*
X123526455Y-55792654D02*
X120256455Y-61456460D01*
%TO.C,C19*%
X150760000Y-119070000D02*
X145520000Y-119070000D01*
X150760000Y-121810000D02*
X145520000Y-121810000D01*
X145520000Y-119070000D02*
X145520000Y-121810000D01*
X150760000Y-119070000D02*
X150760000Y-121810000D01*
%TO.C,C10*%
X161300000Y-123860000D02*
X161300000Y-126600000D01*
X166540000Y-123860000D02*
X161300000Y-123860000D01*
X166540000Y-126600000D02*
X161300000Y-126600000D01*
X166540000Y-123860000D02*
X166540000Y-126600000D01*
%TO.C,R20*%
X137480000Y-103690000D02*
X130940000Y-103690000D01*
X130940000Y-103690000D02*
X130940000Y-103360000D01*
X130940000Y-100950000D02*
X130940000Y-101280000D01*
X137480000Y-103360000D02*
X137480000Y-103690000D01*
X137480000Y-101280000D02*
X137480000Y-100950000D01*
X137480000Y-100950000D02*
X130940000Y-100950000D01*
%TO.C,C8*%
X147982000Y-73740000D02*
X147982000Y-68500000D01*
X150722000Y-73740000D02*
X147982000Y-73740000D01*
X150722000Y-68500000D02*
X147982000Y-68500000D01*
X150722000Y-73740000D02*
X150722000Y-68500000D01*
%TO.C,C14*%
X94842000Y-73994000D02*
X92102000Y-73994000D01*
X94842000Y-73994000D02*
X94842000Y-68754000D01*
X94842000Y-68754000D02*
X92102000Y-68754000D01*
X92102000Y-73994000D02*
X92102000Y-68754000D01*
%TO.C,C6*%
X92102000Y-136846000D02*
X94842000Y-136846000D01*
X94842000Y-136846000D02*
X94842000Y-142086000D01*
X92102000Y-136846000D02*
X92102000Y-142086000D01*
X92102000Y-142086000D02*
X94842000Y-142086000D01*
%TO.C,C2*%
X119270000Y-78680000D02*
X119270000Y-83920000D01*
X122010000Y-78680000D02*
X122010000Y-83920000D01*
X119270000Y-83920000D02*
X122010000Y-83920000D01*
X119270000Y-78680000D02*
X122010000Y-78680000D01*
%TO.C,R19*%
X164070000Y-101210000D02*
X164070000Y-100880000D01*
X164070000Y-103620000D02*
X157530000Y-103620000D01*
X164070000Y-103290000D02*
X164070000Y-103620000D01*
X157530000Y-100880000D02*
X157530000Y-101210000D01*
X157530000Y-103620000D02*
X157530000Y-103290000D01*
X164070000Y-100880000D02*
X157530000Y-100880000D01*
%TO.C,R11*%
X167100000Y-55272000D02*
X167100000Y-55602000D01*
X160560000Y-55602000D02*
X160560000Y-55272000D01*
X167100000Y-58012000D02*
X167100000Y-57682000D01*
X160560000Y-55272000D02*
X167100000Y-55272000D01*
X160560000Y-58012000D02*
X167100000Y-58012000D01*
X160560000Y-57682000D02*
X160560000Y-58012000D01*
%TO.C,R14*%
X99600000Y-100998000D02*
X106140000Y-100998000D01*
X99600000Y-103408000D02*
X99600000Y-103738000D01*
X99600000Y-101328000D02*
X99600000Y-100998000D01*
X99600000Y-103738000D02*
X106140000Y-103738000D01*
X106140000Y-103738000D02*
X106140000Y-103408000D01*
X106140000Y-100998000D02*
X106140000Y-101328000D01*
%TD*%
M02*
