%TF.GenerationSoftware,KiCad,Pcbnew,(6.0.11)*%
%TF.CreationDate,2023-02-20T11:58:33-06:00*%
%TF.ProjectId,HIDControls,48494443-6f6e-4747-926f-6c732e6b6963,rev?*%
%TF.SameCoordinates,Original*%
%TF.FileFunction,Legend,Top*%
%TF.FilePolarity,Positive*%
%FSLAX46Y46*%
G04 Gerber Fmt 4.6, Leading zero omitted, Abs format (unit mm)*
G04 Created by KiCad (PCBNEW (6.0.11)) date 2023-02-20 11:58:33*
%MOMM*%
%LPD*%
G01*
G04 APERTURE LIST*
%ADD10C,0.150000*%
%ADD11C,0.120000*%
G04 APERTURE END LIST*
D10*
X172720000Y-144780000D02*
X88900000Y-144780000D01*
X172720000Y-53340000D02*
X88900000Y-53340000D01*
X172720000Y-121920000D02*
X88900000Y-121920000D01*
X172720000Y-76200000D02*
X88900000Y-76200000D01*
X88900000Y-144780000D02*
X88900000Y-53340000D01*
X116840000Y-144780000D02*
X116840000Y-53340000D01*
X172720000Y-99060000D02*
X88900000Y-99060000D01*
X144780000Y-144780000D02*
X144780000Y-53340000D01*
X172720000Y-144780000D02*
X172720000Y-53340000D01*
%TO.C,SW14*%
X125950476Y-112174761D02*
X126093333Y-112222380D01*
X126331428Y-112222380D01*
X126426666Y-112174761D01*
X126474285Y-112127142D01*
X126521904Y-112031904D01*
X126521904Y-111936666D01*
X126474285Y-111841428D01*
X126426666Y-111793809D01*
X126331428Y-111746190D01*
X126140952Y-111698571D01*
X126045714Y-111650952D01*
X125998095Y-111603333D01*
X125950476Y-111508095D01*
X125950476Y-111412857D01*
X125998095Y-111317619D01*
X126045714Y-111270000D01*
X126140952Y-111222380D01*
X126379047Y-111222380D01*
X126521904Y-111270000D01*
X126855238Y-111222380D02*
X127093333Y-112222380D01*
X127283809Y-111508095D01*
X127474285Y-112222380D01*
X127712380Y-111222380D01*
X128617142Y-112222380D02*
X128045714Y-112222380D01*
X128331428Y-112222380D02*
X128331428Y-111222380D01*
X128236190Y-111365238D01*
X128140952Y-111460476D01*
X128045714Y-111508095D01*
X129474285Y-111555714D02*
X129474285Y-112222380D01*
X129236190Y-111174761D02*
X128998095Y-111889047D01*
X129617142Y-111889047D01*
%TO.C,SW13*%
X160070476Y-112174761D02*
X160213333Y-112222380D01*
X160451428Y-112222380D01*
X160546666Y-112174761D01*
X160594285Y-112127142D01*
X160641904Y-112031904D01*
X160641904Y-111936666D01*
X160594285Y-111841428D01*
X160546666Y-111793809D01*
X160451428Y-111746190D01*
X160260952Y-111698571D01*
X160165714Y-111650952D01*
X160118095Y-111603333D01*
X160070476Y-111508095D01*
X160070476Y-111412857D01*
X160118095Y-111317619D01*
X160165714Y-111270000D01*
X160260952Y-111222380D01*
X160499047Y-111222380D01*
X160641904Y-111270000D01*
X160975238Y-111222380D02*
X161213333Y-112222380D01*
X161403809Y-111508095D01*
X161594285Y-112222380D01*
X161832380Y-111222380D01*
X162737142Y-112222380D02*
X162165714Y-112222380D01*
X162451428Y-112222380D02*
X162451428Y-111222380D01*
X162356190Y-111365238D01*
X162260952Y-111460476D01*
X162165714Y-111508095D01*
X163070476Y-111222380D02*
X163689523Y-111222380D01*
X163356190Y-111603333D01*
X163499047Y-111603333D01*
X163594285Y-111650952D01*
X163641904Y-111698571D01*
X163689523Y-111793809D01*
X163689523Y-112031904D01*
X163641904Y-112127142D01*
X163594285Y-112174761D01*
X163499047Y-112222380D01*
X163213333Y-112222380D01*
X163118095Y-112174761D01*
X163070476Y-112127142D01*
%TO.C,SW12*%
X134110476Y-112134761D02*
X134253333Y-112182380D01*
X134491428Y-112182380D01*
X134586666Y-112134761D01*
X134634285Y-112087142D01*
X134681904Y-111991904D01*
X134681904Y-111896666D01*
X134634285Y-111801428D01*
X134586666Y-111753809D01*
X134491428Y-111706190D01*
X134300952Y-111658571D01*
X134205714Y-111610952D01*
X134158095Y-111563333D01*
X134110476Y-111468095D01*
X134110476Y-111372857D01*
X134158095Y-111277619D01*
X134205714Y-111230000D01*
X134300952Y-111182380D01*
X134539047Y-111182380D01*
X134681904Y-111230000D01*
X135015238Y-111182380D02*
X135253333Y-112182380D01*
X135443809Y-111468095D01*
X135634285Y-112182380D01*
X135872380Y-111182380D01*
X136777142Y-112182380D02*
X136205714Y-112182380D01*
X136491428Y-112182380D02*
X136491428Y-111182380D01*
X136396190Y-111325238D01*
X136300952Y-111420476D01*
X136205714Y-111468095D01*
X137158095Y-111277619D02*
X137205714Y-111230000D01*
X137300952Y-111182380D01*
X137539047Y-111182380D01*
X137634285Y-111230000D01*
X137681904Y-111277619D01*
X137729523Y-111372857D01*
X137729523Y-111468095D01*
X137681904Y-111610952D01*
X137110476Y-112182380D01*
X137729523Y-112182380D01*
%TO.C,SW11*%
X152360476Y-112204761D02*
X152503333Y-112252380D01*
X152741428Y-112252380D01*
X152836666Y-112204761D01*
X152884285Y-112157142D01*
X152931904Y-112061904D01*
X152931904Y-111966666D01*
X152884285Y-111871428D01*
X152836666Y-111823809D01*
X152741428Y-111776190D01*
X152550952Y-111728571D01*
X152455714Y-111680952D01*
X152408095Y-111633333D01*
X152360476Y-111538095D01*
X152360476Y-111442857D01*
X152408095Y-111347619D01*
X152455714Y-111300000D01*
X152550952Y-111252380D01*
X152789047Y-111252380D01*
X152931904Y-111300000D01*
X153265238Y-111252380D02*
X153503333Y-112252380D01*
X153693809Y-111538095D01*
X153884285Y-112252380D01*
X154122380Y-111252380D01*
X155027142Y-112252380D02*
X154455714Y-112252380D01*
X154741428Y-112252380D02*
X154741428Y-111252380D01*
X154646190Y-111395238D01*
X154550952Y-111490476D01*
X154455714Y-111538095D01*
X155979523Y-112252380D02*
X155408095Y-112252380D01*
X155693809Y-112252380D02*
X155693809Y-111252380D01*
X155598571Y-111395238D01*
X155503333Y-111490476D01*
X155408095Y-111538095D01*
%TO.C,SW10*%
X143080476Y-106064761D02*
X143223333Y-106112380D01*
X143461428Y-106112380D01*
X143556666Y-106064761D01*
X143604285Y-106017142D01*
X143651904Y-105921904D01*
X143651904Y-105826666D01*
X143604285Y-105731428D01*
X143556666Y-105683809D01*
X143461428Y-105636190D01*
X143270952Y-105588571D01*
X143175714Y-105540952D01*
X143128095Y-105493333D01*
X143080476Y-105398095D01*
X143080476Y-105302857D01*
X143128095Y-105207619D01*
X143175714Y-105160000D01*
X143270952Y-105112380D01*
X143509047Y-105112380D01*
X143651904Y-105160000D01*
X143985238Y-105112380D02*
X144223333Y-106112380D01*
X144413809Y-105398095D01*
X144604285Y-106112380D01*
X144842380Y-105112380D01*
X145747142Y-106112380D02*
X145175714Y-106112380D01*
X145461428Y-106112380D02*
X145461428Y-105112380D01*
X145366190Y-105255238D01*
X145270952Y-105350476D01*
X145175714Y-105398095D01*
X146366190Y-105112380D02*
X146461428Y-105112380D01*
X146556666Y-105160000D01*
X146604285Y-105207619D01*
X146651904Y-105302857D01*
X146699523Y-105493333D01*
X146699523Y-105731428D01*
X146651904Y-105921904D01*
X146604285Y-106017142D01*
X146556666Y-106064761D01*
X146461428Y-106112380D01*
X146366190Y-106112380D01*
X146270952Y-106064761D01*
X146223333Y-106017142D01*
X146175714Y-105921904D01*
X146128095Y-105731428D01*
X146128095Y-105493333D01*
X146175714Y-105302857D01*
X146223333Y-105207619D01*
X146270952Y-105160000D01*
X146366190Y-105112380D01*
%TO.C,SW9*%
X143626666Y-115804761D02*
X143769523Y-115852380D01*
X144007619Y-115852380D01*
X144102857Y-115804761D01*
X144150476Y-115757142D01*
X144198095Y-115661904D01*
X144198095Y-115566666D01*
X144150476Y-115471428D01*
X144102857Y-115423809D01*
X144007619Y-115376190D01*
X143817142Y-115328571D01*
X143721904Y-115280952D01*
X143674285Y-115233333D01*
X143626666Y-115138095D01*
X143626666Y-115042857D01*
X143674285Y-114947619D01*
X143721904Y-114900000D01*
X143817142Y-114852380D01*
X144055238Y-114852380D01*
X144198095Y-114900000D01*
X144531428Y-114852380D02*
X144769523Y-115852380D01*
X144960000Y-115138095D01*
X145150476Y-115852380D01*
X145388571Y-114852380D01*
X145817142Y-115852380D02*
X146007619Y-115852380D01*
X146102857Y-115804761D01*
X146150476Y-115757142D01*
X146245714Y-115614285D01*
X146293333Y-115423809D01*
X146293333Y-115042857D01*
X146245714Y-114947619D01*
X146198095Y-114900000D01*
X146102857Y-114852380D01*
X145912380Y-114852380D01*
X145817142Y-114900000D01*
X145769523Y-114947619D01*
X145721904Y-115042857D01*
X145721904Y-115280952D01*
X145769523Y-115376190D01*
X145817142Y-115423809D01*
X145912380Y-115471428D01*
X146102857Y-115471428D01*
X146198095Y-115423809D01*
X146245714Y-115376190D01*
X146293333Y-115280952D01*
%TO.C,SW8*%
X157416666Y-135018761D02*
X157559523Y-135066380D01*
X157797619Y-135066380D01*
X157892857Y-135018761D01*
X157940476Y-134971142D01*
X157988095Y-134875904D01*
X157988095Y-134780666D01*
X157940476Y-134685428D01*
X157892857Y-134637809D01*
X157797619Y-134590190D01*
X157607142Y-134542571D01*
X157511904Y-134494952D01*
X157464285Y-134447333D01*
X157416666Y-134352095D01*
X157416666Y-134256857D01*
X157464285Y-134161619D01*
X157511904Y-134114000D01*
X157607142Y-134066380D01*
X157845238Y-134066380D01*
X157988095Y-134114000D01*
X158321428Y-134066380D02*
X158559523Y-135066380D01*
X158750000Y-134352095D01*
X158940476Y-135066380D01*
X159178571Y-134066380D01*
X159702380Y-134494952D02*
X159607142Y-134447333D01*
X159559523Y-134399714D01*
X159511904Y-134304476D01*
X159511904Y-134256857D01*
X159559523Y-134161619D01*
X159607142Y-134114000D01*
X159702380Y-134066380D01*
X159892857Y-134066380D01*
X159988095Y-134114000D01*
X160035714Y-134161619D01*
X160083333Y-134256857D01*
X160083333Y-134304476D01*
X160035714Y-134399714D01*
X159988095Y-134447333D01*
X159892857Y-134494952D01*
X159702380Y-134494952D01*
X159607142Y-134542571D01*
X159559523Y-134590190D01*
X159511904Y-134685428D01*
X159511904Y-134875904D01*
X159559523Y-134971142D01*
X159607142Y-135018761D01*
X159702380Y-135066380D01*
X159892857Y-135066380D01*
X159988095Y-135018761D01*
X160035714Y-134971142D01*
X160083333Y-134875904D01*
X160083333Y-134685428D01*
X160035714Y-134590190D01*
X159988095Y-134542571D01*
X159892857Y-134494952D01*
%TO.C,R14*%
X158107142Y-125674380D02*
X157773809Y-125198190D01*
X157535714Y-125674380D02*
X157535714Y-124674380D01*
X157916666Y-124674380D01*
X158011904Y-124722000D01*
X158059523Y-124769619D01*
X158107142Y-124864857D01*
X158107142Y-125007714D01*
X158059523Y-125102952D01*
X158011904Y-125150571D01*
X157916666Y-125198190D01*
X157535714Y-125198190D01*
X159059523Y-125674380D02*
X158488095Y-125674380D01*
X158773809Y-125674380D02*
X158773809Y-124674380D01*
X158678571Y-124817238D01*
X158583333Y-124912476D01*
X158488095Y-124960095D01*
X159916666Y-125007714D02*
X159916666Y-125674380D01*
X159678571Y-124626761D02*
X159440476Y-125341047D01*
X160059523Y-125341047D01*
%TO.C,SW7*%
X129476666Y-130452761D02*
X129619523Y-130500380D01*
X129857619Y-130500380D01*
X129952857Y-130452761D01*
X130000476Y-130405142D01*
X130048095Y-130309904D01*
X130048095Y-130214666D01*
X130000476Y-130119428D01*
X129952857Y-130071809D01*
X129857619Y-130024190D01*
X129667142Y-129976571D01*
X129571904Y-129928952D01*
X129524285Y-129881333D01*
X129476666Y-129786095D01*
X129476666Y-129690857D01*
X129524285Y-129595619D01*
X129571904Y-129548000D01*
X129667142Y-129500380D01*
X129905238Y-129500380D01*
X130048095Y-129548000D01*
X130381428Y-129500380D02*
X130619523Y-130500380D01*
X130810000Y-129786095D01*
X131000476Y-130500380D01*
X131238571Y-129500380D01*
X131524285Y-129500380D02*
X132190952Y-129500380D01*
X131762380Y-130500380D01*
%TO.C,RV2*%
X131619761Y-89352380D02*
X131286428Y-88876190D01*
X131048333Y-89352380D02*
X131048333Y-88352380D01*
X131429285Y-88352380D01*
X131524523Y-88400000D01*
X131572142Y-88447619D01*
X131619761Y-88542857D01*
X131619761Y-88685714D01*
X131572142Y-88780952D01*
X131524523Y-88828571D01*
X131429285Y-88876190D01*
X131048333Y-88876190D01*
X131905476Y-88352380D02*
X132238809Y-89352380D01*
X132572142Y-88352380D01*
X132857857Y-88447619D02*
X132905476Y-88400000D01*
X133000714Y-88352380D01*
X133238809Y-88352380D01*
X133334047Y-88400000D01*
X133381666Y-88447619D01*
X133429285Y-88542857D01*
X133429285Y-88638095D01*
X133381666Y-88780952D01*
X132810238Y-89352380D01*
X133429285Y-89352380D01*
%TO.C,SW6*%
X157416666Y-66544761D02*
X157559523Y-66592380D01*
X157797619Y-66592380D01*
X157892857Y-66544761D01*
X157940476Y-66497142D01*
X157988095Y-66401904D01*
X157988095Y-66306666D01*
X157940476Y-66211428D01*
X157892857Y-66163809D01*
X157797619Y-66116190D01*
X157607142Y-66068571D01*
X157511904Y-66020952D01*
X157464285Y-65973333D01*
X157416666Y-65878095D01*
X157416666Y-65782857D01*
X157464285Y-65687619D01*
X157511904Y-65640000D01*
X157607142Y-65592380D01*
X157845238Y-65592380D01*
X157988095Y-65640000D01*
X158321428Y-65592380D02*
X158559523Y-66592380D01*
X158750000Y-65878095D01*
X158940476Y-66592380D01*
X159178571Y-65592380D01*
X159988095Y-65592380D02*
X159797619Y-65592380D01*
X159702380Y-65640000D01*
X159654761Y-65687619D01*
X159559523Y-65830476D01*
X159511904Y-66020952D01*
X159511904Y-66401904D01*
X159559523Y-66497142D01*
X159607142Y-66544761D01*
X159702380Y-66592380D01*
X159892857Y-66592380D01*
X159988095Y-66544761D01*
X160035714Y-66497142D01*
X160083333Y-66401904D01*
X160083333Y-66163809D01*
X160035714Y-66068571D01*
X159988095Y-66020952D01*
X159892857Y-65973333D01*
X159702380Y-65973333D01*
X159607142Y-66020952D01*
X159559523Y-66068571D01*
X159511904Y-66163809D01*
%TO.C,SW5*%
X129696666Y-63344761D02*
X129839523Y-63392380D01*
X130077619Y-63392380D01*
X130172857Y-63344761D01*
X130220476Y-63297142D01*
X130268095Y-63201904D01*
X130268095Y-63106666D01*
X130220476Y-63011428D01*
X130172857Y-62963809D01*
X130077619Y-62916190D01*
X129887142Y-62868571D01*
X129791904Y-62820952D01*
X129744285Y-62773333D01*
X129696666Y-62678095D01*
X129696666Y-62582857D01*
X129744285Y-62487619D01*
X129791904Y-62440000D01*
X129887142Y-62392380D01*
X130125238Y-62392380D01*
X130268095Y-62440000D01*
X130601428Y-62392380D02*
X130839523Y-63392380D01*
X131030000Y-62678095D01*
X131220476Y-63392380D01*
X131458571Y-62392380D01*
X132315714Y-62392380D02*
X131839523Y-62392380D01*
X131791904Y-62868571D01*
X131839523Y-62820952D01*
X131934761Y-62773333D01*
X132172857Y-62773333D01*
X132268095Y-62820952D01*
X132315714Y-62868571D01*
X132363333Y-62963809D01*
X132363333Y-63201904D01*
X132315714Y-63297142D01*
X132268095Y-63344761D01*
X132172857Y-63392380D01*
X131934761Y-63392380D01*
X131839523Y-63344761D01*
X131791904Y-63297142D01*
%TO.C,SW4*%
X101536666Y-68336761D02*
X101679523Y-68384380D01*
X101917619Y-68384380D01*
X102012857Y-68336761D01*
X102060476Y-68289142D01*
X102108095Y-68193904D01*
X102108095Y-68098666D01*
X102060476Y-68003428D01*
X102012857Y-67955809D01*
X101917619Y-67908190D01*
X101727142Y-67860571D01*
X101631904Y-67812952D01*
X101584285Y-67765333D01*
X101536666Y-67670095D01*
X101536666Y-67574857D01*
X101584285Y-67479619D01*
X101631904Y-67432000D01*
X101727142Y-67384380D01*
X101965238Y-67384380D01*
X102108095Y-67432000D01*
X102441428Y-67384380D02*
X102679523Y-68384380D01*
X102870000Y-67670095D01*
X103060476Y-68384380D01*
X103298571Y-67384380D01*
X104108095Y-67717714D02*
X104108095Y-68384380D01*
X103870000Y-67336761D02*
X103631904Y-68051047D01*
X104250952Y-68051047D01*
%TO.C,RV1*%
X102274761Y-86558380D02*
X101941428Y-86082190D01*
X101703333Y-86558380D02*
X101703333Y-85558380D01*
X102084285Y-85558380D01*
X102179523Y-85606000D01*
X102227142Y-85653619D01*
X102274761Y-85748857D01*
X102274761Y-85891714D01*
X102227142Y-85986952D01*
X102179523Y-86034571D01*
X102084285Y-86082190D01*
X101703333Y-86082190D01*
X102560476Y-85558380D02*
X102893809Y-86558380D01*
X103227142Y-85558380D01*
X104084285Y-86558380D02*
X103512857Y-86558380D01*
X103798571Y-86558380D02*
X103798571Y-85558380D01*
X103703333Y-85701238D01*
X103608095Y-85796476D01*
X103512857Y-85844095D01*
%TO.C,SW3*%
X101546666Y-108884761D02*
X101689523Y-108932380D01*
X101927619Y-108932380D01*
X102022857Y-108884761D01*
X102070476Y-108837142D01*
X102118095Y-108741904D01*
X102118095Y-108646666D01*
X102070476Y-108551428D01*
X102022857Y-108503809D01*
X101927619Y-108456190D01*
X101737142Y-108408571D01*
X101641904Y-108360952D01*
X101594285Y-108313333D01*
X101546666Y-108218095D01*
X101546666Y-108122857D01*
X101594285Y-108027619D01*
X101641904Y-107980000D01*
X101737142Y-107932380D01*
X101975238Y-107932380D01*
X102118095Y-107980000D01*
X102451428Y-107932380D02*
X102689523Y-108932380D01*
X102880000Y-108218095D01*
X103070476Y-108932380D01*
X103308571Y-107932380D01*
X103594285Y-107932380D02*
X104213333Y-107932380D01*
X103880000Y-108313333D01*
X104022857Y-108313333D01*
X104118095Y-108360952D01*
X104165714Y-108408571D01*
X104213333Y-108503809D01*
X104213333Y-108741904D01*
X104165714Y-108837142D01*
X104118095Y-108884761D01*
X104022857Y-108932380D01*
X103737142Y-108932380D01*
X103641904Y-108884761D01*
X103594285Y-108837142D01*
%TO.C,SW2*%
X99464761Y-135953333D02*
X99512380Y-135810476D01*
X99512380Y-135572380D01*
X99464761Y-135477142D01*
X99417142Y-135429523D01*
X99321904Y-135381904D01*
X99226666Y-135381904D01*
X99131428Y-135429523D01*
X99083809Y-135477142D01*
X99036190Y-135572380D01*
X98988571Y-135762857D01*
X98940952Y-135858095D01*
X98893333Y-135905714D01*
X98798095Y-135953333D01*
X98702857Y-135953333D01*
X98607619Y-135905714D01*
X98560000Y-135858095D01*
X98512380Y-135762857D01*
X98512380Y-135524761D01*
X98560000Y-135381904D01*
X98512380Y-135048571D02*
X99512380Y-134810476D01*
X98798095Y-134620000D01*
X99512380Y-134429523D01*
X98512380Y-134191428D01*
X98607619Y-133858095D02*
X98560000Y-133810476D01*
X98512380Y-133715238D01*
X98512380Y-133477142D01*
X98560000Y-133381904D01*
X98607619Y-133334285D01*
X98702857Y-133286666D01*
X98798095Y-133286666D01*
X98940952Y-133334285D01*
X99512380Y-133905714D01*
X99512380Y-133286666D01*
%TO.C,SW1*%
X107084761Y-135953333D02*
X107132380Y-135810476D01*
X107132380Y-135572380D01*
X107084761Y-135477142D01*
X107037142Y-135429523D01*
X106941904Y-135381904D01*
X106846666Y-135381904D01*
X106751428Y-135429523D01*
X106703809Y-135477142D01*
X106656190Y-135572380D01*
X106608571Y-135762857D01*
X106560952Y-135858095D01*
X106513333Y-135905714D01*
X106418095Y-135953333D01*
X106322857Y-135953333D01*
X106227619Y-135905714D01*
X106180000Y-135858095D01*
X106132380Y-135762857D01*
X106132380Y-135524761D01*
X106180000Y-135381904D01*
X106132380Y-135048571D02*
X107132380Y-134810476D01*
X106418095Y-134620000D01*
X107132380Y-134429523D01*
X106132380Y-134191428D01*
X107132380Y-133286666D02*
X107132380Y-133858095D01*
X107132380Y-133572380D02*
X106132380Y-133572380D01*
X106275238Y-133667619D01*
X106370476Y-133762857D01*
X106418095Y-133858095D01*
D11*
%TO.C,SW14*%
X128766000Y-108260000D02*
X127266000Y-108260000D01*
X124766000Y-109510000D02*
X124766000Y-114010000D01*
X127266000Y-115260000D02*
X128766000Y-115260000D01*
X131266000Y-114010000D02*
X131266000Y-109510000D01*
%TO.C,SW13*%
X161084000Y-115208000D02*
X162584000Y-115208000D01*
X165084000Y-113958000D02*
X165084000Y-109458000D01*
X162584000Y-108208000D02*
X161084000Y-108208000D01*
X158584000Y-109458000D02*
X158584000Y-113958000D01*
%TO.C,SW12*%
X135176000Y-115208000D02*
X136676000Y-115208000D01*
X139176000Y-113958000D02*
X139176000Y-109458000D01*
X136676000Y-108208000D02*
X135176000Y-108208000D01*
X132676000Y-109458000D02*
X132676000Y-113958000D01*
%TO.C,SW11*%
X157392000Y-114062000D02*
X157392000Y-109562000D01*
X153392000Y-115312000D02*
X154892000Y-115312000D01*
X150892000Y-109562000D02*
X150892000Y-114062000D01*
X154892000Y-108312000D02*
X153392000Y-108312000D01*
%TO.C,SW10*%
X147209000Y-102323000D02*
X142709000Y-102323000D01*
X148459000Y-106323000D02*
X148459000Y-104823000D01*
X142709000Y-108823000D02*
X147209000Y-108823000D01*
X141459000Y-104823000D02*
X141459000Y-106323000D01*
%TO.C,SW9*%
X148482000Y-116157000D02*
X148482000Y-114657000D01*
X147232000Y-112157000D02*
X142732000Y-112157000D01*
X141482000Y-114657000D02*
X141482000Y-116157000D01*
X142732000Y-118657000D02*
X147232000Y-118657000D01*
%TO.C,SW8*%
X155250000Y-133864000D02*
X155250000Y-135364000D01*
X156500000Y-137864000D02*
X161000000Y-137864000D01*
X162250000Y-135364000D02*
X162250000Y-133864000D01*
X161000000Y-131364000D02*
X156500000Y-131364000D01*
%TO.C,R14*%
X162020000Y-126592000D02*
X162020000Y-126262000D01*
X155480000Y-123852000D02*
X162020000Y-123852000D01*
X155480000Y-126592000D02*
X162020000Y-126592000D01*
X155480000Y-126262000D02*
X155480000Y-126592000D01*
X155480000Y-124182000D02*
X155480000Y-123852000D01*
X162020000Y-123852000D02*
X162020000Y-124182000D01*
%TO.C,SW7*%
X123810000Y-138620000D02*
X123810000Y-130620000D01*
X137810000Y-138620000D02*
X123810000Y-138620000D01*
X123810000Y-130620000D02*
X137810000Y-130620000D01*
X137810000Y-130620000D02*
X137810000Y-138620000D01*
%TO.C,RV2*%
X163762000Y-93805000D02*
X125762000Y-93805000D01*
X125762000Y-83805000D02*
X163762000Y-83805000D01*
X163762000Y-83805000D02*
X163762000Y-93805000D01*
X125762000Y-93805000D02*
X125762000Y-83805000D01*
%TO.C,SW6*%
X153557500Y-62147500D02*
X153557500Y-61147500D01*
X153807500Y-70837500D02*
X153807500Y-61397500D01*
X154557500Y-61147500D02*
X153557500Y-61147500D01*
X157127500Y-64417500D02*
X157127500Y-67717500D01*
X160427500Y-64417500D02*
X157127500Y-64417500D01*
X160427500Y-64417500D02*
X160427500Y-67717500D01*
X160427500Y-67717500D02*
X157127500Y-67717500D01*
X163847500Y-61397500D02*
X153807500Y-61397500D01*
X163847500Y-70837500D02*
X153807500Y-70837500D01*
X163847500Y-70837500D02*
X163847500Y-61397500D01*
%TO.C,SW5*%
X125070000Y-68990000D02*
X125070000Y-64890000D01*
X135070000Y-55690000D02*
X134770000Y-55390000D01*
X134770000Y-55390000D02*
X135070000Y-55090000D01*
X125070000Y-60890000D02*
X125070000Y-56790000D01*
X136870000Y-64890000D02*
X136870000Y-68990000D01*
X136870000Y-68990000D02*
X134470000Y-68990000D01*
X127470000Y-68990000D02*
X125070000Y-68990000D01*
X131470000Y-62890000D02*
X130470000Y-62890000D01*
X136870000Y-60890000D02*
X136870000Y-56790000D01*
X130970000Y-62390000D02*
X130970000Y-63390000D01*
X132270000Y-68990000D02*
X129670000Y-68990000D01*
X136870000Y-56790000D02*
X125070000Y-56790000D01*
X135070000Y-55090000D02*
X135070000Y-55690000D01*
X133970000Y-62890000D02*
G75*
G03*
X133970000Y-62890000I-3000000J0D01*
G01*
%TO.C,SW4*%
X96470000Y-62132000D02*
X96470000Y-68932000D01*
X109270000Y-68932000D02*
X109270000Y-62132000D01*
X109270000Y-62132000D02*
X96470000Y-62132000D01*
X96470000Y-68932000D02*
X109270000Y-68932000D01*
%TO.C,RV1*%
X97929000Y-92050000D02*
X99250000Y-92050000D01*
X97929000Y-92050000D02*
X97929000Y-88113000D01*
X101700000Y-92050000D02*
X102080000Y-92050000D01*
X103821000Y-92050000D02*
X104580000Y-92050000D01*
X106320000Y-92050000D02*
X107970000Y-92050000D01*
X107970000Y-92050000D02*
X107970000Y-88113000D01*
X97929000Y-83746000D02*
X97929000Y-79810000D01*
X107970000Y-83746000D02*
X107970000Y-79810000D01*
X97929000Y-79810000D02*
X107970000Y-79810000D01*
%TO.C,SW3*%
X108770000Y-102362000D02*
X108770000Y-106462000D01*
X98770000Y-115662000D02*
X99070000Y-115962000D01*
X102370000Y-108462000D02*
X103370000Y-108462000D01*
X97070000Y-114562000D02*
X108770000Y-114562000D01*
X101570000Y-102362000D02*
X104170000Y-102362000D01*
X99070000Y-115962000D02*
X98770000Y-116262000D01*
X96970000Y-106462000D02*
X96970000Y-102362000D01*
X102870000Y-108962000D02*
X102870000Y-107962000D01*
X108770000Y-110462000D02*
X108770000Y-114562000D01*
X96970000Y-102362000D02*
X99570000Y-102362000D01*
X97070000Y-110462000D02*
X97070000Y-114562000D01*
X106170000Y-102362000D02*
X108770000Y-102362000D01*
X98770000Y-116262000D02*
X98770000Y-115662000D01*
X105870000Y-108462000D02*
G75*
G03*
X105870000Y-108462000I-3000000J0D01*
G01*
%TO.C,SW2*%
X102310000Y-136870000D02*
X102310000Y-132370000D01*
X98310000Y-138120000D02*
X99810000Y-138120000D01*
X95810000Y-132370000D02*
X95810000Y-136870000D01*
X99810000Y-131120000D02*
X98310000Y-131120000D01*
%TO.C,SW1*%
X105930000Y-138120000D02*
X107430000Y-138120000D01*
X109930000Y-136870000D02*
X109930000Y-132370000D01*
X107430000Y-131120000D02*
X105930000Y-131120000D01*
X103430000Y-132370000D02*
X103430000Y-136870000D01*
%TO.C,M2*%
X110490000Y-104140000D02*
X110490000Y-119380000D01*
X110490000Y-119380000D02*
X95250000Y-119380000D01*
X95250000Y-104140000D02*
X95250000Y-119380000D01*
X110490000Y-104140000D02*
X95250000Y-104140000D01*
%TO.C,M12*%
X110490000Y-58420000D02*
X110490000Y-73660000D01*
X95250000Y-58420000D02*
X95250000Y-73660000D01*
X110490000Y-58420000D02*
X95250000Y-58420000D01*
X110490000Y-73660000D02*
X95250000Y-73660000D01*
%TO.C,M10*%
X166370000Y-104140000D02*
X166370000Y-119380000D01*
X166370000Y-104140000D02*
X151130000Y-104140000D01*
X151130000Y-104140000D02*
X151130000Y-119380000D01*
X166370000Y-119380000D02*
X151130000Y-119380000D01*
%TO.C,M7*%
X138430000Y-127000000D02*
X138430000Y-142240000D01*
X138430000Y-142240000D02*
X123190000Y-142240000D01*
X138430000Y-127000000D02*
X123190000Y-127000000D01*
X123190000Y-127000000D02*
X123190000Y-142240000D01*
%TO.C,M4*%
X138430000Y-73660000D02*
X123190000Y-73660000D01*
X138430000Y-58420000D02*
X138430000Y-73660000D01*
X138430000Y-58420000D02*
X123190000Y-58420000D01*
X123190000Y-58420000D02*
X123190000Y-73660000D01*
%TO.C,M8*%
X166370000Y-58420000D02*
X151130000Y-58420000D01*
X166370000Y-58420000D02*
X166370000Y-73660000D01*
X151130000Y-58420000D02*
X151130000Y-73660000D01*
X166370000Y-73660000D02*
X151130000Y-73660000D01*
%TO.C,M6*%
X138430000Y-104140000D02*
X123190000Y-104140000D01*
X123190000Y-104140000D02*
X123190000Y-119380000D01*
X138430000Y-104140000D02*
X138430000Y-119380000D01*
X138430000Y-119380000D02*
X123190000Y-119380000D01*
%TO.C,M11*%
X166370000Y-126994000D02*
X151130000Y-126994000D01*
X166370000Y-142234000D02*
X151130000Y-142234000D01*
X166370000Y-126994000D02*
X166370000Y-142234000D01*
X151130000Y-126994000D02*
X151130000Y-142234000D01*
%TO.C,M3*%
X110490000Y-127000000D02*
X110490000Y-142240000D01*
X95250000Y-127000000D02*
X95250000Y-142240000D01*
X110490000Y-142240000D02*
X95250000Y-142240000D01*
X110490000Y-127000000D02*
X95250000Y-127000000D01*
%TO.C,M9*%
X166370000Y-81280000D02*
X151130000Y-81280000D01*
X151130000Y-81280000D02*
X151130000Y-96520000D01*
X166370000Y-81280000D02*
X166370000Y-96520000D01*
X166370000Y-96520000D02*
X151130000Y-96520000D01*
%TO.C,M1*%
X110490000Y-81280000D02*
X95250000Y-81280000D01*
X95250000Y-81280000D02*
X95250000Y-96520000D01*
X110490000Y-96520000D02*
X95250000Y-96520000D01*
X110490000Y-81280000D02*
X110490000Y-96520000D01*
%TO.C,M5*%
X138430000Y-81280000D02*
X138430000Y-96520000D01*
X138430000Y-96520000D02*
X123190000Y-96520000D01*
X123190000Y-81280000D02*
X123190000Y-96520000D01*
X138430000Y-81280000D02*
X123190000Y-81280000D01*
%TD*%
M02*
