%TF.GenerationSoftware,KiCad,Pcbnew,(6.0.11)*%
%TF.CreationDate,2023-03-17T21:56:11-05:00*%
%TF.ProjectId,HIDControls,48494443-6f6e-4747-926f-6c732e6b6963,rev?*%
%TF.SameCoordinates,Original*%
%TF.FileFunction,Legend,Top*%
%TF.FilePolarity,Positive*%
%FSLAX46Y46*%
G04 Gerber Fmt 4.6, Leading zero omitted, Abs format (unit mm)*
G04 Created by KiCad (PCBNEW (6.0.11)) date 2023-03-17 21:56:11*
%MOMM*%
%LPD*%
G01*
G04 APERTURE LIST*
%ADD10C,0.150000*%
%ADD11C,0.120000*%
G04 APERTURE END LIST*
D10*
X172720000Y-121920000D02*
X88900000Y-121920000D01*
X172720000Y-76200000D02*
X88900000Y-76200000D01*
X172720000Y-144780000D02*
X88900000Y-144780000D01*
X88900000Y-144780000D02*
X88900000Y-53340000D01*
X116840000Y-144780000D02*
X116840000Y-53340000D01*
X172720000Y-99060000D02*
X88900000Y-99060000D01*
X172720000Y-53340000D02*
X88900000Y-53340000D01*
X144780000Y-144780000D02*
X144780000Y-53340000D01*
X172720000Y-144780000D02*
X172720000Y-53340000D01*
X89664285Y-54052380D02*
X89664285Y-54861904D01*
X89711904Y-54957142D01*
X89759523Y-55004761D01*
X89854761Y-55052380D01*
X90045238Y-55052380D01*
X90140476Y-55004761D01*
X90188095Y-54957142D01*
X90235714Y-54861904D01*
X90235714Y-54052380D01*
X90711904Y-55052380D02*
X90711904Y-54052380D01*
X91092857Y-54052380D01*
X91188095Y-54100000D01*
X91235714Y-54147619D01*
X91283333Y-54242857D01*
X91283333Y-54385714D01*
X91235714Y-54480952D01*
X91188095Y-54528571D01*
X91092857Y-54576190D01*
X90711904Y-54576190D01*
X89814285Y-77002380D02*
X89814285Y-77811904D01*
X89861904Y-77907142D01*
X89909523Y-77954761D01*
X90004761Y-78002380D01*
X90195238Y-78002380D01*
X90290476Y-77954761D01*
X90338095Y-77907142D01*
X90385714Y-77811904D01*
X90385714Y-77002380D01*
X90861904Y-78002380D02*
X90861904Y-77002380D01*
X91242857Y-77002380D01*
X91338095Y-77050000D01*
X91385714Y-77097619D01*
X91433333Y-77192857D01*
X91433333Y-77335714D01*
X91385714Y-77430952D01*
X91338095Y-77478571D01*
X91242857Y-77526190D01*
X90861904Y-77526190D01*
X170364285Y-123002380D02*
X170364285Y-123811904D01*
X170411904Y-123907142D01*
X170459523Y-123954761D01*
X170554761Y-124002380D01*
X170745238Y-124002380D01*
X170840476Y-123954761D01*
X170888095Y-123907142D01*
X170935714Y-123811904D01*
X170935714Y-123002380D01*
X171411904Y-124002380D02*
X171411904Y-123002380D01*
X171792857Y-123002380D01*
X171888095Y-123050000D01*
X171935714Y-123097619D01*
X171983333Y-123192857D01*
X171983333Y-123335714D01*
X171935714Y-123430952D01*
X171888095Y-123478571D01*
X171792857Y-123526190D01*
X171411904Y-123526190D01*
X113914285Y-122752380D02*
X113914285Y-123561904D01*
X113961904Y-123657142D01*
X114009523Y-123704761D01*
X114104761Y-123752380D01*
X114295238Y-123752380D01*
X114390476Y-123704761D01*
X114438095Y-123657142D01*
X114485714Y-123561904D01*
X114485714Y-122752380D01*
X114961904Y-123752380D02*
X114961904Y-122752380D01*
X115342857Y-122752380D01*
X115438095Y-122800000D01*
X115485714Y-122847619D01*
X115533333Y-122942857D01*
X115533333Y-123085714D01*
X115485714Y-123180952D01*
X115438095Y-123228571D01*
X115342857Y-123276190D01*
X114961904Y-123276190D01*
X90064285Y-122602380D02*
X90064285Y-123411904D01*
X90111904Y-123507142D01*
X90159523Y-123554761D01*
X90254761Y-123602380D01*
X90445238Y-123602380D01*
X90540476Y-123554761D01*
X90588095Y-123507142D01*
X90635714Y-123411904D01*
X90635714Y-122602380D01*
X91111904Y-123602380D02*
X91111904Y-122602380D01*
X91492857Y-122602380D01*
X91588095Y-122650000D01*
X91635714Y-122697619D01*
X91683333Y-122792857D01*
X91683333Y-122935714D01*
X91635714Y-123030952D01*
X91588095Y-123078571D01*
X91492857Y-123126190D01*
X91111904Y-123126190D01*
X117364285Y-54002380D02*
X117364285Y-54811904D01*
X117411904Y-54907142D01*
X117459523Y-54954761D01*
X117554761Y-55002380D01*
X117745238Y-55002380D01*
X117840476Y-54954761D01*
X117888095Y-54907142D01*
X117935714Y-54811904D01*
X117935714Y-54002380D01*
X118411904Y-55002380D02*
X118411904Y-54002380D01*
X118792857Y-54002380D01*
X118888095Y-54050000D01*
X118935714Y-54097619D01*
X118983333Y-54192857D01*
X118983333Y-54335714D01*
X118935714Y-54430952D01*
X118888095Y-54478571D01*
X118792857Y-54526190D01*
X118411904Y-54526190D01*
X114464285Y-77102380D02*
X114464285Y-77911904D01*
X114511904Y-78007142D01*
X114559523Y-78054761D01*
X114654761Y-78102380D01*
X114845238Y-78102380D01*
X114940476Y-78054761D01*
X114988095Y-78007142D01*
X115035714Y-77911904D01*
X115035714Y-77102380D01*
X115511904Y-78102380D02*
X115511904Y-77102380D01*
X115892857Y-77102380D01*
X115988095Y-77150000D01*
X116035714Y-77197619D01*
X116083333Y-77292857D01*
X116083333Y-77435714D01*
X116035714Y-77530952D01*
X115988095Y-77578571D01*
X115892857Y-77626190D01*
X115511904Y-77626190D01*
X170014285Y-54402380D02*
X170014285Y-55211904D01*
X170061904Y-55307142D01*
X170109523Y-55354761D01*
X170204761Y-55402380D01*
X170395238Y-55402380D01*
X170490476Y-55354761D01*
X170538095Y-55307142D01*
X170585714Y-55211904D01*
X170585714Y-54402380D01*
X171061904Y-55402380D02*
X171061904Y-54402380D01*
X171442857Y-54402380D01*
X171538095Y-54450000D01*
X171585714Y-54497619D01*
X171633333Y-54592857D01*
X171633333Y-54735714D01*
X171585714Y-54830952D01*
X171538095Y-54878571D01*
X171442857Y-54926190D01*
X171061904Y-54926190D01*
X142714285Y-54002380D02*
X142714285Y-54811904D01*
X142761904Y-54907142D01*
X142809523Y-54954761D01*
X142904761Y-55002380D01*
X143095238Y-55002380D01*
X143190476Y-54954761D01*
X143238095Y-54907142D01*
X143285714Y-54811904D01*
X143285714Y-54002380D01*
X143761904Y-55002380D02*
X143761904Y-54002380D01*
X144142857Y-54002380D01*
X144238095Y-54050000D01*
X144285714Y-54097619D01*
X144333333Y-54192857D01*
X144333333Y-54335714D01*
X144285714Y-54430952D01*
X144238095Y-54478571D01*
X144142857Y-54526190D01*
X143761904Y-54526190D01*
X89914285Y-99752380D02*
X89914285Y-100561904D01*
X89961904Y-100657142D01*
X90009523Y-100704761D01*
X90104761Y-100752380D01*
X90295238Y-100752380D01*
X90390476Y-100704761D01*
X90438095Y-100657142D01*
X90485714Y-100561904D01*
X90485714Y-99752380D01*
X90961904Y-100752380D02*
X90961904Y-99752380D01*
X91342857Y-99752380D01*
X91438095Y-99800000D01*
X91485714Y-99847619D01*
X91533333Y-99942857D01*
X91533333Y-100085714D01*
X91485714Y-100180952D01*
X91438095Y-100228571D01*
X91342857Y-100276190D01*
X90961904Y-100276190D01*
X97280952Y-81052380D02*
X97280952Y-80052380D01*
X97661904Y-80052380D01*
X97757142Y-80100000D01*
X97804761Y-80147619D01*
X97852380Y-80242857D01*
X97852380Y-80385714D01*
X97804761Y-80480952D01*
X97757142Y-80528571D01*
X97661904Y-80576190D01*
X97280952Y-80576190D01*
X98280952Y-80052380D02*
X98280952Y-80861904D01*
X98328571Y-80957142D01*
X98376190Y-81004761D01*
X98471428Y-81052380D01*
X98661904Y-81052380D01*
X98757142Y-81004761D01*
X98804761Y-80957142D01*
X98852380Y-80861904D01*
X98852380Y-80052380D01*
X99185714Y-80052380D02*
X99757142Y-80052380D01*
X99471428Y-81052380D02*
X99471428Y-80052380D01*
X100709523Y-80052380D02*
X101280952Y-80052380D01*
X100995238Y-81052380D02*
X100995238Y-80052380D01*
X101566666Y-80766666D02*
X102042857Y-80766666D01*
X101471428Y-81052380D02*
X101804761Y-80052380D01*
X102138095Y-81052380D01*
X102471428Y-81052380D02*
X102471428Y-80052380D01*
X102852380Y-80052380D01*
X102947619Y-80100000D01*
X102995238Y-80147619D01*
X103042857Y-80242857D01*
X103042857Y-80385714D01*
X102995238Y-80480952D01*
X102947619Y-80528571D01*
X102852380Y-80576190D01*
X102471428Y-80576190D01*
X103471428Y-80528571D02*
X103804761Y-80528571D01*
X103947619Y-81052380D02*
X103471428Y-81052380D01*
X103471428Y-80052380D01*
X103947619Y-80052380D01*
X105138095Y-81052380D02*
X105138095Y-80052380D01*
X105138095Y-80528571D02*
X105709523Y-80528571D01*
X105709523Y-81052380D02*
X105709523Y-80052380D01*
X106185714Y-80528571D02*
X106519047Y-80528571D01*
X106661904Y-81052380D02*
X106185714Y-81052380D01*
X106185714Y-80052380D01*
X106661904Y-80052380D01*
X107661904Y-81052380D02*
X107328571Y-80576190D01*
X107090476Y-81052380D02*
X107090476Y-80052380D01*
X107471428Y-80052380D01*
X107566666Y-80100000D01*
X107614285Y-80147619D01*
X107661904Y-80242857D01*
X107661904Y-80385714D01*
X107614285Y-80480952D01*
X107566666Y-80528571D01*
X107471428Y-80576190D01*
X107090476Y-80576190D01*
X108090476Y-80528571D02*
X108423809Y-80528571D01*
X108566666Y-81052380D02*
X108090476Y-81052380D01*
X108090476Y-80052380D01*
X108566666Y-80052380D01*
X114414285Y-99702380D02*
X114414285Y-100511904D01*
X114461904Y-100607142D01*
X114509523Y-100654761D01*
X114604761Y-100702380D01*
X114795238Y-100702380D01*
X114890476Y-100654761D01*
X114938095Y-100607142D01*
X114985714Y-100511904D01*
X114985714Y-99702380D01*
X115461904Y-100702380D02*
X115461904Y-99702380D01*
X115842857Y-99702380D01*
X115938095Y-99750000D01*
X115985714Y-99797619D01*
X116033333Y-99892857D01*
X116033333Y-100035714D01*
X115985714Y-100130952D01*
X115938095Y-100178571D01*
X115842857Y-100226190D01*
X115461904Y-100226190D01*
X145564285Y-54102380D02*
X145564285Y-54911904D01*
X145611904Y-55007142D01*
X145659523Y-55054761D01*
X145754761Y-55102380D01*
X145945238Y-55102380D01*
X146040476Y-55054761D01*
X146088095Y-55007142D01*
X146135714Y-54911904D01*
X146135714Y-54102380D01*
X146611904Y-55102380D02*
X146611904Y-54102380D01*
X146992857Y-54102380D01*
X147088095Y-54150000D01*
X147135714Y-54197619D01*
X147183333Y-54292857D01*
X147183333Y-54435714D01*
X147135714Y-54530952D01*
X147088095Y-54578571D01*
X146992857Y-54626190D01*
X146611904Y-54626190D01*
X170264285Y-99752380D02*
X170264285Y-100561904D01*
X170311904Y-100657142D01*
X170359523Y-100704761D01*
X170454761Y-100752380D01*
X170645238Y-100752380D01*
X170740476Y-100704761D01*
X170788095Y-100657142D01*
X170835714Y-100561904D01*
X170835714Y-99752380D01*
X171311904Y-100752380D02*
X171311904Y-99752380D01*
X171692857Y-99752380D01*
X171788095Y-99800000D01*
X171835714Y-99847619D01*
X171883333Y-99942857D01*
X171883333Y-100085714D01*
X171835714Y-100180952D01*
X171788095Y-100228571D01*
X171692857Y-100276190D01*
X171311904Y-100276190D01*
X117714285Y-122752380D02*
X117714285Y-123561904D01*
X117761904Y-123657142D01*
X117809523Y-123704761D01*
X117904761Y-123752380D01*
X118095238Y-123752380D01*
X118190476Y-123704761D01*
X118238095Y-123657142D01*
X118285714Y-123561904D01*
X118285714Y-122752380D01*
X118761904Y-123752380D02*
X118761904Y-122752380D01*
X119142857Y-122752380D01*
X119238095Y-122800000D01*
X119285714Y-122847619D01*
X119333333Y-122942857D01*
X119333333Y-123085714D01*
X119285714Y-123180952D01*
X119238095Y-123228571D01*
X119142857Y-123276190D01*
X118761904Y-123276190D01*
X117614285Y-99702380D02*
X117614285Y-100511904D01*
X117661904Y-100607142D01*
X117709523Y-100654761D01*
X117804761Y-100702380D01*
X117995238Y-100702380D01*
X118090476Y-100654761D01*
X118138095Y-100607142D01*
X118185714Y-100511904D01*
X118185714Y-99702380D01*
X118661904Y-100702380D02*
X118661904Y-99702380D01*
X119042857Y-99702380D01*
X119138095Y-99750000D01*
X119185714Y-99797619D01*
X119233333Y-99892857D01*
X119233333Y-100035714D01*
X119185714Y-100130952D01*
X119138095Y-100178571D01*
X119042857Y-100226190D01*
X118661904Y-100226190D01*
X170014285Y-76852380D02*
X170014285Y-77661904D01*
X170061904Y-77757142D01*
X170109523Y-77804761D01*
X170204761Y-77852380D01*
X170395238Y-77852380D01*
X170490476Y-77804761D01*
X170538095Y-77757142D01*
X170585714Y-77661904D01*
X170585714Y-76852380D01*
X171061904Y-77852380D02*
X171061904Y-76852380D01*
X171442857Y-76852380D01*
X171538095Y-76900000D01*
X171585714Y-76947619D01*
X171633333Y-77042857D01*
X171633333Y-77185714D01*
X171585714Y-77280952D01*
X171538095Y-77328571D01*
X171442857Y-77376190D01*
X171061904Y-77376190D01*
X114914285Y-54052380D02*
X114914285Y-54861904D01*
X114961904Y-54957142D01*
X115009523Y-55004761D01*
X115104761Y-55052380D01*
X115295238Y-55052380D01*
X115390476Y-55004761D01*
X115438095Y-54957142D01*
X115485714Y-54861904D01*
X115485714Y-54052380D01*
X115961904Y-55052380D02*
X115961904Y-54052380D01*
X116342857Y-54052380D01*
X116438095Y-54100000D01*
X116485714Y-54147619D01*
X116533333Y-54242857D01*
X116533333Y-54385714D01*
X116485714Y-54480952D01*
X116438095Y-54528571D01*
X116342857Y-54576190D01*
X115961904Y-54576190D01*
X117614285Y-77002380D02*
X117614285Y-77811904D01*
X117661904Y-77907142D01*
X117709523Y-77954761D01*
X117804761Y-78002380D01*
X117995238Y-78002380D01*
X118090476Y-77954761D01*
X118138095Y-77907142D01*
X118185714Y-77811904D01*
X118185714Y-77002380D01*
X118661904Y-78002380D02*
X118661904Y-77002380D01*
X119042857Y-77002380D01*
X119138095Y-77050000D01*
X119185714Y-77097619D01*
X119233333Y-77192857D01*
X119233333Y-77335714D01*
X119185714Y-77430952D01*
X119138095Y-77478571D01*
X119042857Y-77526190D01*
X118661904Y-77526190D01*
X125430952Y-58102380D02*
X125430952Y-57102380D01*
X125811904Y-57102380D01*
X125907142Y-57150000D01*
X125954761Y-57197619D01*
X126002380Y-57292857D01*
X126002380Y-57435714D01*
X125954761Y-57530952D01*
X125907142Y-57578571D01*
X125811904Y-57626190D01*
X125430952Y-57626190D01*
X126430952Y-57102380D02*
X126430952Y-57911904D01*
X126478571Y-58007142D01*
X126526190Y-58054761D01*
X126621428Y-58102380D01*
X126811904Y-58102380D01*
X126907142Y-58054761D01*
X126954761Y-58007142D01*
X127002380Y-57911904D01*
X127002380Y-57102380D01*
X127335714Y-57102380D02*
X127907142Y-57102380D01*
X127621428Y-58102380D02*
X127621428Y-57102380D01*
X128859523Y-57102380D02*
X129430952Y-57102380D01*
X129145238Y-58102380D02*
X129145238Y-57102380D01*
X129716666Y-57816666D02*
X130192857Y-57816666D01*
X129621428Y-58102380D02*
X129954761Y-57102380D01*
X130288095Y-58102380D01*
X130621428Y-58102380D02*
X130621428Y-57102380D01*
X131002380Y-57102380D01*
X131097619Y-57150000D01*
X131145238Y-57197619D01*
X131192857Y-57292857D01*
X131192857Y-57435714D01*
X131145238Y-57530952D01*
X131097619Y-57578571D01*
X131002380Y-57626190D01*
X130621428Y-57626190D01*
X131621428Y-57578571D02*
X131954761Y-57578571D01*
X132097619Y-58102380D02*
X131621428Y-58102380D01*
X131621428Y-57102380D01*
X132097619Y-57102380D01*
X133288095Y-58102380D02*
X133288095Y-57102380D01*
X133288095Y-57578571D02*
X133859523Y-57578571D01*
X133859523Y-58102380D02*
X133859523Y-57102380D01*
X134335714Y-57578571D02*
X134669047Y-57578571D01*
X134811904Y-58102380D02*
X134335714Y-58102380D01*
X134335714Y-57102380D01*
X134811904Y-57102380D01*
X135811904Y-58102380D02*
X135478571Y-57626190D01*
X135240476Y-58102380D02*
X135240476Y-57102380D01*
X135621428Y-57102380D01*
X135716666Y-57150000D01*
X135764285Y-57197619D01*
X135811904Y-57292857D01*
X135811904Y-57435714D01*
X135764285Y-57530952D01*
X135716666Y-57578571D01*
X135621428Y-57626190D01*
X135240476Y-57626190D01*
X136240476Y-57578571D02*
X136573809Y-57578571D01*
X136716666Y-58102380D02*
X136240476Y-58102380D01*
X136240476Y-57102380D01*
X136716666Y-57102380D01*
%TO.C,SW10*%
X143011476Y-107981761D02*
X143154333Y-108029380D01*
X143392428Y-108029380D01*
X143487666Y-107981761D01*
X143535285Y-107934142D01*
X143582904Y-107838904D01*
X143582904Y-107743666D01*
X143535285Y-107648428D01*
X143487666Y-107600809D01*
X143392428Y-107553190D01*
X143201952Y-107505571D01*
X143106714Y-107457952D01*
X143059095Y-107410333D01*
X143011476Y-107315095D01*
X143011476Y-107219857D01*
X143059095Y-107124619D01*
X143106714Y-107077000D01*
X143201952Y-107029380D01*
X143440047Y-107029380D01*
X143582904Y-107077000D01*
X143916238Y-107029380D02*
X144154333Y-108029380D01*
X144344809Y-107315095D01*
X144535285Y-108029380D01*
X144773380Y-107029380D01*
X145678142Y-108029380D02*
X145106714Y-108029380D01*
X145392428Y-108029380D02*
X145392428Y-107029380D01*
X145297190Y-107172238D01*
X145201952Y-107267476D01*
X145106714Y-107315095D01*
X146297190Y-107029380D02*
X146392428Y-107029380D01*
X146487666Y-107077000D01*
X146535285Y-107124619D01*
X146582904Y-107219857D01*
X146630523Y-107410333D01*
X146630523Y-107648428D01*
X146582904Y-107838904D01*
X146535285Y-107934142D01*
X146487666Y-107981761D01*
X146392428Y-108029380D01*
X146297190Y-108029380D01*
X146201952Y-107981761D01*
X146154333Y-107934142D01*
X146106714Y-107838904D01*
X146059095Y-107648428D01*
X146059095Y-107410333D01*
X146106714Y-107219857D01*
X146154333Y-107124619D01*
X146201952Y-107077000D01*
X146297190Y-107029380D01*
%TO.C,SW9*%
X143514666Y-115527761D02*
X143657523Y-115575380D01*
X143895619Y-115575380D01*
X143990857Y-115527761D01*
X144038476Y-115480142D01*
X144086095Y-115384904D01*
X144086095Y-115289666D01*
X144038476Y-115194428D01*
X143990857Y-115146809D01*
X143895619Y-115099190D01*
X143705142Y-115051571D01*
X143609904Y-115003952D01*
X143562285Y-114956333D01*
X143514666Y-114861095D01*
X143514666Y-114765857D01*
X143562285Y-114670619D01*
X143609904Y-114623000D01*
X143705142Y-114575380D01*
X143943238Y-114575380D01*
X144086095Y-114623000D01*
X144419428Y-114575380D02*
X144657523Y-115575380D01*
X144848000Y-114861095D01*
X145038476Y-115575380D01*
X145276571Y-114575380D01*
X145705142Y-115575380D02*
X145895619Y-115575380D01*
X145990857Y-115527761D01*
X146038476Y-115480142D01*
X146133714Y-115337285D01*
X146181333Y-115146809D01*
X146181333Y-114765857D01*
X146133714Y-114670619D01*
X146086095Y-114623000D01*
X145990857Y-114575380D01*
X145800380Y-114575380D01*
X145705142Y-114623000D01*
X145657523Y-114670619D01*
X145609904Y-114765857D01*
X145609904Y-115003952D01*
X145657523Y-115099190D01*
X145705142Y-115146809D01*
X145800380Y-115194428D01*
X145990857Y-115194428D01*
X146086095Y-115146809D01*
X146133714Y-115099190D01*
X146181333Y-115003952D01*
%TO.C,SW5*%
X129730666Y-67206761D02*
X129873523Y-67254380D01*
X130111619Y-67254380D01*
X130206857Y-67206761D01*
X130254476Y-67159142D01*
X130302095Y-67063904D01*
X130302095Y-66968666D01*
X130254476Y-66873428D01*
X130206857Y-66825809D01*
X130111619Y-66778190D01*
X129921142Y-66730571D01*
X129825904Y-66682952D01*
X129778285Y-66635333D01*
X129730666Y-66540095D01*
X129730666Y-66444857D01*
X129778285Y-66349619D01*
X129825904Y-66302000D01*
X129921142Y-66254380D01*
X130159238Y-66254380D01*
X130302095Y-66302000D01*
X130635428Y-66254380D02*
X130873523Y-67254380D01*
X131064000Y-66540095D01*
X131254476Y-67254380D01*
X131492571Y-66254380D01*
X132349714Y-66254380D02*
X131873523Y-66254380D01*
X131825904Y-66730571D01*
X131873523Y-66682952D01*
X131968761Y-66635333D01*
X132206857Y-66635333D01*
X132302095Y-66682952D01*
X132349714Y-66730571D01*
X132397333Y-66825809D01*
X132397333Y-67063904D01*
X132349714Y-67159142D01*
X132302095Y-67206761D01*
X132206857Y-67254380D01*
X131968761Y-67254380D01*
X131873523Y-67206761D01*
X131825904Y-67159142D01*
%TO.C,SW2*%
X99464761Y-135953333D02*
X99512380Y-135810476D01*
X99512380Y-135572380D01*
X99464761Y-135477142D01*
X99417142Y-135429523D01*
X99321904Y-135381904D01*
X99226666Y-135381904D01*
X99131428Y-135429523D01*
X99083809Y-135477142D01*
X99036190Y-135572380D01*
X98988571Y-135762857D01*
X98940952Y-135858095D01*
X98893333Y-135905714D01*
X98798095Y-135953333D01*
X98702857Y-135953333D01*
X98607619Y-135905714D01*
X98560000Y-135858095D01*
X98512380Y-135762857D01*
X98512380Y-135524761D01*
X98560000Y-135381904D01*
X98512380Y-135048571D02*
X99512380Y-134810476D01*
X98798095Y-134620000D01*
X99512380Y-134429523D01*
X98512380Y-134191428D01*
X98607619Y-133858095D02*
X98560000Y-133810476D01*
X98512380Y-133715238D01*
X98512380Y-133477142D01*
X98560000Y-133381904D01*
X98607619Y-133334285D01*
X98702857Y-133286666D01*
X98798095Y-133286666D01*
X98940952Y-133334285D01*
X99512380Y-133905714D01*
X99512380Y-133286666D01*
%TO.C,SW1*%
X107084761Y-135953333D02*
X107132380Y-135810476D01*
X107132380Y-135572380D01*
X107084761Y-135477142D01*
X107037142Y-135429523D01*
X106941904Y-135381904D01*
X106846666Y-135381904D01*
X106751428Y-135429523D01*
X106703809Y-135477142D01*
X106656190Y-135572380D01*
X106608571Y-135762857D01*
X106560952Y-135858095D01*
X106513333Y-135905714D01*
X106418095Y-135953333D01*
X106322857Y-135953333D01*
X106227619Y-135905714D01*
X106180000Y-135858095D01*
X106132380Y-135762857D01*
X106132380Y-135524761D01*
X106180000Y-135381904D01*
X106132380Y-135048571D02*
X107132380Y-134810476D01*
X106418095Y-134620000D01*
X107132380Y-134429523D01*
X106132380Y-134191428D01*
X107132380Y-133286666D02*
X107132380Y-133858095D01*
X107132380Y-133572380D02*
X106132380Y-133572380D01*
X106275238Y-133667619D01*
X106370476Y-133762857D01*
X106418095Y-133858095D01*
%TO.C,SW11*%
X151768476Y-112212761D02*
X151911333Y-112260380D01*
X152149428Y-112260380D01*
X152244666Y-112212761D01*
X152292285Y-112165142D01*
X152339904Y-112069904D01*
X152339904Y-111974666D01*
X152292285Y-111879428D01*
X152244666Y-111831809D01*
X152149428Y-111784190D01*
X151958952Y-111736571D01*
X151863714Y-111688952D01*
X151816095Y-111641333D01*
X151768476Y-111546095D01*
X151768476Y-111450857D01*
X151816095Y-111355619D01*
X151863714Y-111308000D01*
X151958952Y-111260380D01*
X152197047Y-111260380D01*
X152339904Y-111308000D01*
X152673238Y-111260380D02*
X152911333Y-112260380D01*
X153101809Y-111546095D01*
X153292285Y-112260380D01*
X153530380Y-111260380D01*
X154435142Y-112260380D02*
X153863714Y-112260380D01*
X154149428Y-112260380D02*
X154149428Y-111260380D01*
X154054190Y-111403238D01*
X153958952Y-111498476D01*
X153863714Y-111546095D01*
X155387523Y-112260380D02*
X154816095Y-112260380D01*
X155101809Y-112260380D02*
X155101809Y-111260380D01*
X155006571Y-111403238D01*
X154911333Y-111498476D01*
X154816095Y-111546095D01*
%TO.C,SW8*%
X101536666Y-112164761D02*
X101679523Y-112212380D01*
X101917619Y-112212380D01*
X102012857Y-112164761D01*
X102060476Y-112117142D01*
X102108095Y-112021904D01*
X102108095Y-111926666D01*
X102060476Y-111831428D01*
X102012857Y-111783809D01*
X101917619Y-111736190D01*
X101727142Y-111688571D01*
X101631904Y-111640952D01*
X101584285Y-111593333D01*
X101536666Y-111498095D01*
X101536666Y-111402857D01*
X101584285Y-111307619D01*
X101631904Y-111260000D01*
X101727142Y-111212380D01*
X101965238Y-111212380D01*
X102108095Y-111260000D01*
X102441428Y-111212380D02*
X102679523Y-112212380D01*
X102870000Y-111498095D01*
X103060476Y-112212380D01*
X103298571Y-111212380D01*
X103822380Y-111640952D02*
X103727142Y-111593333D01*
X103679523Y-111545714D01*
X103631904Y-111450476D01*
X103631904Y-111402857D01*
X103679523Y-111307619D01*
X103727142Y-111260000D01*
X103822380Y-111212380D01*
X104012857Y-111212380D01*
X104108095Y-111260000D01*
X104155714Y-111307619D01*
X104203333Y-111402857D01*
X104203333Y-111450476D01*
X104155714Y-111545714D01*
X104108095Y-111593333D01*
X104012857Y-111640952D01*
X103822380Y-111640952D01*
X103727142Y-111688571D01*
X103679523Y-111736190D01*
X103631904Y-111831428D01*
X103631904Y-112021904D01*
X103679523Y-112117142D01*
X103727142Y-112164761D01*
X103822380Y-112212380D01*
X104012857Y-112212380D01*
X104108095Y-112164761D01*
X104155714Y-112117142D01*
X104203333Y-112021904D01*
X104203333Y-111831428D01*
X104155714Y-111736190D01*
X104108095Y-111688571D01*
X104012857Y-111640952D01*
%TO.C,SW6*%
X157416666Y-66544761D02*
X157559523Y-66592380D01*
X157797619Y-66592380D01*
X157892857Y-66544761D01*
X157940476Y-66497142D01*
X157988095Y-66401904D01*
X157988095Y-66306666D01*
X157940476Y-66211428D01*
X157892857Y-66163809D01*
X157797619Y-66116190D01*
X157607142Y-66068571D01*
X157511904Y-66020952D01*
X157464285Y-65973333D01*
X157416666Y-65878095D01*
X157416666Y-65782857D01*
X157464285Y-65687619D01*
X157511904Y-65640000D01*
X157607142Y-65592380D01*
X157845238Y-65592380D01*
X157988095Y-65640000D01*
X158321428Y-65592380D02*
X158559523Y-66592380D01*
X158750000Y-65878095D01*
X158940476Y-66592380D01*
X159178571Y-65592380D01*
X159988095Y-65592380D02*
X159797619Y-65592380D01*
X159702380Y-65640000D01*
X159654761Y-65687619D01*
X159559523Y-65830476D01*
X159511904Y-66020952D01*
X159511904Y-66401904D01*
X159559523Y-66497142D01*
X159607142Y-66544761D01*
X159702380Y-66592380D01*
X159892857Y-66592380D01*
X159988095Y-66544761D01*
X160035714Y-66497142D01*
X160083333Y-66401904D01*
X160083333Y-66163809D01*
X160035714Y-66068571D01*
X159988095Y-66020952D01*
X159892857Y-65973333D01*
X159702380Y-65973333D01*
X159607142Y-66020952D01*
X159559523Y-66068571D01*
X159511904Y-66163809D01*
%TO.C,J1*%
X145002380Y-134953333D02*
X145716666Y-134953333D01*
X145859523Y-135000952D01*
X145954761Y-135096190D01*
X146002380Y-135239047D01*
X146002380Y-135334285D01*
X146002380Y-133953333D02*
X146002380Y-134524761D01*
X146002380Y-134239047D02*
X145002380Y-134239047D01*
X145145238Y-134334285D01*
X145240476Y-134429523D01*
X145288095Y-134524761D01*
%TO.C,RV2*%
X140404761Y-89202380D02*
X140071428Y-88726190D01*
X139833333Y-89202380D02*
X139833333Y-88202380D01*
X140214285Y-88202380D01*
X140309523Y-88250000D01*
X140357142Y-88297619D01*
X140404761Y-88392857D01*
X140404761Y-88535714D01*
X140357142Y-88630952D01*
X140309523Y-88678571D01*
X140214285Y-88726190D01*
X139833333Y-88726190D01*
X140690476Y-88202380D02*
X141023809Y-89202380D01*
X141357142Y-88202380D01*
X141642857Y-88297619D02*
X141690476Y-88250000D01*
X141785714Y-88202380D01*
X142023809Y-88202380D01*
X142119047Y-88250000D01*
X142166666Y-88297619D01*
X142214285Y-88392857D01*
X142214285Y-88488095D01*
X142166666Y-88630952D01*
X141595238Y-89202380D01*
X142214285Y-89202380D01*
%TO.C,SW7*%
X101536666Y-61872761D02*
X101679523Y-61920380D01*
X101917619Y-61920380D01*
X102012857Y-61872761D01*
X102060476Y-61825142D01*
X102108095Y-61729904D01*
X102108095Y-61634666D01*
X102060476Y-61539428D01*
X102012857Y-61491809D01*
X101917619Y-61444190D01*
X101727142Y-61396571D01*
X101631904Y-61348952D01*
X101584285Y-61301333D01*
X101536666Y-61206095D01*
X101536666Y-61110857D01*
X101584285Y-61015619D01*
X101631904Y-60968000D01*
X101727142Y-60920380D01*
X101965238Y-60920380D01*
X102108095Y-60968000D01*
X102441428Y-60920380D02*
X102679523Y-61920380D01*
X102870000Y-61206095D01*
X103060476Y-61920380D01*
X103298571Y-60920380D01*
X103584285Y-60920380D02*
X104250952Y-60920380D01*
X103822380Y-61920380D01*
%TO.C,SW13*%
X160070476Y-112174761D02*
X160213333Y-112222380D01*
X160451428Y-112222380D01*
X160546666Y-112174761D01*
X160594285Y-112127142D01*
X160641904Y-112031904D01*
X160641904Y-111936666D01*
X160594285Y-111841428D01*
X160546666Y-111793809D01*
X160451428Y-111746190D01*
X160260952Y-111698571D01*
X160165714Y-111650952D01*
X160118095Y-111603333D01*
X160070476Y-111508095D01*
X160070476Y-111412857D01*
X160118095Y-111317619D01*
X160165714Y-111270000D01*
X160260952Y-111222380D01*
X160499047Y-111222380D01*
X160641904Y-111270000D01*
X160975238Y-111222380D02*
X161213333Y-112222380D01*
X161403809Y-111508095D01*
X161594285Y-112222380D01*
X161832380Y-111222380D01*
X162737142Y-112222380D02*
X162165714Y-112222380D01*
X162451428Y-112222380D02*
X162451428Y-111222380D01*
X162356190Y-111365238D01*
X162260952Y-111460476D01*
X162165714Y-111508095D01*
X163070476Y-111222380D02*
X163689523Y-111222380D01*
X163356190Y-111603333D01*
X163499047Y-111603333D01*
X163594285Y-111650952D01*
X163641904Y-111698571D01*
X163689523Y-111793809D01*
X163689523Y-112031904D01*
X163641904Y-112127142D01*
X163594285Y-112174761D01*
X163499047Y-112222380D01*
X163213333Y-112222380D01*
X163118095Y-112174761D01*
X163070476Y-112127142D01*
%TO.C,SW14*%
X125950476Y-112174761D02*
X126093333Y-112222380D01*
X126331428Y-112222380D01*
X126426666Y-112174761D01*
X126474285Y-112127142D01*
X126521904Y-112031904D01*
X126521904Y-111936666D01*
X126474285Y-111841428D01*
X126426666Y-111793809D01*
X126331428Y-111746190D01*
X126140952Y-111698571D01*
X126045714Y-111650952D01*
X125998095Y-111603333D01*
X125950476Y-111508095D01*
X125950476Y-111412857D01*
X125998095Y-111317619D01*
X126045714Y-111270000D01*
X126140952Y-111222380D01*
X126379047Y-111222380D01*
X126521904Y-111270000D01*
X126855238Y-111222380D02*
X127093333Y-112222380D01*
X127283809Y-111508095D01*
X127474285Y-112222380D01*
X127712380Y-111222380D01*
X128617142Y-112222380D02*
X128045714Y-112222380D01*
X128331428Y-112222380D02*
X128331428Y-111222380D01*
X128236190Y-111365238D01*
X128140952Y-111460476D01*
X128045714Y-111508095D01*
X129474285Y-111555714D02*
X129474285Y-112222380D01*
X129236190Y-111174761D02*
X128998095Y-111889047D01*
X129617142Y-111889047D01*
%TO.C,SW12*%
X134424476Y-112156761D02*
X134567333Y-112204380D01*
X134805428Y-112204380D01*
X134900666Y-112156761D01*
X134948285Y-112109142D01*
X134995904Y-112013904D01*
X134995904Y-111918666D01*
X134948285Y-111823428D01*
X134900666Y-111775809D01*
X134805428Y-111728190D01*
X134614952Y-111680571D01*
X134519714Y-111632952D01*
X134472095Y-111585333D01*
X134424476Y-111490095D01*
X134424476Y-111394857D01*
X134472095Y-111299619D01*
X134519714Y-111252000D01*
X134614952Y-111204380D01*
X134853047Y-111204380D01*
X134995904Y-111252000D01*
X135329238Y-111204380D02*
X135567333Y-112204380D01*
X135757809Y-111490095D01*
X135948285Y-112204380D01*
X136186380Y-111204380D01*
X137091142Y-112204380D02*
X136519714Y-112204380D01*
X136805428Y-112204380D02*
X136805428Y-111204380D01*
X136710190Y-111347238D01*
X136614952Y-111442476D01*
X136519714Y-111490095D01*
X137472095Y-111299619D02*
X137519714Y-111252000D01*
X137614952Y-111204380D01*
X137853047Y-111204380D01*
X137948285Y-111252000D01*
X137995904Y-111299619D01*
X138043523Y-111394857D01*
X138043523Y-111490095D01*
X137995904Y-111632952D01*
X137424476Y-112204380D01*
X138043523Y-112204380D01*
%TO.C,RV1*%
X102274761Y-86558380D02*
X101941428Y-86082190D01*
X101703333Y-86558380D02*
X101703333Y-85558380D01*
X102084285Y-85558380D01*
X102179523Y-85606000D01*
X102227142Y-85653619D01*
X102274761Y-85748857D01*
X102274761Y-85891714D01*
X102227142Y-85986952D01*
X102179523Y-86034571D01*
X102084285Y-86082190D01*
X101703333Y-86082190D01*
X102560476Y-85558380D02*
X102893809Y-86558380D01*
X103227142Y-85558380D01*
X104084285Y-86558380D02*
X103512857Y-86558380D01*
X103798571Y-86558380D02*
X103798571Y-85558380D01*
X103703333Y-85701238D01*
X103608095Y-85796476D01*
X103512857Y-85844095D01*
D11*
%TO.C,SW10*%
X148390000Y-108240000D02*
X148390000Y-106740000D01*
X142640000Y-110740000D02*
X147140000Y-110740000D01*
X147140000Y-104240000D02*
X142640000Y-104240000D01*
X141390000Y-106740000D02*
X141390000Y-108240000D01*
%TO.C,SW9*%
X142620000Y-118380000D02*
X147120000Y-118380000D01*
X141370000Y-114380000D02*
X141370000Y-115880000D01*
X147120000Y-111880000D02*
X142620000Y-111880000D01*
X148370000Y-115880000D02*
X148370000Y-114380000D01*
%TO.C,SW5*%
X136870000Y-56790000D02*
X125070000Y-56790000D01*
X135070000Y-55690000D02*
X134770000Y-55390000D01*
X136870000Y-64890000D02*
X136870000Y-68990000D01*
X136870000Y-68990000D02*
X134470000Y-68990000D01*
X125070000Y-68990000D02*
X125070000Y-64890000D01*
X127470000Y-68990000D02*
X125070000Y-68990000D01*
X125070000Y-60890000D02*
X125070000Y-56790000D01*
X131470000Y-62890000D02*
X130470000Y-62890000D01*
X130970000Y-62390000D02*
X130970000Y-63390000D01*
X135070000Y-55090000D02*
X135070000Y-55690000D01*
X132270000Y-68990000D02*
X129670000Y-68990000D01*
X134770000Y-55390000D02*
X135070000Y-55090000D01*
X136870000Y-60890000D02*
X136870000Y-56790000D01*
X133970000Y-62890000D02*
G75*
G03*
X133970000Y-62890000I-3000000J0D01*
G01*
%TO.C,SW2*%
X95810000Y-132370000D02*
X95810000Y-136870000D01*
X102310000Y-136870000D02*
X102310000Y-132370000D01*
X98310000Y-138120000D02*
X99810000Y-138120000D01*
X99810000Y-131120000D02*
X98310000Y-131120000D01*
%TO.C,M10*%
X151130000Y-104140000D02*
X151130000Y-119380000D01*
X166370000Y-119380000D02*
X151130000Y-119380000D01*
X166370000Y-104140000D02*
X151130000Y-104140000D01*
X166370000Y-104140000D02*
X166370000Y-119380000D01*
%TO.C,SW1*%
X103430000Y-132370000D02*
X103430000Y-136870000D01*
X107430000Y-131120000D02*
X105930000Y-131120000D01*
X109930000Y-136870000D02*
X109930000Y-132370000D01*
X105930000Y-138120000D02*
X107430000Y-138120000D01*
%TO.C,SW11*%
X154300000Y-108320000D02*
X152800000Y-108320000D01*
X152800000Y-115320000D02*
X154300000Y-115320000D01*
X156800000Y-114070000D02*
X156800000Y-109570000D01*
X150300000Y-109570000D02*
X150300000Y-114070000D01*
%TO.C,M7*%
X110490000Y-58420000D02*
X110490000Y-73660000D01*
X110490000Y-73660000D02*
X95250000Y-73660000D01*
X110490000Y-58420000D02*
X95250000Y-58420000D01*
X95250000Y-58420000D02*
X95250000Y-73660000D01*
%TO.C,M4*%
X138430000Y-73660000D02*
X123190000Y-73660000D01*
X138430000Y-58420000D02*
X138430000Y-73660000D01*
X138430000Y-58420000D02*
X123190000Y-58420000D01*
X123190000Y-58420000D02*
X123190000Y-73660000D01*
%TO.C,M8*%
X166370000Y-73660000D02*
X151130000Y-73660000D01*
X151130000Y-58420000D02*
X151130000Y-73660000D01*
X166370000Y-58420000D02*
X166370000Y-73660000D01*
X166370000Y-58420000D02*
X151130000Y-58420000D01*
%TO.C,M6*%
X138430000Y-104140000D02*
X123190000Y-104140000D01*
X138430000Y-104140000D02*
X138430000Y-119380000D01*
X123190000Y-104140000D02*
X123190000Y-119380000D01*
X138430000Y-119380000D02*
X123190000Y-119380000D01*
%TO.C,M12*%
X151130000Y-127000000D02*
X151130000Y-142240000D01*
X166370000Y-142240000D02*
X151130000Y-142240000D01*
X166370000Y-127000000D02*
X151130000Y-127000000D01*
X166370000Y-127000000D02*
X166370000Y-142240000D01*
%TO.C,SW8*%
X106370000Y-112510000D02*
X106370000Y-111010000D01*
X99370000Y-111010000D02*
X99370000Y-112510000D01*
X105120000Y-108510000D02*
X100620000Y-108510000D01*
X100620000Y-115010000D02*
X105120000Y-115010000D01*
%TO.C,M11*%
X110490000Y-104140000D02*
X95250000Y-104140000D01*
X110490000Y-119380000D02*
X95250000Y-119380000D01*
X110490000Y-104140000D02*
X110490000Y-119380000D01*
X95250000Y-104140000D02*
X95250000Y-119380000D01*
%TO.C,SW6*%
X163847500Y-70837500D02*
X163847500Y-61397500D01*
X154557500Y-61147500D02*
X153557500Y-61147500D01*
X160427500Y-64417500D02*
X157127500Y-64417500D01*
X163847500Y-61397500D02*
X153807500Y-61397500D01*
X153557500Y-62147500D02*
X153557500Y-61147500D01*
X153807500Y-70837500D02*
X153807500Y-61397500D01*
X157127500Y-64417500D02*
X157127500Y-67717500D01*
X163847500Y-70837500D02*
X153807500Y-70837500D01*
X160427500Y-67717500D02*
X157127500Y-67717500D01*
X160427500Y-64417500D02*
X160427500Y-67717500D01*
%TO.C,M3*%
X110490000Y-127000000D02*
X95250000Y-127000000D01*
X110490000Y-142240000D02*
X95250000Y-142240000D01*
X95250000Y-127000000D02*
X95250000Y-142240000D01*
X110490000Y-127000000D02*
X110490000Y-142240000D01*
%TO.C,M2*%
X123190000Y-127000000D02*
X123190000Y-142240000D01*
X138430000Y-142240000D02*
X123190000Y-142240000D01*
X138430000Y-127000000D02*
X138430000Y-142240000D01*
X138430000Y-127000000D02*
X123190000Y-127000000D01*
%TO.C,M9*%
X151130000Y-81280000D02*
X151130000Y-96520000D01*
X166370000Y-81280000D02*
X166370000Y-96520000D01*
X166370000Y-81280000D02*
X151130000Y-81280000D01*
X166370000Y-96520000D02*
X151130000Y-96520000D01*
%TO.C,M1*%
X110490000Y-81280000D02*
X95250000Y-81280000D01*
X95250000Y-81280000D02*
X95250000Y-96520000D01*
X110490000Y-96520000D02*
X95250000Y-96520000D01*
X110490000Y-81280000D02*
X110490000Y-96520000D01*
%TO.C,J1*%
X151050000Y-127620000D02*
X151050000Y-125120000D01*
X139050000Y-129620000D02*
X136550000Y-129620000D01*
X153050000Y-141620000D02*
X139050000Y-141620000D01*
X139050000Y-127620000D02*
X153050000Y-127620000D01*
X139050000Y-141620000D02*
X139050000Y-127620000D01*
X158050000Y-139120000D02*
X158050000Y-130120000D01*
X153050000Y-127620000D02*
X153050000Y-141620000D01*
X136550000Y-139620000D02*
X139050000Y-139620000D01*
X153050000Y-139120000D02*
X158050000Y-139120000D01*
X151050000Y-125120000D02*
X141050000Y-125120000D01*
X141050000Y-125120000D02*
X141050000Y-127620000D01*
X158050000Y-130120000D02*
X153050000Y-130120000D01*
X136550000Y-129620000D02*
X136550000Y-139620000D01*
%TO.C,RV2*%
X166000000Y-83750000D02*
X166000000Y-93750000D01*
X166000000Y-93750000D02*
X124500000Y-93750000D01*
X124500000Y-83750000D02*
X166000000Y-83750000D01*
X124500000Y-93750000D02*
X124500000Y-83750000D01*
%TO.C,SW7*%
X95870000Y-70040000D02*
X95870000Y-62040000D01*
X109870000Y-62040000D02*
X109870000Y-70040000D01*
X95870000Y-62040000D02*
X109870000Y-62040000D01*
X109870000Y-70040000D02*
X95870000Y-70040000D01*
%TO.C,SW13*%
X162584000Y-108208000D02*
X161084000Y-108208000D01*
X158584000Y-109458000D02*
X158584000Y-113958000D01*
X165084000Y-113958000D02*
X165084000Y-109458000D01*
X161084000Y-115208000D02*
X162584000Y-115208000D01*
%TO.C,SW14*%
X128766000Y-108260000D02*
X127266000Y-108260000D01*
X127266000Y-115260000D02*
X128766000Y-115260000D01*
X131266000Y-114010000D02*
X131266000Y-109510000D01*
X124766000Y-109510000D02*
X124766000Y-114010000D01*
%TO.C,SW12*%
X136990000Y-108230000D02*
X135490000Y-108230000D01*
X132990000Y-109480000D02*
X132990000Y-113980000D01*
X139490000Y-113980000D02*
X139490000Y-109480000D01*
X135490000Y-115230000D02*
X136990000Y-115230000D01*
%TO.C,RV1*%
X97929000Y-79810000D02*
X107970000Y-79810000D01*
X97929000Y-92050000D02*
X97929000Y-88113000D01*
X107970000Y-83746000D02*
X107970000Y-79810000D01*
X97929000Y-92050000D02*
X99250000Y-92050000D01*
X97929000Y-83746000D02*
X97929000Y-79810000D01*
X106320000Y-92050000D02*
X107970000Y-92050000D01*
X107970000Y-92050000D02*
X107970000Y-88113000D01*
X103821000Y-92050000D02*
X104580000Y-92050000D01*
X101700000Y-92050000D02*
X102080000Y-92050000D01*
%TO.C,M5*%
X123190000Y-81280000D02*
X123190000Y-96520000D01*
X138430000Y-81280000D02*
X123190000Y-81280000D01*
X138430000Y-96520000D02*
X123190000Y-96520000D01*
X138430000Y-81280000D02*
X138430000Y-96520000D01*
%TD*%
M02*
