M48
; DRILL file {KiCad (6.0.11)} date Wed Feb 22 07:37:02 2023
; FORMAT={-:-/ absolute / inch / decimal}
; #@! TF.CreationDate,2023-02-22T07:37:02-06:00
; #@! TF.GenerationSoftware,Kicad,Pcbnew,(6.0.11)
; #@! TF.FileFunction,Plated,1,2,PTH
FMAT,2
INCH
; #@! TA.AperFunction,Plated,PTH,ViaDrill
T1C0.0157
; #@! TA.AperFunction,Plated,PTH,ComponentDrill
T2C0.0300
; #@! TA.AperFunction,Plated,PTH,ComponentDrill
T3C0.0315
; #@! TA.AperFunction,Plated,PTH,ComponentDrill
T4C0.0354
; #@! TA.AperFunction,Plated,PTH,ComponentDrill
T5C0.0394
; #@! TA.AperFunction,Plated,PTH,ComponentDrill
T6C0.0433
; #@! TA.AperFunction,Plated,PTH,ComponentDrill
T7C0.0512
; #@! TA.AperFunction,Plated,PTH,ComponentDrill
T8C0.0591
; #@! TA.AperFunction,Plated,PTH,ComponentDrill
T9C0.0669
; #@! TA.AperFunction,Plated,PTH,ComponentDrill
T10C0.0709
%
G90
G05
T1
X4.9043Y-2.7413
X5.02Y-4.5595
X5.065Y-4.555
X5.2937Y-2.5362
X5.3488Y-4.2071
X6.22Y-4.2411
X6.3996Y-4.2087
T2
X3.8Y-2.35
X3.8Y-2.85
X3.8Y-3.25
X3.8Y-3.75
X3.8Y-4.15
X3.8Y-4.65
X3.8Y-5.05
X3.8Y-5.55
X4.9Y-2.35
X4.9Y-2.85
X4.9Y-3.25
X4.9Y-3.75
X4.9Y-4.15
X4.9Y-4.65
X4.9Y-5.05
X4.9Y-5.55
X6.0Y-2.35
X6.0Y-2.85
X6.0Y-3.25
X6.0Y-3.75
T3
X3.64Y-3.65
X3.64Y-3.7484
X3.68Y-2.7608
X3.68Y-2.8592
X3.68Y-5.4416
X3.68Y-5.54
X3.6808Y-4.0302
X3.6894Y-4.924
X3.71Y-2.23
X3.7792Y-4.0302
X3.9Y-2.35
X3.9Y-2.85
X3.9Y-3.25
X3.9Y-3.75
X3.9Y-4.0302
X3.9Y-4.15
X3.9Y-4.65
X3.9Y-5.05
X3.9Y-5.55
X3.9894Y-4.924
X4.0Y-2.35
X4.0Y-2.85
X4.0Y-3.25
X4.0Y-3.75
X4.0Y-4.15
X4.0Y-4.65
X4.0Y-5.05
X4.0Y-5.55
X4.01Y-2.23
X4.085Y-4.925
X4.1Y-2.23
X4.1Y-2.35
X4.1Y-2.85
X4.1Y-3.25
X4.1Y-3.75
X4.1Y-4.15
X4.1Y-4.65
X4.1Y-5.05
X4.1Y-5.55
X4.2Y-2.35
X4.2Y-2.85
X4.2Y-3.25
X4.2Y-3.75
X4.2Y-4.0302
X4.2Y-4.15
X4.2Y-4.65
X4.2Y-5.05
X4.2Y-5.55
X4.3Y-2.35
X4.3Y-2.85
X4.3Y-3.25
X4.3Y-3.75
X4.3Y-4.15
X4.3Y-4.65
X4.3Y-5.05
X4.3Y-5.55
X4.385Y-4.925
X4.4Y-2.23
X4.4161Y-2.7689
X4.4161Y-2.8673
X4.43Y-5.4408
X4.43Y-5.5392
X4.655Y-4.4901
X4.665Y-4.1999
X4.6772Y-2.411
X4.7496Y-3.1516
X4.7496Y-3.25
X4.7646Y-4.9295
X4.7646Y-5.028
X4.7815Y-2.761
X4.7815Y-2.8594
X4.805Y-4.7499
X4.815Y-3.9401
X4.8272Y-2.1512
X4.8886Y-4.9299
X4.9316Y-4.025
X5.0Y-2.35
X5.0Y-2.85
X5.0Y-3.25
X5.0Y-3.75
X5.0Y-4.15
X5.0Y-4.65
X5.0Y-5.05
X5.0Y-5.55
X5.0024Y-2.6224
X5.03Y-4.025
X5.1Y-2.35
X5.1Y-2.85
X5.1Y-3.25
X5.1Y-3.75
X5.1Y-4.15
X5.1Y-4.65
X5.1Y-5.05
X5.1Y-5.55
X5.1339Y-4.0283
X5.1461Y-2.4819
X5.1886Y-4.9299
X5.2Y-2.35
X5.2Y-2.85
X5.2Y-3.25
X5.2Y-3.75
X5.2Y-4.15
X5.2Y-4.65
X5.2Y-5.05
X5.2Y-5.55
X5.2445Y-2.4819
X5.3Y-2.35
X5.3Y-2.85
X5.3Y-3.25
X5.3Y-3.75
X5.3Y-4.15
X5.3Y-4.65
X5.3Y-5.05
X5.3Y-5.55
X5.3024Y-2.6224
X5.4Y-2.35
X5.4Y-2.85
X5.4Y-3.25
X5.4Y-3.75
X5.4339Y-4.0283
X5.4803Y-2.1488
X5.5165Y-2.7571
X5.5165Y-2.8555
X5.518Y-4.745
X5.5394Y-4.0197
X5.6164Y-4.745
X5.6303Y-2.4086
X5.6378Y-4.0197
X5.7587Y-4.0193
X5.7831Y-4.7417
X5.8571Y-4.0193
X5.88Y-2.7508
X5.88Y-2.8492
X5.8815Y-4.7417
X5.9Y-2.23
X5.9766Y-4.0248
X6.075Y-4.0248
X6.1Y-2.35
X6.1Y-2.85
X6.1Y-3.25
X6.1Y-3.75
X6.1756Y-4.9311
X6.1807Y-4.0256
X6.2Y-2.23
X6.2Y-2.35
X6.2Y-2.85
X6.2Y-3.25
X6.2Y-3.75
X6.2Y-4.15
X6.2Y-4.65
X6.2Y-5.05
X6.2Y-5.55
X6.274Y-4.9311
X6.3Y-2.23
X6.3Y-2.35
X6.3Y-2.85
X6.3Y-3.25
X6.3Y-3.75
X6.3Y-4.15
X6.3Y-4.65
X6.3Y-5.05
X6.3Y-5.55
X6.4Y-2.35
X6.4Y-2.85
X6.4Y-3.25
X6.4Y-3.75
X6.4Y-4.15
X6.4Y-4.65
X6.4Y-5.05
X6.4Y-5.55
X6.4043Y-4.9303
X6.4807Y-4.0256
X6.5Y-2.35
X6.5Y-2.85
X6.5Y-3.25
X6.5Y-3.75
X6.5Y-4.15
X6.5Y-4.65
X6.5Y-5.05
X6.5Y-5.55
X6.5028Y-4.9303
X6.595Y-3.9401
X6.6Y-2.23
X6.6Y-4.75
X6.62Y-2.7508
X6.62Y-2.8492
X6.745Y-4.1999
X6.75Y-4.4902
T4
X6.1546Y-2.4849
X6.1546Y-2.7212
X6.2531Y-2.4849
X6.2531Y-2.7212
X6.3515Y-2.4849
X6.3515Y-2.7212
T5
X3.9547Y-3.6587
X4.0531Y-3.6587
X4.1516Y-3.6587
X5.0579Y-2.1807
X5.0579Y-2.7516
X5.1563Y-2.1807
X5.2547Y-2.1807
X5.2547Y-2.7516
T6
X3.8114Y-5.172
X3.8114Y-5.428
X3.922Y-4.3114
X3.922Y-4.4886
X3.9886Y-5.172
X3.9886Y-5.428
X4.1114Y-5.172
X4.1114Y-5.428
X4.178Y-4.3114
X4.178Y-4.4886
X4.2886Y-5.172
X4.2886Y-5.428
X4.9514Y-4.272
X4.9514Y-4.528
X5.1286Y-4.272
X5.1286Y-4.528
X5.2752Y-4.2709
X5.2752Y-4.5268
X5.4524Y-4.2709
X5.4524Y-4.5268
X5.5756Y-4.4441
X5.5756Y-4.6213
X5.5764Y-4.1433
X5.5764Y-4.3205
X5.8315Y-4.4441
X5.8315Y-4.6213
X5.8323Y-4.1433
X5.8323Y-4.3205
X5.9567Y-4.2744
X5.9567Y-4.5303
X6.1339Y-4.2744
X6.1339Y-4.5303
X6.2828Y-4.27
X6.2828Y-4.5259
X6.46Y-4.27
X6.46Y-4.5259
T7
X5.0291Y-3.4201
X5.0291Y-3.5776
X5.4063Y-5.2016
X5.4063Y-5.3
X5.4063Y-5.3984
X5.6516Y-4.9563
X5.75Y-4.9563
X5.8484Y-4.9563
X5.9764Y-5.172
X5.9764Y-5.428
X6.1535Y-5.172
X6.1535Y-5.428
X6.3677Y-3.5776
T9
X5.5531Y-5.051
X5.5531Y-5.549
X5.9469Y-5.051
X5.9469Y-5.549
T8
G00X3.8531Y-2.5508
M15
G01X3.8531Y-2.6492
M16
G05
G00X4.05Y-2.5508
M15
G01X4.05Y-2.6492
M16
G05
G00X4.2469Y-2.5508
M15
G01X4.2469Y-2.6492
M16
G05
G00X4.9358Y-2.4504
M15
G01X4.9358Y-2.5016
M16
G05
G00X5.3768Y-2.4504
M15
G01X5.3768Y-2.5016
M16
G05
T10
G00X3.8799Y-3.389
M15
G01X3.8799Y-3.3772
M16
G05
G00X4.2264Y-3.389
M15
G01X4.2264Y-3.3772
M16
G05
T0
M30
