%TF.GenerationSoftware,KiCad,Pcbnew,(6.0.11)*%
%TF.CreationDate,2023-02-21T11:39:21-06:00*%
%TF.ProjectId,HIDControls,48494443-6f6e-4747-926f-6c732e6b6963,rev?*%
%TF.SameCoordinates,Original*%
%TF.FileFunction,Legend,Bot*%
%TF.FilePolarity,Positive*%
%FSLAX46Y46*%
G04 Gerber Fmt 4.6, Leading zero omitted, Abs format (unit mm)*
G04 Created by KiCad (PCBNEW (6.0.11)) date 2023-02-21 11:39:21*
%MOMM*%
%LPD*%
G01*
G04 APERTURE LIST*
%ADD10C,0.150000*%
%ADD11C,0.120000*%
G04 APERTURE END LIST*
D10*
%TO.C,C16*%
X119597142Y-70887142D02*
X119644761Y-70839523D01*
X119692380Y-70696666D01*
X119692380Y-70601428D01*
X119644761Y-70458571D01*
X119549523Y-70363333D01*
X119454285Y-70315714D01*
X119263809Y-70268095D01*
X119120952Y-70268095D01*
X118930476Y-70315714D01*
X118835238Y-70363333D01*
X118740000Y-70458571D01*
X118692380Y-70601428D01*
X118692380Y-70696666D01*
X118740000Y-70839523D01*
X118787619Y-70887142D01*
X119692380Y-71839523D02*
X119692380Y-71268095D01*
X119692380Y-71553809D02*
X118692380Y-71553809D01*
X118835238Y-71458571D01*
X118930476Y-71363333D01*
X118978095Y-71268095D01*
X118692380Y-72696666D02*
X118692380Y-72506190D01*
X118740000Y-72410952D01*
X118787619Y-72363333D01*
X118930476Y-72268095D01*
X119120952Y-72220476D01*
X119501904Y-72220476D01*
X119597142Y-72268095D01*
X119644761Y-72315714D01*
X119692380Y-72410952D01*
X119692380Y-72601428D01*
X119644761Y-72696666D01*
X119597142Y-72744285D01*
X119501904Y-72791904D01*
X119263809Y-72791904D01*
X119168571Y-72744285D01*
X119120952Y-72696666D01*
X119073333Y-72601428D01*
X119073333Y-72410952D01*
X119120952Y-72315714D01*
X119168571Y-72268095D01*
X119263809Y-72220476D01*
%TO.C,R10*%
X154312857Y-57094380D02*
X154646190Y-56618190D01*
X154884285Y-57094380D02*
X154884285Y-56094380D01*
X154503333Y-56094380D01*
X154408095Y-56142000D01*
X154360476Y-56189619D01*
X154312857Y-56284857D01*
X154312857Y-56427714D01*
X154360476Y-56522952D01*
X154408095Y-56570571D01*
X154503333Y-56618190D01*
X154884285Y-56618190D01*
X153360476Y-57094380D02*
X153931904Y-57094380D01*
X153646190Y-57094380D02*
X153646190Y-56094380D01*
X153741428Y-56237238D01*
X153836666Y-56332476D01*
X153931904Y-56380095D01*
X152741428Y-56094380D02*
X152646190Y-56094380D01*
X152550952Y-56142000D01*
X152503333Y-56189619D01*
X152455714Y-56284857D01*
X152408095Y-56475333D01*
X152408095Y-56713428D01*
X152455714Y-56903904D01*
X152503333Y-56999142D01*
X152550952Y-57046761D01*
X152646190Y-57094380D01*
X152741428Y-57094380D01*
X152836666Y-57046761D01*
X152884285Y-56999142D01*
X152931904Y-56903904D01*
X152979523Y-56713428D01*
X152979523Y-56475333D01*
X152931904Y-56284857D01*
X152884285Y-56189619D01*
X152836666Y-56142000D01*
X152741428Y-56094380D01*
%TO.C,R1*%
X107735666Y-125547380D02*
X108069000Y-125071190D01*
X108307095Y-125547380D02*
X108307095Y-124547380D01*
X107926142Y-124547380D01*
X107830904Y-124595000D01*
X107783285Y-124642619D01*
X107735666Y-124737857D01*
X107735666Y-124880714D01*
X107783285Y-124975952D01*
X107830904Y-125023571D01*
X107926142Y-125071190D01*
X108307095Y-125071190D01*
X106783285Y-125547380D02*
X107354714Y-125547380D01*
X107069000Y-125547380D02*
X107069000Y-124547380D01*
X107164238Y-124690238D01*
X107259476Y-124785476D01*
X107354714Y-124833095D01*
%TO.C,C18*%
X127154857Y-100092142D02*
X127202476Y-100139761D01*
X127345333Y-100187380D01*
X127440571Y-100187380D01*
X127583428Y-100139761D01*
X127678666Y-100044523D01*
X127726285Y-99949285D01*
X127773904Y-99758809D01*
X127773904Y-99615952D01*
X127726285Y-99425476D01*
X127678666Y-99330238D01*
X127583428Y-99235000D01*
X127440571Y-99187380D01*
X127345333Y-99187380D01*
X127202476Y-99235000D01*
X127154857Y-99282619D01*
X126202476Y-100187380D02*
X126773904Y-100187380D01*
X126488190Y-100187380D02*
X126488190Y-99187380D01*
X126583428Y-99330238D01*
X126678666Y-99425476D01*
X126773904Y-99473095D01*
X125631047Y-99615952D02*
X125726285Y-99568333D01*
X125773904Y-99520714D01*
X125821523Y-99425476D01*
X125821523Y-99377857D01*
X125773904Y-99282619D01*
X125726285Y-99235000D01*
X125631047Y-99187380D01*
X125440571Y-99187380D01*
X125345333Y-99235000D01*
X125297714Y-99282619D01*
X125250095Y-99377857D01*
X125250095Y-99425476D01*
X125297714Y-99520714D01*
X125345333Y-99568333D01*
X125440571Y-99615952D01*
X125631047Y-99615952D01*
X125726285Y-99663571D01*
X125773904Y-99711190D01*
X125821523Y-99806428D01*
X125821523Y-99996904D01*
X125773904Y-100092142D01*
X125726285Y-100139761D01*
X125631047Y-100187380D01*
X125440571Y-100187380D01*
X125345333Y-100139761D01*
X125297714Y-100092142D01*
X125250095Y-99996904D01*
X125250095Y-99806428D01*
X125297714Y-99711190D01*
X125345333Y-99663571D01*
X125440571Y-99615952D01*
%TO.C,R17*%
X170258201Y-117019902D02*
X170012475Y-116493132D01*
X170543916Y-116525031D02*
X169677890Y-116025031D01*
X169487414Y-116354945D01*
X169481034Y-116461233D01*
X169498464Y-116526282D01*
X169557133Y-116615140D01*
X169680851Y-116686569D01*
X169787139Y-116692949D01*
X169852188Y-116675519D01*
X169941047Y-116616850D01*
X170131523Y-116286935D01*
X169782011Y-117844688D02*
X170067725Y-117349817D01*
X169924868Y-117597253D02*
X169058843Y-117097253D01*
X169230180Y-117086203D01*
X169360277Y-117051343D01*
X169449136Y-116992674D01*
X168749319Y-117633364D02*
X168415986Y-118210714D01*
X169496297Y-118339560D01*
%TO.C,R6*%
X108116666Y-57094380D02*
X108450000Y-56618190D01*
X108688095Y-57094380D02*
X108688095Y-56094380D01*
X108307142Y-56094380D01*
X108211904Y-56142000D01*
X108164285Y-56189619D01*
X108116666Y-56284857D01*
X108116666Y-56427714D01*
X108164285Y-56522952D01*
X108211904Y-56570571D01*
X108307142Y-56618190D01*
X108688095Y-56618190D01*
X107259523Y-56094380D02*
X107450000Y-56094380D01*
X107545238Y-56142000D01*
X107592857Y-56189619D01*
X107688095Y-56332476D01*
X107735714Y-56522952D01*
X107735714Y-56903904D01*
X107688095Y-56999142D01*
X107640476Y-57046761D01*
X107545238Y-57094380D01*
X107354761Y-57094380D01*
X107259523Y-57046761D01*
X107211904Y-56999142D01*
X107164285Y-56903904D01*
X107164285Y-56665809D01*
X107211904Y-56570571D01*
X107259523Y-56522952D01*
X107354761Y-56475333D01*
X107545238Y-56475333D01*
X107640476Y-56522952D01*
X107688095Y-56570571D01*
X107735714Y-56665809D01*
%TO.C,R12*%
X126626857Y-125674380D02*
X126960190Y-125198190D01*
X127198285Y-125674380D02*
X127198285Y-124674380D01*
X126817333Y-124674380D01*
X126722095Y-124722000D01*
X126674476Y-124769619D01*
X126626857Y-124864857D01*
X126626857Y-125007714D01*
X126674476Y-125102952D01*
X126722095Y-125150571D01*
X126817333Y-125198190D01*
X127198285Y-125198190D01*
X125674476Y-125674380D02*
X126245904Y-125674380D01*
X125960190Y-125674380D02*
X125960190Y-124674380D01*
X126055428Y-124817238D01*
X126150666Y-124912476D01*
X126245904Y-124960095D01*
X125293523Y-124769619D02*
X125245904Y-124722000D01*
X125150666Y-124674380D01*
X124912571Y-124674380D01*
X124817333Y-124722000D01*
X124769714Y-124769619D01*
X124722095Y-124864857D01*
X124722095Y-124960095D01*
X124769714Y-125102952D01*
X125341142Y-125674380D01*
X124722095Y-125674380D01*
%TO.C,R15*%
X169480344Y-102547078D02*
X168901285Y-102496499D01*
X169194630Y-102052207D02*
X168328605Y-102552207D01*
X168519081Y-102882121D01*
X168607939Y-102940790D01*
X168672988Y-102958220D01*
X168779276Y-102951840D01*
X168902994Y-102880412D01*
X168961663Y-102791553D01*
X168979093Y-102726505D01*
X168972713Y-102620216D01*
X168782237Y-102290302D01*
X169956535Y-103371865D02*
X169670821Y-102876993D01*
X169813678Y-103124429D02*
X168947652Y-103624429D01*
X169023751Y-103470521D01*
X169058611Y-103340424D01*
X169052231Y-103234136D01*
X169542890Y-104655411D02*
X169304795Y-104243018D01*
X169693379Y-103963684D01*
X169675949Y-104028733D01*
X169682329Y-104135021D01*
X169801376Y-104341217D01*
X169890235Y-104399886D01*
X169955283Y-104417316D01*
X170061572Y-104410936D01*
X170267768Y-104291889D01*
X170326437Y-104203030D01*
X170343867Y-104137982D01*
X170337487Y-104031693D01*
X170218440Y-103825497D01*
X170129581Y-103766828D01*
X170064532Y-103749398D01*
%TO.C,C15*%
X142977142Y-70637142D02*
X143024761Y-70589523D01*
X143072380Y-70446666D01*
X143072380Y-70351428D01*
X143024761Y-70208571D01*
X142929523Y-70113333D01*
X142834285Y-70065714D01*
X142643809Y-70018095D01*
X142500952Y-70018095D01*
X142310476Y-70065714D01*
X142215238Y-70113333D01*
X142120000Y-70208571D01*
X142072380Y-70351428D01*
X142072380Y-70446666D01*
X142120000Y-70589523D01*
X142167619Y-70637142D01*
X143072380Y-71589523D02*
X143072380Y-71018095D01*
X143072380Y-71303809D02*
X142072380Y-71303809D01*
X142215238Y-71208571D01*
X142310476Y-71113333D01*
X142358095Y-71018095D01*
X142072380Y-72494285D02*
X142072380Y-72018095D01*
X142548571Y-71970476D01*
X142500952Y-72018095D01*
X142453333Y-72113333D01*
X142453333Y-72351428D01*
X142500952Y-72446666D01*
X142548571Y-72494285D01*
X142643809Y-72541904D01*
X142881904Y-72541904D01*
X142977142Y-72494285D01*
X143024761Y-72446666D01*
X143072380Y-72351428D01*
X143072380Y-72113333D01*
X143024761Y-72018095D01*
X142977142Y-71970476D01*
%TO.C,C9*%
X149010666Y-128079142D02*
X149058285Y-128126761D01*
X149201142Y-128174380D01*
X149296380Y-128174380D01*
X149439238Y-128126761D01*
X149534476Y-128031523D01*
X149582095Y-127936285D01*
X149629714Y-127745809D01*
X149629714Y-127602952D01*
X149582095Y-127412476D01*
X149534476Y-127317238D01*
X149439238Y-127222000D01*
X149296380Y-127174380D01*
X149201142Y-127174380D01*
X149058285Y-127222000D01*
X149010666Y-127269619D01*
X148534476Y-128174380D02*
X148344000Y-128174380D01*
X148248761Y-128126761D01*
X148201142Y-128079142D01*
X148105904Y-127936285D01*
X148058285Y-127745809D01*
X148058285Y-127364857D01*
X148105904Y-127269619D01*
X148153523Y-127222000D01*
X148248761Y-127174380D01*
X148439238Y-127174380D01*
X148534476Y-127222000D01*
X148582095Y-127269619D01*
X148629714Y-127364857D01*
X148629714Y-127602952D01*
X148582095Y-127698190D01*
X148534476Y-127745809D01*
X148439238Y-127793428D01*
X148248761Y-127793428D01*
X148153523Y-127745809D01*
X148105904Y-127698190D01*
X148058285Y-127602952D01*
%TO.C,C12*%
X128887142Y-62347142D02*
X128934761Y-62299523D01*
X128982380Y-62156666D01*
X128982380Y-62061428D01*
X128934761Y-61918571D01*
X128839523Y-61823333D01*
X128744285Y-61775714D01*
X128553809Y-61728095D01*
X128410952Y-61728095D01*
X128220476Y-61775714D01*
X128125238Y-61823333D01*
X128030000Y-61918571D01*
X127982380Y-62061428D01*
X127982380Y-62156666D01*
X128030000Y-62299523D01*
X128077619Y-62347142D01*
X128982380Y-63299523D02*
X128982380Y-62728095D01*
X128982380Y-63013809D02*
X127982380Y-63013809D01*
X128125238Y-62918571D01*
X128220476Y-62823333D01*
X128268095Y-62728095D01*
X128077619Y-63680476D02*
X128030000Y-63728095D01*
X127982380Y-63823333D01*
X127982380Y-64061428D01*
X128030000Y-64156666D01*
X128077619Y-64204285D01*
X128172857Y-64251904D01*
X128268095Y-64251904D01*
X128410952Y-64204285D01*
X128982380Y-63632857D01*
X128982380Y-64251904D01*
%TO.C,R18*%
X120180344Y-116597078D02*
X119601285Y-116546499D01*
X119894630Y-116102207D02*
X119028605Y-116602207D01*
X119219081Y-116932121D01*
X119307939Y-116990790D01*
X119372988Y-117008220D01*
X119479276Y-117001840D01*
X119602994Y-116930412D01*
X119661663Y-116841553D01*
X119679093Y-116776505D01*
X119672713Y-116670216D01*
X119482237Y-116340302D01*
X120656535Y-117421865D02*
X120370821Y-116926993D01*
X120513678Y-117174429D02*
X119647652Y-117674429D01*
X119723751Y-117520521D01*
X119758611Y-117390424D01*
X119752231Y-117284136D01*
X120447377Y-118202450D02*
X120358519Y-118143781D01*
X120293470Y-118126352D01*
X120187182Y-118132731D01*
X120145943Y-118156541D01*
X120087274Y-118245399D01*
X120069844Y-118310448D01*
X120076224Y-118416736D01*
X120171462Y-118581693D01*
X120260320Y-118640362D01*
X120325369Y-118657792D01*
X120431657Y-118651413D01*
X120472896Y-118627603D01*
X120531565Y-118538745D01*
X120548995Y-118473696D01*
X120542616Y-118367408D01*
X120447377Y-118202450D01*
X120440998Y-118096162D01*
X120458427Y-118031113D01*
X120517097Y-117942255D01*
X120682054Y-117847017D01*
X120788342Y-117840637D01*
X120853391Y-117858067D01*
X120942249Y-117916736D01*
X121037487Y-118081693D01*
X121043867Y-118187982D01*
X121026437Y-118253030D01*
X120967768Y-118341889D01*
X120802811Y-118437127D01*
X120696523Y-118443507D01*
X120631474Y-118426077D01*
X120542616Y-118367408D01*
%TO.C,R2*%
X97686666Y-125522380D02*
X98020000Y-125046190D01*
X98258095Y-125522380D02*
X98258095Y-124522380D01*
X97877142Y-124522380D01*
X97781904Y-124570000D01*
X97734285Y-124617619D01*
X97686666Y-124712857D01*
X97686666Y-124855714D01*
X97734285Y-124950952D01*
X97781904Y-124998571D01*
X97877142Y-125046190D01*
X98258095Y-125046190D01*
X97305714Y-124617619D02*
X97258095Y-124570000D01*
X97162857Y-124522380D01*
X96924761Y-124522380D01*
X96829523Y-124570000D01*
X96781904Y-124617619D01*
X96734285Y-124712857D01*
X96734285Y-124808095D01*
X96781904Y-124950952D01*
X97353333Y-125522380D01*
X96734285Y-125522380D01*
%TO.C,R4*%
X93087486Y-103601540D02*
X92819017Y-103085989D01*
X93351343Y-103094676D02*
X92464332Y-102632928D01*
X92288428Y-102970837D01*
X92286690Y-103077302D01*
X92306941Y-103141528D01*
X92369430Y-103227743D01*
X92496146Y-103293707D01*
X92602611Y-103295445D01*
X92666838Y-103275194D01*
X92753052Y-103212705D01*
X92928957Y-102874796D01*
X92100361Y-104054002D02*
X92691702Y-104361835D01*
X91872393Y-103666905D02*
X92615912Y-103785532D01*
X92330068Y-104334634D01*
%TO.C,R9*%
X141528703Y-57488669D02*
X140949643Y-57438090D01*
X141242988Y-56993798D02*
X140376963Y-57493798D01*
X140567439Y-57823712D01*
X140656297Y-57882381D01*
X140721346Y-57899811D01*
X140827634Y-57893431D01*
X140951352Y-57822003D01*
X141010021Y-57733144D01*
X141027451Y-57668096D01*
X141021071Y-57561807D01*
X140830595Y-57231893D01*
X141766798Y-57901063D02*
X141862036Y-58066020D01*
X141868416Y-58172308D01*
X141850986Y-58237357D01*
X141774887Y-58391264D01*
X141633739Y-58527741D01*
X141303825Y-58718217D01*
X141197537Y-58724597D01*
X141132488Y-58707167D01*
X141043630Y-58648498D01*
X140948391Y-58483541D01*
X140942012Y-58377253D01*
X140959441Y-58312204D01*
X141018111Y-58223346D01*
X141224307Y-58104298D01*
X141330595Y-58097918D01*
X141395644Y-58115348D01*
X141484502Y-58174017D01*
X141579741Y-58338975D01*
X141586120Y-58445263D01*
X141568690Y-58510311D01*
X141510021Y-58599170D01*
%TO.C,R16*%
X121109201Y-103047459D02*
X120863475Y-102520689D01*
X121394916Y-102552588D02*
X120528890Y-102052588D01*
X120338414Y-102382502D01*
X120332034Y-102488790D01*
X120349464Y-102553839D01*
X120408133Y-102642697D01*
X120531851Y-102714126D01*
X120638139Y-102720506D01*
X120703188Y-102703076D01*
X120792047Y-102644407D01*
X120982523Y-102314492D01*
X120633011Y-103872245D02*
X120918725Y-103377374D01*
X120775868Y-103624810D02*
X119909843Y-103124810D01*
X120081180Y-103113760D01*
X120211277Y-103078900D01*
X120300136Y-103020231D01*
X119338414Y-104114553D02*
X119433652Y-103949596D01*
X119522511Y-103890927D01*
X119587559Y-103873497D01*
X119758896Y-103862447D01*
X119947663Y-103916446D01*
X120277578Y-104106922D01*
X120336247Y-104195780D01*
X120353676Y-104260829D01*
X120347297Y-104367117D01*
X120252059Y-104532074D01*
X120163200Y-104590743D01*
X120098151Y-104608173D01*
X119991863Y-104601793D01*
X119785667Y-104482746D01*
X119726998Y-104393887D01*
X119709568Y-104328839D01*
X119715948Y-104222551D01*
X119811186Y-104057593D01*
X119900044Y-103998924D01*
X119965093Y-103981494D01*
X120071381Y-103987874D01*
%TO.C,C3*%
X91543142Y-71481333D02*
X91590761Y-71433714D01*
X91638380Y-71290857D01*
X91638380Y-71195619D01*
X91590761Y-71052761D01*
X91495523Y-70957523D01*
X91400285Y-70909904D01*
X91209809Y-70862285D01*
X91066952Y-70862285D01*
X90876476Y-70909904D01*
X90781238Y-70957523D01*
X90686000Y-71052761D01*
X90638380Y-71195619D01*
X90638380Y-71290857D01*
X90686000Y-71433714D01*
X90733619Y-71481333D01*
X90638380Y-71814666D02*
X90638380Y-72433714D01*
X91019333Y-72100380D01*
X91019333Y-72243238D01*
X91066952Y-72338476D01*
X91114571Y-72386095D01*
X91209809Y-72433714D01*
X91447904Y-72433714D01*
X91543142Y-72386095D01*
X91590761Y-72338476D01*
X91638380Y-72243238D01*
X91638380Y-71957523D01*
X91590761Y-71862285D01*
X91543142Y-71814666D01*
%TO.C,R8*%
X130996666Y-67082380D02*
X131330000Y-66606190D01*
X131568095Y-67082380D02*
X131568095Y-66082380D01*
X131187142Y-66082380D01*
X131091904Y-66130000D01*
X131044285Y-66177619D01*
X130996666Y-66272857D01*
X130996666Y-66415714D01*
X131044285Y-66510952D01*
X131091904Y-66558571D01*
X131187142Y-66606190D01*
X131568095Y-66606190D01*
X130425238Y-66510952D02*
X130520476Y-66463333D01*
X130568095Y-66415714D01*
X130615714Y-66320476D01*
X130615714Y-66272857D01*
X130568095Y-66177619D01*
X130520476Y-66130000D01*
X130425238Y-66082380D01*
X130234761Y-66082380D01*
X130139523Y-66130000D01*
X130091904Y-66177619D01*
X130044285Y-66272857D01*
X130044285Y-66320476D01*
X130091904Y-66415714D01*
X130139523Y-66463333D01*
X130234761Y-66510952D01*
X130425238Y-66510952D01*
X130520476Y-66558571D01*
X130568095Y-66606190D01*
X130615714Y-66701428D01*
X130615714Y-66891904D01*
X130568095Y-66987142D01*
X130520476Y-67034761D01*
X130425238Y-67082380D01*
X130234761Y-67082380D01*
X130139523Y-67034761D01*
X130091904Y-66987142D01*
X130044285Y-66891904D01*
X130044285Y-66701428D01*
X130091904Y-66606190D01*
X130139523Y-66558571D01*
X130234761Y-66510952D01*
%TO.C,C4*%
X115419142Y-71461333D02*
X115466761Y-71413714D01*
X115514380Y-71270857D01*
X115514380Y-71175619D01*
X115466761Y-71032761D01*
X115371523Y-70937523D01*
X115276285Y-70889904D01*
X115085809Y-70842285D01*
X114942952Y-70842285D01*
X114752476Y-70889904D01*
X114657238Y-70937523D01*
X114562000Y-71032761D01*
X114514380Y-71175619D01*
X114514380Y-71270857D01*
X114562000Y-71413714D01*
X114609619Y-71461333D01*
X114847714Y-72318476D02*
X115514380Y-72318476D01*
X114466761Y-72080380D02*
X115181047Y-71842285D01*
X115181047Y-72461333D01*
%TO.C,C20*%
X138329942Y-120057942D02*
X138377561Y-120010323D01*
X138425180Y-119867466D01*
X138425180Y-119772228D01*
X138377561Y-119629371D01*
X138282323Y-119534133D01*
X138187085Y-119486514D01*
X137996609Y-119438895D01*
X137853752Y-119438895D01*
X137663276Y-119486514D01*
X137568038Y-119534133D01*
X137472800Y-119629371D01*
X137425180Y-119772228D01*
X137425180Y-119867466D01*
X137472800Y-120010323D01*
X137520419Y-120057942D01*
X137520419Y-120438895D02*
X137472800Y-120486514D01*
X137425180Y-120581752D01*
X137425180Y-120819847D01*
X137472800Y-120915085D01*
X137520419Y-120962704D01*
X137615657Y-121010323D01*
X137710895Y-121010323D01*
X137853752Y-120962704D01*
X138425180Y-120391276D01*
X138425180Y-121010323D01*
X137425180Y-121629371D02*
X137425180Y-121724609D01*
X137472800Y-121819847D01*
X137520419Y-121867466D01*
X137615657Y-121915085D01*
X137806133Y-121962704D01*
X138044228Y-121962704D01*
X138234704Y-121915085D01*
X138329942Y-121867466D01*
X138377561Y-121819847D01*
X138425180Y-121724609D01*
X138425180Y-121629371D01*
X138377561Y-121534133D01*
X138329942Y-121486514D01*
X138234704Y-121438895D01*
X138044228Y-121391276D01*
X137806133Y-121391276D01*
X137615657Y-121438895D01*
X137520419Y-121486514D01*
X137472800Y-121534133D01*
X137425180Y-121629371D01*
%TO.C,C1*%
X92622666Y-97639142D02*
X92670285Y-97686761D01*
X92813142Y-97734380D01*
X92908380Y-97734380D01*
X93051238Y-97686761D01*
X93146476Y-97591523D01*
X93194095Y-97496285D01*
X93241714Y-97305809D01*
X93241714Y-97162952D01*
X93194095Y-96972476D01*
X93146476Y-96877238D01*
X93051238Y-96782000D01*
X92908380Y-96734380D01*
X92813142Y-96734380D01*
X92670285Y-96782000D01*
X92622666Y-96829619D01*
X91670285Y-97734380D02*
X92241714Y-97734380D01*
X91956000Y-97734380D02*
X91956000Y-96734380D01*
X92051238Y-96877238D01*
X92146476Y-96972476D01*
X92241714Y-97020095D01*
%TO.C,C22*%
X138212857Y-100357142D02*
X138260476Y-100404761D01*
X138403333Y-100452380D01*
X138498571Y-100452380D01*
X138641428Y-100404761D01*
X138736666Y-100309523D01*
X138784285Y-100214285D01*
X138831904Y-100023809D01*
X138831904Y-99880952D01*
X138784285Y-99690476D01*
X138736666Y-99595238D01*
X138641428Y-99500000D01*
X138498571Y-99452380D01*
X138403333Y-99452380D01*
X138260476Y-99500000D01*
X138212857Y-99547619D01*
X137831904Y-99547619D02*
X137784285Y-99500000D01*
X137689047Y-99452380D01*
X137450952Y-99452380D01*
X137355714Y-99500000D01*
X137308095Y-99547619D01*
X137260476Y-99642857D01*
X137260476Y-99738095D01*
X137308095Y-99880952D01*
X137879523Y-100452380D01*
X137260476Y-100452380D01*
X136879523Y-99547619D02*
X136831904Y-99500000D01*
X136736666Y-99452380D01*
X136498571Y-99452380D01*
X136403333Y-99500000D01*
X136355714Y-99547619D01*
X136308095Y-99642857D01*
X136308095Y-99738095D01*
X136355714Y-99880952D01*
X136927142Y-100452380D01*
X136308095Y-100452380D01*
%TO.C,C13*%
X142967142Y-139517142D02*
X143014761Y-139469523D01*
X143062380Y-139326666D01*
X143062380Y-139231428D01*
X143014761Y-139088571D01*
X142919523Y-138993333D01*
X142824285Y-138945714D01*
X142633809Y-138898095D01*
X142490952Y-138898095D01*
X142300476Y-138945714D01*
X142205238Y-138993333D01*
X142110000Y-139088571D01*
X142062380Y-139231428D01*
X142062380Y-139326666D01*
X142110000Y-139469523D01*
X142157619Y-139517142D01*
X143062380Y-140469523D02*
X143062380Y-139898095D01*
X143062380Y-140183809D02*
X142062380Y-140183809D01*
X142205238Y-140088571D01*
X142300476Y-139993333D01*
X142348095Y-139898095D01*
X142062380Y-140802857D02*
X142062380Y-141421904D01*
X142443333Y-141088571D01*
X142443333Y-141231428D01*
X142490952Y-141326666D01*
X142538571Y-141374285D01*
X142633809Y-141421904D01*
X142871904Y-141421904D01*
X142967142Y-141374285D01*
X143014761Y-141326666D01*
X143062380Y-141231428D01*
X143062380Y-140945714D01*
X143014761Y-140850476D01*
X142967142Y-140802857D01*
%TO.C,C5*%
X115165142Y-139279333D02*
X115212761Y-139231714D01*
X115260380Y-139088857D01*
X115260380Y-138993619D01*
X115212761Y-138850761D01*
X115117523Y-138755523D01*
X115022285Y-138707904D01*
X114831809Y-138660285D01*
X114688952Y-138660285D01*
X114498476Y-138707904D01*
X114403238Y-138755523D01*
X114308000Y-138850761D01*
X114260380Y-138993619D01*
X114260380Y-139088857D01*
X114308000Y-139231714D01*
X114355619Y-139279333D01*
X114260380Y-140184095D02*
X114260380Y-139707904D01*
X114736571Y-139660285D01*
X114688952Y-139707904D01*
X114641333Y-139803142D01*
X114641333Y-140041238D01*
X114688952Y-140136476D01*
X114736571Y-140184095D01*
X114831809Y-140231714D01*
X115069904Y-140231714D01*
X115165142Y-140184095D01*
X115212761Y-140136476D01*
X115260380Y-140041238D01*
X115260380Y-139803142D01*
X115212761Y-139707904D01*
X115165142Y-139660285D01*
%TO.C,R13*%
X136532857Y-125674380D02*
X136866190Y-125198190D01*
X137104285Y-125674380D02*
X137104285Y-124674380D01*
X136723333Y-124674380D01*
X136628095Y-124722000D01*
X136580476Y-124769619D01*
X136532857Y-124864857D01*
X136532857Y-125007714D01*
X136580476Y-125102952D01*
X136628095Y-125150571D01*
X136723333Y-125198190D01*
X137104285Y-125198190D01*
X135580476Y-125674380D02*
X136151904Y-125674380D01*
X135866190Y-125674380D02*
X135866190Y-124674380D01*
X135961428Y-124817238D01*
X136056666Y-124912476D01*
X136151904Y-124960095D01*
X135247142Y-124674380D02*
X134628095Y-124674380D01*
X134961428Y-125055333D01*
X134818571Y-125055333D01*
X134723333Y-125102952D01*
X134675714Y-125150571D01*
X134628095Y-125245809D01*
X134628095Y-125483904D01*
X134675714Y-125579142D01*
X134723333Y-125626761D01*
X134818571Y-125674380D01*
X135104285Y-125674380D01*
X135199523Y-125626761D01*
X135247142Y-125579142D01*
%TO.C,C11*%
X91543142Y-117213142D02*
X91590761Y-117165523D01*
X91638380Y-117022666D01*
X91638380Y-116927428D01*
X91590761Y-116784571D01*
X91495523Y-116689333D01*
X91400285Y-116641714D01*
X91209809Y-116594095D01*
X91066952Y-116594095D01*
X90876476Y-116641714D01*
X90781238Y-116689333D01*
X90686000Y-116784571D01*
X90638380Y-116927428D01*
X90638380Y-117022666D01*
X90686000Y-117165523D01*
X90733619Y-117213142D01*
X91638380Y-118165523D02*
X91638380Y-117594095D01*
X91638380Y-117879809D02*
X90638380Y-117879809D01*
X90781238Y-117784571D01*
X90876476Y-117689333D01*
X90924095Y-117594095D01*
X91638380Y-119117904D02*
X91638380Y-118546476D01*
X91638380Y-118832190D02*
X90638380Y-118832190D01*
X90781238Y-118736952D01*
X90876476Y-118641714D01*
X90924095Y-118546476D01*
%TO.C,C7*%
X171005142Y-70953333D02*
X171052761Y-70905714D01*
X171100380Y-70762857D01*
X171100380Y-70667619D01*
X171052761Y-70524761D01*
X170957523Y-70429523D01*
X170862285Y-70381904D01*
X170671809Y-70334285D01*
X170528952Y-70334285D01*
X170338476Y-70381904D01*
X170243238Y-70429523D01*
X170148000Y-70524761D01*
X170100380Y-70667619D01*
X170100380Y-70762857D01*
X170148000Y-70905714D01*
X170195619Y-70953333D01*
X170100380Y-71286666D02*
X170100380Y-71953333D01*
X171100380Y-71524761D01*
%TO.C,C17*%
X153842857Y-100337142D02*
X153890476Y-100384761D01*
X154033333Y-100432380D01*
X154128571Y-100432380D01*
X154271428Y-100384761D01*
X154366666Y-100289523D01*
X154414285Y-100194285D01*
X154461904Y-100003809D01*
X154461904Y-99860952D01*
X154414285Y-99670476D01*
X154366666Y-99575238D01*
X154271428Y-99480000D01*
X154128571Y-99432380D01*
X154033333Y-99432380D01*
X153890476Y-99480000D01*
X153842857Y-99527619D01*
X152890476Y-100432380D02*
X153461904Y-100432380D01*
X153176190Y-100432380D02*
X153176190Y-99432380D01*
X153271428Y-99575238D01*
X153366666Y-99670476D01*
X153461904Y-99718095D01*
X152557142Y-99432380D02*
X151890476Y-99432380D01*
X152319047Y-100432380D01*
%TO.C,C21*%
X146202857Y-103107142D02*
X146250476Y-103154761D01*
X146393333Y-103202380D01*
X146488571Y-103202380D01*
X146631428Y-103154761D01*
X146726666Y-103059523D01*
X146774285Y-102964285D01*
X146821904Y-102773809D01*
X146821904Y-102630952D01*
X146774285Y-102440476D01*
X146726666Y-102345238D01*
X146631428Y-102250000D01*
X146488571Y-102202380D01*
X146393333Y-102202380D01*
X146250476Y-102250000D01*
X146202857Y-102297619D01*
X145821904Y-102297619D02*
X145774285Y-102250000D01*
X145679047Y-102202380D01*
X145440952Y-102202380D01*
X145345714Y-102250000D01*
X145298095Y-102297619D01*
X145250476Y-102392857D01*
X145250476Y-102488095D01*
X145298095Y-102630952D01*
X145869523Y-103202380D01*
X145250476Y-103202380D01*
X144298095Y-103202380D02*
X144869523Y-103202380D01*
X144583809Y-103202380D02*
X144583809Y-102202380D01*
X144679047Y-102345238D01*
X144774285Y-102440476D01*
X144869523Y-102488095D01*
%TO.C,R7*%
X121258407Y-57985787D02*
X121012681Y-57459017D01*
X121544122Y-57490916D02*
X120678096Y-56990916D01*
X120487620Y-57320830D01*
X120481240Y-57427118D01*
X120498670Y-57492167D01*
X120557339Y-57581026D01*
X120681057Y-57652454D01*
X120787345Y-57658834D01*
X120852394Y-57641404D01*
X120941252Y-57582735D01*
X121131728Y-57252821D01*
X120225715Y-57774463D02*
X119892382Y-58351813D01*
X120972693Y-58480659D01*
%TO.C,C19*%
X146357142Y-119917142D02*
X146404761Y-119869523D01*
X146452380Y-119726666D01*
X146452380Y-119631428D01*
X146404761Y-119488571D01*
X146309523Y-119393333D01*
X146214285Y-119345714D01*
X146023809Y-119298095D01*
X145880952Y-119298095D01*
X145690476Y-119345714D01*
X145595238Y-119393333D01*
X145500000Y-119488571D01*
X145452380Y-119631428D01*
X145452380Y-119726666D01*
X145500000Y-119869523D01*
X145547619Y-119917142D01*
X146452380Y-120869523D02*
X146452380Y-120298095D01*
X146452380Y-120583809D02*
X145452380Y-120583809D01*
X145595238Y-120488571D01*
X145690476Y-120393333D01*
X145738095Y-120298095D01*
X146452380Y-121345714D02*
X146452380Y-121536190D01*
X146404761Y-121631428D01*
X146357142Y-121679047D01*
X146214285Y-121774285D01*
X146023809Y-121821904D01*
X145642857Y-121821904D01*
X145547619Y-121774285D01*
X145500000Y-121726666D01*
X145452380Y-121631428D01*
X145452380Y-121440952D01*
X145500000Y-121345714D01*
X145547619Y-121298095D01*
X145642857Y-121250476D01*
X145880952Y-121250476D01*
X145976190Y-121298095D01*
X146023809Y-121345714D01*
X146071428Y-121440952D01*
X146071428Y-121631428D01*
X146023809Y-121726666D01*
X145976190Y-121774285D01*
X145880952Y-121821904D01*
%TO.C,R20*%
X134881857Y-102814380D02*
X135215190Y-102338190D01*
X135453285Y-102814380D02*
X135453285Y-101814380D01*
X135072333Y-101814380D01*
X134977095Y-101862000D01*
X134929476Y-101909619D01*
X134881857Y-102004857D01*
X134881857Y-102147714D01*
X134929476Y-102242952D01*
X134977095Y-102290571D01*
X135072333Y-102338190D01*
X135453285Y-102338190D01*
X134500904Y-101909619D02*
X134453285Y-101862000D01*
X134358047Y-101814380D01*
X134119952Y-101814380D01*
X134024714Y-101862000D01*
X133977095Y-101909619D01*
X133929476Y-102004857D01*
X133929476Y-102100095D01*
X133977095Y-102242952D01*
X134548523Y-102814380D01*
X133929476Y-102814380D01*
X133310428Y-101814380D02*
X133215190Y-101814380D01*
X133119952Y-101862000D01*
X133072333Y-101909619D01*
X133024714Y-102004857D01*
X132977095Y-102195333D01*
X132977095Y-102433428D01*
X133024714Y-102623904D01*
X133072333Y-102719142D01*
X133119952Y-102766761D01*
X133215190Y-102814380D01*
X133310428Y-102814380D01*
X133405666Y-102766761D01*
X133453285Y-102719142D01*
X133500904Y-102623904D01*
X133548523Y-102433428D01*
X133548523Y-102195333D01*
X133500904Y-102004857D01*
X133453285Y-101909619D01*
X133405666Y-101862000D01*
X133310428Y-101814380D01*
%TO.C,C8*%
X147423142Y-70699333D02*
X147470761Y-70651714D01*
X147518380Y-70508857D01*
X147518380Y-70413619D01*
X147470761Y-70270761D01*
X147375523Y-70175523D01*
X147280285Y-70127904D01*
X147089809Y-70080285D01*
X146946952Y-70080285D01*
X146756476Y-70127904D01*
X146661238Y-70175523D01*
X146566000Y-70270761D01*
X146518380Y-70413619D01*
X146518380Y-70508857D01*
X146566000Y-70651714D01*
X146613619Y-70699333D01*
X146946952Y-71270761D02*
X146899333Y-71175523D01*
X146851714Y-71127904D01*
X146756476Y-71080285D01*
X146708857Y-71080285D01*
X146613619Y-71127904D01*
X146566000Y-71175523D01*
X146518380Y-71270761D01*
X146518380Y-71461238D01*
X146566000Y-71556476D01*
X146613619Y-71604095D01*
X146708857Y-71651714D01*
X146756476Y-71651714D01*
X146851714Y-71604095D01*
X146899333Y-71556476D01*
X146946952Y-71461238D01*
X146946952Y-71270761D01*
X146994571Y-71175523D01*
X147042190Y-71127904D01*
X147137428Y-71080285D01*
X147327904Y-71080285D01*
X147423142Y-71127904D01*
X147470761Y-71175523D01*
X147518380Y-71270761D01*
X147518380Y-71461238D01*
X147470761Y-71556476D01*
X147423142Y-71604095D01*
X147327904Y-71651714D01*
X147137428Y-71651714D01*
X147042190Y-71604095D01*
X146994571Y-71556476D01*
X146946952Y-71461238D01*
%TO.C,C14*%
X119229142Y-139311142D02*
X119276761Y-139263523D01*
X119324380Y-139120666D01*
X119324380Y-139025428D01*
X119276761Y-138882571D01*
X119181523Y-138787333D01*
X119086285Y-138739714D01*
X118895809Y-138692095D01*
X118752952Y-138692095D01*
X118562476Y-138739714D01*
X118467238Y-138787333D01*
X118372000Y-138882571D01*
X118324380Y-139025428D01*
X118324380Y-139120666D01*
X118372000Y-139263523D01*
X118419619Y-139311142D01*
X119324380Y-140263523D02*
X119324380Y-139692095D01*
X119324380Y-139977809D02*
X118324380Y-139977809D01*
X118467238Y-139882571D01*
X118562476Y-139787333D01*
X118610095Y-139692095D01*
X118657714Y-141120666D02*
X119324380Y-141120666D01*
X118276761Y-140882571D02*
X118991047Y-140644476D01*
X118991047Y-141263523D01*
%TO.C,C6*%
X91329142Y-139299333D02*
X91376761Y-139251714D01*
X91424380Y-139108857D01*
X91424380Y-139013619D01*
X91376761Y-138870761D01*
X91281523Y-138775523D01*
X91186285Y-138727904D01*
X90995809Y-138680285D01*
X90852952Y-138680285D01*
X90662476Y-138727904D01*
X90567238Y-138775523D01*
X90472000Y-138870761D01*
X90424380Y-139013619D01*
X90424380Y-139108857D01*
X90472000Y-139251714D01*
X90519619Y-139299333D01*
X90424380Y-140156476D02*
X90424380Y-139966000D01*
X90472000Y-139870761D01*
X90519619Y-139823142D01*
X90662476Y-139727904D01*
X90852952Y-139680285D01*
X91233904Y-139680285D01*
X91329142Y-139727904D01*
X91376761Y-139775523D01*
X91424380Y-139870761D01*
X91424380Y-140061238D01*
X91376761Y-140156476D01*
X91329142Y-140204095D01*
X91233904Y-140251714D01*
X90995809Y-140251714D01*
X90900571Y-140204095D01*
X90852952Y-140156476D01*
X90805333Y-140061238D01*
X90805333Y-139870761D01*
X90852952Y-139775523D01*
X90900571Y-139727904D01*
X90995809Y-139680285D01*
%TO.C,C10*%
X115125142Y-117487142D02*
X115172761Y-117439523D01*
X115220380Y-117296666D01*
X115220380Y-117201428D01*
X115172761Y-117058571D01*
X115077523Y-116963333D01*
X114982285Y-116915714D01*
X114791809Y-116868095D01*
X114648952Y-116868095D01*
X114458476Y-116915714D01*
X114363238Y-116963333D01*
X114268000Y-117058571D01*
X114220380Y-117201428D01*
X114220380Y-117296666D01*
X114268000Y-117439523D01*
X114315619Y-117487142D01*
X115220380Y-118439523D02*
X115220380Y-117868095D01*
X115220380Y-118153809D02*
X114220380Y-118153809D01*
X114363238Y-118058571D01*
X114458476Y-117963333D01*
X114506095Y-117868095D01*
X114220380Y-119058571D02*
X114220380Y-119153809D01*
X114268000Y-119249047D01*
X114315619Y-119296666D01*
X114410857Y-119344285D01*
X114601333Y-119391904D01*
X114839428Y-119391904D01*
X115029904Y-119344285D01*
X115125142Y-119296666D01*
X115172761Y-119249047D01*
X115220380Y-119153809D01*
X115220380Y-119058571D01*
X115172761Y-118963333D01*
X115125142Y-118915714D01*
X115029904Y-118868095D01*
X114839428Y-118820476D01*
X114601333Y-118820476D01*
X114410857Y-118868095D01*
X114315619Y-118915714D01*
X114268000Y-118963333D01*
X114220380Y-119058571D01*
%TO.C,C2*%
X123547142Y-79883333D02*
X123594761Y-79835714D01*
X123642380Y-79692857D01*
X123642380Y-79597619D01*
X123594761Y-79454761D01*
X123499523Y-79359523D01*
X123404285Y-79311904D01*
X123213809Y-79264285D01*
X123070952Y-79264285D01*
X122880476Y-79311904D01*
X122785238Y-79359523D01*
X122690000Y-79454761D01*
X122642380Y-79597619D01*
X122642380Y-79692857D01*
X122690000Y-79835714D01*
X122737619Y-79883333D01*
X122737619Y-80264285D02*
X122690000Y-80311904D01*
X122642380Y-80407142D01*
X122642380Y-80645238D01*
X122690000Y-80740476D01*
X122737619Y-80788095D01*
X122832857Y-80835714D01*
X122928095Y-80835714D01*
X123070952Y-80788095D01*
X123642380Y-80216666D01*
X123642380Y-80835714D01*
%TO.C,R19*%
X161424857Y-102814380D02*
X161758190Y-102338190D01*
X161996285Y-102814380D02*
X161996285Y-101814380D01*
X161615333Y-101814380D01*
X161520095Y-101862000D01*
X161472476Y-101909619D01*
X161424857Y-102004857D01*
X161424857Y-102147714D01*
X161472476Y-102242952D01*
X161520095Y-102290571D01*
X161615333Y-102338190D01*
X161996285Y-102338190D01*
X160472476Y-102814380D02*
X161043904Y-102814380D01*
X160758190Y-102814380D02*
X160758190Y-101814380D01*
X160853428Y-101957238D01*
X160948666Y-102052476D01*
X161043904Y-102100095D01*
X159996285Y-102814380D02*
X159805809Y-102814380D01*
X159710571Y-102766761D01*
X159662952Y-102719142D01*
X159567714Y-102576285D01*
X159520095Y-102385809D01*
X159520095Y-102004857D01*
X159567714Y-101909619D01*
X159615333Y-101862000D01*
X159710571Y-101814380D01*
X159901047Y-101814380D01*
X159996285Y-101862000D01*
X160043904Y-101909619D01*
X160091523Y-102004857D01*
X160091523Y-102242952D01*
X160043904Y-102338190D01*
X159996285Y-102385809D01*
X159901047Y-102433428D01*
X159710571Y-102433428D01*
X159615333Y-102385809D01*
X159567714Y-102338190D01*
X159520095Y-102242952D01*
%TO.C,R5*%
X98210666Y-57094380D02*
X98544000Y-56618190D01*
X98782095Y-57094380D02*
X98782095Y-56094380D01*
X98401142Y-56094380D01*
X98305904Y-56142000D01*
X98258285Y-56189619D01*
X98210666Y-56284857D01*
X98210666Y-56427714D01*
X98258285Y-56522952D01*
X98305904Y-56570571D01*
X98401142Y-56618190D01*
X98782095Y-56618190D01*
X97305904Y-56094380D02*
X97782095Y-56094380D01*
X97829714Y-56570571D01*
X97782095Y-56522952D01*
X97686857Y-56475333D01*
X97448761Y-56475333D01*
X97353523Y-56522952D01*
X97305904Y-56570571D01*
X97258285Y-56665809D01*
X97258285Y-56903904D01*
X97305904Y-56999142D01*
X97353523Y-57046761D01*
X97448761Y-57094380D01*
X97686857Y-57094380D01*
X97782095Y-57046761D01*
X97829714Y-56999142D01*
%TO.C,R3*%
X113543440Y-103069914D02*
X112964380Y-103019335D01*
X113257725Y-102575043D02*
X112391700Y-103075043D01*
X112582176Y-103404957D01*
X112671034Y-103463626D01*
X112736083Y-103481056D01*
X112842371Y-103474676D01*
X112966089Y-103403248D01*
X113024758Y-103314389D01*
X113042188Y-103249341D01*
X113035808Y-103143052D01*
X112845332Y-102813138D01*
X112844081Y-103858590D02*
X113153605Y-104394701D01*
X113316852Y-103915549D01*
X113388281Y-104039267D01*
X113477139Y-104097936D01*
X113542188Y-104115366D01*
X113648476Y-104108986D01*
X113854673Y-103989939D01*
X113913342Y-103901080D01*
X113930772Y-103836031D01*
X113924392Y-103729743D01*
X113781535Y-103482308D01*
X113692676Y-103423638D01*
X113627628Y-103406209D01*
%TO.C,R11*%
X164472857Y-57094380D02*
X164806190Y-56618190D01*
X165044285Y-57094380D02*
X165044285Y-56094380D01*
X164663333Y-56094380D01*
X164568095Y-56142000D01*
X164520476Y-56189619D01*
X164472857Y-56284857D01*
X164472857Y-56427714D01*
X164520476Y-56522952D01*
X164568095Y-56570571D01*
X164663333Y-56618190D01*
X165044285Y-56618190D01*
X163520476Y-57094380D02*
X164091904Y-57094380D01*
X163806190Y-57094380D02*
X163806190Y-56094380D01*
X163901428Y-56237238D01*
X163996666Y-56332476D01*
X164091904Y-56380095D01*
X162568095Y-57094380D02*
X163139523Y-57094380D01*
X162853809Y-57094380D02*
X162853809Y-56094380D01*
X162949047Y-56237238D01*
X163044285Y-56332476D01*
X163139523Y-56380095D01*
%TO.C,R14*%
X159392857Y-125674380D02*
X159726190Y-125198190D01*
X159964285Y-125674380D02*
X159964285Y-124674380D01*
X159583333Y-124674380D01*
X159488095Y-124722000D01*
X159440476Y-124769619D01*
X159392857Y-124864857D01*
X159392857Y-125007714D01*
X159440476Y-125102952D01*
X159488095Y-125150571D01*
X159583333Y-125198190D01*
X159964285Y-125198190D01*
X158440476Y-125674380D02*
X159011904Y-125674380D01*
X158726190Y-125674380D02*
X158726190Y-124674380D01*
X158821428Y-124817238D01*
X158916666Y-124912476D01*
X159011904Y-124960095D01*
X157583333Y-125007714D02*
X157583333Y-125674380D01*
X157821428Y-124626761D02*
X158059523Y-125341047D01*
X157440476Y-125341047D01*
D11*
%TO.C,C16*%
X120080000Y-74000000D02*
X120080000Y-68760000D01*
X122820000Y-74000000D02*
X120080000Y-74000000D01*
X122820000Y-74000000D02*
X122820000Y-68760000D01*
X122820000Y-68760000D02*
X120080000Y-68760000D01*
%TO.C,R10*%
X150400000Y-55272000D02*
X150400000Y-55602000D01*
X156940000Y-55272000D02*
X150400000Y-55272000D01*
X150400000Y-58012000D02*
X150400000Y-57682000D01*
X156940000Y-58012000D02*
X150400000Y-58012000D01*
X156940000Y-57682000D02*
X156940000Y-58012000D01*
X156940000Y-55602000D02*
X156940000Y-55272000D01*
%TO.C,R1*%
X104299000Y-126135000D02*
X104299000Y-126465000D01*
X110839000Y-123725000D02*
X110839000Y-124055000D01*
X104299000Y-124055000D02*
X104299000Y-123725000D01*
X104299000Y-126465000D02*
X110839000Y-126465000D01*
X110839000Y-126465000D02*
X110839000Y-126135000D01*
X104299000Y-123725000D02*
X110839000Y-123725000D01*
%TO.C,C18*%
X129132000Y-100865000D02*
X123892000Y-100865000D01*
X129132000Y-100865000D02*
X129132000Y-103605000D01*
X123892000Y-100865000D02*
X123892000Y-103605000D01*
X129132000Y-103605000D02*
X123892000Y-103605000D01*
%TO.C,R17*%
X168810666Y-120702346D02*
X169096455Y-120867346D01*
X169096455Y-120867346D02*
X172366455Y-115203540D01*
X167009334Y-119662346D02*
X166723545Y-119497346D01*
X172366455Y-115203540D02*
X172080666Y-115038540D01*
X169993545Y-113833540D02*
X170279334Y-113998540D01*
X166723545Y-119497346D02*
X169993545Y-113833540D01*
%TO.C,R6*%
X104680000Y-58012000D02*
X111220000Y-58012000D01*
X111220000Y-58012000D02*
X111220000Y-57682000D01*
X111220000Y-55272000D02*
X111220000Y-55602000D01*
X104680000Y-55602000D02*
X104680000Y-55272000D01*
X104680000Y-57682000D02*
X104680000Y-58012000D01*
X104680000Y-55272000D02*
X111220000Y-55272000D01*
%TO.C,R12*%
X129254000Y-126592000D02*
X122714000Y-126592000D01*
X122714000Y-126592000D02*
X122714000Y-126262000D01*
X129254000Y-126262000D02*
X129254000Y-126592000D01*
X122714000Y-123852000D02*
X122714000Y-124182000D01*
X129254000Y-123852000D02*
X122714000Y-123852000D01*
X129254000Y-124182000D02*
X129254000Y-123852000D01*
%TO.C,R15*%
X172239455Y-105524903D02*
X168969455Y-99861097D01*
X171953666Y-105689903D02*
X172239455Y-105524903D01*
X168969455Y-99861097D02*
X168683666Y-100026097D01*
X170152334Y-106729903D02*
X169866545Y-106894903D01*
X169866545Y-106894903D02*
X166596545Y-101231097D01*
X166596545Y-101231097D02*
X166882334Y-101066097D01*
%TO.C,C15*%
X141490000Y-73900000D02*
X141490000Y-68660000D01*
X141490000Y-73900000D02*
X138750000Y-73900000D01*
X141490000Y-68660000D02*
X138750000Y-68660000D01*
X138750000Y-73900000D02*
X138750000Y-68660000D01*
%TO.C,C9*%
X148002000Y-126592000D02*
X153242000Y-126592000D01*
X153242000Y-126592000D02*
X153242000Y-123852000D01*
X148002000Y-126592000D02*
X148002000Y-123852000D01*
X148002000Y-123852000D02*
X153242000Y-123852000D01*
%TO.C,C12*%
X134580000Y-61670000D02*
X134580000Y-64410000D01*
X134580000Y-64410000D02*
X129340000Y-64410000D01*
X129340000Y-61670000D02*
X129340000Y-64410000D01*
X134580000Y-61670000D02*
X129340000Y-61670000D01*
%TO.C,R18*%
X119693455Y-113831098D02*
X122963455Y-119494904D01*
X119407666Y-113996098D02*
X119693455Y-113831098D01*
X120590545Y-120864904D02*
X120876334Y-120699904D01*
X117320545Y-115201098D02*
X120590545Y-120864904D01*
X122963455Y-119494904D02*
X122677666Y-119659904D01*
X117606334Y-115036098D02*
X117320545Y-115201098D01*
%TO.C,R2*%
X94250000Y-123700000D02*
X94250000Y-124030000D01*
X100790000Y-124030000D02*
X100790000Y-123700000D01*
X94250000Y-126440000D02*
X94250000Y-126110000D01*
X100790000Y-126440000D02*
X94250000Y-126440000D01*
X100790000Y-126110000D02*
X100790000Y-126440000D01*
X100790000Y-123700000D02*
X94250000Y-123700000D01*
%TO.C,R4*%
X90176853Y-105960796D02*
X89884139Y-105808419D01*
X92903975Y-100007368D02*
X93196689Y-100159745D01*
X92021836Y-106921233D02*
X92314549Y-107073610D01*
X92314549Y-107073610D02*
X95334385Y-101272559D01*
X95334385Y-101272559D02*
X95041671Y-101120182D01*
X89884139Y-105808419D02*
X92903975Y-100007368D01*
%TO.C,R9*%
X138283545Y-55732654D02*
X141553545Y-61396460D01*
X141553545Y-61396460D02*
X141839334Y-61231460D01*
X140656455Y-54362654D02*
X143926455Y-60026460D01*
X143926455Y-60026460D02*
X143640666Y-60191460D01*
X138569334Y-55567654D02*
X138283545Y-55732654D01*
X140370666Y-54527654D02*
X140656455Y-54362654D01*
%TO.C,R16*%
X117574545Y-105524903D02*
X120844545Y-99861097D01*
X119661666Y-106729903D02*
X119947455Y-106894903D01*
X123217455Y-101231097D02*
X122931666Y-101066097D01*
X120844545Y-99861097D02*
X121130334Y-100026097D01*
X117860334Y-105689903D02*
X117574545Y-105524903D01*
X119947455Y-106894903D02*
X123217455Y-101231097D01*
%TO.C,C3*%
X92102000Y-74268000D02*
X92102000Y-69028000D01*
X94842000Y-69028000D02*
X92102000Y-69028000D01*
X94842000Y-74268000D02*
X94842000Y-69028000D01*
X94842000Y-74268000D02*
X92102000Y-74268000D01*
%TO.C,R8*%
X134140000Y-65570000D02*
X134140000Y-65240000D01*
X127600000Y-65240000D02*
X127600000Y-65570000D01*
X134140000Y-67650000D02*
X134140000Y-67980000D01*
X127600000Y-67980000D02*
X127600000Y-67650000D01*
X134140000Y-65240000D02*
X127600000Y-65240000D01*
X134140000Y-67980000D02*
X127600000Y-67980000D01*
%TO.C,C4*%
X113892000Y-74248000D02*
X113892000Y-69008000D01*
X111152000Y-74248000D02*
X111152000Y-69008000D01*
X113892000Y-74248000D02*
X111152000Y-74248000D01*
X113892000Y-69008000D02*
X111152000Y-69008000D01*
%TO.C,C20*%
X144027200Y-121893000D02*
X144027200Y-119153000D01*
X138787200Y-121893000D02*
X144027200Y-121893000D01*
X138787200Y-119153000D02*
X144027200Y-119153000D01*
X138787200Y-121893000D02*
X138787200Y-119153000D01*
%TO.C,C1*%
X91086000Y-91340000D02*
X93826000Y-91340000D01*
X93826000Y-91340000D02*
X93826000Y-96580000D01*
X91086000Y-91340000D02*
X91086000Y-96580000D01*
X91086000Y-96580000D02*
X93826000Y-96580000D01*
%TO.C,C22*%
X144620000Y-101830000D02*
X144620000Y-99090000D01*
X139380000Y-99090000D02*
X144620000Y-99090000D01*
X139380000Y-101830000D02*
X144620000Y-101830000D01*
X139380000Y-101830000D02*
X139380000Y-99090000D01*
%TO.C,C13*%
X138740000Y-142780000D02*
X138740000Y-137540000D01*
X141480000Y-142780000D02*
X138740000Y-142780000D01*
X141480000Y-137540000D02*
X138740000Y-137540000D01*
X141480000Y-142780000D02*
X141480000Y-137540000D01*
%TO.C,C5*%
X111152000Y-136826000D02*
X111152000Y-142066000D01*
X111152000Y-142066000D02*
X113892000Y-142066000D01*
X113892000Y-136826000D02*
X113892000Y-142066000D01*
X111152000Y-136826000D02*
X113892000Y-136826000D01*
%TO.C,R13*%
X132620000Y-126592000D02*
X139160000Y-126592000D01*
X132620000Y-124182000D02*
X132620000Y-123852000D01*
X139160000Y-123852000D02*
X139160000Y-124182000D01*
X132620000Y-126262000D02*
X132620000Y-126592000D01*
X139160000Y-126592000D02*
X139160000Y-126262000D01*
X132620000Y-123852000D02*
X139160000Y-123852000D01*
%TO.C,C11*%
X94842000Y-120750000D02*
X94842000Y-115510000D01*
X94842000Y-120750000D02*
X92102000Y-120750000D01*
X92102000Y-120750000D02*
X92102000Y-115510000D01*
X94842000Y-115510000D02*
X92102000Y-115510000D01*
%TO.C,C7*%
X169518000Y-73740000D02*
X166778000Y-73740000D01*
X169518000Y-73740000D02*
X169518000Y-68500000D01*
X166778000Y-73740000D02*
X166778000Y-68500000D01*
X169518000Y-68500000D02*
X166778000Y-68500000D01*
%TO.C,C17*%
X155675000Y-103605000D02*
X150435000Y-103605000D01*
X150435000Y-100865000D02*
X150435000Y-103605000D01*
X155675000Y-100865000D02*
X155675000Y-103605000D01*
X155675000Y-100865000D02*
X150435000Y-100865000D01*
%TO.C,C21*%
X150230000Y-101770000D02*
X144990000Y-101770000D01*
X150230000Y-99030000D02*
X144990000Y-99030000D01*
X144990000Y-99030000D02*
X144990000Y-101770000D01*
X150230000Y-99030000D02*
X150230000Y-101770000D01*
%TO.C,R7*%
X121439334Y-54587654D02*
X121153545Y-54422654D01*
X121153545Y-54422654D02*
X117883545Y-60086460D01*
X123240666Y-55627654D02*
X123526455Y-55792654D01*
X117883545Y-60086460D02*
X118169334Y-60251460D01*
X120256455Y-61456460D02*
X119970666Y-61291460D01*
X123526455Y-55792654D02*
X120256455Y-61456460D01*
%TO.C,C19*%
X151966600Y-119178400D02*
X146726600Y-119178400D01*
X151966600Y-121918400D02*
X146726600Y-121918400D01*
X146726600Y-119178400D02*
X146726600Y-121918400D01*
X151966600Y-119178400D02*
X151966600Y-121918400D01*
%TO.C,R20*%
X137509000Y-103732000D02*
X130969000Y-103732000D01*
X130969000Y-103732000D02*
X130969000Y-103402000D01*
X130969000Y-100992000D02*
X130969000Y-101322000D01*
X137509000Y-103402000D02*
X137509000Y-103732000D01*
X137509000Y-101322000D02*
X137509000Y-100992000D01*
X137509000Y-100992000D02*
X130969000Y-100992000D01*
%TO.C,C8*%
X147982000Y-73740000D02*
X147982000Y-68500000D01*
X150722000Y-73740000D02*
X147982000Y-73740000D01*
X150722000Y-68500000D02*
X147982000Y-68500000D01*
X150722000Y-73740000D02*
X150722000Y-68500000D01*
%TO.C,C14*%
X122782000Y-142574000D02*
X120042000Y-142574000D01*
X122782000Y-142574000D02*
X122782000Y-137334000D01*
X122782000Y-137334000D02*
X120042000Y-137334000D01*
X120042000Y-142574000D02*
X120042000Y-137334000D01*
%TO.C,C6*%
X92102000Y-136846000D02*
X94842000Y-136846000D01*
X94842000Y-136846000D02*
X94842000Y-142086000D01*
X92102000Y-136846000D02*
X92102000Y-142086000D01*
X92102000Y-142086000D02*
X94842000Y-142086000D01*
%TO.C,C10*%
X113638000Y-120750000D02*
X110898000Y-120750000D01*
X113638000Y-115510000D02*
X110898000Y-115510000D01*
X110898000Y-120750000D02*
X110898000Y-115510000D01*
X113638000Y-120750000D02*
X113638000Y-115510000D01*
%TO.C,C2*%
X119270000Y-78680000D02*
X119270000Y-83920000D01*
X122010000Y-78680000D02*
X122010000Y-83920000D01*
X119270000Y-83920000D02*
X122010000Y-83920000D01*
X119270000Y-78680000D02*
X122010000Y-78680000D01*
%TO.C,R19*%
X164052000Y-101322000D02*
X164052000Y-100992000D01*
X164052000Y-103732000D02*
X157512000Y-103732000D01*
X164052000Y-103402000D02*
X164052000Y-103732000D01*
X157512000Y-100992000D02*
X157512000Y-101322000D01*
X157512000Y-103732000D02*
X157512000Y-103402000D01*
X164052000Y-100992000D02*
X157512000Y-100992000D01*
%TO.C,R5*%
X101314000Y-57682000D02*
X101314000Y-58012000D01*
X101314000Y-55272000D02*
X94774000Y-55272000D01*
X94774000Y-55272000D02*
X94774000Y-55602000D01*
X94774000Y-58012000D02*
X94774000Y-57682000D01*
X101314000Y-55602000D02*
X101314000Y-55272000D01*
X101314000Y-58012000D02*
X94774000Y-58012000D01*
%TO.C,R3*%
X110413545Y-101293540D02*
X110699334Y-101128540D01*
X113683545Y-106957346D02*
X110413545Y-101293540D01*
X115770666Y-105752346D02*
X116056455Y-105587346D01*
X116056455Y-105587346D02*
X112786455Y-99923540D01*
X112786455Y-99923540D02*
X112500666Y-100088540D01*
X113969334Y-106792346D02*
X113683545Y-106957346D01*
%TO.C,R11*%
X167100000Y-55272000D02*
X167100000Y-55602000D01*
X160560000Y-55602000D02*
X160560000Y-55272000D01*
X167100000Y-58012000D02*
X167100000Y-57682000D01*
X160560000Y-55272000D02*
X167100000Y-55272000D01*
X160560000Y-58012000D02*
X167100000Y-58012000D01*
X160560000Y-57682000D02*
X160560000Y-58012000D01*
%TO.C,R14*%
X155480000Y-123852000D02*
X162020000Y-123852000D01*
X155480000Y-126262000D02*
X155480000Y-126592000D01*
X155480000Y-124182000D02*
X155480000Y-123852000D01*
X155480000Y-126592000D02*
X162020000Y-126592000D01*
X162020000Y-126592000D02*
X162020000Y-126262000D01*
X162020000Y-123852000D02*
X162020000Y-124182000D01*
%TD*%
M02*
