%TF.GenerationSoftware,KiCad,Pcbnew,(6.0.11)*%
%TF.CreationDate,2023-02-21T15:44:34-06:00*%
%TF.ProjectId,HIDControls,48494443-6f6e-4747-926f-6c732e6b6963,rev?*%
%TF.SameCoordinates,Original*%
%TF.FileFunction,Soldermask,Top*%
%TF.FilePolarity,Negative*%
%FSLAX46Y46*%
G04 Gerber Fmt 4.6, Leading zero omitted, Abs format (unit mm)*
G04 Created by KiCad (PCBNEW (6.0.11)) date 2023-02-21 15:44:34*
%MOMM*%
%LPD*%
G01*
G04 APERTURE LIST*
G04 Aperture macros list*
%AMRoundRect*
0 Rectangle with rounded corners*
0 $1 Rounding radius*
0 $2 $3 $4 $5 $6 $7 $8 $9 X,Y pos of 4 corners*
0 Add a 4 corners polygon primitive as box body*
4,1,4,$2,$3,$4,$5,$6,$7,$8,$9,$2,$3,0*
0 Add four circle primitives for the rounded corners*
1,1,$1+$1,$2,$3*
1,1,$1+$1,$4,$5*
1,1,$1+$1,$6,$7*
1,1,$1+$1,$8,$9*
0 Add four rect primitives between the rounded corners*
20,1,$1+$1,$2,$3,$4,$5,0*
20,1,$1+$1,$4,$5,$6,$7,0*
20,1,$1+$1,$6,$7,$8,$9,0*
20,1,$1+$1,$8,$9,$2,$3,0*%
%AMHorizOval*
0 Thick line with rounded ends*
0 $1 width*
0 $2 $3 position (X,Y) of the first rounded end (center of the circle)*
0 $4 $5 position (X,Y) of the second rounded end (center of the circle)*
0 Add line between two ends*
20,1,$1,$2,$3,$4,$5,0*
0 Add two circle primitives to create the rounded ends*
1,1,$1,$2,$3*
1,1,$1,$4,$5*%
G04 Aperture macros list end*
%ADD10C,3.500000*%
%ADD11C,1.560000*%
%ADD12C,1.524000*%
%ADD13C,1.600000*%
%ADD14O,1.600000X1.600000*%
%ADD15C,2.700000*%
%ADD16C,2.000000*%
%ADD17R,2.000000X2.000000*%
%ADD18R,2.000000X3.200000*%
%ADD19R,1.800000X1.800000*%
%ADD20C,1.800000*%
%ADD21C,2.400000*%
%ADD22RoundRect,0.625000X-0.625000X-2.375000X0.625000X-2.375000X0.625000X2.375000X-0.625000X2.375000X0*%
%ADD23RoundRect,0.750000X0.750000X-1.250000X0.750000X1.250000X-0.750000X1.250000X-0.750000X-1.250000X0*%
%ADD24HorizOval,1.600000X0.000000X0.000000X0.000000X0.000000X0*%
%ADD25HorizOval,1.600000X0.000000X0.000000X0.000000X0.000000X0*%
%ADD26HorizOval,1.600000X0.000000X0.000000X0.000000X0.000000X0*%
%ADD27HorizOval,1.600000X0.000000X0.000000X0.000000X0.000000X0*%
G04 APERTURE END LIST*
D10*
%TO.C,M10*%
X168910000Y-110490000D03*
D11*
X157480000Y-118110000D03*
X160020000Y-118110000D03*
X162560000Y-118110000D03*
X165100000Y-118110000D03*
X157480000Y-105410000D03*
X160020000Y-105410000D03*
X162560000Y-105410000D03*
X165100000Y-105410000D03*
%TD*%
D12*
%TO.C,M6*%
X124460000Y-118110000D03*
X124460000Y-105410000D03*
D11*
X134620000Y-105410000D03*
X132080000Y-105410000D03*
X127000000Y-105410000D03*
X129540000Y-105410000D03*
X134620000Y-118110000D03*
X132080000Y-118110000D03*
X129540000Y-118110000D03*
X127000000Y-118110000D03*
D10*
X120650000Y-110490000D03*
%TD*%
%TO.C,M2*%
X120650000Y-133350000D03*
D11*
X127000000Y-140970000D03*
X129540000Y-140970000D03*
X132080000Y-140970000D03*
X134620000Y-140970000D03*
X129540000Y-128270000D03*
X127000000Y-128270000D03*
X132080000Y-128270000D03*
X134620000Y-128270000D03*
D12*
X124460000Y-128270000D03*
X124460000Y-140970000D03*
%TD*%
D13*
%TO.C,R3*%
X131740000Y-125030000D03*
D14*
X124120000Y-125030000D03*
%TD*%
D13*
%TO.C,C10*%
X165220000Y-124970000D03*
X162720000Y-124970000D03*
%TD*%
%TO.C,C4*%
X121020000Y-125210000D03*
X121020000Y-127710000D03*
%TD*%
%TO.C,C3*%
X156830000Y-124980000D03*
X159330000Y-124980000D03*
%TD*%
D10*
%TO.C,M12*%
X168910000Y-133350000D03*
D11*
X157480000Y-140970000D03*
X160020000Y-140970000D03*
X162560000Y-140970000D03*
X165100000Y-140970000D03*
X157480000Y-128270000D03*
X160020000Y-128270000D03*
X162560000Y-128270000D03*
X165100000Y-128270000D03*
%TD*%
D15*
%TO.C,J1*%
X151050000Y-128295000D03*
X151050000Y-140945000D03*
X141050000Y-128295000D03*
X141050000Y-140945000D03*
D16*
X156300000Y-131370000D03*
X151800000Y-131370000D03*
X156300000Y-137870000D03*
X151800000Y-137870000D03*
X137320000Y-137120000D03*
X137320000Y-134620000D03*
X137320000Y-132120000D03*
X143550000Y-125890000D03*
X146050000Y-125890000D03*
X148550000Y-125890000D03*
%TD*%
%TO.C,SW10*%
X148140000Y-109740000D03*
X141640000Y-109740000D03*
X141640000Y-105240000D03*
X148140000Y-105240000D03*
%TD*%
%TO.C,SW9*%
X141620000Y-112880000D03*
X148120000Y-112880000D03*
X141620000Y-117380000D03*
X148120000Y-117380000D03*
%TD*%
D17*
%TO.C,SW5*%
X133470000Y-55390000D03*
D16*
X128470000Y-55390000D03*
X130970000Y-55390000D03*
D18*
X125370000Y-62890000D03*
X136570000Y-62890000D03*
D16*
X128470000Y-69890000D03*
X133470000Y-69890000D03*
%TD*%
%TO.C,SW2*%
X96810000Y-131370000D03*
X96810000Y-137870000D03*
X101310000Y-131370000D03*
X101310000Y-137870000D03*
%TD*%
%TO.C,SW1*%
X108930000Y-131370000D03*
X108930000Y-137870000D03*
X104430000Y-131370000D03*
X104430000Y-137870000D03*
%TD*%
%TO.C,SW11*%
X151300000Y-108570000D03*
X151300000Y-115070000D03*
X155800000Y-108570000D03*
X155800000Y-115070000D03*
%TD*%
D12*
%TO.C,M7*%
X96520000Y-72390000D03*
X96520000Y-59690000D03*
D11*
X109220000Y-59690000D03*
X106680000Y-59690000D03*
X104140000Y-59690000D03*
X99060000Y-59690000D03*
X101600000Y-59690000D03*
X106680000Y-72390000D03*
X109220000Y-72390000D03*
X104140000Y-72390000D03*
X101600000Y-72390000D03*
X99060000Y-72390000D03*
D10*
X113030000Y-64770000D03*
X92710000Y-64770000D03*
%TD*%
%TO.C,M4*%
X140970000Y-64770000D03*
X120650000Y-64770000D03*
D11*
X127000000Y-72390000D03*
X129540000Y-72390000D03*
X132080000Y-72390000D03*
X134620000Y-72390000D03*
X137160000Y-72390000D03*
X127000000Y-59690000D03*
X129540000Y-59690000D03*
X132080000Y-59690000D03*
X137160000Y-59690000D03*
X134620000Y-59690000D03*
D12*
X124460000Y-59690000D03*
X124460000Y-72390000D03*
%TD*%
D10*
%TO.C,M8*%
X148590000Y-64770000D03*
X168910000Y-64770000D03*
D11*
X157480000Y-72390000D03*
X154940000Y-72390000D03*
X160020000Y-72390000D03*
X165100000Y-72390000D03*
X162560000Y-72390000D03*
X157480000Y-59690000D03*
X154940000Y-59690000D03*
X160020000Y-59690000D03*
X165100000Y-59690000D03*
X162560000Y-59690000D03*
D12*
X152400000Y-59690000D03*
X152400000Y-72390000D03*
%TD*%
D16*
%TO.C,SW8*%
X99620000Y-114010000D03*
X106120000Y-114010000D03*
X106120000Y-109510000D03*
X99620000Y-109510000D03*
%TD*%
D10*
%TO.C,M11*%
X92710000Y-110490000D03*
X113030000Y-110490000D03*
D11*
X101600000Y-118110000D03*
X99060000Y-118110000D03*
X104140000Y-118110000D03*
X106680000Y-118110000D03*
X109220000Y-118110000D03*
X101600000Y-105410000D03*
X99060000Y-105410000D03*
X104140000Y-105410000D03*
X109220000Y-105410000D03*
X106680000Y-105410000D03*
D12*
X96520000Y-105410000D03*
X96520000Y-118110000D03*
%TD*%
D19*
%TO.C,SW6*%
X156327500Y-63117500D03*
D20*
X158827500Y-63117500D03*
X161327500Y-63117500D03*
X156327500Y-69117500D03*
X158827500Y-69117500D03*
X161327500Y-69117500D03*
%TD*%
D10*
%TO.C,M3*%
X113030000Y-133350000D03*
X92710000Y-133350000D03*
D11*
X101600000Y-140970000D03*
X99060000Y-140970000D03*
X104140000Y-140970000D03*
X109220000Y-140970000D03*
X106680000Y-140970000D03*
X99060000Y-128270000D03*
X101600000Y-128270000D03*
X104140000Y-128270000D03*
X106680000Y-128270000D03*
X109220000Y-128270000D03*
D12*
X96520000Y-128270000D03*
X96520000Y-140970000D03*
%TD*%
D10*
%TO.C,M9*%
X148590000Y-87630000D03*
X168910000Y-87630000D03*
D11*
X157480000Y-95250000D03*
X154940000Y-95250000D03*
X160020000Y-95250000D03*
X162560000Y-95250000D03*
X165100000Y-95250000D03*
X154940000Y-82550000D03*
X157480000Y-82550000D03*
X160020000Y-82550000D03*
X165100000Y-82550000D03*
X162560000Y-82550000D03*
D12*
X152400000Y-82550000D03*
X152400000Y-95250000D03*
%TD*%
D10*
%TO.C,M1*%
X92710000Y-87630000D03*
X113030000Y-87630000D03*
D11*
X101600000Y-95250000D03*
X99060000Y-95250000D03*
X104140000Y-95250000D03*
X109220000Y-95250000D03*
X106680000Y-95250000D03*
X101600000Y-82550000D03*
X99060000Y-82550000D03*
X104140000Y-82550000D03*
X106680000Y-82550000D03*
X109220000Y-82550000D03*
D12*
X96520000Y-82550000D03*
X96520000Y-95250000D03*
%TD*%
D21*
%TO.C,RV2*%
X127740000Y-90870000D03*
X127740000Y-86870000D03*
X161740000Y-90870000D03*
%TD*%
D22*
%TO.C,SW7*%
X107870000Y-66040000D03*
X102870000Y-66040000D03*
X97870000Y-66040000D03*
%TD*%
D16*
%TO.C,SW13*%
X164084000Y-114958000D03*
X164084000Y-108458000D03*
X159584000Y-108458000D03*
X159584000Y-114958000D03*
%TD*%
%TO.C,SW14*%
X125766000Y-115010000D03*
X125766000Y-108510000D03*
X130266000Y-115010000D03*
X130266000Y-108510000D03*
%TD*%
%TO.C,SW12*%
X138490000Y-108480000D03*
X138490000Y-114980000D03*
X133990000Y-114980000D03*
X133990000Y-108480000D03*
%TD*%
D19*
%TO.C,RV1*%
X100450000Y-92930000D03*
D20*
X102950000Y-92930000D03*
X105450000Y-92930000D03*
D23*
X107350000Y-85930000D03*
X98550000Y-85930000D03*
%TD*%
D10*
%TO.C,M5*%
X120650000Y-87630000D03*
X140970000Y-87630000D03*
D11*
X132080000Y-95250000D03*
X134620000Y-95250000D03*
X129540000Y-95250000D03*
X124460000Y-95250000D03*
X127000000Y-95250000D03*
X132080000Y-82550000D03*
X134620000Y-82550000D03*
X129540000Y-82550000D03*
X127000000Y-82550000D03*
X124460000Y-82550000D03*
D12*
X137160000Y-82550000D03*
X137160000Y-95250000D03*
%TD*%
D13*
%TO.C,C16*%
X121450000Y-72630000D03*
X121450000Y-70130000D03*
%TD*%
%TO.C,R10*%
X157480000Y-56642000D03*
D14*
X149860000Y-56642000D03*
%TD*%
D13*
%TO.C,R1*%
X103759000Y-125095000D03*
D14*
X111379000Y-125095000D03*
%TD*%
D13*
%TO.C,C18*%
X127762000Y-102235000D03*
X125262000Y-102235000D03*
%TD*%
%TO.C,R17*%
X167640000Y-120650000D03*
D24*
X171450000Y-114050886D03*
%TD*%
D14*
%TO.C,R12*%
X94234000Y-56642000D03*
D13*
X101854000Y-56642000D03*
%TD*%
%TO.C,R15*%
X171323000Y-106677557D03*
D25*
X167513000Y-100078443D03*
%TD*%
D13*
%TO.C,C15*%
X140120000Y-72530000D03*
X140120000Y-70030000D03*
%TD*%
%TO.C,C9*%
X93492000Y-102368000D03*
X95992000Y-102368000D03*
%TD*%
%TO.C,C12*%
X133210000Y-63040000D03*
X130710000Y-63040000D03*
%TD*%
%TO.C,R18*%
X118237000Y-114048444D03*
D26*
X122047000Y-120647558D03*
%TD*%
D13*
%TO.C,R2*%
X101330000Y-125070000D03*
D14*
X93710000Y-125070000D03*
%TD*%
D13*
%TO.C,R9*%
X139200000Y-54580000D03*
D26*
X143010000Y-61179114D03*
%TD*%
D13*
%TO.C,R16*%
X118491000Y-106677557D03*
D24*
X122301000Y-100078443D03*
%TD*%
D13*
%TO.C,R8*%
X134680000Y-66610000D03*
D14*
X127060000Y-66610000D03*
%TD*%
D13*
%TO.C,C20*%
X140157200Y-120523000D03*
X142657200Y-120523000D03*
%TD*%
%TO.C,C1*%
X92456000Y-92710000D03*
X92456000Y-95210000D03*
%TD*%
%TO.C,C22*%
X140700000Y-102100000D03*
X143200000Y-102100000D03*
%TD*%
%TO.C,C13*%
X112170000Y-70330000D03*
X112170000Y-72830000D03*
%TD*%
%TO.C,C5*%
X112522000Y-138196000D03*
X112522000Y-140696000D03*
%TD*%
D14*
%TO.C,R13*%
X111760000Y-56642000D03*
D13*
X104140000Y-56642000D03*
%TD*%
%TO.C,C7*%
X168148000Y-72370000D03*
X168148000Y-69870000D03*
%TD*%
%TO.C,C17*%
X154305000Y-102230000D03*
X151805000Y-102230000D03*
%TD*%
%TO.C,C21*%
X148770000Y-102090000D03*
X146270000Y-102090000D03*
%TD*%
%TO.C,R7*%
X122610000Y-54640000D03*
D27*
X118800000Y-61239114D03*
%TD*%
D13*
%TO.C,C19*%
X150596600Y-120548400D03*
X148096600Y-120548400D03*
%TD*%
%TO.C,R20*%
X138020000Y-102320000D03*
D14*
X130400000Y-102320000D03*
%TD*%
D13*
%TO.C,C8*%
X149352000Y-72370000D03*
X149352000Y-69870000D03*
%TD*%
%TO.C,C14*%
X93472000Y-70124000D03*
X93472000Y-72624000D03*
%TD*%
%TO.C,C6*%
X93472000Y-138216000D03*
X93472000Y-140716000D03*
%TD*%
%TO.C,C2*%
X120640000Y-80050000D03*
X120640000Y-82550000D03*
%TD*%
%TO.C,R19*%
X164610000Y-102250000D03*
D14*
X156990000Y-102250000D03*
%TD*%
D13*
%TO.C,R11*%
X160020000Y-56642000D03*
D14*
X167640000Y-56642000D03*
%TD*%
D13*
%TO.C,R14*%
X99060000Y-102368000D03*
D14*
X106680000Y-102368000D03*
%TD*%
M02*
